<?xml version="1.0" encoding="UTF-8"?><svg xmlns="http://www.w3.org/2000/svg" xmlns:xlink="http://www.w3.org/1999/xlink" viewBox="0 0 1200 300"><defs><style>.cls-1{fill:url(#Gradients_1);}.cls-2,.cls-3{fill:none;}.cls-3{stroke:#006837;stroke-miterlimit:10;stroke-width:10px;}.cls-4{fill:#fe938c;}.cls-5{fill:#262262;}.cls-6{opacity:.96;}</style><radialGradient id="Gradients_1" cx="601.09" cy="150.53" fx="601.09" fy="150.53" r="439.04" gradientTransform="translate(111.58) scale(.8 1)" gradientUnits="userSpaceOnUse"><stop offset="0" stop-color="#39b54a"/><stop offset=".05" stop-color="#39b54a"/><stop offset=".34" stop-color="#39b54a"/><stop offset=".75" stop-color="#2ba046"/><stop offset=".81" stop-color="#1f8d42"/><stop offset=".93" stop-color="#086b3a"/><stop offset="1" stop-color="#005f38"/></radialGradient></defs><g id="Layer_1"><rect class="cls-1" x="110.45" y=".53" width="969.19" height="300"/></g><g id="Layer_3"><g class="cls-6"><path class="cls-5" d="M196.94,78.71l877.09,2.14.28,110.32-590.93-48.08c-162.59-15.14-170.35-17.03-177.85-20.12l-45.77-18.86-62.82-25.4Z"/><line class="cls-3" x1="196.94" y1="78.71" x2="110.4" y2="78.5"/><path class="cls-3" d="M196.94,78.71l62.82,25.4,45.77,18.86c7.51,3.09,15.27,4.98,177.85,20.12l590.93,48.08-.28-110.32-877.09-2.14Z"/><line class="cls-3" x1="196.92" y1="78.7" x2="196.94" y2="78.71"/></g><rect class="cls-2" x="845.51" y="75.04" width="88.85" height="11.06"/><path class="cls-4" d="M846.34,83.26c.51.31,1.25.57,2.03.57,1.16,0,1.83-.61,1.83-1.5,0-.82-.47-1.29-1.65-1.74-1.43-.51-2.31-1.25-2.31-2.48,0-1.37,1.13-2.38,2.83-2.38.9,0,1.55.21,1.94.43l-.31.92c-.29-.16-.87-.42-1.66-.42-1.2,0-1.65.72-1.65,1.31,0,.82.53,1.22,1.74,1.69,1.48.57,2.24,1.29,2.24,2.57,0,1.35-1,2.52-3.07,2.52-.84,0-1.77-.25-2.24-.56l.29-.95Z"/><path class="cls-4" d="M854.57,76.84h-2.67v-.96h6.49v.96h-2.68v7.8h-1.14v-7.8Z"/><path class="cls-4" d="M859.37,75.99c.57-.12,1.39-.18,2.17-.18,1.21,0,1.99.22,2.54.71.44.39.69.99.69,1.66,0,1.16-.73,1.92-1.65,2.24v.04c.68.23,1.08.86,1.29,1.77.29,1.22.49,2.07.68,2.41h-1.17c-.14-.25-.34-1-.58-2.09-.26-1.21-.73-1.66-1.75-1.7h-1.07v3.8h-1.13v-8.65ZM860.5,79.98h1.16c1.21,0,1.98-.66,1.98-1.66,0-1.13-.82-1.62-2.01-1.64-.55,0-.94.05-1.12.1v3.2Z"/><path class="cls-4" d="M870.9,80.53h-3.41v3.16h3.8v.95h-4.93v-8.76h4.73v.95h-3.6v2.77h3.41v.94Z"/><path class="cls-4" d="M872.6,83.26c.51.31,1.25.57,2.03.57,1.16,0,1.83-.61,1.83-1.5,0-.82-.47-1.29-1.65-1.74-1.43-.51-2.31-1.25-2.31-2.48,0-1.37,1.13-2.38,2.83-2.38.9,0,1.55.21,1.94.43l-.31.92c-.29-.16-.87-.42-1.66-.42-1.2,0-1.65.72-1.65,1.31,0,.82.53,1.22,1.74,1.69,1.48.57,2.24,1.29,2.24,2.57,0,1.35-1,2.52-3.07,2.52-.84,0-1.77-.25-2.24-.56l.29-.95Z"/><path class="cls-4" d="M879.01,83.26c.51.31,1.25.57,2.03.57,1.16,0,1.83-.61,1.83-1.5,0-.82-.47-1.29-1.65-1.74-1.43-.51-2.31-1.25-2.31-2.48,0-1.37,1.13-2.38,2.83-2.38.9,0,1.55.21,1.94.43l-.31.92c-.29-.16-.87-.42-1.66-.42-1.2,0-1.65.72-1.65,1.31,0,.82.53,1.22,1.74,1.69,1.48.57,2.24,1.29,2.24,2.57,0,1.35-1,2.52-3.07,2.52-.84,0-1.77-.25-2.24-.56l.29-.95Z"/><path class="cls-4" d="M893.84,84.06l-5.42-9.01h10.83l-5.41,9.01Z"/><path class="cls-4" d="M904.35,83.83c.25.03.53,0,.92-.04.66-.09,1.29-.36,1.77-.82.56-.51.96-1.25,1.12-2.25h-.04c-.47.57-1.14.91-1.99.91-1.52,0-2.5-1.14-2.5-2.59,0-1.6,1.16-3,2.89-3s2.79,1.4,2.79,3.56c0,1.86-.62,3.16-1.46,3.96-.65.64-1.55,1.03-2.46,1.13-.42.06-.78.08-1.05.06v-.94ZM904.76,78.97c0,1.05.64,1.79,1.62,1.79.77,0,1.37-.38,1.66-.88.07-.1.1-.23.1-.42,0-1.44-.53-2.55-1.73-2.55-.97,0-1.66.86-1.66,2.05Z"/><path class="cls-4" d="M911.02,83.83c.25.03.53,0,.92-.04.66-.09,1.29-.36,1.77-.82.56-.51.96-1.25,1.12-2.25h-.04c-.47.57-1.14.91-1.99.91-1.52,0-2.5-1.14-2.5-2.59,0-1.6,1.16-3,2.89-3s2.79,1.4,2.79,3.56c0,1.86-.62,3.16-1.46,3.96-.65.64-1.55,1.03-2.46,1.13-.42.06-.78.08-1.05.06v-.94ZM911.43,78.97c0,1.05.64,1.79,1.62,1.79.77,0,1.37-.38,1.66-.88.07-.1.1-.23.1-.42,0-1.44-.53-2.55-1.73-2.55-.97,0-1.66.86-1.66,2.05Z"/><path class="cls-4" d="M920.83,78.56c0,1.78-.94,2.67-2.03,2.67s-1.96-.84-1.98-2.55c0-1.69.92-2.64,2.04-2.64,1.18,0,1.96.91,1.96,2.52ZM917.74,78.64c-.03,1.08.38,1.9,1.09,1.9.75,0,1.09-.81,1.09-1.92,0-1.03-.3-1.88-1.09-1.88-.71,0-1.09.84-1.09,1.91ZM918.73,84.78l4.97-8.74h.73l-4.97,8.74h-.73ZM926.33,82.06c0,1.78-.94,2.67-2.02,2.67s-1.96-.84-1.98-2.54c0-1.7.92-2.65,2.04-2.65,1.18,0,1.95.91,1.95,2.52ZM923.24,82.14c-.01,1.08.4,1.9,1.11,1.9.75,0,1.09-.81,1.09-1.92,0-1.03-.3-1.88-1.09-1.88-.71,0-1.11.84-1.11,1.91Z"/><path class="cls-4" d="M960.93,84c-.42.21-1.25.42-2.31.42-2.47,0-4.33-1.56-4.33-4.43s1.86-4.6,4.58-4.6c1.09,0,1.78.23,2.08.39l-.27.92c-.43-.21-1.04-.36-1.77-.36-2.05,0-3.42,1.31-3.42,3.61,0,2.15,1.24,3.52,3.37,3.52.69,0,1.39-.14,1.85-.36l.23.9Z"/><path class="cls-4" d="M963.82,81.53l-.91,2.76h-1.17l2.98-8.76h1.37l2.99,8.76h-1.21l-.94-2.76h-3.11ZM966.69,80.65l-.86-2.52c-.19-.57-.33-1.09-.46-1.6h-.03c-.13.52-.27,1.05-.44,1.59l-.86,2.54h2.64Z"/><path class="cls-4" d="M970.2,82.91c.51.31,1.25.57,2.03.57,1.16,0,1.83-.61,1.83-1.5,0-.82-.47-1.29-1.65-1.74-1.43-.51-2.31-1.25-2.31-2.48,0-1.36,1.13-2.38,2.83-2.38.9,0,1.55.21,1.94.43l-.31.92c-.29-.16-.87-.42-1.66-.42-1.2,0-1.65.71-1.65,1.31,0,.82.53,1.22,1.74,1.69,1.48.57,2.24,1.29,2.24,2.57,0,1.35-1,2.52-3.07,2.52-.84,0-1.77-.25-2.24-.56l.29-.95Z"/><path class="cls-4" d="M977.89,75.52v3.67h4.24v-3.67h1.14v8.76h-1.14v-4.11h-4.24v4.11h-1.13v-8.76h1.13Z"/><path class="cls-4" d="M988,75.52h4.72v.95h-3.59v2.91h3.32v.94h-3.32v3.97h-1.13v-8.76Z"/><path class="cls-4" d="M994.33,75.52h1.13v7.81h3.74v.95h-4.88v-8.76Z"/><path class="cls-4" d="M1007.44,79.81c0,3.02-1.83,4.62-4.07,4.62s-3.94-1.79-3.94-4.45c0-2.78,1.73-4.6,4.07-4.6s3.94,1.83,3.94,4.43ZM1000.64,79.96c0,1.87,1.01,3.55,2.79,3.55s2.81-1.65,2.81-3.64c0-1.74-.91-3.56-2.79-3.56s-2.81,1.73-2.81,3.65Z"/><path class="cls-4" d="M1010.34,84.29l-2.22-8.76h1.2l1.04,4.43c.26,1.09.49,2.18.65,3.03h.03c.14-.87.42-1.91.71-3.04l1.17-4.42h1.18l1.07,4.45c.25,1.04.48,2.08.61,3h.03c.18-.96.43-1.94.7-3.03l1.16-4.42h1.16l-2.48,8.76h-1.18l-1.11-4.56c-.27-1.12-.46-1.98-.57-2.86h-.03c-.16.87-.35,1.73-.68,2.86l-1.25,4.56h-1.18Z"/><path class="cls-4" d="M1028.18,74.71l5.41,9.01h-10.83l5.42-9.01Z"/><path class="cls-4" d="M1040.5,76.9h-.03l-1.47.79-.22-.87,1.85-.99h.97v8.45h-1.1v-7.38Z"/><path class="cls-4" d="M1050.3,79.97c0,2.87-1.07,4.46-2.94,4.46-1.65,0-2.77-1.55-2.79-4.34,0-2.83,1.22-4.39,2.94-4.39s2.79,1.59,2.79,4.28ZM1045.71,80.1c0,2.2.68,3.44,1.72,3.44,1.17,0,1.73-1.36,1.73-3.52s-.53-3.45-1.72-3.45c-1,0-1.73,1.22-1.73,3.52Z"/><path class="cls-4" d="M1056.97,79.97c0,2.87-1.07,4.46-2.94,4.46-1.65,0-2.77-1.55-2.79-4.34,0-2.83,1.22-4.39,2.94-4.39s2.79,1.59,2.79,4.28ZM1052.38,80.1c0,2.2.68,3.44,1.72,3.44,1.17,0,1.73-1.36,1.73-3.52s-.53-3.45-1.72-3.45c-1,0-1.73,1.22-1.73,3.52Z"/><path class="cls-4" d="M1061.83,78.22c0,1.78-.94,2.67-2.03,2.67s-1.96-.84-1.98-2.55c0-1.69.92-2.64,2.04-2.64,1.18,0,1.96.91,1.96,2.52ZM1058.74,78.29c-.03,1.08.38,1.9,1.09,1.9.75,0,1.09-.81,1.09-1.92,0-1.03-.3-1.89-1.09-1.89-.71,0-1.09.85-1.09,1.91ZM1059.73,84.43l4.97-8.74h.73l-4.97,8.74h-.73ZM1067.33,81.71c0,1.78-.94,2.67-2.02,2.67s-1.96-.84-1.98-2.54c0-1.7.92-2.65,2.04-2.65,1.18,0,1.95.91,1.95,2.52ZM1064.24,81.79c-.01,1.08.4,1.9,1.11,1.9.75,0,1.09-.81,1.09-1.92,0-1.03-.3-1.89-1.09-1.89-.71,0-1.11.85-1.11,1.91Z"/><path class="cls-4" d="M278.64,74.62c.69-.1,1.51-.18,2.41-.18,1.62,0,2.78.38,3.55,1.09.78.71,1.24,1.73,1.24,3.15s-.44,2.6-1.26,3.41c-.82.82-2.17,1.26-3.87,1.26-.81,0-1.48-.04-2.05-.1v-8.62ZM279.77,82.37c.29.05.7.06,1.14.06,2.42,0,3.73-1.35,3.73-3.72.01-2.07-1.16-3.38-3.55-3.38-.58,0-1.03.05-1.33.12v6.92Z"/><path class="cls-4" d="M291.83,79.16h-3.41v3.16h3.8v.95h-4.93v-8.76h4.73v.95h-3.6v2.77h3.41v.94Z"/><path class="cls-4" d="M293.69,74.62c.49-.1,1.27-.18,2.07-.18,1.13,0,1.86.19,2.41.64.46.34.73.86.73,1.55,0,.84-.56,1.59-1.48,1.92v.03c.83.21,1.81.9,1.81,2.2,0,.75-.3,1.33-.74,1.75-.61.56-1.6.82-3.03.82-.78,0-1.38-.05-1.75-.1v-8.62ZM294.82,78.21h1.03c1.2,0,1.9-.62,1.9-1.47,0-1.03-.78-1.43-1.92-1.43-.52,0-.82.04-1,.08v2.82ZM294.82,82.41c.22.04.55.05.95.05,1.17,0,2.25-.43,2.25-1.7,0-1.2-1.03-1.69-2.26-1.69h-.94v3.34Z"/><path class="cls-4" d="M302.28,75.46h-2.67v-.96h6.49v.96h-2.68v7.8h-1.14v-7.8Z"/><path class="cls-4" d="M315.35,82.69l-5.42-9.01h10.83l-5.41,9.01Z"/><path class="cls-4" d="M327.67,75.88h-.03l-1.47.79-.22-.87,1.85-.99h.97v8.45h-1.1v-7.38Z"/><path class="cls-4" d="M337.47,78.95c0,2.87-1.07,4.46-2.94,4.46-1.65,0-2.77-1.55-2.79-4.34,0-2.83,1.22-4.39,2.94-4.39s2.79,1.59,2.79,4.28ZM332.88,79.08c0,2.2.68,3.44,1.72,3.44,1.17,0,1.73-1.36,1.73-3.52s-.53-3.45-1.72-3.45c-1,0-1.73,1.22-1.73,3.52Z"/><path class="cls-4" d="M344.14,78.95c0,2.87-1.07,4.46-2.94,4.46-1.65,0-2.77-1.55-2.79-4.34,0-2.83,1.22-4.39,2.94-4.39s2.79,1.59,2.79,4.28ZM339.55,79.08c0,2.2.68,3.44,1.72,3.44,1.17,0,1.73-1.36,1.73-3.52s-.53-3.45-1.72-3.45c-1,0-1.73,1.22-1.73,3.52Z"/><path class="cls-4" d="M349,77.19c0,1.78-.94,2.67-2.03,2.67s-1.96-.84-1.98-2.55c0-1.69.92-2.64,2.04-2.64,1.18,0,1.96.91,1.96,2.52ZM345.91,77.27c-.03,1.08.38,1.9,1.09,1.9.75,0,1.09-.81,1.09-1.92,0-1.03-.3-1.89-1.09-1.89-.72,0-1.09.85-1.09,1.91ZM346.9,83.41l4.97-8.74h.73l-4.97,8.74h-.73ZM354.5,80.69c0,1.78-.94,2.67-2.02,2.67s-1.96-.84-1.98-2.54c0-1.7.92-2.65,2.04-2.65,1.18,0,1.95.91,1.95,2.52ZM351.41,80.77c-.01,1.08.4,1.9,1.11,1.9.75,0,1.09-.81,1.09-1.92,0-1.03-.3-1.89-1.09-1.89-.71,0-1.11.85-1.11,1.91Z"/><polygon class="cls-2" points="315.92 120.53 408.87 129.43 407.02 144.03 314.07 135.13 315.92 120.53"/><path class="cls-4" d="M321.95,130.54c-.44.16-1.29.28-2.35.16-2.46-.27-4.13-2.02-3.82-4.88.3-2.73,2.35-4.37,5.05-4.08,1.08.12,1.75.43,2.02.62l-.37.89c-.4-.25-.99-.48-1.72-.55-2.04-.22-3.54.93-3.79,3.22-.23,2.13.84,3.64,2.96,3.87.68.08,1.4,0,1.87-.16l.13.92Z"/><path class="cls-4" d="M330.99,127.32c-.33,3-2.33,4.39-4.55,4.14-2.3-.25-3.72-2.21-3.43-4.85.3-2.77,2.22-4.39,4.55-4.13,2.38.26,3.72,2.25,3.43,4.84ZM324.22,126.72c-.2,1.86.62,3.64,2.39,3.83,1.78.2,2.97-1.33,3.19-3.31.19-1.73-.52-3.64-2.39-3.85-1.86-.21-2.98,1.41-3.19,3.32Z"/><path class="cls-4" d="M339.72,128.91c.07-1.22.15-2.69.28-3.77h-.04c-.41.98-.89,2.03-1.46,3.18l-2,4.06-.85-.09-.95-4.3c-.28-1.27-.5-2.44-.64-3.5h-.03c-.15,1.08-.37,2.53-.59,3.83l-.64,3.71-1.07-.12,1.56-8.64,1.43.16,1.02,4.38c.24,1.11.44,2.1.56,3.03h.04c.31-.85.73-1.77,1.24-2.83l2.01-4.04,1.44.16-.41,8.77-1.1-.12.2-3.85Z"/><path class="cls-4" d="M343.3,124.46c.55-.03,1.27-.03,2.18.07,1.11.12,1.9.47,2.36.99.43.47.65,1.13.56,1.91-.09.79-.39,1.38-.88,1.79-.66.57-1.67.78-2.77.66-.34-.04-.65-.08-.9-.18l-.38,3.49-1.12-.12.95-8.61ZM343.96,128.78c.24.09.54.15.92.19,1.36.15,2.26-.42,2.39-1.62.13-1.15-.63-1.79-1.87-1.93-.49-.05-.87-.06-1.07-.03l-.37,3.39Z"/><path class="cls-4" d="M357.16,130.19c-.33,3-2.33,4.39-4.55,4.14-2.3-.25-3.72-2.21-3.43-4.85.3-2.77,2.22-4.39,4.55-4.13,2.38.26,3.72,2.25,3.43,4.84ZM350.38,129.59c-.2,1.86.62,3.64,2.39,3.83,1.78.2,2.97-1.33,3.19-3.31.19-1.73-.52-3.64-2.39-3.85-1.86-.2-2.98,1.41-3.19,3.33Z"/><path class="cls-4" d="M360.21,126.21l-.57,5.16c-.21,1.95.56,2.87,1.72,3,1.29.14,2.21-.62,2.42-2.55l.57-5.16,1.14.12-.56,5.08c-.29,2.68-1.82,3.62-3.71,3.41-1.78-.2-3.02-1.37-2.72-4.07l.56-5.13,1.14.12Z"/><path class="cls-4" d="M366.49,135.72l.96-8.71,1.23.13,2.31,4.71c.53,1.09.94,2.06,1.25,3h.03c.03-1.18.12-2.25.26-3.6l.4-3.64,1.06.12-.96,8.71-1.14-.12-2.28-4.72c-.5-1.04-.97-2.09-1.31-3.09h-.04c-.06,1.11-.15,2.16-.31,3.61l-.41,3.72-1.06-.12Z"/><path class="cls-4" d="M375.94,128.06c.7-.03,1.52-.02,2.41.08,1.62.18,2.72.68,3.41,1.47.7.8,1.04,1.85.88,3.26-.16,1.42-.72,2.54-1.63,3.25-.9.72-2.3,1.02-3.99.83-.8-.09-1.47-.2-2.03-.33l.94-8.57ZM376.22,135.88c.28.08.69.14,1.13.19,2.41.26,3.86-.94,4.12-3.29.24-2.05-.78-3.49-3.16-3.75-.58-.06-1.03-.06-1.33-.03l-.76,6.88Z"/><path class="cls-4" d="M385.68,129.01l-.96,8.71-1.12-.12.96-8.71,1.12.12Z"/><path class="cls-4" d="M386.69,137.94l.96-8.71,1.23.13,2.31,4.71c.53,1.09.94,2.06,1.25,3h.03c.02-1.18.12-2.25.26-3.6l.4-3.64,1.06.12-.96,8.71-1.14-.12-2.28-4.72c-.5-1.04-.97-2.09-1.31-3.09h-.04c-.06,1.11-.15,2.16-.3,3.61l-.41,3.72-1.06-.12Z"/><path class="cls-4" d="M401.86,139.21c-.52.13-1.55.31-2.73.18-1.32-.14-2.37-.6-3.13-1.51-.67-.81-1.01-2.02-.86-3.38.3-2.6,2.29-4.3,5.21-3.98,1.01.11,1.77.42,2.13.64l-.37.89c-.44-.26-1-.49-1.88-.59-2.12-.23-3.65.93-3.89,3.12-.24,2.21.94,3.66,2.97,3.88.74.08,1.25.03,1.53-.07l.29-2.6-1.77-.19.1-.9,2.87.31-.46,4.19Z"/><path class="cls-4" d="M530.91,149.78c.48.35,1.2.67,1.98.73,1.15.09,1.88-.46,1.94-1.35.06-.82-.36-1.32-1.51-1.87-1.39-.62-2.21-1.43-2.11-2.66.11-1.36,1.31-2.28,3.01-2.15.89.07,1.53.33,1.9.58l-.38.9c-.27-.18-.84-.48-1.63-.54-1.19-.09-1.7.58-1.75,1.18-.06.82.44,1.26,1.6,1.82,1.43.69,2.13,1.46,2.03,2.74-.11,1.35-1.2,2.44-3.26,2.27-.84-.07-1.74-.38-2.19-.73l.36-.92Z"/><path class="cls-4" d="M538.03,142.93l1.13.09-.61,7.79,3.73.29-.07.95-4.86-.38.69-8.74Z"/><path class="cls-4" d="M550.77,148.23c-.24,3.01-2.19,4.46-4.42,4.28-2.31-.18-3.79-2.1-3.58-4.74.22-2.77,2.08-4.45,4.42-4.27,2.38.19,3.78,2.14,3.58,4.73ZM543.98,147.84c-.15,1.87.73,3.62,2.51,3.76,1.79.14,2.93-1.43,3.08-3.41.14-1.74-.63-3.62-2.51-3.77-1.87-.15-2.94,1.5-3.09,3.42Z"/><path class="cls-4" d="M553.31,152.92l-1.53-8.91,1.19.09.69,4.5c.18,1.11.32,2.22.41,3.07h.03c.21-.85.56-1.87.95-2.97l1.51-4.31,1.18.09.71,4.52c.16,1.06.32,2.11.37,3.04h.03c.26-.94.58-1.9.94-2.96l1.5-4.32,1.15.09-3.16,8.54-1.18-.09-.74-4.64c-.18-1.14-.3-2.01-.35-2.9h-.03c-.22.85-.49,1.69-.9,2.8l-1.6,4.45-1.18-.09Z"/><path class="cls-4" d="M567.22,151.25l-1.12,2.68-1.17-.09,3.65-8.5,1.36.11,2.29,8.97-1.21-.09-.72-2.82-3.1-.24ZM570.16,150.59l-.66-2.58c-.15-.59-.24-1.11-.33-1.63h-.03c-.17.51-.36,1.03-.56,1.54l-1.06,2.46,2.63.21Z"/><path class="cls-4" d="M573.53,154.51l.69-8.74,1.23.1,2.45,4.64c.57,1.08,1,2.04,1.35,2.96h.03c-.01-1.19.05-2.25.15-3.61l.29-3.66,1.06.08-.69,8.74-1.14-.09-2.42-4.65c-.53-1.02-1.04-2.06-1.4-3.04h-.04c-.02,1.12-.08,2.17-.19,3.62l-.29,3.73-1.06-.08Z"/><path class="cls-4" d="M582.73,146.56c.69-.05,1.52-.06,2.41,0,1.62.13,2.74.59,3.45,1.37.72.77,1.1,1.82.98,3.23-.11,1.43-.65,2.56-1.52,3.3-.88.75-2.26,1.09-3.96.95-.8-.06-1.47-.16-2.04-.26l.68-8.59ZM583.25,154.37c.28.07.7.12,1.14.15,2.41.19,3.83-1.05,4.01-3.41.17-2.06-.89-3.46-3.27-3.65-.58-.05-1.03-.03-1.33.01l-.54,6.9Z"/><path class="cls-4" d="M593.38,154.69c.48.35,1.2.67,1.98.73,1.15.09,1.88-.46,1.94-1.35.06-.82-.36-1.32-1.51-1.87-1.39-.62-2.21-1.43-2.11-2.66.11-1.36,1.31-2.28,3.01-2.15.89.07,1.53.33,1.9.58l-.38.9c-.27-.18-.84-.48-1.63-.55-1.19-.09-1.7.58-1.75,1.18-.06.82.44,1.26,1.6,1.82,1.43.69,2.13,1.46,2.03,2.74-.11,1.35-1.19,2.44-3.26,2.27-.84-.07-1.74-.38-2.19-.73l.36-.92Z"/><path class="cls-4" d="M602.09,148.93l-2.66-.21.08-.96,6.47.51-.08.96-2.67-.21-.61,7.78-1.14-.09.61-7.78Z"/><path class="cls-4" d="M611.11,153.34l-3.4-.27-.25,3.15,3.78.3-.07.95-4.91-.39.69-8.74,4.72.37-.07.95-3.59-.28-.22,2.76,3.4.27-.07.93Z"/><path class="cls-4" d="M614.27,154.95l-1.12,2.68-1.17-.09,3.65-8.5,1.36.11,2.29,8.97-1.21-.09-.72-2.82-3.1-.24ZM617.2,154.29l-.66-2.58c-.15-.59-.24-1.11-.33-1.63h-.03c-.17.51-.36,1.03-.57,1.54l-1.05,2.46,2.63.21Z"/><path class="cls-4" d="M621.25,149.59c.69-.05,1.52-.06,2.41,0,1.62.13,2.74.59,3.45,1.37.72.77,1.1,1.82.98,3.23-.11,1.43-.64,2.56-1.52,3.3-.88.75-2.26,1.09-3.96.95-.8-.06-1.47-.16-2.04-.26l.68-8.59ZM621.77,157.4c.28.07.7.12,1.14.15,2.41.19,3.83-1.05,4.01-3.41.17-2.06-.89-3.46-3.27-3.65-.58-.05-1.03-.03-1.33.01l-.54,6.89Z"/><path class="cls-4" d="M630.78,159.01l.29-3.71-2.37-5.25,1.28.1,1.04,2.51c.29.69.5,1.24.73,1.87h.03c.29-.55.63-1.1,1.02-1.73l1.45-2.31,1.28.1-3.32,4.79-.29,3.72-1.14-.09Z"/><path class="cls-4" d="M829.09,166.48l4.7.41-.08.95-3.57-.31-.25,2.9,3.3.29-.08.93-3.3-.29-.34,3.95-1.13-.1.76-8.73Z"/><path class="cls-4" d="M836.52,167.13l-.76,8.73-1.13-.1.76-8.73,1.13.1Z"/><path class="cls-4" d="M837.73,176.03l.76-8.73,1.23.11,2.41,4.66c.56,1.08.98,2.04,1.32,2.97h.03c0-1.18.07-2.25.18-3.61l.32-3.65,1.06.09-.76,8.73-1.14-.1-2.38-4.67c-.52-1.02-1.02-2.07-1.38-3.06h-.04c-.03,1.12-.1,2.17-.22,3.62l-.33,3.73-1.06-.09Z"/><path class="cls-4" d="M847.9,174.15l-1.15,2.67-1.17-.1,3.73-8.47,1.36.12,2.21,8.99-1.2-.11-.69-2.83-3.1-.27ZM850.84,173.52l-.63-2.59c-.14-.59-.23-1.12-.31-1.63h-.03c-.17.5-.36,1.02-.58,1.54l-1.08,2.45,2.63.23Z"/><path class="cls-4" d="M854.17,177.47l.76-8.73,1.23.11,2.41,4.66c.56,1.08.98,2.04,1.32,2.97h.03c0-1.19.07-2.25.18-3.61l.32-3.65,1.06.09-.76,8.73-1.14-.1-2.38-4.67c-.52-1.03-1.02-2.07-1.38-3.06h-.04c-.03,1.12-.1,2.17-.22,3.62l-.33,3.73-1.06-.09Z"/><path class="cls-4" d="M868.82,178.46c-.43.17-1.28.31-2.34.21-2.46-.21-4.18-1.93-3.93-4.79.24-2.73,2.25-4.42,4.96-4.19,1.09.1,1.75.39,2.04.57l-.35.9c-.41-.24-1-.45-1.73-.52-2.05-.18-3.52,1.01-3.72,3.3-.19,2.14.92,3.62,3.05,3.8.69.06,1.4-.02,1.87-.2l.16.91Z"/><path class="cls-4" d="M872.1,170.24l-.76,8.73-1.13-.1.76-8.73,1.13.1Z"/><path class="cls-4" d="M874.95,176.52l-1.15,2.67-1.17-.1,3.73-8.47,1.36.12,2.21,8.99-1.2-.11-.69-2.83-3.09-.27ZM877.89,175.89l-.64-2.59c-.14-.59-.23-1.12-.31-1.63h-.03c-.17.5-.36,1.02-.58,1.54l-1.08,2.45,2.63.23Z"/><path class="cls-4" d="M881.99,171.11l1.13.1-.68,7.78,3.73.33-.08.95-4.86-.42.76-8.73Z"/><path class="cls-4" d="M896.21,180.86c-.43.17-1.28.31-2.34.21-2.46-.21-4.18-1.93-3.93-4.79.24-2.73,2.25-4.42,4.96-4.19,1.09.1,1.75.39,2.04.57l-.35.9c-.41-.24-1-.45-1.73-.52-2.05-.18-3.52,1.01-3.72,3.3-.19,2.14.92,3.62,3.05,3.8.69.06,1.4-.02,1.87-.2l.16.91Z"/><path class="cls-4" d="M898.36,172.54l1.13.1-.68,7.78,3.73.33-.08.95-4.86-.42.76-8.73Z"/><path class="cls-4" d="M905.36,179.18l-1.15,2.67-1.17-.1,3.73-8.47,1.36.12,2.21,8.99-1.2-.1-.69-2.83-3.1-.27ZM908.3,178.55l-.64-2.59c-.14-.59-.23-1.12-.31-1.63h-.03c-.17.5-.36,1.02-.58,1.54l-1.08,2.45,2.63.23Z"/><path class="cls-4" d="M912.39,173.88c.58-.07,1.4-.06,2.18,0,1.2.1,1.96.39,2.46.93.41.43.6,1.04.54,1.72-.1,1.15-.89,1.85-1.84,2.08v.04c.65.29,1,.95,1.12,1.87.18,1.24.31,2.1.46,2.46l-1.17-.1c-.12-.26-.25-1.03-.4-2.14-.15-1.23-.58-1.72-1.6-1.85l-1.06-.09-.33,3.78-1.13-.1.75-8.61ZM913.17,177.96l1.15.1c1.21.1,2.03-.49,2.11-1.49.1-1.13-.67-1.69-1.86-1.81-.54-.05-.94-.03-1.12,0l-.28,3.19Z"/><path class="cls-4" d="M920.49,174.48l-.76,8.73-1.13-.1.76-8.73,1.13.1Z"/><path class="cls-4" d="M924.03,175.75l-2.66-.23.08-.96,6.46.57-.08.96-2.67-.23-.68,7.77-1.14-.1.68-7.77Z"/><path class="cls-4" d="M930.44,184.14l.32-3.7-2.32-5.27,1.28.11,1.02,2.52c.28.69.49,1.24.71,1.88h.03c.3-.55.64-1.09,1.04-1.72l1.47-2.3,1.28.11-3.37,4.76-.33,3.72-1.14-.1Z"/><path class="cls-4" d="M1000.76,189.14c-.43.18-1.27.33-2.34.26-2.46-.16-4.22-1.84-4.03-4.71.18-2.74,2.16-4.47,4.87-4.29,1.09.07,1.76.35,2.05.53l-.33.9c-.41-.24-1.01-.43-1.74-.48-2.05-.14-3.5,1.08-3.65,3.38-.14,2.14,1,3.6,3.13,3.74.69.05,1.4-.05,1.87-.24l.17.91Z"/><path class="cls-4" d="M1009.65,185.54c-.2,3.01-2.13,4.48-4.37,4.33-2.31-.15-3.81-2.05-3.64-4.7.19-2.78,2.03-4.48,4.37-4.32,2.39.16,3.81,2.09,3.64,4.69ZM1002.85,185.23c-.12,1.87.78,3.61,2.55,3.73,1.79.12,2.91-1.46,3.04-3.45.12-1.74-.67-3.62-2.55-3.74-1.87-.12-2.92,1.54-3.04,3.46Z"/><path class="cls-4" d="M1010.82,190.1l.58-8.74,1.23.08,2.51,4.61c.58,1.07,1.03,2.02,1.38,2.95h.03c-.03-1.19.02-2.25.11-3.61l.24-3.66,1.06.07-.58,8.74-1.14-.08-2.48-4.62c-.54-1.01-1.06-2.05-1.44-3.03h-.04c0,1.12-.05,2.17-.15,3.62l-.25,3.74-1.06-.07Z"/><path class="cls-4" d="M1019.29,189.28c.48.34,1.21.65,1.99.71,1.15.08,1.87-.49,1.93-1.37.05-.82-.38-1.31-1.53-1.85-1.39-.6-2.23-1.4-2.14-2.63.09-1.36,1.29-2.3,2.99-2.19.9.06,1.53.31,1.91.56l-.37.9c-.27-.17-.84-.47-1.63-.53-1.19-.08-1.69.6-1.73,1.2-.05.82.45,1.26,1.63,1.8,1.44.67,2.15,1.43,2.06,2.72-.09,1.35-1.17,2.45-3.23,2.31-.84-.06-1.75-.36-2.19-.71l.35-.93Z"/><path class="cls-4" d="M1027.46,182.42l-.58,8.74-1.13-.08.58-8.74,1.13.08Z"/><path class="cls-4" d="M1028.78,189.91c.48.34,1.21.65,1.99.71,1.15.08,1.87-.49,1.93-1.37.05-.82-.38-1.32-1.53-1.85-1.39-.6-2.23-1.4-2.14-2.63.09-1.36,1.29-2.3,2.99-2.19.89.06,1.53.31,1.9.56l-.37.9c-.28-.17-.84-.47-1.63-.53-1.19-.08-1.7.6-1.73,1.2-.05.82.45,1.25,1.63,1.8,1.44.67,2.15,1.43,2.06,2.72-.09,1.35-1.17,2.45-3.23,2.31-.84-.06-1.75-.36-2.19-.71l.35-.93Z"/><path class="cls-4" d="M1037.42,184.05l-2.66-.18.06-.96,6.47.43-.06.96-2.67-.18-.52,7.78-1.14-.08.52-7.78Z"/><path class="cls-4" d="M1046.49,188.36l-3.4-.23-.21,3.15,3.79.25-.06.95-4.92-.33.58-8.74,4.72.31-.06.95-3.59-.24-.18,2.76,3.4.23-.06.93Z"/><path class="cls-4" d="M1048.07,192.58l.58-8.74,1.23.08,2.51,4.61c.58,1.07,1.03,2.02,1.38,2.95h.03c-.03-1.19.02-2.25.11-3.61l.24-3.66,1.06.07-.58,8.74-1.14-.08-2.48-4.62c-.54-1.01-1.06-2.05-1.44-3.03h-.04c0,1.12-.05,2.17-.15,3.62l-.25,3.74-1.06-.07Z"/><path class="cls-4" d="M1058.78,185.47l-2.66-.18.06-.96,6.47.43-.06.96-2.67-.18-.52,7.78-1.14-.08.52-7.78Z"/></g></svg>