<?xml version="1.0" encoding="UTF-8"?><svg xmlns="http://www.w3.org/2000/svg" xmlns:xlink="http://www.w3.org/1999/xlink" viewBox="0 0 1200 300"><defs><style>.cls-1{fill:#a7c750;}.cls-2{stroke:#39b54a;}.cls-2,.cls-3{fill:#8cc63f;}.cls-2,.cls-4,.cls-5{stroke-miterlimit:10;}.cls-6{fill:#39b54a;}.cls-4{stroke:#fe938c;}.cls-4,.cls-7,.cls-5{fill:none;}.cls-8{fill:url(#radial-gradient);mix-blend-mode:multiply;}.cls-9,.cls-10{fill:#fff;}.cls-10,.cls-11{opacity:.5;}.cls-5{stroke:#006837;stroke-width:10px;}.cls-12{fill:#6ea84f;}.cls-13{fill:#688716;}.cls-14{isolation:isolate;}.cls-15{fill:#b17f4a;}.cls-16{fill:#038765;}.cls-17{fill:#fe938c;}.cls-18{opacity:.2;}.cls-19{fill:#c5efb9;}.cls-20{fill:#262262;}.cls-21{fill:#8cab38;}.cls-22{fill:#ca9e67;}.cls-23{fill:#5d7a0f;}.cls-24{fill:#74941f;}.cls-25{fill:#e6c091;}.cls-26{clip-path:url(#clippath);}.cls-27{fill:#64801b;}.cls-28{fill:#c6e673;}</style><clipPath id="clippath"><path class="cls-20" d="M1194.69,91.23l.35,190.9-732.84-83.2c-201.64-26.19-211.26-29.47-220.57-34.82l-56.76-32.63-77.91-43.95,1087.73,3.7Z"/></clipPath><radialGradient id="radial-gradient" cx="464.75" cy="137.56" fx="464.75" fy="137.56" r="19.13" gradientTransform="translate(281.53 -406.4) rotate(27.44) scale(2.15 1.03) skewX(6.09)" gradientUnits="userSpaceOnUse"><stop offset=".02" stop-color="#212133"/><stop offset=".07" stop-color="#424251"/><stop offset=".15" stop-color="#6e6e79"/><stop offset=".24" stop-color="#95959d"/><stop offset=".32" stop-color="#b6b6bb"/><stop offset=".42" stop-color="#d0d0d4"/><stop offset=".52" stop-color="#e5e5e7"/><stop offset=".64" stop-color="#f3f3f4"/><stop offset=".78" stop-color="#fcfcfc"/><stop offset="1" stop-color="#fff"/></radialGradient></defs><g class="cls-14"><g id="Layer_3"><path class="cls-20" d="M1194.69,91.23l.35,190.9-732.84-83.2c-201.64-26.19-211.26-29.47-220.57-34.82l-56.76-32.63-77.91-43.95,1087.73,3.7Z"/><g class="cls-26"><rect class="cls-7" x="106.96" y="87.54" width="161.22" height="108.61"/><rect class="cls-7" x="268.18" y="196.14" width="263.42" height="45.95"/><g class="cls-18"><rect class="cls-4" x="112.41" y="88.34" width="1085.36" height="196.17"/><line class="cls-4" x1="112.41" y1="251.81" x2="1197.77" y2="251.81"/><line class="cls-4" x1="112.41" y1="219.12" x2="1197.77" y2="219.12"/><line class="cls-4" x1="112.41" y1="186.42" x2="1197.77" y2="186.42"/><line class="cls-4" x1="112.41" y1="153.73" x2="1197.77" y2="153.73"/><line class="cls-4" x1="112.41" y1="121.03" x2="1197.77" y2="121.03"/><line class="cls-4" x1="1167.62" y1="88.34" x2="1167.62" y2="284.51"/><line class="cls-4" x1="1137.47" y1="88.34" x2="1137.47" y2="284.51"/><line class="cls-4" x1="1107.32" y1="88.34" x2="1107.32" y2="284.51"/><line class="cls-4" x1="1077.17" y1="88.34" x2="1077.17" y2="284.51"/><line class="cls-4" x1="1047.02" y1="88.34" x2="1047.02" y2="284.51"/><line class="cls-4" x1="1016.87" y1="88.34" x2="1016.87" y2="284.51"/><line class="cls-4" x1="986.72" y1="88.34" x2="986.72" y2="284.51"/><line class="cls-4" x1="956.58" y1="88.34" x2="956.58" y2="284.51"/><line class="cls-4" x1="926.43" y1="88.34" x2="926.43" y2="284.51"/><line class="cls-4" x1="896.28" y1="88.34" x2="896.28" y2="284.51"/><line class="cls-4" x1="866.13" y1="88.34" x2="866.13" y2="284.51"/><line class="cls-4" x1="835.98" y1="88.34" x2="835.98" y2="284.51"/><line class="cls-4" x1="805.83" y1="88.34" x2="805.83" y2="284.51"/><line class="cls-4" x1="775.68" y1="88.34" x2="775.68" y2="284.51"/><line class="cls-4" x1="745.53" y1="88.34" x2="745.53" y2="284.51"/><line class="cls-4" x1="715.38" y1="88.34" x2="715.38" y2="284.51"/><line class="cls-4" x1="685.24" y1="88.34" x2="685.24" y2="284.51"/><line class="cls-4" x1="655.09" y1="88.34" x2="655.09" y2="284.51"/><line class="cls-4" x1="624.94" y1="88.34" x2="624.94" y2="284.51"/><line class="cls-4" x1="594.79" y1="88.34" x2="594.79" y2="284.51"/><line class="cls-4" x1="564.64" y1="88.34" x2="564.64" y2="284.51"/><line class="cls-4" x1="534.49" y1="88.34" x2="534.49" y2="284.51"/><line class="cls-4" x1="504.34" y1="88.34" x2="504.34" y2="284.51"/><line class="cls-4" x1="474.19" y1="88.34" x2="474.19" y2="284.51"/><line class="cls-4" x1="444.04" y1="88.34" x2="444.04" y2="284.51"/><line class="cls-4" x1="413.9" y1="88.34" x2="413.9" y2="284.51"/><line class="cls-4" x1="383.75" y1="88.34" x2="383.75" y2="284.51"/><line class="cls-4" x1="353.6" y1="88.34" x2="353.6" y2="284.51"/><line class="cls-4" x1="323.45" y1="88.34" x2="323.45" y2="284.51"/><line class="cls-4" x1="293.3" y1="88.34" x2="293.3" y2="284.51"/><line class="cls-4" x1="263.15" y1="88.34" x2="263.15" y2="284.51"/><line class="cls-4" x1="233" y1="88.34" x2="233" y2="284.51"/><line class="cls-4" x1="202.85" y1="88.34" x2="202.85" y2="284.51"/><line class="cls-4" x1="172.7" y1="88.34" x2="172.7" y2="284.51"/><line class="cls-4" x1="142.56" y1="88.34" x2="142.56" y2="284.51"/></g></g><line class="cls-5" x1="106.96" y1="87.54" x2="-.36" y2="87.17"/><path class="cls-5" d="M106.96,87.54l77.91,43.95,56.76,32.63c9.31,5.35,18.93,8.62,220.57,34.82l732.84,83.2-.35-190.9-1087.73-3.7Z"/><line class="cls-5" x1="106.93" y1="87.52" x2="106.96" y2="87.54"/><rect class="cls-7" x="911.48" y="84.25" width="66.3" height="11.89"/><path class="cls-17" d="M912.12,93.07c.39.33.96.61,1.56.61.89,0,1.41-.66,1.41-1.6,0-.88-.36-1.38-1.27-1.87-1.1-.54-1.78-1.34-1.78-2.66,0-1.46.87-2.55,2.18-2.55.69,0,1.19.22,1.49.46l-.24.99c-.22-.17-.67-.45-1.28-.45-.92,0-1.27.77-1.27,1.41,0,.88.41,1.31,1.34,1.81,1.14.61,1.72,1.38,1.72,2.76,0,1.45-.77,2.71-2.36,2.71-.65,0-1.36-.27-1.72-.6l.22-1.02Z"/><path class="cls-17" d="M918.45,86.18h-2.05v-1.03h4.99v1.03h-2.06v8.37h-.88v-8.37Z"/><path class="cls-17" d="M922.14,85.27c.44-.13,1.07-.2,1.67-.2.93,0,1.53.24,1.95.77.34.42.53,1.06.53,1.79,0,1.24-.56,2.06-1.27,2.4v.04c.52.25.83.92.99,1.9.22,1.31.38,2.22.52,2.58h-.9c-.11-.27-.26-1.07-.45-2.25-.2-1.3-.56-1.79-1.35-1.83h-.82v4.07h-.87v-9.27ZM923.01,89.56h.89c.93,0,1.52-.71,1.52-1.79,0-1.21-.63-1.74-1.55-1.76-.42,0-.72.06-.86.11v3.43Z"/><path class="cls-17" d="M931.01,90.14h-2.62v3.39h2.92v1.02h-3.79v-9.4h3.64v1.02h-2.77v2.97h2.62v1Z"/><path class="cls-17" d="M932.32,93.07c.39.33.96.61,1.56.61.89,0,1.41-.66,1.41-1.6,0-.88-.36-1.38-1.27-1.87-1.1-.54-1.78-1.34-1.78-2.66,0-1.46.87-2.55,2.18-2.55.69,0,1.19.22,1.49.46l-.24.99c-.22-.17-.67-.45-1.28-.45-.92,0-1.27.77-1.27,1.41,0,.88.41,1.31,1.34,1.81,1.14.61,1.72,1.38,1.72,2.76,0,1.45-.77,2.71-2.36,2.71-.65,0-1.36-.27-1.72-.6l.22-1.02Z"/><path class="cls-17" d="M937.25,93.07c.39.33.96.61,1.56.61.89,0,1.41-.66,1.41-1.6,0-.88-.36-1.38-1.27-1.87-1.1-.54-1.78-1.34-1.78-2.66,0-1.46.87-2.55,2.18-2.55.69,0,1.19.22,1.49.46l-.24.99c-.22-.17-.67-.45-1.28-.45-.92,0-1.27.77-1.27,1.41,0,.88.41,1.31,1.34,1.81,1.14.61,1.72,1.38,1.72,2.76,0,1.45-.77,2.71-2.36,2.71-.65,0-1.36-.27-1.72-.6l.22-1.02Z"/><path class="cls-17" d="M948.66,93.94l-4.17-9.67h8.33l-4.16,9.67Z"/><path class="cls-17" d="M956.74,93.68c.19.03.41,0,.71-.04.51-.1.99-.39,1.36-.88.43-.54.74-1.34.86-2.41h-.03c-.36.61-.88.98-1.53.98-1.17,0-1.92-1.23-1.92-2.78,0-1.72.89-3.22,2.22-3.22s2.15,1.51,2.15,3.82c0,1.99-.48,3.39-1.12,4.25-.5.68-1.19,1.1-1.89,1.21-.32.07-.6.08-.81.07v-1ZM957.06,88.47c0,1.13.49,1.92,1.25,1.92.59,0,1.05-.4,1.28-.95.05-.11.08-.25.08-.45,0-1.55-.41-2.73-1.33-2.73-.75,0-1.28.92-1.28,2.2Z"/><path class="cls-17" d="M961.87,93.68c.19.03.41,0,.71-.04.51-.1.99-.39,1.36-.88.43-.54.74-1.34.86-2.41h-.03c-.36.61-.88.98-1.53.98-1.17,0-1.92-1.23-1.92-2.78,0-1.72.89-3.22,2.22-3.22s2.15,1.51,2.15,3.82c0,1.99-.48,3.39-1.12,4.25-.5.68-1.19,1.1-1.89,1.21-.32.07-.6.08-.81.07v-1ZM962.19,88.47c0,1.13.49,1.92,1.25,1.92.59,0,1.05-.4,1.28-.95.05-.11.08-.25.08-.45,0-1.55-.41-2.73-1.33-2.73-.75,0-1.28.92-1.28,2.2Z"/><path class="cls-17" d="M969.42,88.04c0,1.91-.72,2.86-1.56,2.86s-1.51-.91-1.52-2.73c0-1.81.71-2.83,1.57-2.83.91,0,1.51.98,1.51,2.71ZM967.04,88.12c-.02,1.16.29,2.04.84,2.04.58,0,.84-.86.84-2.06,0-1.1-.23-2.02-.84-2.02-.55,0-.84.91-.84,2.05ZM967.8,94.7l3.82-9.37h.56l-3.82,9.37h-.56ZM973.65,91.79c0,1.91-.72,2.86-1.55,2.86s-1.51-.91-1.52-2.72c0-1.83.71-2.84,1.57-2.84.91,0,1.5.98,1.5,2.71ZM971.27,91.87c-.01,1.16.31,2.04.85,2.04.58,0,.84-.86.84-2.06,0-1.1-.23-2.02-.84-2.02-.55,0-.85.91-.85,2.05Z"/><path class="cls-17" d="M1058.42,95.36c-.32.22-.96.45-1.78.45-1.9,0-3.33-1.67-3.33-4.76s1.43-4.94,3.52-4.94c.84,0,1.37.25,1.6.42l-.21.99c-.33-.22-.8-.39-1.36-.39-1.58,0-2.63,1.41-2.63,3.88,0,2.3.95,3.78,2.59,3.78.53,0,1.07-.15,1.42-.39l.18.96Z"/><path class="cls-17" d="M1060.64,92.71l-.7,2.96h-.9l2.29-9.4h1.05l2.3,9.4h-.93l-.72-2.96h-2.39ZM1062.85,91.76l-.66-2.71c-.15-.61-.25-1.17-.35-1.72h-.02c-.1.56-.21,1.13-.34,1.7l-.66,2.72h2.03Z"/><path class="cls-17" d="M1065.55,94.19c.39.33.96.61,1.56.61.89,0,1.41-.66,1.41-1.6,0-.88-.36-1.38-1.27-1.87-1.1-.54-1.78-1.34-1.78-2.66,0-1.46.87-2.55,2.18-2.55.69,0,1.19.22,1.49.46l-.24.99c-.22-.17-.67-.45-1.28-.45-.92,0-1.27.77-1.27,1.41,0,.88.41,1.31,1.34,1.81,1.14.61,1.72,1.38,1.72,2.76,0,1.45-.77,2.71-2.36,2.71-.65,0-1.36-.27-1.72-.6l.22-1.02Z"/><path class="cls-17" d="M1071.47,86.27v3.93h3.26v-3.93h.88v9.4h-.88v-4.41h-3.26v4.41h-.87v-9.4h.87Z"/><path class="cls-17" d="M1079.24,86.27h3.63v1.02h-2.76v3.12h2.55v1h-2.55v4.25h-.87v-9.4Z"/><path class="cls-17" d="M1084.11,86.27h.87v8.38h2.88v1.02h-3.75v-9.4Z"/><path class="cls-17" d="M1094.2,90.87c0,3.24-1.41,4.95-3.13,4.95s-3.03-1.92-3.03-4.77c0-2.98,1.33-4.94,3.13-4.94s3.03,1.97,3.03,4.76ZM1088.97,91.02c0,2.01.78,3.81,2.15,3.81s2.16-1.77,2.16-3.9c0-1.87-.7-3.82-2.15-3.82s-2.16,1.85-2.16,3.92Z"/><path class="cls-17" d="M1096.43,95.67l-1.71-9.4h.92l.8,4.76c.2,1.17.38,2.34.5,3.25h.02c.11-.93.32-2.05.55-3.26l.9-4.74h.91l.82,4.77c.19,1.12.37,2.23.47,3.22h.02c.14-1.03.33-2.08.54-3.25l.89-4.74h.89l-1.91,9.4h-.91l-.85-4.9c-.21-1.2-.35-2.12-.44-3.07h-.02c-.12.93-.27,1.85-.52,3.07l-.96,4.9h-.91Z"/><path class="cls-17" d="M1110.14,85.39l4.16,9.67h-8.33l4.17-9.67Z"/><path class="cls-17" d="M1119.62,87.75h-.02l-1.13.85-.17-.93,1.42-1.06h.75v9.07h-.85v-7.92Z"/><path class="cls-17" d="M1127.16,91.04c0,3.08-.82,4.78-2.26,4.78-1.27,0-2.13-1.66-2.15-4.66,0-3.04.94-4.71,2.26-4.71s2.15,1.7,2.15,4.59ZM1123.64,91.18c0,2.36.52,3.7,1.32,3.7.9,0,1.33-1.46,1.33-3.78s-.41-3.7-1.32-3.7c-.77,0-1.33,1.31-1.33,3.78Z"/><path class="cls-17" d="M1132.29,91.04c0,3.08-.82,4.78-2.26,4.78-1.27,0-2.13-1.66-2.15-4.66,0-3.04.94-4.71,2.26-4.71s2.15,1.7,2.15,4.59ZM1128.76,91.18c0,2.36.52,3.7,1.32,3.7.9,0,1.33-1.46,1.33-3.78s-.41-3.7-1.32-3.7c-.77,0-1.33,1.31-1.33,3.78Z"/><path class="cls-17" d="M1136.03,89.16c0,1.91-.72,2.86-1.56,2.86s-1.51-.91-1.52-2.73c0-1.81.71-2.83,1.57-2.83.91,0,1.51.98,1.51,2.71ZM1133.65,89.24c-.02,1.16.29,2.04.84,2.04.58,0,.84-.86.84-2.06,0-1.1-.23-2.02-.84-2.02-.55,0-.84.91-.84,2.05ZM1134.41,95.82l3.82-9.37h.56l-3.82,9.37h-.56ZM1140.26,92.91c0,1.91-.72,2.86-1.55,2.86s-1.51-.91-1.52-2.72c0-1.83.71-2.85,1.57-2.85.91,0,1.5.98,1.5,2.71ZM1137.88,92.99c-.01,1.16.31,2.04.85,2.04.58,0,.84-.86.84-2.06,0-1.1-.23-2.02-.84-2.02-.55,0-.85.91-.85,2.05Z"/><path class="cls-17" d="M207.54,83.86c.53-.11,1.16-.2,1.85-.2,1.25,0,2.14.4,2.73,1.17.6.77.95,1.85.95,3.38s-.34,2.79-.97,3.65c-.63.88-1.67,1.35-2.98,1.35-.62,0-1.14-.04-1.58-.11v-9.25ZM208.41,92.17c.22.06.54.07.88.07,1.86,0,2.87-1.45,2.87-3.99.01-2.22-.89-3.63-2.73-3.63-.45,0-.79.06-1.02.13v7.42Z"/><path class="cls-17" d="M217.69,88.73h-2.62v3.39h2.92v1.02h-3.79v-9.4h3.64v1.02h-2.77v2.97h2.62v1Z"/><path class="cls-17" d="M219.12,83.86c.38-.11.98-.2,1.59-.2.87,0,1.43.21,1.85.68.35.36.56.92.56,1.66,0,.91-.43,1.7-1.14,2.06v.03c.64.22,1.39.96,1.39,2.36,0,.81-.23,1.42-.57,1.88-.47.6-1.23.88-2.33.88-.6,0-1.06-.06-1.35-.11v-9.25ZM219.99,87.71h.79c.92,0,1.46-.67,1.46-1.58,0-1.1-.6-1.53-1.48-1.53-.4,0-.63.04-.77.08v3.03ZM219.99,92.22c.17.04.42.06.73.06.9,0,1.73-.46,1.73-1.83,0-1.28-.79-1.81-1.74-1.81h-.72v3.58Z"/><path class="cls-17" d="M225.73,84.77h-2.05v-1.03h4.99v1.03h-2.06v8.37h-.88v-8.37Z"/><path class="cls-17" d="M235.78,92.52l-4.17-9.67h8.33l-4.16,9.67Z"/><path class="cls-17" d="M245.26,85.21h-.02l-1.13.85-.17-.93,1.42-1.06h.75v9.07h-.85v-7.92Z"/><path class="cls-17" d="M252.79,88.51c0,3.08-.82,4.78-2.26,4.78-1.27,0-2.13-1.66-2.15-4.66,0-3.04.94-4.71,2.26-4.71s2.15,1.7,2.15,4.59ZM249.27,88.65c0,2.36.52,3.7,1.32,3.7.9,0,1.33-1.46,1.33-3.78s-.41-3.7-1.32-3.7c-.77,0-1.33,1.31-1.33,3.78Z"/><path class="cls-17" d="M257.92,88.51c0,3.08-.82,4.78-2.26,4.78-1.27,0-2.13-1.66-2.15-4.66,0-3.04.94-4.71,2.26-4.71s2.15,1.7,2.15,4.59ZM254.4,88.65c0,2.36.52,3.7,1.32,3.7.9,0,1.33-1.46,1.33-3.78s-.41-3.7-1.32-3.7c-.77,0-1.33,1.31-1.33,3.78Z"/><path class="cls-17" d="M261.66,86.62c0,1.91-.72,2.86-1.56,2.86s-1.51-.91-1.52-2.73c0-1.81.71-2.83,1.57-2.83.91,0,1.51.98,1.51,2.71ZM259.29,86.71c-.02,1.16.29,2.04.84,2.04.58,0,.84-.86.84-2.06,0-1.1-.23-2.02-.84-2.02-.55,0-.84.91-.84,2.05ZM260.04,93.29l3.82-9.37h.56l-3.82,9.37h-.56ZM265.89,90.38c0,1.91-.72,2.86-1.55,2.86s-1.51-.91-1.52-2.72c0-1.83.71-2.84,1.57-2.84.91,0,1.5.98,1.5,2.71ZM263.51,90.46c0,1.16.31,2.04.85,2.04.58,0,.84-.86.84-2.06,0-1.1-.23-2.02-.84-2.02-.55,0-.85.91-.85,2.05Z"/><path class="cls-17" d="M208.05,149.95c-.4-.06-1.14-.38-2.01-1.06-2.01-1.58-3.07-4.32-2.28-7.07.76-2.63,2.75-3.19,4.95-1.52.89.67,1.39,1.32,1.59,1.65-.16.25-.32.49-.47.73-.29-.46-.75-.99-1.34-1.44-1.67-1.27-3.12-.89-3.75,1.32-.59,2.06.02,4.2,1.76,5.56.56.44,1.17.74,1.61.81-.02.34-.04.68-.05,1.02Z"/><path class="cls-17" d="M216.34,150.92c-.81,2.99-2.78,3.55-4.64,2.22-1.92-1.38-2.76-4.13-2.03-6.71.76-2.71,2.66-3.44,4.6-2.11,1.98,1.36,2.78,4.02,2.08,6.6ZM210.66,147.13c-.51,1.83-.14,4.08,1.34,5.14,1.49,1.06,2.79,0,3.32-1.97.47-1.73.2-4.03-1.36-5.11-1.55-1.07-2.78.06-3.3,1.94Z"/><path class="cls-17" d="M223.64,156.18c.27-1.27.59-2.79.89-3.89-.01,0-.02-.01-.03-.02-.52.89-1.12,1.82-1.82,2.82-.81,1.17-1.63,2.33-2.45,3.48-.24-.15-.49-.3-.73-.45-.03-1.64-.05-3.28-.08-4.92-.02-1.46-.01-2.77.06-3.94,0,0-.01,0-.02-.01-.31,1.08-.76,2.51-1.18,3.78-.4,1.21-.8,2.41-1.21,3.61-.3-.2-.61-.4-.91-.6.96-2.78,1.92-5.58,2.87-8.39.4.26.81.51,1.21.76.04,1.68.09,3.35.13,5.03.02,1.27.01,2.39-.04,3.42.01,0,.02.01.03.02.42-.77.94-1.58,1.57-2.49.82-1.16,1.63-2.33,2.44-3.5.41.23.82.47,1.22.7-.61,3.06-1.23,6.1-1.85,9.15-.32-.18-.63-.36-.94-.55.28-1.33.56-2.66.83-4Z"/><path class="cls-17" d="M227.52,152.77c.49.16,1.12.41,1.9.81.95.5,1.59,1.12,1.92,1.83.31.64.39,1.41.19,2.22-.2.82-.57,1.36-1.07,1.63-.68.39-1.61.29-2.55-.22-.29-.16-.55-.31-.76-.5-.31,1.19-.61,2.39-.92,3.58-.32-.18-.65-.36-.97-.54.76-2.93,1.52-5.87,2.27-8.81ZM227.38,157.6c.2.18.46.35.78.52,1.17.62,2.06.31,2.37-.94.3-1.19-.26-2.12-1.33-2.68-.42-.22-.76-.35-.94-.39-.3,1.16-.59,2.32-.89,3.48Z"/><path class="cls-17" d="M238.86,163.1c-.76,3.16-2.77,4.15-4.72,3.23-2.02-.95-2.95-3.52-2.27-6.25.72-2.87,2.67-4.02,4.69-3.11,2.06.93,2.95,3.4,2.3,6.13ZM232.93,160.57c-.48,1.93-.04,4.1,1.51,4.83,1.56.73,2.87-.61,3.37-2.69.44-1.83.11-4.06-1.52-4.8-1.62-.73-2.86.67-3.36,2.66Z"/><path class="cls-17" d="M242.19,159.51c-.43,1.83-.86,3.65-1.29,5.47-.49,2.06.06,3.26,1.09,3.66,1.14.45,2.08-.19,2.56-2.25.43-1.84.85-3.67,1.27-5.52.33.12.66.24,1,.35-.41,1.82-.83,3.63-1.25,5.44-.66,2.86-2.18,3.58-3.85,2.92-1.57-.62-2.5-2.21-1.81-5.06.43-1.81.86-3.62,1.29-5.43.33.13.66.27.99.4Z"/><path class="cls-17" d="M246.4,171.18c.72-3.11,1.43-6.23,2.13-9.36.36.12.72.24,1.08.35.46,1.85.93,3.7,1.39,5.54.32,1.28.55,2.41.7,3.49,0,0,.02,0,.03,0,.19-1.29.42-2.44.74-3.92.29-1.32.58-2.64.87-3.96.31.09.62.18.93.26-.68,3.16-1.37,6.32-2.07,9.47-.34-.1-.67-.2-1.01-.3-.46-1.85-.92-3.69-1.38-5.55-.3-1.22-.57-2.46-.73-3.6-.01,0-.03,0-.04,0-.21,1.2-.44,2.34-.79,3.9-.3,1.34-.61,2.67-.91,4-.31-.11-.63-.22-.94-.32Z"/><path class="cls-17" d="M255.96,164.18c.63.05,1.36.14,2.14.33,1.42.34,2.34.98,2.84,1.91.52.93.69,2.13.37,3.69-.32,1.57-.98,2.78-1.88,3.49-.91.73-2.2.93-3.7.54-.71-.19-1.3-.39-1.79-.6.68-3.11,1.35-6.23,2.02-9.35ZM255.14,172.86c.24.12.6.24.99.34,2.13.55,3.6-.68,4.13-3.27.48-2.27-.24-3.92-2.33-4.42-.51-.13-.91-.17-1.18-.16-.53,2.51-1.07,5.02-1.61,7.52Z"/><path class="cls-17" d="M264.51,165.96c-.64,3.23-1.3,6.45-1.96,9.67-.33-.07-.66-.13-.99-.2.66-3.21,1.32-6.43,1.97-9.65.33.06.66.12.98.18Z"/><path class="cls-17" d="M264.29,175.96c.65-3.23,1.3-6.46,1.94-9.7.36.06.71.12,1.07.17.49,1.77.98,3.54,1.48,5.3.34,1.23.59,2.32.75,3.37,0,0,.02,0,.02-.01.16-1.32.37-2.51.66-4.04.26-1.37.52-2.73.78-4.1.31.04.61.07.92.11-.61,3.28-1.24,6.55-1.87,9.81-.33-.04-.67-.09-1-.13-.49-1.77-.97-3.53-1.46-5.31-.32-1.17-.61-2.36-.79-3.47-.01,0-.02,0-.04,0-.18,1.24-.39,2.41-.71,4.02-.27,1.38-.55,2.77-.83,4.15-.31-.05-.62-.11-.94-.17Z"/><path class="cls-17" d="M277.64,177.11c-.47.18-1.4.47-2.43.39-1.15-.09-2.03-.57-2.6-1.56-.5-.89-.66-2.24-.37-3.78.56-2.93,2.51-4.91,5.02-4.76.87.05,1.5.33,1.78.55-.14.35-.28.69-.42,1.04-.36-.26-.82-.47-1.58-.52-1.82-.11-3.3,1.26-3.76,3.73-.47,2.49.42,4.1,2.19,4.24.64.05,1.1-.04,1.35-.17.18-.99.36-1.97.53-2.96-.51-.03-1.02-.06-1.53-.1.06-.34.12-.69.19-1.03.83.06,1.65.11,2.48.15-.28,1.59-.57,3.19-.85,4.78Z"/><path class="cls-17" d="M504.79,90.91c.39.34.95.63,1.55.64.89.02,1.42-.63,1.42-1.58,0-.88-.35-1.39-1.25-1.89-1.09-.57-1.77-1.37-1.75-2.7.01-1.46.9-2.54,2.2-2.51.69.01,1.19.25,1.48.49l-.25.99c-.22-.17-.67-.46-1.27-.47-.92-.02-1.28.74-1.28,1.38,0,.88.4,1.32,1.32,1.84,1.13.64,1.71,1.41,1.69,2.79-.01,1.45-.8,2.69-2.39,2.66-.65-.01-1.36-.29-1.71-.63l.23-1.01Z"/><path class="cls-17" d="M509.92,83.09l.87.02-.08,8.38,2.88.06v1.02s-3.76-.07-3.76-.07l.09-9.4Z"/><path class="cls-17" d="M519.96,87.89c-.03,3.24-1.46,4.92-3.18,4.89-1.78-.03-3.01-1.98-2.98-4.83.03-2.98,1.38-4.91,3.18-4.88,1.84.04,3.01,2.02,2.98,4.81ZM514.73,87.94c-.02,2.01.74,3.82,2.11,3.85,1.38.03,2.18-1.73,2.2-3.86.02-1.87-.66-3.83-2.11-3.86-1.44-.03-2.18,1.81-2.2,3.88Z"/><path class="cls-17" d="M522.14,92.73l-1.61-9.43.92.02.75,4.77c.19,1.18.36,2.35.47,3.26h.02c.12-.93.34-2.04.58-3.25l.95-4.72.91.02.77,4.79c.18,1.12.35,2.24.44,3.23h.02c.15-1.03.35-2.07.57-3.24l.94-4.72.89.02-2,9.36-.91-.02-.8-4.91c-.2-1.2-.33-2.13-.41-3.08h-.02c-.13.93-.29,1.85-.55,3.06l-1.01,4.88-.91-.02Z"/><path class="cls-17" d="M532.74,89.98l-.73,2.94-.9-.02,2.38-9.35,1.05.02,2.2,9.44-.93-.02-.69-2.97-2.39-.05ZM534.96,89.07l-.63-2.72c-.14-.62-.24-1.18-.33-1.72h-.02c-.11.56-.22,1.13-.36,1.69l-.69,2.71,2.03.04Z"/><path class="cls-17" d="M537.74,93.03l.09-9.4.95.02,2.11,4.8c.49,1.11.87,2.11,1.18,3.08h.02c-.07-1.27-.08-2.41-.06-3.88l.04-3.93.82.02-.09,9.4-.88-.02-2.09-4.81c-.46-1.06-.9-2.14-1.23-3.16h-.03c.04,1.2.05,2.33.03,3.89l-.04,4.02-.82-.02Z"/><path class="cls-17" d="M544.41,83.89c.53-.1,1.16-.17,1.85-.16,1.25.02,2.13.45,2.72,1.22.59.78.93,1.87.92,3.39-.02,1.53-.37,2.78-1,3.64-.64.87-1.68,1.32-2.99,1.29-.62-.01-1.14-.06-1.58-.14l.09-9.25ZM545.2,92.21c.22.06.54.08.88.09,1.86.04,2.88-1.4,2.91-3.93.03-2.22-.85-3.64-2.69-3.68-.45,0-.79.04-1.02.11l-.07,7.42Z"/><path class="cls-17" d="M552.99,91.85c.39.34.95.63,1.55.64.89.02,1.42-.63,1.42-1.58,0-.88-.35-1.39-1.25-1.89-1.09-.56-1.77-1.37-1.75-2.7.01-1.46.9-2.54,2.2-2.51.69.01,1.19.25,1.48.49l-.25.99c-.22-.17-.67-.46-1.27-.47-.92-.02-1.28.74-1.28,1.38,0,.88.4,1.32,1.32,1.84,1.13.64,1.7,1.41,1.69,2.79-.01,1.45-.8,2.69-2.38,2.66-.65-.01-1.36-.29-1.71-.63l.23-1.01Z"/><path class="cls-17" d="M559.39,85.08l-2.05-.04v-1.03s5,.1,5,.1v1.03s-2.07-.04-2.07-.04l-.08,8.37-.88-.02.08-8.37Z"/><path class="cls-17" d="M566.53,89.18l-2.62-.05-.03,3.39,2.92.06v1.02s-3.8-.07-3.8-.07l.09-9.4,3.64.07v1.02s-2.78-.05-2.78-.05l-.03,2.97,2.62.05v1Z"/><path class="cls-17" d="M569.03,90.68l-.73,2.94-.9-.02,2.38-9.35,1.05.02,2.2,9.44-.93-.02-.69-2.97-2.39-.05ZM571.25,89.78l-.63-2.72c-.14-.62-.24-1.18-.33-1.72h-.02c-.11.56-.22,1.13-.36,1.69l-.69,2.71,2.03.04Z"/><path class="cls-17" d="M574.13,84.46c.53-.1,1.16-.17,1.85-.16,1.25.02,2.13.45,2.72,1.22.59.78.93,1.87.92,3.39-.02,1.53-.37,2.78-1,3.64-.64.87-1.68,1.32-2.99,1.29-.62-.01-1.14-.06-1.58-.14l.09-9.25ZM574.92,92.79c.22.06.54.08.88.09,1.86.04,2.88-1.4,2.91-3.93.03-2.22-.85-3.64-2.69-3.68-.45,0-.79.04-1.02.11l-.07,7.42Z"/><path class="cls-17" d="M581.91,93.89l.04-3.99-2.07-5.45.99.02.92,2.61c.25.72.45,1.29.65,1.95h.02c.19-.61.43-1.22.7-1.93l.99-2.57.99.02-2.31,5.35-.04,4-.88-.02Z"/><path class="cls-17" d="M901.21,243.96l3.62.44-.06,1.02-2.75-.34-.2,3.12,2.54.31-.06,1-2.54-.31-.27,4.25-.87-.11.59-9.38Z"/><path class="cls-17" d="M906.93,244.66l-.59,9.38-.87-.11.59-9.38.87.11Z"/><path class="cls-17" d="M907.86,254.22l.59-9.38.95.12,1.86,5.01c.43,1.16.76,2.2,1.02,3.2h.02c0-1.27.05-2.42.14-3.88l.25-3.92.82.1-.59,9.38-.88-.11-1.84-5.02c-.4-1.1-.79-2.23-1.06-3.29h-.03c-.02,1.2-.08,2.33-.17,3.89l-.25,4.01-.82-.1Z"/><path class="cls-17" d="M915.7,252.21l-.88,2.87-.9-.11,2.87-9.1,1.05.13,1.71,9.66-.93-.11-.53-3.04-2.39-.29ZM917.97,251.53l-.49-2.78c-.11-.63-.18-1.2-.24-1.75h-.02c-.13.54-.28,1.1-.45,1.65l-.83,2.63,2.03.25Z"/><path class="cls-17" d="M920.54,255.77l.59-9.38.95.12,1.86,5.01c.43,1.16.76,2.2,1.02,3.2h.02c0-1.27.05-2.42.14-3.88l.25-3.93.82.1-.59,9.38-.88-.11-1.84-5.02c-.4-1.1-.79-2.23-1.06-3.29h-.03c-.02,1.2-.08,2.33-.17,3.89l-.25,4.01-.82-.1Z"/><path class="cls-17" d="M931.82,256.84c-.33.18-.99.33-1.8.23-1.9-.23-3.22-2.08-3.03-5.15.18-2.94,1.74-4.75,3.82-4.5.84.1,1.35.42,1.57.61l-.27.96c-.32-.26-.77-.49-1.33-.55-1.58-.19-2.71,1.08-2.87,3.55-.14,2.3.71,3.89,2.35,4.09.53.06,1.08-.02,1.44-.22l.12.98Z"/><path class="cls-17" d="M934.35,248l-.59,9.38-.87-.11.59-9.38.87.11Z"/><path class="cls-17" d="M936.55,254.75l-.88,2.87-.9-.11,2.87-9.1,1.05.13,1.71,9.66-.93-.11-.53-3.04-2.39-.29ZM938.82,254.07l-.49-2.78c-.11-.63-.18-1.2-.24-1.75h-.02c-.13.54-.28,1.1-.45,1.65l-.83,2.63,2.03.25Z"/><path class="cls-17" d="M941.97,248.93l.87.11-.52,8.37,2.88.35-.06,1.02-3.74-.46.59-9.38Z"/><path class="cls-17" d="M952.93,259.42c-.33.18-.99.33-1.8.23-1.9-.23-3.22-2.08-3.03-5.15.18-2.94,1.74-4.75,3.82-4.5.84.1,1.35.42,1.57.61l-.27.96c-.31-.26-.77-.49-1.33-.56-1.58-.19-2.71,1.09-2.87,3.55-.14,2.3.71,3.89,2.35,4.09.53.07,1.08-.02,1.44-.22l.12.98Z"/><path class="cls-17" d="M954.59,250.47l.87.11-.52,8.37,2.88.35-.06,1.02-3.74-.46.59-9.38Z"/><path class="cls-17" d="M959.98,257.61l-.88,2.87-.9-.11,2.87-9.1,1.05.13,1.71,9.66-.93-.11-.53-3.04-2.39-.29ZM962.25,256.94l-.49-2.78c-.11-.63-.18-1.2-.24-1.75h-.02c-.13.54-.28,1.1-.45,1.65l-.83,2.63,2.03.25Z"/><path class="cls-17" d="M965.4,251.92c.45-.07,1.08-.06,1.68,0,.93.11,1.51.42,1.9,1,.31.46.46,1.12.42,1.85-.08,1.24-.69,1.99-1.42,2.24v.04c.5.31.77,1.02.87,2.01.14,1.34.24,2.26.36,2.64l-.9-.11c-.09-.28-.19-1.1-.31-2.3-.12-1.32-.45-1.85-1.23-1.99l-.82-.1-.25,4.06-.87-.11.58-9.26ZM966,256.3l.89.11c.93.11,1.56-.53,1.63-1.6.08-1.21-.52-1.82-1.44-1.94-.42-.05-.72-.03-.87,0l-.21,3.42Z"/><path class="cls-17" d="M971.64,252.56l-.59,9.38-.87-.11.59-9.38.87.11Z"/><path class="cls-17" d="M974.37,253.93l-2.05-.25.06-1.03,4.98.61-.06,1.03-2.06-.25-.52,8.35-.88-.11.52-8.35Z"/><path class="cls-17" d="M979.31,262.95l.25-3.98-1.79-5.66.99.12.79,2.7c.21.74.38,1.34.55,2.02h.02c.23-.59.5-1.17.8-1.85l1.13-2.47.99.12-2.59,5.11-.25,4-.88-.11Z"/><path class="cls-17" d="M1100.35,276.54c-.33.19-.98.36-1.8.28-1.9-.18-3.24-1.98-3.1-5.06.14-2.94,1.66-4.8,3.75-4.6.84.08,1.36.38,1.58.57l-.26.97c-.32-.25-.78-.46-1.34-.52-1.58-.15-2.69,1.16-2.81,3.63-.11,2.3.77,3.86,2.41,4.02.53.05,1.07-.05,1.44-.26l.13.98Z"/><path class="cls-17" d="M1107.2,272.67c-.15,3.23-1.64,4.81-3.36,4.65-1.78-.17-2.93-2.2-2.8-5.04.14-2.98,1.56-4.81,3.36-4.64,1.84.17,2.93,2.25,2.8,5.03ZM1101.97,272.34c-.1,2.01.6,3.88,1.96,4,1.38.13,2.24-1.57,2.34-3.7.09-1.87-.52-3.88-1.96-4.02-1.44-.13-2.25,1.65-2.34,3.71Z"/><path class="cls-17" d="M1108.1,277.57l.45-9.39.95.09,1.93,4.95c.45,1.15.79,2.17,1.06,3.16h.02c-.02-1.27.01-2.42.08-3.88l.19-3.93.82.08-.45,9.39-.88-.08-1.91-4.96c-.42-1.09-.82-2.2-1.11-3.25h-.03c0,1.2-.04,2.33-.11,3.89l-.19,4.01-.82-.08Z"/><path class="cls-17" d="M1114.62,276.69c.37.37.93.7,1.53.76.89.08,1.44-.52,1.48-1.47.04-.88-.29-1.41-1.18-1.98-1.07-.65-1.71-1.5-1.65-2.83.07-1.46.99-2.47,2.3-2.35.69.06,1.18.33,1.47.6l-.29.97c-.21-.19-.65-.51-1.26-.56-.92-.09-1.3.65-1.33,1.29-.04.88.35,1.35,1.25,1.94,1.11.72,1.65,1.54,1.58,2.92-.07,1.45-.9,2.63-2.48,2.48-.65-.06-1.34-.39-1.69-.76l.27-1Z"/><path class="cls-17" d="M1120.91,269.33l-.45,9.39-.87-.08.45-9.39.87.08Z"/><path class="cls-17" d="M1121.94,277.37c.37.37.93.7,1.53.76.89.08,1.44-.52,1.48-1.47.04-.88-.29-1.41-1.18-1.98-1.07-.65-1.71-1.5-1.65-2.83.07-1.46.99-2.47,2.3-2.35.69.06,1.18.33,1.46.6l-.29.97c-.21-.19-.65-.51-1.26-.56-.92-.08-1.3.65-1.33,1.29-.04.88.35,1.35,1.25,1.94,1.11.72,1.65,1.54,1.58,2.92-.07,1.45-.9,2.63-2.49,2.48-.65-.06-1.34-.39-1.69-.76l.27-1Z"/><path class="cls-17" d="M1128.58,271.07l-2.05-.19.05-1.03,4.98.46-.05,1.03-2.06-.19-.4,8.36-.88-.08.4-8.36Z"/><path class="cls-17" d="M1135.57,275.7l-2.62-.24-.16,3.39,2.92.27-.05,1.02-3.78-.35.45-9.39,3.63.34-.05,1.02-2.77-.26-.14,2.97,2.62.24-.05,1Z"/><path class="cls-17" d="M1136.79,280.23l.45-9.39.95.09,1.93,4.95c.45,1.15.79,2.17,1.06,3.16h.02c-.02-1.27.02-2.42.09-3.88l.19-3.93.82.08-.45,9.39-.88-.08-1.91-4.96c-.42-1.09-.82-2.2-1.11-3.25h-.03c0,1.2-.04,2.33-.11,3.89l-.19,4.01-.82-.08Z"/><path class="cls-17" d="M1145.04,272.6l-2.05-.19.05-1.03,4.98.46-.05,1.03-2.06-.19-.4,8.36-.88-.08.4-8.36Z"/></g><g id="Layer_2"><path class="cls-8" d="M1167.08,213.66c-2.88,10.81-21.56,11.09-41.72.63s-34.16-27.72-31.28-38.53c2.88-10.81,21.56-11.09,41.72-.63,20.16,10.47,34.16,27.72,31.28,38.53Z"/><polygon class="cls-16" points="1169.44 183.49 1140.26 159.22 1106.77 150.95 1086.13 161.56 1134.34 181.38 1179.6 209.86 1169.44 183.49"/><polygon class="cls-6" points="1169.44 183.49 1135.95 175.3 1106.77 150.95 1086.12 161.54 1129.89 198.05 1180.11 210.34 1169.44 183.49"/><polygon class="cls-6" points="1169.44 183.49 1135.95 175.3 1129.89 198.05 1180.11 210.34 1169.44 183.49"/><g class="cls-11"><path class="cls-9" d="M1135.92,175.14c-.08-.02-.15,0-.16.06l-6.05,22.71s.12.12.18.15c.09.04.21.08.22.05l6.01-22.61-.19-.36Z"/></g><g class="cls-11"><path class="cls-9" d="M1135.92,175.44s-.04-.02-.06-.04l-29.2-24.37s.02-.06.11-.07c.13-.02.24.01.28.04l29,24.21c.09.08.12.18.07.24-.04.04-.12.04-.2,0Z"/></g><polygon class="cls-12" points="1145.86 138.33 1129.14 134.24 1123.07 156.99 1160.39 150.62 1145.86 138.33"/><polygon class="cls-3" points="1159.12 151 1143.63 146.51 1129.1 134.22 1108.41 144.94 1137.56 169.27 1169.95 177.19 1159.12 151"/><polygon class="cls-2" points="1160.35 150.6 1143.63 146.51 1137.56 169.27 1171.02 177.45 1160.35 150.6"/><path class="cls-10" d="M1143.7,146.3c-.11-.05-.21-.03-.23.04l-6.1,22.78s.14.13.18.15c.05.03.2.07.2.05l6.09-22.78c.02-.08-.05-.19-.15-.24Z"/><g class="cls-11"><path class="cls-9" d="M1143.63,146.51s-.04-.02-.06-.04l-14.61-12.18s.07-.04.13-.07c.04-.02.25.03.29.06l14.39,11.99c.09.08.12.18.07.24-.04.04-.12.04-.21,0Z"/></g><g class="cls-11"><path class="cls-9" d="M1143.63,146.51s.04.02.07.03l16.67,4.09s-.13-.13-.2-.2c-.13-.12-.24-.22-.29-.23l-16.23-3.98c-.1-.02-.18.03-.16.12,0,.07.07.14.15.18Z"/></g><path class="cls-10" d="M1169.47,183.53c-.09-.13-.27-.26-.32-.27l-33.32-8.14s-.05.13-.04.16c0,.04.06.18.09.19l33.63,8.2s.04-.05-.03-.15Z"/><polygon class="cls-19" points="1151.35 117.53 1130.66 128.15 1145.27 140.33 1162.04 144.44 1151.35 117.53"/><polygon class="cls-19" points="1151.35 117.53 1145.27 140.33 1162.04 144.44 1151.35 117.53"/><path class="cls-10" d="M1146.08,136.6c.57-2.11,1.74-6.47,2.5-9.28.37-1.41,2.3-8.35,2.54-9.17,0-.02.2-.62.23-.61.03.02-.09.65-.1.68,0,0-2.01,7.84-2.38,9.25-.75,2.83-1.9,7.19-2.46,9.31-.55,2.12-.93,3.62-.93,3.62-.07,0-.16-.03-.19-.04-.04-.02-.15-.11-.19-.15,0,0,.41-1.48.98-3.59Z"/><path class="cls-6" d="M1148.56,138.01c-.05.32-.24.49-.45.43-.12-.03-.21-.13-.26-.29l-.08.59-.1-.03.21-1.45.1.03-.03.21c.08-.12.2-.17.32-.14.22.06.35.32.3.64ZM1148.46,137.98c.03-.25-.06-.45-.22-.49-.16-.04-.31.09-.34.33-.04.25.06.45.22.49.16.04.31-.09.34-.33Z"/><path class="cls-6" d="M1148.91,137.1l.1.03-.21,1.49-.1-.03.21-1.49Z"/><path class="cls-6" d="M1149.75,138.21l-.09.66-.1-.03.02-.16c-.06.1-.16.14-.29.1-.17-.05-.26-.2-.23-.38.02-.16.12-.28.34-.22l.24.07v-.06c.03-.18-.02-.3-.17-.34-.1-.03-.2,0-.27.06l-.03-.12c.09-.07.21-.09.33-.06.2.05.29.22.25.5ZM1149.6,138.51l.02-.17-.24-.07c-.15-.04-.21.03-.22.14-.02.12.04.22.16.25.12.03.21-.02.27-.15Z"/><path class="cls-6" d="M1150.72,138.52l-.09.61-.1-.03.08-.6c.03-.22-.04-.36-.18-.4-.16-.05-.28.07-.32.31l-.08.55-.1-.03.15-1.06.1.03-.03.2c.07-.11.19-.16.32-.12.18.05.29.24.25.54Z"/><path class="cls-6" d="M1151.7,138.79l-.09.61-.1-.03.08-.6c.03-.22-.04-.36-.18-.4-.16-.05-.29.07-.32.31l-.08.55-.1-.03.15-1.06.1.03-.03.2c.07-.11.19-.16.32-.12.18.05.29.23.25.54Z"/><path class="cls-6" d="M1152.04,138.42l.1.03-.15,1.06-.1-.03.15-1.06ZM1152.07,138.08c0-.05.05-.09.09-.08s.07.06.06.12c0,.06-.04.1-.09.08-.04-.01-.07-.07-.06-.12Z"/><path class="cls-6" d="M1153.06,139.17l-.09.61-.1-.03.08-.6c.03-.22-.04-.36-.18-.4-.16-.04-.29.07-.32.31l-.08.55-.1-.03.15-1.06.1.03-.03.19c.07-.11.19-.16.32-.12.18.05.29.23.25.54Z"/><path class="cls-6" d="M1154.11,139l-.13.93c-.05.36-.2.49-.45.42-.14-.04-.27-.13-.33-.26l.07-.09c.06.11.16.19.28.23.19.05.3-.04.33-.31l.02-.13c-.08.12-.2.16-.32.12-.22-.06-.35-.32-.31-.62.04-.3.24-.47.46-.41.13.03.23.14.27.29l.03-.2.1.03ZM1153.94,139.47c.03-.23-.07-.42-.23-.47-.17-.05-.31.08-.34.31-.03.23.07.42.23.47.17.05.31-.08.34-.31Z"/><path class="cls-6" d="M1154.92,139.09l-.02.12.23.06-.02.12-.23-.06-.13.94-.1-.03.13-.94-.14-.04.02-.12.14.04.02-.13c.03-.19.12-.29.27-.25.06.02.11.05.14.11l-.05.1s-.06-.07-.1-.08c-.09-.02-.14.03-.16.16Z"/><path class="cls-6" d="M1155.11,139.82c.04-.31.24-.49.46-.43.22.06.35.33.31.64-.04.31-.24.49-.46.43-.22-.06-.36-.33-.31-.65ZM1155.77,140c.04-.25-.06-.45-.22-.49-.16-.04-.31.09-.34.33s.06.45.22.49c.16.04.3-.09.34-.33Z"/><path class="cls-6" d="M1156.55,139.66l-.02.14s-.02,0-.02,0c-.16-.04-.28.07-.31.32l-.08.54-.1-.03.15-1.06.1.03-.03.21c.07-.13.17-.18.31-.14Z"/><path class="cls-6" d="M1157.76,140.47l-.09.61-.1-.03.08-.6c.03-.22-.04-.36-.18-.4-.16-.04-.29.07-.32.31l-.08.55-.1-.03.15-1.06.1.03-.03.2c.07-.11.19-.16.32-.12.18.05.29.23.25.54Z"/><path class="cls-6" d="M1158.68,140.86l-.63-.18c-.02.22.08.4.25.45.09.03.18,0,.25-.07l.04.11c-.08.09-.2.12-.32.09-.24-.07-.37-.33-.32-.65.04-.31.23-.49.45-.43.21.06.33.32.29.64,0,.01,0,.03,0,.04ZM1158.06,140.57l.54.15c.02-.21-.07-.38-.22-.43-.15-.04-.28.07-.32.28Z"/><path class="cls-6" d="M1159.29,141.53l-.18-.51-.3.38-.12-.03.38-.46-.21-.59.12.03.17.48.29-.35.11.03-.36.43.23.63-.12-.03Z"/><path class="cls-6" d="M1159.98,141.65s-.11.05-.17.03c-.14-.04-.21-.17-.18-.37l.09-.64-.14-.04.02-.12.14.04.03-.23.1.03-.03.23.23.06-.02.12-.23-.06-.09.63c-.02.12.02.21.1.23.04.01.09,0,.12-.02l.02.11Z"/><path class="cls-6" d="M1135.05,128.31l.08-.06c.03.1.09.23.19.31.12.11.2.1.24,0,.11-.24-.4-.43-.24-.79.07-.15.21-.18.38-.03.08.08.16.19.19.29l-.08.06c-.03-.11-.09-.19-.16-.25-.12-.1-.2-.09-.24,0-.11.25.4.44.24.79-.07.16-.22.17-.39.02-.11-.1-.19-.24-.22-.35Z"/><path class="cls-6" d="M1136.46,128.9l-.26.57-.09-.07.06-.14c-.08.06-.19.05-.29-.05-.15-.13-.19-.32-.12-.48.06-.14.18-.2.37-.04l.21.18.03-.06c.07-.16.04-.3-.08-.4-.08-.07-.18-.1-.27-.08v-.13c.1-.02.22.02.33.11.17.15.21.35.11.59ZM1136.24,129.11l.07-.15-.21-.18c-.13-.11-.2-.08-.24.02-.05.11-.02.23.09.32.1.09.2.09.29,0Z"/><path class="cls-6" d="M1137.39,129.24l-.71.66-.09-.08.12-1.17.09.08-.11,1,.6-.56.09.08Z"/><path class="cls-6" d="M1137.52,129.34l.09.08-.41.91-.09-.08.41-.91ZM1137.63,129.04s.07-.06.1-.03c.04.03.05.1.03.14-.02.05-.07.07-.11.03-.04-.03-.05-.1-.02-.15Z"/><path class="cls-6" d="M1138.28,130.56l-.24.53-.09-.08.23-.52c.09-.19.06-.36-.07-.47-.14-.12-.28-.08-.38.13l-.22.48-.09-.08.41-.91.08.07-.08.17c.1-.07.22-.06.33.04.16.14.21.37.09.63Z"/><path class="cls-6" d="M1139.3,130.92l-.36.8c-.14.31-.32.36-.54.17-.12-.1-.21-.26-.24-.41l.09-.05c.03.13.1.26.2.35.17.15.29.11.39-.12l.05-.12c-.11.07-.23.05-.34-.05-.19-.16-.25-.47-.13-.73.12-.26.34-.32.53-.15.11.1.18.24.18.41l.08-.18.08.07ZM1139.02,131.28c.09-.2.05-.43-.1-.55-.14-.13-.31-.08-.4.11-.09.2-.05.43.1.55.14.13.31.08.4-.12Z"/><path class="cls-6" d="M1139.09,131.87l.08-.06c.03.1.09.23.19.31.13.11.2.1.24,0,.11-.24-.4-.42-.24-.79.07-.15.21-.18.38-.03.08.07.16.19.19.29l-.08.06c-.03-.11-.09-.19-.16-.25-.12-.1-.2-.09-.24,0-.11.25.4.44.24.79-.07.16-.22.17-.39.02-.11-.1-.19-.24-.22-.35Z"/><path class="cls-6" d="M1140.64,131.94l-.05.11.2.18-.05.1-.2-.18-.37.81-.09-.08.37-.81-.12-.1.05-.1.12.1.05-.11c.07-.16.19-.21.32-.1.05.04.09.11.11.17l-.07.07c-.01-.05-.04-.1-.08-.13-.08-.07-.14-.04-.19.07Z"/><path class="cls-6" d="M1140.62,132.72c.12-.27.35-.34.54-.17.19.17.25.49.12.76-.12.27-.35.34-.54.17-.19-.17-.25-.49-.12-.76ZM1141.2,133.23c.1-.21.06-.45-.08-.57-.14-.12-.31-.07-.41.14-.1.21-.06.45.08.57.14.12.31.07.4-.14Z"/><path class="cls-6" d="M1142.01,133.29l-.05.12s-.01-.01-.02-.02c-.14-.12-.28-.07-.37.14l-.21.47-.09-.08.41-.91.08.07-.08.18c.1-.08.21-.08.33.03Z"/><path class="cls-6" d="M1143.11,134.27l-.36.8c-.14.31-.32.36-.54.17-.12-.11-.21-.26-.24-.41l.09-.06c.03.13.1.26.2.35.17.15.29.11.39-.12l.05-.12c-.11.07-.23.05-.34-.05-.19-.17-.25-.47-.13-.74.12-.26.34-.32.53-.15.11.1.18.24.18.41l.08-.18.08.07ZM1142.83,134.63c.09-.2.05-.43-.1-.55-.15-.13-.31-.08-.4.11-.09.2-.05.43.1.55.14.13.31.08.4-.12Z"/><path class="cls-6" d="M1143.09,134.89c.12-.27.35-.34.54-.17.19.17.25.49.12.76-.12.27-.35.34-.54.17-.19-.17-.25-.49-.12-.76ZM1143.67,135.4c.1-.21.06-.45-.08-.57-.14-.12-.31-.07-.41.14-.1.21-.06.45.08.57.14.12.31.07.41-.14Z"/><path class="cls-6" d="M1144.48,135.96l-.26.57-.08-.07.06-.14c-.08.06-.19.05-.29-.05-.15-.13-.19-.32-.12-.48.06-.14.18-.2.37-.04l.21.18.03-.06c.07-.16.04-.3-.08-.4-.08-.07-.18-.1-.27-.08v-.13c.1-.02.22.02.33.11.17.15.21.35.11.59ZM1144.25,136.17l.07-.15-.21-.18c-.13-.11-.2-.08-.24.02-.05.11-.02.23.09.32.1.09.2.09.29,0Z"/><path class="cls-6" d="M1145.04,135.44l.09.08-.58,1.29-.09-.08.58-1.29Z"/><path class="cls-6" d="M1144.75,136.84l.08-.06c.03.1.09.23.19.31.13.11.2.1.24,0,.11-.24-.4-.43-.24-.79.07-.15.21-.18.38-.03.08.08.16.19.19.29l-.08.06c-.03-.11-.09-.19-.16-.25-.12-.1-.2-.09-.24,0-.11.25.4.44.24.79-.07.16-.22.17-.39.02-.11-.1-.19-.24-.22-.35Z"/><path class="cls-19" d="M1149.22,194.6c.06-.41.31-.64.6-.56.17.05.29.18.34.38l-.11.07c-.05-.16-.14-.25-.25-.28-.21-.06-.4.11-.44.43-.05.32.08.58.29.63.11.03.23,0,.31-.12l.09.12c-.1.16-.26.21-.42.16-.29-.08-.46-.43-.4-.83Z"/><path class="cls-19" d="M1151.12,194.96l-.12.85-.13-.04.03-.21c-.08.12-.21.18-.37.13-.22-.06-.33-.26-.3-.5.03-.21.15-.36.43-.28l.31.09v-.08c.04-.23-.03-.39-.21-.44-.13-.04-.25,0-.35.07l-.04-.15c.12-.09.27-.12.42-.08.25.07.37.29.32.64ZM1150.93,195.36l.03-.22-.31-.08c-.19-.05-.27.04-.29.18-.02.16.06.28.21.33.15.04.27-.03.35-.19Z"/><path class="cls-19" d="M1151.25,195.71l.08-.13c.07.11.19.21.33.25.18.05.27-.02.29-.15.05-.36-.62-.25-.54-.79.03-.22.19-.35.44-.28.13.04.26.12.33.22l-.08.13c-.07-.11-.17-.17-.27-.2-.18-.05-.27.03-.29.16-.05.37.62.27.54.79-.03.24-.2.35-.46.28-.16-.04-.31-.16-.37-.28Z"/><path class="cls-19" d="M1153.28,195.61l-.11.79-.13-.04.11-.77c.04-.29-.04-.47-.23-.52-.21-.06-.37.09-.41.4l-.1.72-.13-.04.27-1.93.13.04-.11.8c.09-.14.23-.2.4-.15.24.07.37.3.32.7Z"/><path class="cls-19" d="M1154.61,194.78c.07.02.14.07.18.14l-.06.13c-.03-.05-.08-.09-.14-.11-.11-.03-.18.04-.21.21l-.02.16.3.08-.02.16-.3-.08-.17,1.21-.13-.04.17-1.21-.17-.05.02-.16.17.05.02-.17c.03-.24.16-.38.35-.32ZM1155.05,194.92l-.27,1.93-.13-.04.27-1.93.13.04Z"/><path class="cls-19" d="M1155.14,196.24c.06-.41.31-.64.59-.56s.45.43.4.83-.31.64-.59.56-.45-.43-.4-.83ZM1156,196.48c.04-.32-.08-.58-.29-.63-.21-.06-.39.11-.44.43-.05.32.08.58.29.63.21.06.39-.11.44-.43Z"/><path class="cls-19" d="M1157.9,196.29l-.56,1.26-.12-.03-.15-1.21-.47,1.03-.12-.03-.17-1.47.13.03.14,1.25.48-1.07.11.03.15,1.25.47-1.08.12.03Z"/><path class="cls-19" d="M1103.95,166.17l-.71-.62c-.1.26-.04.54.15.7.1.09.22.12.33.07l.02.16c-.13.06-.28.02-.41-.09-.26-.23-.33-.64-.17-.99.16-.35.45-.44.68-.24s.3.6.14.96c0,.01-.02.03-.02.05ZM1103.3,165.43l.6.53c.09-.24.04-.51-.12-.66-.16-.14-.36-.09-.48.13Z"/><path class="cls-19" d="M1105.64,167.46l-.31.68-.11-.1.3-.67c.11-.25.08-.46-.07-.59-.17-.15-.35-.09-.47.18l-.28.62-.11-.1.3-.67c.11-.25.08-.46-.07-.59-.17-.15-.35-.09-.47.18l-.28.62-.11-.1.53-1.18.11.1-.1.21c.12-.09.27-.08.41.05.14.12.21.3.19.51.13-.1.29-.09.45.05.21.18.26.46.11.8Z"/><path class="cls-19" d="M1106.62,168.52l-.71-.62c-.1.26-.04.54.15.7.1.09.22.12.33.07l.02.16c-.13.06-.28.02-.41-.09-.26-.23-.33-.64-.17-.99.16-.35.45-.44.68-.24s.3.6.14.96c0,.01-.02.03-.03.05ZM1105.97,167.78l.6.53c.09-.24.04-.51-.12-.66-.16-.14-.36-.09-.48.13Z"/><path class="cls-19" d="M1107.57,168.45l-.07.15s-.02-.02-.03-.03c-.18-.16-.35-.09-.48.18l-.27.6-.11-.1.53-1.18.11.09-.1.23c.12-.11.27-.1.42.04Z"/><path class="cls-19" d="M1108.55,169.32l-.47,1.03c-.18.41-.41.46-.69.22-.15-.14-.28-.33-.31-.53l.11-.07c.04.17.13.34.26.45.21.19.37.14.51-.15l.07-.15c-.14.09-.29.06-.43-.06-.24-.21-.32-.61-.16-.95.15-.34.44-.41.68-.2.14.12.23.31.23.53l.1-.23.11.1ZM1108.18,169.78c.12-.25.06-.55-.13-.71-.19-.16-.4-.11-.51.15-.12.26-.06.55.12.71.19.16.4.11.52-.15Z"/><path class="cls-19" d="M1109.31,170.88l-.71-.62c-.1.26-.04.54.15.7.1.09.22.12.33.07l.02.16c-.13.06-.28.02-.41-.09-.26-.23-.33-.64-.17-.99.16-.35.44-.44.68-.24.24.21.3.6.14.96,0,.01-.02.03-.02.05ZM1108.66,170.15l.6.53c.09-.24.04-.51-.12-.66-.16-.14-.36-.09-.48.13Z"/><path class="cls-19" d="M1110.39,171.63l-.31.68-.11-.1.3-.67c.11-.25.08-.46-.08-.6-.18-.16-.37-.1-.49.17l-.28.62-.11-.1.53-1.18.11.1-.1.22c.13-.09.28-.07.42.06.21.18.27.47.12.81Z"/><path class="cls-19" d="M1110.57,171.92c.16-.35.45-.44.7-.22.14.13.23.31.22.52h-.12c0-.16-.07-.3-.17-.38-.18-.16-.4-.1-.53.18-.12.28-.07.58.11.74.1.09.21.11.32.04l.05.16c-.14.09-.29.07-.43-.06-.25-.22-.32-.63-.16-.98Z"/><path class="cls-19" d="M1112.52,172.82l-1.02.95c-.17.17-.3.16-.42.06-.08-.07-.14-.17-.16-.29l.11-.07c.01.09.05.17.11.22.08.07.15.06.26-.04l.09-.08.15-1.51.12.1-.13,1.28.77-.72.11.1Z"/><path class="cls-19" d="M1113.53,173.69l-.07.15s-.02-.02-.03-.03c-.18-.16-.35-.09-.48.18l-.27.6-.11-.1.53-1.18.11.09-.1.23c.12-.11.27-.1.42.04Z"/><path class="cls-19" d="M1114.16,175.16l-.71-.62c-.1.26-.04.54.15.7.1.09.22.12.33.07l.02.16c-.13.06-.28.02-.41-.09-.26-.23-.33-.64-.17-.99.16-.35.45-.44.68-.24.24.21.3.6.14.96,0,.01-.02.03-.02.05ZM1113.51,174.42l.6.53c.09-.24.04-.51-.12-.66-.16-.14-.36-.09-.48.13Z"/><path class="cls-19" d="M1114.1,175.66l.11-.08c.03.13.12.29.24.4.16.14.26.12.31,0,.14-.31-.52-.55-.31-1.01.09-.19.27-.23.49-.04.11.1.21.24.25.37l-.11.08c-.04-.14-.12-.24-.2-.32-.15-.13-.26-.11-.31,0-.14.32.51.56.31,1.01-.09.2-.28.22-.5.03-.14-.12-.25-.3-.28-.45Z"/><path class="cls-19" d="M1115.91,176.7l-.71-.62c-.1.26-.04.54.15.7.1.09.22.12.33.07l.02.16c-.13.06-.28.02-.41-.09-.26-.23-.33-.64-.17-.99.16-.35.45-.44.68-.24s.3.6.14.96c0,.01-.02.03-.03.05ZM1115.26,175.96l.6.53c.09-.24.04-.51-.12-.66-.16-.14-.36-.09-.48.13Z"/><path class="cls-19" d="M1116.87,176.63l-.07.15s-.02-.02-.03-.03c-.18-.16-.35-.09-.48.18l-.27.6-.11-.1.53-1.18.11.09-.1.23c.12-.11.27-.1.42.04Z"/><path class="cls-19" d="M1117.81,177.47l-.91.85-.12-.1.16-1.51.12.1-.14,1.28.77-.72.11.1Z"/><path class="cls-19" d="M1118.39,178.88l-.71-.62c-.1.26-.04.54.15.7.1.09.22.12.33.07l.02.16c-.13.06-.28.02-.41-.09-.26-.23-.33-.64-.17-.99.16-.35.45-.44.68-.24s.3.6.14.96c0,.01-.02.03-.02.05ZM1117.74,178.14l.6.53c.09-.24.04-.51-.12-.66-.16-.14-.36-.09-.48.13Z"/><path class="cls-19" d="M1148.71,190.11c-.06.41-.31.64-.58.56-.16-.04-.28-.18-.33-.39l-.04.27-.13-.04.27-1.93.13.04-.12.82c.11-.15.25-.21.41-.17.28.08.45.42.39.83ZM1148.57,190.07c.04-.32-.08-.58-.29-.63-.21-.06-.39.11-.44.43-.04.32.08.58.29.63.21.06.39-.11.44-.43Z"/><path class="cls-19" d="M1149.82,190.48l-.82-.23c-.03.29.1.52.32.58.12.03.23,0,.32-.1l.06.14c-.11.12-.26.16-.41.12-.3-.08-.47-.43-.41-.84.06-.4.3-.64.58-.56.27.08.43.41.37.82,0,.02,0,.04,0,.06ZM1149.02,190.12l.69.19c.02-.27-.09-.5-.28-.55-.19-.05-.36.1-.41.36Z"/><path class="cls-19" d="M1151.01,190.64l-.11.79-.13-.04.11-.77c.04-.29-.05-.47-.23-.52-.21-.06-.37.09-.41.4l-.1.72-.13-.04.19-1.37.13.03-.04.25c.09-.15.24-.21.41-.16.24.07.37.3.32.7Z"/><path class="cls-19" d="M1152.2,191.14l-.82-.23c-.02.29.1.52.32.58.12.03.23,0,.32-.1l.06.14c-.11.12-.25.16-.41.12-.3-.08-.47-.43-.41-.84.06-.41.3-.64.57-.56.27.08.43.41.38.83,0,.02,0,.04-.01.06ZM1151.41,190.77l.69.19c.02-.27-.09-.5-.28-.55-.19-.05-.35.1-.41.36Z"/><path class="cls-19" d="M1152.98,189.99c.07.02.14.07.18.14l-.06.13c-.03-.05-.08-.09-.13-.11-.11-.03-.18.04-.21.21l-.02.16.3.08-.02.16-.3-.08-.17,1.21-.13-.04.17-1.21-.17-.05.02-.16.17.05.02-.17c.03-.24.16-.38.35-.32ZM1153.36,190.69l.13.04-.19,1.37-.13-.04.19-1.37ZM1153.58,190.3c-.01.08-.06.12-.12.11-.05-.01-.09-.09-.08-.16,0-.07.06-.12.12-.1s.09.08.08.15Z"/><path class="cls-19" d="M1153.66,191.48c.06-.41.31-.63.6-.55.16.04.29.17.34.38l-.11.07c-.05-.16-.14-.25-.25-.28-.21-.06-.4.11-.44.43-.05.32.08.58.29.63.11.03.22,0,.31-.12l.08.12c-.1.16-.26.21-.42.17-.29-.08-.46-.43-.4-.84Z"/><path class="cls-19" d="M1154.9,191.12l.13.04-.19,1.37-.13-.04.19-1.37ZM1154.94,190.68c0-.07.06-.12.12-.1s.09.08.08.15c-.01.08-.06.12-.12.11-.05-.02-.09-.09-.08-.16Z"/><path class="cls-19" d="M1156.07,191.98l-.12.85-.13-.03.03-.21c-.08.12-.21.18-.37.13-.22-.06-.33-.26-.3-.5.03-.21.15-.36.43-.28l.31.09v-.08c.04-.23-.03-.39-.21-.44-.13-.03-.25,0-.35.07l-.04-.15c.11-.09.27-.12.42-.08.25.07.37.29.32.64ZM1155.87,192.38l.03-.22-.31-.08c-.19-.05-.26.04-.28.17-.02.16.05.28.21.33.15.04.27-.03.35-.19Z"/><path class="cls-19" d="M1156.99,191.68l-.03.18s-.02,0-.03-.01c-.2-.06-.35.09-.4.41l-.1.7-.13-.04.19-1.37.13.04-.04.27c.09-.17.22-.23.4-.18Z"/><path class="cls-19" d="M1157.23,191.76l.13.04-.19,1.37-.13-.04.19-1.37ZM1157.26,191.32c0-.07.06-.12.12-.1.05.02.09.08.08.15-.01.08-.06.12-.12.11-.05-.01-.09-.09-.08-.16Z"/><path class="cls-19" d="M1158.47,192.87l-.82-.23c-.03.29.1.52.32.58.12.03.23,0,.32-.1l.06.14c-.11.12-.26.16-.41.12-.3-.08-.47-.43-.41-.84.06-.41.3-.64.58-.56.27.08.43.41.37.82,0,.02,0,.04-.01.06ZM1157.68,192.51l.69.19c.02-.27-.09-.5-.28-.55-.19-.05-.36.1-.41.36Z"/><path class="cls-19" d="M1158.54,193.38l.08-.13c.07.11.19.21.32.25.19.05.27-.02.29-.15.05-.36-.62-.25-.54-.79.03-.22.19-.35.44-.28.13.03.26.12.33.22l-.08.13c-.07-.11-.17-.17-.27-.2-.18-.05-.27.03-.29.16-.05.37.62.27.54.79-.03.24-.2.35-.46.28-.16-.04-.31-.16-.37-.28Z"/><path class="cls-19" d="M1105.67,161.2l.11.1-.75,1.66-.11-.1.75-1.66Z"/><path class="cls-19" d="M1105.53,162.57c.16-.35.45-.44.7-.22.25.22.32.63.16.97-.16.35-.45.44-.7.22-.25-.22-.32-.63-.16-.98ZM1106.28,163.23c.12-.28.07-.58-.11-.73-.18-.16-.4-.09-.52.18-.12.28-.07.58.11.74.18.16.4.09.52-.18Z"/><path class="cls-19" d="M1106.54,163.46c.16-.35.45-.44.7-.22.25.22.32.63.16.97-.16.35-.45.44-.7.22s-.32-.63-.16-.98ZM1107.28,164.11c.12-.28.07-.58-.11-.73-.18-.16-.4-.09-.52.18-.12.28-.07.58.11.74.18.16.4.09.52-.18Z"/><path class="cls-19" d="M1107.94,164.69l-.31.08-.15.34-.11-.1.75-1.66.11.1-.51,1.13.79-.2.14.12-.58.16.08,1.04-.14-.12-.07-.89Z"/><path class="cls-19" d="M1109.86,166.38c-.16.36-.45.44-.69.23-.14-.12-.22-.31-.21-.53l-.11.23-.11-.1.75-1.66.11.1-.32.71c.14-.09.29-.07.43.05.24.21.31.61.15.97ZM1109.75,166.28c.12-.28.07-.58-.11-.74-.18-.16-.4-.09-.52.18-.12.28-.07.58.11.74.18.16.4.09.52-.18Z"/><path class="cls-19" d="M1110.79,167l-.33.73-.11-.1.08-.18c-.11.08-.24.06-.38-.06-.19-.17-.25-.41-.15-.61.08-.18.24-.26.48-.05l.27.24.03-.07c.09-.2.06-.38-.1-.52-.11-.1-.24-.13-.34-.11v-.16c.13-.03.28.03.42.14.22.19.27.45.14.76ZM1110.51,167.28l.09-.19-.26-.23c-.16-.14-.26-.1-.31.02-.06.14-.02.29.11.41.13.11.26.11.38,0Z"/><path class="cls-19" d="M1110.95,167.34c.16-.35.45-.44.7-.22.14.13.23.31.23.52h-.12c0-.16-.07-.3-.17-.39-.18-.16-.4-.1-.53.18-.13.28-.07.58.11.74.1.09.21.11.32.04l.05.16c-.14.09-.29.07-.44-.06-.25-.22-.32-.63-.16-.98Z"/><path class="cls-19" d="M1112.24,168.47l-.31.08-.15.34-.11-.1.75-1.66.11.1-.51,1.13.79-.2.14.12-.58.16.08,1.04-.14-.12-.07-.89Z"/><path class="cls-19" d="M1112.79,169.63s-.04.06-.08.11l-.21.25-.08-.07.2-.28s-.03-.11,0-.17c.03-.07.09-.09.14-.05.05.04.06.13.03.2Z"/><path class="cls-19" d="M1114.15,168.66l.11.1-.75,1.66-.11-.1.75-1.66Z"/><path class="cls-19" d="M1114.01,170.04c.16-.35.45-.44.7-.22.25.22.32.63.16.97-.16.35-.45.44-.7.22-.25-.22-.32-.63-.16-.98ZM1114.75,170.69c.12-.28.07-.58-.1-.73-.18-.16-.4-.09-.52.18-.12.28-.07.58.11.74.18.16.39.09.52-.18Z"/><path class="cls-19" d="M1115.02,170.92c.16-.35.45-.44.7-.22.25.22.32.63.16.97-.16.35-.45.44-.7.22s-.32-.63-.16-.98ZM1115.76,171.57c.12-.28.07-.58-.11-.73-.18-.16-.4-.09-.52.18-.12.28-.07.58.11.74.18.16.4.09.52-.18Z"/><path class="cls-19" d="M1116.42,172.15l-.31.08-.15.34-.11-.1.75-1.66.11.1-.51,1.13.79-.2.14.12-.58.16.08,1.04-.14-.12-.07-.89Z"/><path class="cls-19" d="M1117.95,172.48l-.06.14.26.23-.06.13-.26-.22-.47,1.04-.11-.1.47-1.04-.15-.13.06-.13.15.13.07-.15c.1-.21.25-.27.41-.12.06.05.12.14.13.22l-.09.08c-.01-.07-.05-.13-.1-.17-.1-.09-.18-.05-.25.09Z"/><path class="cls-19" d="M1117.93,173.49c.16-.35.45-.44.7-.22s.32.62.16.97c-.16.35-.45.44-.7.22-.25-.22-.32-.63-.16-.98ZM1118.67,174.14c.12-.28.07-.58-.11-.73s-.4-.09-.52.18c-.12.28-.07.58.11.74s.4.09.52-.18Z"/><path class="cls-19" d="M1119.71,174.22l-.07.15s-.02-.02-.03-.03c-.18-.16-.36-.09-.48.18l-.27.6-.11-.1.53-1.18.11.09-.1.23c.12-.11.27-.1.42.04Z"/><path class="cls-19" d="M1121.19,175.53l-.85.9-.11-.09.17-1.2-.7.73-.11-.09.21-1.46.11.1-.19,1.23.72-.76.1.09-.18,1.24.72-.76.1.09Z"/><path class="cls-19" d="M1121.77,176.67l-.33.73-.11-.1.08-.18c-.11.08-.24.06-.38-.06-.19-.17-.25-.41-.15-.61.08-.18.24-.26.48-.05l.27.24.03-.07c.09-.2.06-.38-.1-.52-.11-.1-.24-.13-.34-.11v-.16c.13-.03.28.03.42.14.22.19.27.45.13.76ZM1121.49,176.94l.09-.19-.26-.23c-.16-.14-.26-.1-.31.02-.06.14-.02.29.11.41.13.11.26.11.38,0Z"/><path class="cls-19" d="M1122.71,176.85l-.07.15s-.02-.02-.03-.03c-.18-.16-.35-.09-.48.18l-.27.6-.11-.1.53-1.18.11.1-.1.23c.12-.11.27-.1.42.04Z"/><path class="cls-19" d="M1123.89,177.23l-.75,1.66-.11-.1.11-.23c-.14.1-.3.08-.44-.04-.24-.21-.31-.61-.15-.97.16-.36.45-.44.69-.23.13.12.21.3.21.51l.32-.71.11.1ZM1123.29,178.2c.12-.28.07-.58-.1-.73-.18-.16-.4-.09-.52.18-.12.28-.07.58.11.74.18.16.39.09.52-.18Z"/><path class="cls-19" d="M1151.07,199.96c-.06.05-.14.06-.22.04-.18-.05-.26-.22-.23-.48l.12-.83-.17-.05.02-.16.17.05.04-.3.13.04-.04.3.3.08-.02.16-.3-.08-.12.82c-.02.16.02.27.13.3.05.02.11,0,.16-.03l.03.14Z"/><path class="cls-19" d="M1152.16,199.46l-.12.85-.13-.04.03-.21c-.08.12-.21.18-.37.13-.22-.06-.33-.26-.3-.5.03-.21.15-.36.43-.28l.31.09v-.08c.05-.23-.03-.39-.21-.44-.13-.04-.25,0-.35.07l-.04-.15c.11-.09.27-.12.42-.08.25.07.37.29.32.64ZM1151.96,199.86l.03-.22-.31-.08c-.19-.05-.27.04-.29.17-.02.16.05.28.21.33.15.04.27-.03.35-.19Z"/><path class="cls-19" d="M1153.02,200.58l-.23-.66-.39.48-.15-.04.49-.59-.27-.77.15.04.22.62.37-.45.14.04-.46.56.29.81-.15-.04Z"/><path class="cls-19" d="M1154.29,200.28l-.82-.23c-.03.29.1.52.32.58.12.03.23,0,.32-.1l.06.14c-.11.12-.26.16-.41.12-.3-.08-.47-.43-.41-.84.06-.4.3-.64.57-.56.27.08.43.41.37.82,0,.02,0,.04-.01.06ZM1153.49,199.92l.69.19c.02-.27-.09-.5-.28-.55s-.36.1-.41.36Z"/><path class="cls-19" d="M1154.36,200.79l.08-.13c.07.11.19.21.32.25.19.05.27-.02.29-.15.05-.36-.62-.25-.54-.79.03-.22.19-.35.44-.28.13.04.26.12.33.22l-.08.13c-.07-.11-.17-.17-.27-.2-.18-.05-.27.03-.29.16-.05.37.62.27.54.79-.03.24-.2.35-.46.28-.16-.04-.31-.16-.37-.28Z"/><path class="cls-19" d="M1127.35,140.29l.1.09.69-1.53-.1-.09.25-.56.63.55-.1.23c.07-.04.15-.06.24-.06s.17.03.25.1c.16.14.23.33.23.57,0,.24-.07.52-.21.84-.14.32-.29.53-.45.63-.16.1-.31.09-.47-.05-.08-.07-.13-.16-.17-.27-.03-.11-.05-.22-.06-.32l-.19.43.16.14-.25.56-.78-.69.25-.56ZM1128.57,140.24s.07-.06.11-.14l.15-.34c.03-.07.05-.14.04-.19,0-.05-.03-.1-.08-.14-.04-.04-.08-.05-.12-.04-.04.02-.07.06-.11.14l-.15.34c-.03.07-.05.14-.04.19,0,.05.03.1.08.14.04.04.08.05.12.03Z"/><path class="cls-19" d="M1130.88,140.44s.04.06.05.09l-.29.65c-.04-.09-.1-.17-.17-.23-.1-.08-.19-.11-.27-.08-.09.03-.16.12-.23.26l-.13.29.21.18-.25.56-.83-.73.25-.56.1.09.35-.77-.1-.09.25-.56.63.55-.11.25c.09-.06.17-.09.25-.09s.16.03.23.1c.03.03.06.06.08.09Z"/><path class="cls-19" d="M1130.42,142.43c-.05-.28,0-.58.15-.9.15-.32.32-.52.52-.58s.41,0,.62.19c.22.19.35.43.39.7.04.28,0,.58-.15.89-.15.32-.32.52-.52.58-.2.06-.41,0-.62-.19-.22-.19-.35-.42-.39-.7ZM1131.21,142.56s.07-.06.11-.14l.15-.34c.03-.07.05-.14.04-.19,0-.05-.03-.1-.08-.14s-.08-.05-.12-.04c-.04.02-.07.06-.11.14l-.15.34c-.03.07-.05.14-.04.19,0,.06.03.1.08.14s.08.05.12.04Z"/><path class="cls-19" d="M1131.85,143.8c-.03-.19.02-.42.14-.7l.28-.61-.1-.09.25-.56c.06.05.11.07.16.05.05-.02.09-.07.13-.14l.07-.15.48.43-.18.4.31.27-.25.56-.31-.27-.25.56c-.03.07-.05.14-.04.19,0,.05.03.1.08.14.06.05.12.1.2.14l-.24.53c-.05-.01-.12-.04-.2-.08-.08-.04-.16-.1-.24-.16-.16-.14-.26-.31-.29-.5Z"/><path class="cls-19" d="M1132.89,144.61c-.04-.28,0-.58.15-.9.15-.32.32-.52.52-.58.2-.06.41,0,.62.19.21.19.33.41.35.66.02.25-.03.5-.14.74l-.11.24-.74-.65v.02c-.05.08-.06.16-.04.23.01.07.06.14.14.21.09.08.19.15.28.2s.18.09.25.11l-.25.54c-.07,0-.17-.03-.29-.09-.12-.06-.24-.14-.36-.24-.22-.19-.35-.42-.39-.7ZM1133.98,144.18l.02-.04c.04-.08.05-.14.04-.19,0-.05-.03-.1-.08-.14s-.08-.05-.12-.04c-.04.02-.07.06-.11.14l-.02.04.27.23Z"/><path class="cls-19" d="M1134.25,145.81c-.04-.28,0-.58.15-.9.15-.32.32-.52.52-.58.2-.06.41,0,.62.19.1.09.2.2.27.33.08.13.13.24.16.34l-.3.67-.39-.35.03-.06c.03-.07.05-.14.04-.19,0-.05-.03-.1-.08-.14-.09-.08-.17-.04-.23.1l-.13.29c-.08.18-.05.32.08.44.13.11.28.22.47.33l-.24.53c-.07-.01-.15-.04-.26-.1-.11-.06-.21-.13-.31-.22-.22-.19-.35-.43-.4-.7Z"/><path class="cls-19" d="M1135.53,147.04c-.03-.19.02-.42.14-.7l.28-.61-.1-.09.25-.56c.06.05.11.07.16.05.05-.02.09-.07.12-.14l.07-.15.48.43-.18.4.31.27-.25.56-.31-.27-.25.56c-.03.07-.05.14-.04.19s.03.1.08.14c.06.05.13.1.2.14l-.24.53c-.05-.01-.12-.04-.2-.08-.08-.04-.16-.1-.24-.16-.16-.14-.26-.31-.29-.5Z"/><path class="cls-19" d="M1147.38,154.3c-.11-.06-.2-.11-.26-.17l.09-.65c.18.1.34.17.49.21.1.03.18.02.23,0s.09-.11.1-.24l.02-.17c-.06.07-.12.13-.2.18-.08.05-.16.06-.25.03-.18-.05-.3-.19-.36-.41s-.07-.52-.02-.89c.05-.37.14-.64.26-.81.12-.17.27-.24.45-.19.09.03.17.08.23.17.06.08.11.17.14.27l.04-.27.73.2-.09.64-.12-.03-.2,1.38c-.05.38-.16.64-.31.78s-.35.17-.61.1c-.13-.04-.25-.08-.36-.14ZM1148.08,152.84s.05-.09.07-.18l.06-.39c.01-.09,0-.15-.01-.2-.02-.05-.06-.08-.11-.09-.05-.01-.09,0-.12.03-.03.03-.05.09-.07.18l-.06.39c-.01.09,0,.15.01.2s.05.08.11.09c.05.01.09,0,.12-.03Z"/><path class="cls-19" d="M1150.37,151.89s.06.04.08.06l-.11.75c-.07-.06-.14-.11-.22-.13-.11-.03-.2-.01-.28.06-.07.07-.12.19-.14.36l-.05.34.24.07-.09.65-.96-.27.09-.64.12.03.13-.9-.12-.03.09-.65.73.2-.04.29c.06-.1.13-.17.21-.21s.15-.05.24-.03c.04.01.07.03.1.04Z"/><path class="cls-19" d="M1150.46,153.98c-.11-.23-.14-.54-.09-.91.05-.38.17-.64.33-.8.17-.16.38-.2.63-.13.25.07.44.22.55.46.11.24.14.54.09.91-.05.38-.17.64-.33.8-.17.16-.38.2-.63.13-.25-.07-.43-.22-.55-.46ZM1151.22,153.71s.05-.09.07-.18l.06-.39c.01-.09,0-.15-.01-.2-.02-.05-.05-.08-.11-.09-.05-.01-.09,0-.12.03-.03.03-.05.09-.07.18l-.06.39c-.01.09,0,.15.01.2.02.05.06.08.11.09.05.01.09,0,.12-.03Z"/><path class="cls-19" d="M1152.33,154.75l-.13-1.64-.11-.03.09-.65.82.23-.09.65-.11-.03v.64s.03,0,.03,0l.37-1.21.49.13v1.31s.04,0,.04,0l.18-.59-.11-.03.09-.65.77.21-.09.65-.11-.03-.56,1.45-.64-.18v-1.13s-.02,0-.02,0l-.3,1.05-.61-.17Z"/><path class="cls-19" d="M1109.86,160.93l-.25.56-.67-.59.12-.26c-.21.1-.4.08-.58-.07-.13-.12-.21-.27-.22-.44-.01-.18.03-.37.12-.57l.32-.72-.11-.09.25-.56.67.59-.5,1.11c-.03.08-.05.14-.04.2,0,.06.04.1.08.15.05.04.09.05.13.04.04-.01.08-.06.11-.13l.25-.56-.13-.12.25-.56.69.61-.6,1.33.11.09Z"/><path class="cls-19" d="M1111.54,162.41l-.25.56-.77-.68.25-.56.1.09.25-.56c.03-.08.05-.14.04-.19s-.03-.1-.08-.14c-.1-.09-.18-.06-.24.09l-.25.56.1.09-.25.56-.77-.68.25-.56.11.09.35-.77-.11-.09.25-.56.67.58-.12.26c.21-.1.4-.08.58.07.13.12.21.27.22.44.01.18-.03.37-.12.57l-.32.72.11.09Z"/><path class="cls-19" d="M1111.57,162.92c0-.25.06-.53.21-.84.14-.32.3-.52.46-.62.16-.1.33-.08.49.07.08.07.14.17.18.28.04.11.06.22.07.33l.19-.43-.14-.13.25-.56.7.62-.94,2.08.11.09-.25.56-.67-.59.1-.23c-.07.04-.15.05-.24.05-.09,0-.18-.04-.26-.11-.17-.15-.25-.34-.26-.59ZM1112.46,163.15s.08-.06.11-.13l.15-.34c.03-.07.05-.14.04-.2s-.04-.1-.08-.15c-.05-.04-.09-.05-.13-.04-.04.01-.08.06-.11.13l-.15.34c-.03.08-.05.14-.04.2,0,.06.03.1.08.15.05.04.09.05.13.04Z"/><path class="cls-19" d="M1113.24,164.4c-.05-.28,0-.59.14-.91s.32-.51.53-.57c.21-.05.42.02.65.22.23.2.36.43.38.68.03.26-.02.51-.13.75l-.11.24-.79-.69v.02c-.05.08-.06.16-.04.23.02.07.07.14.15.22.1.09.2.16.3.22.1.06.19.1.27.13l-.25.54c-.08,0-.18-.04-.3-.1-.12-.06-.25-.15-.38-.26-.23-.2-.37-.45-.43-.73ZM1114.37,164.01l.02-.04c.04-.08.05-.14.04-.2,0-.06-.04-.1-.08-.14s-.09-.05-.13-.04c-.04.01-.08.06-.11.13l-.02.04.28.25Z"/><path class="cls-19" d="M1116.41,164.79s.04.07.06.1l-.29.65c-.05-.1-.11-.18-.19-.25-.1-.09-.2-.12-.29-.1-.09.03-.17.11-.23.26l-.13.3.22.19-.25.56-.89-.78.25-.56.11.09.35-.77-.11-.09.25-.56.67.59-.11.25c.09-.05.17-.08.25-.08.08,0,.16.04.25.11.03.03.06.06.09.09Z"/><path class="cls-19" d="M1115.73,166.75l.23-.5.39.35-.02.03c-.05.11-.02.21.08.29.09.08.15.07.19,0,.02-.04.02-.09,0-.13-.02-.04-.05-.1-.11-.17l-.11-.14c-.23-.29-.26-.6-.11-.94.09-.2.21-.3.37-.32.16-.01.33.06.51.22.2.18.35.38.45.59l-.21.47-.37-.33v-.03s.04-.09.03-.13c-.01-.04-.04-.08-.08-.12-.08-.07-.14-.07-.17,0-.02.04-.02.08,0,.12.01.04.05.1.1.17l.12.16c.13.16.2.33.21.48.01.16-.02.32-.09.48-.09.21-.21.32-.37.33-.15.02-.32-.06-.51-.22-.2-.18-.38-.4-.53-.66Z"/><path class="cls-19" d="M1117.22,168.01c-.03-.19.01-.43.14-.7l.28-.61-.11-.09.25-.56c.06.05.12.07.17.06.05-.02.09-.06.13-.14l.07-.15.52.45-.18.4.33.29-.25.56-.33-.29-.25.56c-.03.07-.05.14-.04.2,0,.06.03.1.08.15.06.05.13.1.21.15l-.24.53c-.06-.02-.13-.05-.21-.09-.09-.05-.17-.1-.25-.17-.17-.15-.27-.32-.31-.52Z"/><path class="cls-19" d="M1119.72,169.61l-.25.56-.64-.56.1-.23c-.07.04-.15.06-.24.06s-.18-.04-.27-.12c-.12-.11-.2-.24-.23-.39-.03-.15,0-.31.07-.47.19-.43.55-.42,1.08.03.03-.08.03-.15,0-.21s-.08-.13-.17-.21c-.07-.06-.16-.12-.25-.17-.09-.05-.18-.09-.27-.12l.28-.62c.1.05.2.1.31.17.11.07.21.15.31.23.24.21.39.43.43.64.05.21.01.45-.1.7l-.28.63.11.09ZM1119.18,168.8c-.07-.06-.14-.1-.19-.11-.05,0-.09.02-.12.08-.02.04-.02.08-.02.12,0,.04.03.07.06.1.04.04.08.04.13.01.04-.03.09-.09.13-.18v-.02Z"/><path class="cls-19" d="M1121.41,171.1l-.25.56-.77-.68.25-.56.1.09.25-.56c.03-.08.05-.14.04-.19s-.03-.1-.08-.14c-.1-.08-.18-.06-.24.09l-.25.56.1.09-.25.56-.77-.68.25-.56.11.09.35-.77-.11-.09.25-.56.67.59-.12.26c.21-.1.4-.08.58.07.13.12.21.27.22.44.01.18-.03.37-.12.57l-.32.72.11.09Z"/><path class="cls-19" d="M1121.44,171.6c0-.25.06-.53.21-.84.14-.32.3-.52.46-.62.16-.1.33-.08.49.07.08.07.14.17.18.28.04.11.06.22.07.33l.19-.43-.14-.13.25-.56.7.62-.94,2.08.11.09-.25.56-.67-.59.1-.23c-.07.04-.15.05-.24.05-.09,0-.18-.04-.26-.11-.17-.15-.25-.34-.26-.59ZM1122.33,171.83s.08-.06.11-.13l.15-.34c.03-.07.05-.14.04-.2s-.04-.1-.08-.15-.09-.05-.13-.04c-.04.01-.08.06-.11.13l-.15.34c-.03.08-.05.14-.04.2,0,.06.03.1.08.15s.09.05.13.04Z"/><path class="cls-19" d="M1150.67,185.45l-.09.65-.75-.21.04-.27c-.05.07-.12.13-.21.18-.08.04-.18.05-.29.02-.14-.04-.24-.12-.31-.25-.07-.13-.08-.29-.06-.48.07-.5.41-.67,1.01-.51,0-.09,0-.16-.05-.2s-.11-.08-.21-.11c-.08-.02-.18-.04-.28-.04-.1,0-.19,0-.28.03l.1-.72c.1,0,.22,0,.34,0s.23.03.34.06c.28.08.47.2.57.38.1.18.13.41.09.71l-.1.73.12.03ZM1149.96,184.96c-.08-.02-.15-.03-.2,0-.05.02-.08.07-.09.14,0,.04,0,.08.01.12.02.03.04.06.08.07.05.01.09,0,.13-.06.03-.05.06-.13.07-.23v-.02Z"/><path class="cls-19" d="M1150.92,185.94c-.12-.24-.16-.54-.1-.92s.17-.64.35-.79c.18-.15.4-.19.67-.12.13.04.25.1.36.18.11.08.2.16.25.25l-.11.78-.49-.13v-.07c.02-.09.02-.15,0-.2-.02-.05-.06-.08-.12-.09-.11-.03-.18.04-.2.21l-.05.34c-.03.2.04.33.21.38.16.04.34.07.55.08l-.09.62c-.07.02-.16.03-.28.03s-.24-.02-.37-.05c-.27-.08-.47-.23-.59-.47Z"/><path class="cls-19" d="M1152.52,186.48c-.08-.16-.1-.4-.05-.72l.1-.71-.12-.03.09-.65c.07.02.13,0,.17-.03.04-.04.07-.11.08-.2l.03-.18.6.17-.07.46.38.11-.09.65-.38-.11-.09.65c-.01.09,0,.15.01.2.02.05.06.08.12.1.07.02.15.03.24.03l-.09.62c-.06.02-.13.02-.22.02-.09,0-.18-.01-.28-.04-.2-.05-.34-.16-.42-.33Z"/><path class="cls-19" d="M1153.52,186.91l.09-.65.12.03.13-.9-.12-.03.09-.65.77.21-.22,1.54.12.03-.09.65-.9-.25ZM1154,184.54l.09-.66.58.16-.09.66-.58-.16Z"/><path class="cls-19" d="M1154.75,187c-.12-.24-.16-.54-.1-.92s.17-.64.35-.79c.18-.15.4-.19.67-.12.27.08.47.23.59.47s.15.54.1.91-.17.64-.35.79c-.18.15-.4.19-.67.12s-.46-.23-.58-.47ZM1155.56,186.74s.06-.09.07-.18l.06-.39c.01-.09,0-.15-.01-.2-.02-.05-.06-.08-.11-.09s-.1,0-.13.03c-.03.03-.05.09-.07.18l-.06.39c-.01.09,0,.15.01.2.02.05.06.08.11.09.05.02.1,0,.13-.03Z"/><path class="cls-19" d="M1158.25,187.54l-.09.65-.89-.25.09-.65.12.03.09-.65c.01-.09,0-.15-.01-.2-.02-.05-.06-.08-.11-.09-.11-.03-.18.04-.21.21l-.09.64.12.03-.09.65-.89-.25.09-.64.12.03.13-.9-.12-.03.09-.65.77.21-.04.31c.17-.2.36-.28.56-.22.16.04.26.14.32.3.06.16.07.36.04.59l-.12.83.12.03Z"/><path class="cls-6" d="M1142.93,124.57c-.06-.08-.11-.14-.14-.2l.17-.37c.1.13.2.23.29.31.06.05.11.08.15.08.04,0,.07-.04.11-.11l.04-.1s-.1.04-.16.04c-.06,0-.12-.02-.17-.07-.11-.1-.17-.23-.17-.39s.04-.35.14-.56c.09-.21.19-.35.3-.41.11-.06.21-.05.32.05.05.05.09.11.12.18.02.07.04.15.04.22l.07-.15.44.39-.17.37-.07-.06-.36.79c-.1.22-.21.34-.33.37-.12.03-.26-.02-.41-.16-.08-.07-.15-.14-.21-.22ZM1143.63,123.92s.05-.04.07-.09l.1-.22s.03-.09.03-.13c0-.04-.02-.07-.05-.1-.03-.03-.06-.04-.09-.03-.02,0-.05.04-.07.09l-.1.22s-.03.09-.03.13c0,.04.02.07.05.1.03.03.06.04.08.03Z"/><path class="cls-6" d="M1144.13,124.74c-.03-.19,0-.39.09-.6.1-.21.21-.34.35-.37.14-.04.28.01.43.15.15.14.25.3.28.48.03.19,0,.38-.09.59-.1.21-.21.34-.35.37s-.28-.01-.43-.15c-.15-.13-.24-.29-.28-.48ZM1144.68,124.85s.05-.04.07-.09l.1-.22s.03-.09.03-.13c0-.04-.02-.07-.05-.1-.03-.03-.06-.04-.08-.03-.03.01-.05.04-.07.09l-.1.22s-.03.09-.03.13c0,.04.02.07.05.1.03.03.06.04.09.03Z"/><path class="cls-6" d="M1146.06,126.11l-.17.37-.42-.37.07-.15s-.1.04-.16.04c-.06,0-.12-.03-.18-.08-.08-.07-.13-.16-.15-.26-.02-.1,0-.2.04-.31.13-.28.36-.28.71.02.02-.05.02-.1,0-.14-.02-.04-.05-.09-.11-.14-.05-.04-.1-.08-.16-.11-.06-.03-.12-.06-.18-.08l.19-.41c.07.03.13.07.21.12.07.05.14.1.2.15.16.14.25.28.29.42.03.14,0,.29-.07.46l-.19.41.07.06ZM1145.71,125.58s-.09-.07-.12-.07c-.03,0-.06.01-.08.05-.01.03-.01.05-.01.08,0,.03.02.05.04.06.03.02.06.03.09,0,.03-.02.06-.06.09-.12h0Z"/><path class="cls-6" d="M1145.95,126.53l.17-.37.07.06.46-1.01-.07-.06.17-.37.44.39-.62,1.37.07.06-.17.37-.51-.45Z"/><path class="cls-6" d="M1146.54,126.96l.15-.33.26.23v.02c-.04.07-.03.14.04.19.06.05.1.05.12,0,.01-.03.01-.06,0-.09,0-.03-.03-.07-.07-.11l-.07-.09c-.15-.19-.17-.4-.07-.62.06-.13.14-.2.24-.21s.21.04.33.14c.13.12.23.25.3.39l-.14.31-.24-.21v-.02s.03-.06.02-.09c0-.03-.03-.06-.05-.08-.05-.05-.09-.05-.11,0-.01.03-.01.05,0,.08s.03.06.06.11l.08.1c.08.11.13.22.14.32,0,.1-.01.21-.06.32-.06.14-.14.21-.24.22-.1.01-.21-.04-.34-.15-.13-.12-.25-.26-.35-.43Z"/><path class="cls-6" d="M1149.06,128.74l.06-.43.08.02.17-1.17-.08-.02.06-.42.51.14-.23,1.59.08.02-.06.43-.59-.16Z"/><path class="cls-6" d="M1149.87,128.8c-.08-.16-.1-.36-.07-.61s.11-.42.23-.52c.12-.1.26-.13.44-.08.17.05.29.15.35.29.06.15.08.32.05.51l-.03.19-.6-.17v.02c-.01.06,0,.12.02.15.02.04.07.07.13.08.08.02.15.03.22.04.07,0,.13,0,.19,0l-.06.41s-.12.03-.2.04c-.09,0-.18,0-.28-.03-.18-.05-.3-.15-.38-.31ZM1150.5,128.19v-.03c.01-.06.01-.1,0-.13-.01-.03-.04-.05-.08-.06-.04,0-.06,0-.09.02-.02.02-.04.06-.04.12v.03s.21.06.21.06Z"/><path class="cls-6" d="M1151.01,129.89c-.08-.04-.14-.08-.18-.11l.06-.43c.13.07.24.12.35.15.07.02.12.02.16,0,.04-.02.06-.07.07-.16l.02-.11s-.09.09-.14.11-.11.04-.18.02c-.13-.04-.21-.13-.26-.28-.04-.15-.05-.34-.01-.59.03-.24.09-.42.17-.53.08-.11.19-.15.31-.12.06.02.12.05.16.11.04.06.08.12.1.18l.03-.18.51.14-.06.43-.08-.02-.13.91c-.04.25-.11.42-.21.51-.11.09-.25.11-.43.06-.09-.02-.17-.06-.25-.1ZM1151.5,128.93s.04-.06.04-.12l.04-.26c0-.06,0-.1,0-.13-.01-.03-.04-.05-.08-.06-.04,0-.06,0-.09.02-.02.02-.04.06-.04.12l-.04.26c0,.06,0,.1,0,.13.01.03.04.05.08.06.04.01.07,0,.09-.02Z"/><path class="cls-6" d="M1153.17,129.44l-.06.42-.49-.14.03-.18s-.08.09-.14.12c-.05.03-.12.03-.19.01-.09-.03-.16-.08-.2-.16-.04-.08-.06-.19-.04-.31.05-.33.27-.44.67-.34,0-.06,0-.1-.03-.13-.02-.03-.07-.05-.14-.07-.06-.02-.12-.02-.18-.03-.07,0-.13,0-.18.02l.07-.48c.07,0,.14,0,.22,0,.08,0,.16.02.23.04.18.05.31.13.38.25.07.12.08.27.06.47l-.07.48.08.02ZM1152.7,129.12c-.06-.02-.1-.02-.13,0-.03.01-.05.04-.06.09,0,.03,0,.06,0,.08,0,.02.03.04.05.04.03,0,.06,0,.08-.04.02-.03.04-.08.05-.15v-.02Z"/><path class="cls-6" d="M1153.33,129.76c-.08-.16-.1-.36-.07-.6s.11-.42.23-.52c.12-.1.26-.13.44-.08.09.02.17.06.24.12.07.05.13.11.17.16l-.07.51-.32-.09v-.05c.01-.06.01-.1,0-.13-.01-.03-.04-.05-.08-.06-.07-.02-.12.03-.13.14l-.03.22c-.02.13.03.22.14.25.1.03.22.05.36.05l-.06.41s-.11.02-.19.02c-.08,0-.16-.01-.24-.03-.18-.05-.31-.15-.39-.31Z"/><path class="cls-6" d="M1155.54,129.03l-.06.43-.07-.02-.37.83c-.09.21-.19.36-.28.45-.09.09-.21.12-.33.08-.05-.01-.1-.04-.15-.07-.05-.03-.1-.06-.14-.1l.07-.47.26.07v.03s0,.07.04.08c.03,0,.05,0,.07-.04l-.14-1.14-.07-.02.06-.43.55.15-.06.42-.06-.02.04.43.15-.38-.06-.02.06-.43.52.14Z"/><path class="cls-19" d="M1124.62,142.73l-.75,1.66-.11-.1.11-.23c-.14.1-.3.08-.44-.04-.24-.21-.31-.61-.15-.97s.45-.44.69-.23c.13.12.21.3.22.51l.32-.71.11.1ZM1124.03,143.71c.12-.28.07-.58-.11-.73-.18-.16-.4-.09-.52.18-.12.28-.07.58.11.74.18.16.4.09.52-.18Z"/><path class="cls-19" d="M1125.17,144.78l-.71-.62c-.1.26-.04.54.15.7.1.09.22.12.33.07l.02.16c-.13.06-.28.02-.41-.09-.26-.23-.33-.64-.17-.99.16-.35.44-.44.68-.23s.3.6.14.96c0,.01-.02.03-.02.05ZM1124.51,144.04l.6.53c.09-.24.04-.51-.12-.66-.16-.14-.36-.09-.48.13Z"/><path class="cls-19" d="M1126.28,145.69c-.16.36-.45.44-.69.23-.14-.12-.22-.31-.21-.53l-.11.23-.11-.1.75-1.66.11.1-.32.71c.14-.09.29-.07.42.05.24.21.31.61.15.97ZM1126.16,145.59c.12-.28.07-.58-.11-.74-.18-.16-.4-.09-.52.18-.12.28-.07.58.11.74.18.16.4.09.52-.18Z"/><path class="cls-19" d="M1126.72,146.8c-.07.02-.15-.02-.21-.07-.16-.14-.19-.34-.09-.56l.32-.71-.15-.13.06-.13.15.13.12-.26.11.1-.12.26.26.23-.06.13-.26-.23-.32.7c-.06.14-.05.26.05.34.05.04.1.06.15.05v.15Z"/><path class="cls-19" d="M1129.01,147.96l-.31.68-.11-.1.3-.67c.11-.25.08-.46-.07-.59-.17-.15-.35-.09-.47.18l-.28.62-.11-.1.3-.67c.11-.25.08-.46-.07-.59-.17-.15-.35-.09-.47.18l-.28.62-.11-.1.53-1.18.11.1-.1.21c.12-.09.27-.08.41.05s.21.3.19.51c.13-.1.29-.09.45.04.21.18.26.46.11.8Z"/><path class="cls-19" d="M1129.98,148.75l-.33.73-.11-.1.08-.18c-.11.08-.24.06-.38-.06-.19-.17-.25-.41-.15-.61.08-.18.23-.26.48-.05l.27.24.03-.07c.09-.2.06-.38-.1-.52-.11-.1-.24-.13-.34-.11v-.16c.13-.03.28.03.42.14.22.19.27.45.14.76ZM1129.69,149.02l.09-.19-.26-.23c-.16-.14-.26-.1-.31.02-.06.14-.02.29.11.41.13.11.26.11.38,0Z"/><path class="cls-19" d="M1131.04,149.75l-.31.68-.11-.1.3-.67c.11-.25.08-.46-.08-.6-.18-.16-.37-.1-.49.17l-.28.62-.11-.1.53-1.18.11.1-.1.22c.12-.09.28-.07.42.06.21.18.27.47.12.81Z"/><path class="cls-19" d="M1132.01,150.53l-.33.73-.11-.1.08-.18c-.11.08-.24.06-.38-.06-.19-.17-.25-.41-.15-.61.08-.18.23-.26.48-.05l.27.24.03-.07c.09-.2.06-.38-.1-.52-.11-.1-.24-.13-.34-.11v-.16c.13-.03.28.03.42.14.22.19.27.45.14.76ZM1131.72,150.81l.09-.19-.26-.23c-.16-.14-.26-.1-.31.02-.06.14-.02.29.11.41.13.11.26.11.38,0Z"/><path class="cls-19" d="M1133.3,151.05l-.47,1.03c-.18.41-.41.46-.69.22-.15-.13-.28-.33-.31-.53l.11-.07c.04.17.13.34.26.45.21.19.37.14.5-.15l.07-.15c-.14.09-.29.06-.43-.06-.24-.21-.32-.61-.16-.95.15-.34.44-.41.68-.2.14.12.23.31.23.53l.1-.23.11.1ZM1132.94,151.51c.12-.26.06-.55-.13-.71-.19-.16-.4-.11-.51.15-.12.26-.06.55.12.71s.4.11.52-.15Z"/><path class="cls-19" d="M1134.07,152.61l-.71-.62c-.1.26-.04.54.15.7.1.09.22.12.33.07l.02.16c-.13.06-.28.02-.41-.09-.26-.23-.33-.64-.17-.99.16-.35.44-.44.68-.24.24.21.3.6.14.96,0,.01-.02.03-.02.05ZM1133.41,151.87l.6.53c.09-.24.04-.51-.12-.66-.16-.14-.36-.09-.47.13Z"/><path class="cls-19" d="M1135.75,153.9l-.31.68-.11-.1.3-.67c.11-.25.08-.46-.07-.59-.17-.15-.35-.09-.47.18l-.28.62-.11-.1.3-.67c.11-.25.08-.45-.07-.59-.17-.15-.35-.09-.47.18l-.28.62-.11-.1.53-1.18.11.09-.1.21c.12-.09.27-.08.41.05.14.12.21.3.19.51.13-.1.29-.09.45.04.21.18.26.46.11.8Z"/><path class="cls-19" d="M1136.74,154.96l-.71-.62c-.1.26-.04.54.15.7.1.09.22.12.33.07l.02.16c-.13.06-.28.02-.41-.09-.26-.23-.33-.64-.17-.99.16-.35.44-.45.68-.24.24.21.3.6.14.96,0,.01-.02.03-.02.05ZM1136.08,154.22l.6.53c.09-.24.04-.51-.12-.66-.16-.14-.36-.09-.47.13Z"/><path class="cls-19" d="M1137.81,155.71l-.31.68-.11-.1.3-.67c.11-.25.08-.46-.08-.6-.18-.16-.36-.1-.49.17l-.28.62-.11-.1.53-1.18.11.1-.1.22c.13-.09.28-.07.42.06.21.18.27.47.12.81Z"/><path class="cls-19" d="M1138.29,156.98c-.07.02-.15-.02-.21-.07-.16-.14-.19-.34-.09-.56l.32-.71-.15-.13.06-.13.15.13.12-.26.11.1-.12.26.26.23-.06.13-.26-.23-.32.7c-.06.14-.05.26.05.34.05.04.1.06.15.05v.15Z"/><path class="cls-19" d="M1122.2,146.09l.11.1-.53,1.18-.11-.1.53-1.18ZM1122.35,145.69c.03-.06.09-.08.13-.04.05.04.06.12.03.18-.03.06-.09.09-.14.04-.05-.04-.06-.12-.03-.19Z"/><path class="cls-19" d="M1123.19,147.64l-.31.68-.11-.1.3-.67c.11-.25.08-.46-.08-.6-.18-.16-.37-.1-.49.17l-.28.62-.11-.1.53-1.18.11.1-.1.22c.12-.09.28-.07.42.06.21.18.27.47.12.81Z"/><path class="cls-19" d="M1123.13,148.36l.11-.08c.03.13.12.29.24.4.16.14.26.12.31,0,.14-.31-.52-.55-.31-1.01.09-.19.27-.23.49-.04.11.1.21.24.25.37l-.11.08c-.04-.14-.12-.24-.2-.32-.15-.13-.26-.11-.31,0-.14.32.51.56.31,1.01-.09.2-.28.22-.5.03-.14-.12-.25-.3-.28-.45Z"/><path class="cls-19" d="M1125.26,148.78l-.53,1.18-.11-.1.1-.21c-.12.09-.27.08-.41-.04-.21-.19-.28-.48-.13-.82l.31-.68.11.1-.3.67c-.11.25-.08.46.08.6.18.15.36.09.48-.18l.28-.62.11.1Z"/><path class="cls-19" d="M1126.01,149.42l-.07.15s-.02-.02-.03-.03c-.18-.16-.35-.09-.48.18l-.27.6-.11-.1.53-1.18.11.1-.1.23c.12-.11.27-.1.42.04Z"/><path class="cls-19" d="M1126.64,150.62l-.33.73-.11-.1.08-.18c-.11.08-.24.06-.38-.06-.19-.17-.25-.41-.15-.61.08-.18.23-.26.48-.05l.27.24.03-.07c.09-.2.06-.38-.1-.52-.11-.1-.24-.13-.34-.11v-.16c.13-.03.28.03.42.14.22.19.27.45.13.76ZM1126.36,150.9l.09-.19-.26-.23c-.16-.14-.26-.1-.31.02-.06.14-.02.29.11.41.13.11.26.11.38,0Z"/><path class="cls-19" d="M1127.71,151.62l-.31.68-.11-.1.3-.67c.11-.25.08-.46-.08-.6-.18-.16-.36-.1-.49.17l-.28.62-.11-.1.53-1.18.11.1-.1.22c.13-.09.28-.07.42.06.21.18.27.47.12.81Z"/><path class="cls-19" d="M1127.89,151.92c.16-.35.45-.44.7-.22.14.13.23.31.23.52h-.12c0-.16-.07-.3-.17-.38-.18-.16-.4-.1-.53.18-.13.28-.07.58.11.74.1.09.21.11.32.04l.05.16c-.14.09-.29.07-.44-.06-.25-.22-.32-.63-.16-.98Z"/><path class="cls-19" d="M1129.57,153.47l-.71-.62c-.1.26-.04.54.15.7.1.09.22.12.33.07l.02.16c-.13.06-.28.02-.41-.09-.26-.23-.33-.64-.17-.99.16-.35.44-.44.68-.24.24.21.3.6.14.96,0,.01-.02.03-.02.05ZM1128.92,152.73l.6.53c.09-.24.04-.51-.12-.66-.16-.14-.36-.09-.47.13Z"/><path class="cls-19" d="M1129.65,154.12c.04-.08.1-.11.16-.06.06.05.07.14.03.22-.04.08-.1.11-.16.05-.06-.05-.07-.14-.03-.22ZM1129.82,153.84l.02-.06c.04-.13.13-.24.27-.3.12-.06.21-.11.25-.21.05-.11.03-.23-.07-.33-.06-.05-.13-.08-.19-.07l.03-.17c.08,0,.18.04.27.11.18.16.2.4.12.57-.07.15-.18.21-.31.27-.12.05-.19.13-.24.25l-.03.06-.12-.11Z"/><path class="cls-19" d="M1144.55,157.57l.13.04-.19,1.37-.13-.04.19-1.37ZM1144.58,157.13c0-.07.06-.12.12-.1s.09.08.08.15c-.01.08-.06.12-.12.11-.05-.01-.09-.09-.08-.16Z"/><path class="cls-19" d="M1145.86,158.53l-.11.79-.13-.04.11-.78c.04-.29-.05-.47-.23-.52-.21-.06-.37.09-.41.4l-.1.72-.13-.04.19-1.37.13.04-.04.25c.09-.15.24-.21.41-.16.24.07.37.3.32.7Z"/><path class="cls-19" d="M1146.31,158.06l.13.04-.19,1.37-.13-.04.19-1.37ZM1146.34,157.62c0-.07.06-.12.12-.1s.09.08.08.15c-.01.08-.06.12-.12.11-.05-.01-.09-.09-.08-.16Z"/><path class="cls-19" d="M1147.14,159.62c-.06.05-.14.06-.22.04-.18-.05-.26-.22-.23-.48l.12-.83-.17-.05.02-.16.17.05.04-.3.13.04-.04.3.3.08-.02.16-.3-.08-.12.82c-.02.16.02.27.13.3.05.01.11,0,.15-.03l.03.15Z"/><path class="cls-19" d="M1147.56,158.4l.13.04-.19,1.37-.13-.04.19-1.37ZM1147.59,157.96c0-.07.06-.12.12-.1.05.01.09.08.08.15-.01.08-.06.12-.12.11-.05-.01-.09-.09-.08-.16Z"/><path class="cls-19" d="M1148.72,159.27l-.12.85-.13-.04.03-.21c-.08.12-.21.18-.37.13-.22-.06-.33-.26-.3-.5.03-.21.15-.36.43-.28l.31.09v-.08c.04-.23-.03-.39-.21-.44-.13-.04-.25,0-.35.07l-.04-.15c.11-.09.27-.12.42-.08.25.07.37.29.32.64ZM1148.53,159.67l.03-.22-.31-.08c-.19-.05-.26.04-.28.18-.02.16.05.28.21.32.15.04.27-.03.35-.19Z"/><path class="cls-19" d="M1149.24,158.28l.13.04-.27,1.93-.13-.04.27-1.93Z"/><path class="cls-19" d="M1149.83,160.29l.08-.13c.07.11.19.21.32.25.19.05.27-.02.29-.15.05-.36-.62-.25-.54-.79.03-.22.19-.35.44-.28.12.04.26.12.33.22l-.08.13c-.07-.11-.17-.17-.27-.2-.18-.05-.27.03-.29.16-.05.37.62.27.55.79-.03.24-.2.35-.46.28-.16-.04-.31-.16-.37-.28Z"/><path class="cls-19" d="M1151.71,160.09l-.12.85-.13-.04.03-.21c-.08.12-.21.18-.37.13-.22-.06-.33-.26-.3-.5.03-.21.15-.36.43-.28l.31.08v-.08c.04-.23-.03-.39-.21-.44-.13-.04-.25,0-.35.07l-.04-.15c.11-.09.27-.12.42-.08.25.07.37.29.32.64ZM1151.52,160.49l.03-.22-.31-.08c-.19-.05-.26.03-.28.17-.02.16.05.28.21.33.15.04.27-.03.35-.19Z"/><path class="cls-19" d="M1152.95,159.89l-.63,1.25-.13-.04-.24-1.49.14.04.2,1.26.53-1.06.13.04Z"/><path class="cls-19" d="M1153.13,159.95l.13.04-.19,1.37-.13-.04.19-1.37ZM1153.17,159.51c0-.07.06-.12.12-.1.05.01.09.08.08.15-.01.08-.06.12-.12.11-.05-.01-.09-.09-.08-.16Z"/><path class="cls-19" d="M1154.45,160.91l-.11.79-.13-.04.11-.78c.04-.29-.05-.47-.23-.52-.21-.06-.37.09-.41.4l-.1.72-.13-.04.19-1.37.13.04-.04.25c.1-.15.24-.21.41-.16.24.07.37.3.32.7Z"/><path class="cls-19" d="M1155.8,160.68l-.17,1.2c-.07.47-.26.64-.58.55-.18-.05-.34-.17-.42-.34l.09-.12c.08.14.21.25.36.29.25.07.38-.06.43-.4l.02-.17c-.11.15-.26.2-.42.16-.28-.08-.45-.41-.4-.8.06-.39.3-.6.58-.52.16.05.29.18.35.38l.04-.26.13.04ZM1155.58,161.3c.04-.29-.08-.54-.3-.6s-.4.1-.44.4c-.04.3.08.54.3.6.21.06.4-.1.44-.4Z"/><path class="cls-19" d="M1155.86,161.96l.08-.13c.07.11.19.21.32.25.19.05.27-.02.29-.15.05-.36-.62-.25-.54-.79.03-.22.19-.35.44-.28.12.04.25.12.33.22l-.08.13c-.07-.11-.17-.17-.27-.2-.18-.05-.27.03-.29.16-.05.37.62.27.55.79-.03.24-.2.35-.46.28-.16-.04-.31-.16-.37-.28Z"/><path class="cls-3" d="M1051.62,162.24l-6.51,10.74-.99-.55.4-12.01-5.62,9.12-.98-.54.53-14.05.96.53-.46,12.07,5.68-9.19.88.48-.43,12.16,5.64-9.27.9.5Z"/><path class="cls-3" d="M1056.13,174.14l-5.58-3.09c-.45,2,.25,3.88,1.71,4.69.81.45,1.65.44,2.39-.09l.28,1.09c-.88.66-1.96.68-3.01.1-2.08-1.15-2.94-3.92-2.15-6.68.78-2.76,2.73-3.96,4.6-2.92,1.88,1.04,2.69,3.72,1.89,6.52-.03.11-.08.24-.12.38ZM1050.82,170.11l4.73,2.62c.4-1.89-.19-3.69-1.49-4.41-1.29-.72-2.61.03-3.24,1.79Z"/><path class="cls-3" d="M1063.25,176.34l-1.64,5.77-.86-.48.41-1.45c-.68.73-1.63.88-2.73.27-1.51-.83-2.12-2.44-1.67-4.06.41-1.43,1.41-2.27,3.33-1.21l2.12,1.17.16-.57c.45-1.59.05-2.82-1.19-3.51-.86-.48-1.79-.5-2.53-.13l-.14-1.16c.9-.42,2.02-.34,3.07.25,1.73.96,2.36,2.7,1.67,5.11ZM1061.51,178.81l.43-1.52-2.09-1.16c-1.29-.72-1.91-.24-2.19.72-.31,1.08.12,2.1,1.19,2.69,1.01.56,1.95.3,2.66-.72Z"/><path class="cls-3" d="M1067.79,170.33l.9.5-3.73,13.13-.9-.5,3.73-13.13Z"/><path class="cls-3" d="M1071.17,186.74c-.48.25-1.07.16-1.59-.12-1.26-.69-1.67-2.07-1.18-3.79l1.6-5.63-1.19-.66.3-1.06,1.19.66.58-2.04.9.5-.58,2.04,2.03,1.12-.3,1.06-2.03-1.12-1.58,5.56c-.31,1.1-.08,1.92.67,2.34.37.2.78.25,1.12.07l.06,1.08Z"/><path class="cls-3" d="M1080.32,186.21l-1.53,5.4-.9-.5,1.5-5.28c.56-1.96.11-3.38-1.16-4.08-1.43-.79-2.69-.05-3.29,2.07l-1.39,4.89-.9-.5,3.73-13.13.9.5-1.55,5.45c.8-.81,1.85-.94,2.98-.32,1.62.9,2.37,2.83,1.61,5.5Z"/><path class="cls-3" d="M1093.1,195.7c-.6,2.11-2.06,2.69-4.28,1.46l-4.08-2.26,3.52-12.39,3.83,2.12c1.98,1.1,2.79,2.9,2.22,4.91-.4,1.42-1.21,2.05-2.16,2.06,1.04.99,1.43,2.41.95,4.09ZM1092.19,195.08c.46-1.61-.19-2.79-1.75-3.65l-3.13-1.73-1.32,4.66,3.13,1.73c1.56.86,2.61.62,3.07-1ZM1088.89,184.11l-1.28,4.5,2.83,1.57c1.42.79,2.46.48,2.88-1.01.42-1.49-.19-2.7-1.61-3.49l-2.83-1.57Z"/><path class="cls-3" d="M1102.77,194.11l-2.65,9.31-.86-.48.48-1.7c-.79.87-1.84,1.05-2.9.46-1.7-.94-2.44-2.89-1.68-5.56l1.53-5.4.9.5-1.5,5.28c-.56,1.98-.11,3.4,1.16,4.1,1.39.77,2.63,0,3.23-2.12l1.39-4.89.9.5Z"/><path class="cls-3" d="M1105.29,195.5l.9.5-2.65,9.31-.9-.5,2.65-9.31ZM1105.92,192.45c.14-.48.54-.72.91-.52.37.2.55.75.41,1.23-.15.51-.54.77-.92.56-.37-.2-.54-.77-.4-1.27Z"/><path class="cls-3" d="M1109.79,193.56l.9.5-3.73,13.13-.9-.5,3.73-13.13Z"/><path class="cls-3" d="M1119.29,198.82l-3.73,13.13-.86-.48.52-1.84c-.9.96-2.02,1.12-3.12.5-1.9-1.05-2.77-3.77-1.98-6.58.8-2.81,2.76-3.94,4.67-2.89,1.07.59,1.8,1.73,2.01,3.25l1.59-5.59.9.5ZM1115.99,206.81c.62-2.18-.03-4.22-1.44-5-1.42-.79-2.9.08-3.52,2.25-.62,2.18.03,4.22,1.46,5,1.41.78,2.88-.08,3.5-2.26Z"/><path class="cls-3" d="M1120.71,204.03l.9.5-2.65,9.31-.9-.5,2.65-9.31ZM1121.34,200.98c.14-.48.54-.72.91-.52.37.2.55.75.41,1.23-.15.51-.54.77-.92.56-.37-.2-.54-.77-.4-1.27Z"/><path class="cls-3" d="M1129.15,213.23l-1.53,5.4-.9-.5,1.5-5.28c.56-1.96.11-3.38-1.16-4.08-1.43-.79-2.69-.05-3.29,2.07l-1.39,4.89-.9-.5,2.65-9.31.86.48-.49,1.72c.8-.87,1.89-1.02,3.05-.38,1.62.9,2.37,2.83,1.61,5.5Z"/><path class="cls-3" d="M1138.91,214.1l-2.32,8.18c-.91,3.2-2.45,4.03-4.66,2.81-1.22-.67-2.27-1.85-2.7-3.15l.73-.7c.41,1.15,1.24,2.16,2.26,2.73,1.69.93,2.77.28,3.42-2.02l.34-1.19c-.9.88-2.02.97-3.11.37-1.9-1.05-2.82-3.71-2.06-6.38.76-2.67,2.72-3.7,4.63-2.64,1.12.62,1.9,1.79,2.11,3.32l.51-1.79.86.48ZM1136.77,218.04c.57-2.02-.1-3.99-1.57-4.8-1.47-.81-2.92-.01-3.49,2-.57,2.02.08,4,1.55,4.81,1.47.81,2.93,0,3.51-2.01Z"/><path class="cls-3" d="M1150.66,227.54c-.6,2.11-2.06,2.69-4.28,1.46l-4.08-2.26,3.52-12.39,3.83,2.12c1.98,1.09,2.79,2.89,2.21,4.91-.4,1.42-1.21,2.05-2.16,2.06,1.04.98,1.43,2.41.95,4.09ZM1149.75,226.92c.46-1.61-.19-2.79-1.75-3.65l-3.13-1.73-1.32,4.66,3.13,1.73c1.56.86,2.61.62,3.07-1ZM1146.45,215.96l-1.28,4.5,2.83,1.56c1.42.79,2.46.48,2.88-1.01.42-1.49-.19-2.71-1.61-3.49l-2.83-1.57Z"/><path class="cls-3" d="M1155.4,218.8l.9.5-3.73,13.13-.9-.5,3.73-13.13Z"/><path class="cls-3" d="M1155.73,228.79c.79-2.76,2.79-3.93,4.74-2.85,1.95,1.08,2.83,3.84,2.04,6.6-.78,2.76-2.78,3.95-4.73,2.87-1.95-1.08-2.83-3.86-2.05-6.62ZM1161.6,232.04c.62-2.18-.02-4.21-1.44-5-1.42-.79-2.9.08-3.52,2.25-.62,2.18.03,4.22,1.45,5s2.89-.08,3.5-2.26Z"/><path class="cls-3" d="M1163.68,233.19c.79-2.78,2.79-3.93,4.78-2.82,1.13.62,1.9,1.77,2.09,3.29l-.85.27c-.19-1.19-.78-2.03-1.55-2.46-1.46-.81-2.94.05-3.55,2.23-.62,2.2.03,4.22,1.49,5.02.77.43,1.6.4,2.33-.29l.49,1.01c-.88.91-2.01,1.02-3.14.4-1.99-1.1-2.88-3.87-2.09-6.65Z"/><path class="cls-3" d="M1173.87,238.81l-2.15,1.15-.75,2.66-.9-.5,3.73-13.13.9.5-2.53,8.9,5.43-2.88,1.12.62-3.93,2.23,1.55,7.23-1.1-.61-1.36-6.16Z"/><path class="cls-3" d="M1176.86,244.64l.69-.77c.37.88,1.14,1.84,2.08,2.36,1.27.7,1.96.39,2.22-.53.69-2.42-4.18-2.91-3.13-6.59.43-1.52,1.69-2.14,3.39-1.2.86.48,1.71,1.33,2.11,2.17l-.68.79c-.42-.89-1.05-1.5-1.74-1.88-1.21-.67-1.92-.31-2.17.58-.71,2.51,4.15,3.01,3.13,6.59-.46,1.61-1.77,2.09-3.51,1.13-1.1-.61-2.03-1.7-2.39-2.65Z"/><path class="cls-3" d="M916.2,166.91l.85,5.1,4.81-1.55.2,1.19-4.81,1.56.91,5.51-.98.32-2.16-12.98,6.38-2.06.2,1.19-5.39,1.74Z"/><path class="cls-3" d="M923.64,171.79c-.48-2.89.69-5.44,2.74-6.1,2.05-.66,3.89.91,4.37,3.8.48,2.89-.68,5.46-2.72,6.12-2.04.66-3.9-.93-4.38-3.82ZM929.79,169.81c-.38-2.28-1.73-3.44-3.22-2.96-1.49.48-2.35,2.36-1.97,4.64.38,2.28,1.75,3.44,3.24,2.96,1.49-.48,2.34-2.36,1.96-4.64Z"/><path class="cls-3" d="M935.37,162.78l.21,1.28c-.08.03-.16.03-.23.05-1.46.47-2.14,2.06-1.75,4.36l.83,4.97-.94.3-1.62-9.75.9-.29.32,1.91c.22-1.44,1-2.41,2.29-2.83Z"/><path class="cls-3" d="M947.65,158.89l-1.02,10.61-.89.29-3.53-7.28-.88,8.71-.89.29-4.25-8.91.9-.29,3.57,7.58.87-9.01.81-.26,3.61,7.57.84-9.01.86-.28Z"/><path class="cls-3" d="M954.75,160.5l1,6.05-.9.29-.25-1.52c-.26,1.14-.98,2.02-2.14,2.39-1.58.51-2.74-.33-3.02-2.01-.25-1.5.23-2.99,2.24-3.63l2.22-.72-.1-.59c-.28-1.67-1.1-2.36-2.41-1.94-.9.29-1.68,1.01-2.13,1.9l-.59-.84c.57-1.06,1.52-1.88,2.62-2.23,1.81-.58,3.04.34,3.46,2.87ZM954.32,163.92l-.26-1.59-2.19.71c-1.36.44-1.67,1.32-1.5,2.32.19,1.13.96,1.62,2.07,1.26,1.06-.34,1.73-1.3,1.89-2.7Z"/><path class="cls-3" d="M960.21,154.75l.21,1.28c-.08.03-.16.03-.23.05-1.46.47-2.14,2.06-1.75,4.36l.83,4.97-.94.3-1.62-9.75.9-.29.32,1.91c.22-1.44,1-2.41,2.29-2.83Z"/><path class="cls-3" d="M967.57,148.23l2.29,13.76-.9.29-.32-1.93c-.35,1.5-1.2,2.52-2.36,2.89-1.99.64-3.82-.9-4.31-3.85-.49-2.95.67-5.43,2.66-6.08,1.12-.36,2.18,0,2.98,1.07l-.97-5.86.94-.3ZM968.11,157.41c-.38-2.28-1.75-3.44-3.22-2.96-1.49.48-2.35,2.36-1.97,4.64s1.75,3.44,3.23,2.96c1.47-.48,2.34-2.36,1.96-4.64Z"/><path class="cls-3" d="M974.01,146.97l.98-.32,1.96,11.79,5.21-1.68.2,1.19-6.19,2-2.16-12.98Z"/><path class="cls-3" d="M982.17,152.87c-.48-2.89.69-5.44,2.74-6.1,2.05-.66,3.89.91,4.37,3.8.48,2.89-.67,5.46-2.72,6.12-2.04.66-3.91-.93-4.39-3.82ZM988.33,150.88c-.38-2.28-1.73-3.44-3.22-2.96-1.49.48-2.35,2.36-1.97,4.64.38,2.28,1.75,3.44,3.24,2.96,1.49-.48,2.34-2.36,1.96-4.64Z"/><path class="cls-3" d="M990.51,150.17c-.48-2.89.69-5.44,2.74-6.1,2.05-.66,3.89.91,4.37,3.8.48,2.89-.67,5.46-2.72,6.12-2.04.66-3.91-.93-4.39-3.82ZM996.66,148.18c-.38-2.28-1.73-3.44-3.22-2.96-1.49.48-2.35,2.36-1.97,4.64.38,2.28,1.75,3.44,3.24,2.96s2.34-2.36,1.96-4.64Z"/><path class="cls-3" d="M1002.13,146.4l-1.3,2.65.46,2.78-.94.3-2.29-13.76.94-.3,1.55,9.33,3.29-6.67,1.17-.38-2.33,4.95,4.23,4.71-1.16.37-3.63-3.99Z"/><path class="cls-3" d="M1005.89,136.82c-.08-.5.15-1.03.54-1.15.38-.12.76.19.84.69.09.54-.13,1.06-.53,1.19-.38.12-.76-.2-.85-.72ZM1006.61,139.83l.94-.31,1.62,9.75-.94.31-1.62-9.75Z"/><path class="cls-3" d="M1017.3,140.69l.94,5.66-.94.31-.92-5.53c-.34-2.06-1.29-2.87-2.62-2.44-1.5.49-2.23,2.09-1.86,4.31l.85,5.12-.94.3-1.62-9.75.9-.29.3,1.8c.31-1.35,1.14-2.34,2.35-2.73,1.7-.55,3.1.44,3.56,3.24Z"/><path class="cls-3" d="M1025.68,133.66l1.42,8.57c.56,3.36-.37,5.26-2.68,6.01-1.28.41-2.61.28-3.5-.45l.31-1.16c.8.62,1.9.79,2.97.45,1.77-.57,2.39-1.96,1.99-4.38l-.21-1.24c-.38,1.43-1.27,2.4-2.41,2.77-1.99.64-3.83-.81-4.3-3.61-.46-2.8.73-5.2,2.73-5.84,1.17-.38,2.29-.04,3.09,1.05l-.31-1.87.9-.29ZM1025.54,138.59c-.35-2.12-1.71-3.2-3.25-2.7s-2.4,2.3-2.05,4.42c.35,2.11,1.7,3.22,3.24,2.72s2.41-2.32,2.06-4.44Z"/><path class="cls-3" d="M1031.73,135.15c-.63-3.8.98-7.27,3.78-8.18,1.35-.44,2.68-.2,3.71.79l-.48,1.07c-.94-.83-1.94-.99-3.01-.65-2.25.73-3.55,3.57-3.04,6.65.51,3.08,2.58,4.83,4.83,4.11,1.06-.34,1.92-1.11,2.49-2.45l.77.67c-.61,1.53-1.73,2.57-3.1,3.01-2.79.9-5.33-1.23-5.96-5.03Z"/><path class="cls-3" d="M1047.15,130.63l1,6.05-.9.29-.25-1.52c-.26,1.14-.98,2.02-2.14,2.39-1.58.51-2.74-.33-3.02-2.01-.25-1.5.23-2.99,2.24-3.63l2.22-.72-.1-.59c-.28-1.67-1.1-2.36-2.41-1.94-.9.29-1.68,1.01-2.13,1.9l-.59-.84c.57-1.06,1.52-1.88,2.62-2.23,1.81-.58,3.04.35,3.46,2.87ZM1046.72,134.05l-.26-1.59-2.19.71c-1.36.44-1.67,1.32-1.5,2.32.19,1.13.96,1.63,2.07,1.26,1.06-.34,1.73-1.3,1.89-2.7Z"/><path class="cls-3" d="M1049.56,135.05l.25-1.18c.66.43,1.68.61,2.67.29,1.33-.43,1.77-1.24,1.61-2.2-.42-2.54-4.62.93-5.26-2.93-.26-1.59.52-3.1,2.3-3.67.9-.29,1.94-.26,2.62.11l-.24,1.19c-.71-.4-1.48-.4-2.2-.17-1.26.41-1.71,1.27-1.55,2.2.44,2.63,4.64-.82,5.26,2.93.28,1.69-.6,3.12-2.42,3.71-1.15.37-2.36.21-3.04-.29Z"/><path class="cls-3" d="M1062.71,126.01l.94,5.66-.94.3-.92-5.53c-.34-2.06-1.29-2.87-2.62-2.44-1.5.49-2.23,2.09-1.86,4.31l.85,5.12-.94.31-2.29-13.76.94-.31.95,5.71c.33-1.3,1.14-2.24,2.32-2.63,1.7-.55,3.1.44,3.56,3.24Z"/><path class="cls-3" d="M1068.92,117.53l.85,5.1,4.81-1.56.2,1.19-4.81,1.56.91,5.51-.98.32-2.16-12.98,6.38-2.06.2,1.19-5.39,1.74Z"/><path class="cls-3" d="M1075.82,113.23l.94-.3,2.29,13.76-.94.3-2.29-13.76Z"/><path class="cls-3" d="M1080.17,121.18c-.48-2.89.69-5.44,2.74-6.1,2.05-.66,3.89.91,4.37,3.8.48,2.89-.68,5.46-2.72,6.12-2.04.66-3.9-.93-4.38-3.82ZM1086.32,119.2c-.38-2.28-1.73-3.44-3.22-2.96-1.49.48-2.35,2.36-1.97,4.64.38,2.28,1.75,3.44,3.24,2.96,1.49-.48,2.34-2.36,1.96-4.64Z"/><path class="cls-3" d="M1098.45,110.13l-1.02,10.61-.89.29-3.53-7.28-.88,8.71-.89.29-4.25-8.9.9-.29,3.57,7.58.87-9.01.81-.26,3.61,7.57.84-9.01.86-.28Z"/></g><g id="Layer_4"><polygon class="cls-1" points="1014.51 189.68 989.76 215.29 965.53 208.23 992.59 185.62 1014.51 189.68"/><path class="cls-27" d="M992.58,186.45l-.34.29-24.2,20.36-.48.4-.37.31,22.27,6.41.34-.35.45-.46,22.83-23.39-20.25-3.79-.26.22ZM1003.79,188.56l.69.5,6.81,1.29-6.5,6.58.2.7-6.51,6.63-1.36.42-8.25,8.35-7.5-2.13-1.58.12-3.1-.89-.62-.74-6.85-1.95,8.81-7.49-.02-.71,7.04-5.95,1.22-.35,7.05-5.99,6.3,1.19,1.33-.11,2.83.53Z"/><path class="cls-27" d="M994.24,197.21c-1.1-.25-2.18.01-3.54.7-1.03.52-1.61.74-2.21.59-.54-.13-.69-.51-.13-1,.47-.42,1.08-.7,1.46-.83l-.73-.42c-.47.18-1.05.49-1.54.88l-.8-.18-.77.68.91.21c-.45.72-.08,1.3.86,1.52.88.21,2.06-.02,3.45-.75,1.05-.54,1.66-.7,2.3-.55.62.14.81.54.15,1.17-.46.43-1.22.82-1.76,1.02l.82.47c.62-.24,1.27-.63,1.8-1.1l.85.2.74-.71-.93-.21c.53-.82.16-1.43-.91-1.67Z"/><path class="cls-27" d="M998.91,200.19c-2.26,2.23-7.68,3.24-11.9,2.19-4.1-1.02-5.34-3.55-2.95-5.62,2.31-2,7.29-2.89,11.26-2.04,4.08.88,5.77,3.31,3.59,5.47ZM984.88,196.94c-2.1,1.83-.98,4.07,2.64,4.96,3.72.92,8.49.04,10.49-1.93,1.94-1.9.47-4.06-3.14-4.85-3.52-.76-7.95.04-9.99,1.81Z"/><path class="cls-27" d="M995.48,191.06c-.77.68-.22,1.49,1.23,1.79,1.47.3,3.28-.02,4.03-.73.74-.7.15-1.49-1.3-1.78-1.43-.28-3.2.03-3.96.71ZM1000.22,192.02c-.6.57-2.07.83-3.24.59-1.17-.24-1.61-.89-.99-1.44.61-.55,2.04-.8,3.2-.57,1.17.23,1.64.87,1.04,1.43Z"/><path class="cls-27" d="M996.74,191.32c-.39.35-.11.76.64.92.75.15,1.67-.01,2.05-.37.38-.36.09-.76-.66-.91-.74-.15-1.65.02-2.03.37Z"/><polygon class="cls-27" points="995.42 188.3 990.22 192.85 989.52 192.7 994.74 188.17 995.42 188.3"/><polygon class="cls-28" points="1005.38 190.85 1001.53 194.57 1002.14 194.7 1005.98 190.97 1005.38 190.85"/><polygon class="cls-28" points="1006.73 191.12 1002.91 194.86 1003.53 194.99 1007.34 191.23 1006.73 191.12"/><path class="cls-27" d="M979.8,205.1c-.96.86-.51,1.9,1.03,2.32,1.56.42,3.61.04,4.55-.84.93-.87.41-1.9-1.12-2.3-1.52-.39-3.51-.03-4.45.82ZM984.82,206.43c-.76.71-2.41,1.02-3.66.68-1.24-.34-1.61-1.18-.84-1.87.76-.69,2.37-.98,3.6-.66,1.24.32,1.65,1.15.9,1.86Z"/><path class="cls-27" d="M981.14,205.45c-.49.44-.25.97.54,1.19.79.21,1.83.02,2.32-.43.48-.45.22-.97-.56-1.18-.78-.2-1.81-.02-2.29.42Z"/><polygon class="cls-27" points="980.22 201.59 973.72 207.27 972.97 207.07 979.5 201.4 980.22 201.59"/><polygon class="cls-28" points="990.68 205.05 985.84 209.74 986.49 209.92 991.33 205.21 990.68 205.05"/><polygon class="cls-28" points="992.13 205.42 987.31 210.14 987.97 210.32 992.78 205.58 992.13 205.42"/><polygon class="cls-21" points="989.72 224.69 965.53 217.71 965.53 208.23 989.72 215.14 989.72 224.69"/><polygon class="cls-24" points="1014.51 189.68 1014.51 198.47 989.72 224.69 989.72 215.14 1014.51 189.68"/><path class="cls-13" d="M968.08,215.3c.6.17,1.2.35,1.8.53l1.79.55c1.2.37,2.39.74,3.58,1.11,1.19.38,2.39.76,3.58,1.14l1.79.58c.6.2,1.19.39,1.79.6-.6-.17-1.2-.35-1.8-.53l-1.79-.55c-1.2-.37-2.39-.74-3.58-1.11-1.19-.38-2.39-.76-3.58-1.14l-1.79-.58c-.6-.2-1.19-.39-1.79-.6Z"/><polygon class="cls-13" points="989.72 218.11 975.88 213.95 989.72 217.97 989.72 218.11"/><path class="cls-13" d="M968.39,210.72s.09,0,.13.01l.13.03.26.06c.18.04.35.09.53.13l1.05.27c.7.19,1.4.39,2.1.58,1.4.39,2.8.81,4.2,1.21,1.4.42,2.8.83,4.19,1.26l2.09.65c.7.22,1.39.44,2.09.66l-2.1-.6-2.1-.61-4.2-1.23-4.19-1.24-2.1-.62-1.05-.3-.53-.14-.26-.07-.13-.03s-.09-.02-.13-.02Z"/><polygon class="cls-23" points="989.72 217.95 1004.55 202.88 989.72 218.06 989.72 217.95"/><polygon class="cls-23" points="1014.51 192.15 1007.79 198.74 1014.51 192.04 1014.51 192.15"/><polygon class="cls-23" points="1014.51 195.41 1010.9 199.31 1014.51 195.3 1014.51 195.41"/><path class="cls-23" d="M991.43,219.54c.29-.32.59-.63.88-.95l.89-.93c.59-.62,1.19-1.23,1.79-1.85.6-.61,1.2-1.22,1.8-1.83l.91-.9c.3-.3.61-.6.91-.89-.29.32-.59.63-.88.95l-.89.93c-.59.62-1.19,1.23-1.79,1.85-.6.61-1.2,1.22-1.8,1.83l-.91.9c-.3.3-.61.6-.91.89Z"/><polygon class="cls-22" points="977.07 198.59 1000.11 204.47 1006.79 197.67 984.19 192.64 977.07 198.59"/><polygon class="cls-25" points="978.37 197.5 1001.38 203.17 1005.76 198.74 983.2 193.47 978.37 197.5"/><polygon class="cls-15" points="1000.11 204.47 1000.11 213.7 1006.79 206.63 1006.79 197.67 1000.11 204.47"/><polygon class="cls-22" points="1001.38 203.17 1001.53 212.2 1005.76 207.72 1005.76 198.74 1001.38 203.17"/><polygon class="cls-1" points="1019.98 174.1 995.23 199.71 971.01 192.65 998.07 170.04 1019.98 174.1"/><path class="cls-27" d="M998.06,170.87l-.34.29-24.2,20.36-.48.4-.37.31,22.27,6.41.34-.35.45-.46,22.83-23.39-20.25-3.79-.26.22ZM1009.27,172.98l.69.5,6.81,1.29-6.5,6.58.2.7-6.51,6.63-1.36.42-8.25,8.35-7.5-2.13-1.58.12-3.1-.89-.62-.74-6.85-1.95,8.81-7.49-.02-.71,7.04-5.95,1.22-.35,7.05-5.99,6.3,1.19,1.33-.11,2.83.53Z"/><path class="cls-27" d="M999.71,181.63c-1.1-.25-2.18.01-3.54.7-1.03.52-1.61.74-2.21.59-.54-.13-.69-.51-.13-1,.47-.42,1.08-.7,1.46-.83l-.73-.42c-.47.18-1.05.49-1.54.88l-.8-.18-.77.68.91.21c-.45.72-.08,1.3.86,1.52.88.21,2.06-.02,3.45-.75,1.05-.54,1.66-.7,2.3-.55.62.14.81.54.15,1.17-.46.43-1.22.82-1.76,1.02l.82.47c.62-.24,1.27-.63,1.8-1.1l.85.2.74-.71-.93-.21c.53-.82.16-1.43-.91-1.67Z"/><path class="cls-27" d="M1004.38,184.6c-2.26,2.23-7.68,3.24-11.9,2.19-4.1-1.02-5.34-3.55-2.95-5.62,2.31-2,7.29-2.89,11.26-2.04,4.08.88,5.77,3.31,3.59,5.47ZM990.35,181.36c-2.1,1.83-.98,4.07,2.64,4.96,3.72.92,8.49.04,10.49-1.93,1.94-1.9.47-4.06-3.14-4.85-3.52-.76-7.95.04-9.99,1.81Z"/><path class="cls-27" d="M1000.95,175.48c-.77.68-.22,1.49,1.23,1.79,1.47.3,3.28-.02,4.03-.73.74-.7.15-1.49-1.3-1.78-1.43-.28-3.2.03-3.96.71ZM1005.69,176.44c-.6.57-2.07.83-3.24.59-1.17-.24-1.61-.89-.99-1.44.61-.55,2.04-.8,3.2-.57,1.17.23,1.64.87,1.04,1.43Z"/><path class="cls-27" d="M1002.22,175.74c-.39.35-.11.76.64.92.75.15,1.67-.01,2.05-.37.38-.36.09-.76-.66-.91-.74-.15-1.65.02-2.03.37Z"/><polygon class="cls-27" points="1000.9 172.72 995.69 177.27 994.99 177.12 1000.21 172.59 1000.9 172.72"/><polygon class="cls-28" points="1010.85 175.27 1007.01 178.99 1007.62 179.11 1011.45 175.39 1010.85 175.27"/><polygon class="cls-28" points="1012.21 175.54 1008.39 179.28 1009.01 179.41 1012.81 175.65 1012.21 175.54"/><path class="cls-27" d="M985.27,189.52c-.96.86-.51,1.9,1.03,2.32,1.56.42,3.61.04,4.55-.84.93-.87.41-1.9-1.12-2.3-1.52-.39-3.51-.03-4.45.82ZM990.3,190.85c-.76.71-2.41,1.02-3.66.68-1.24-.34-1.61-1.18-.84-1.87.76-.69,2.37-.98,3.6-.66,1.24.32,1.65,1.15.9,1.86Z"/><path class="cls-27" d="M986.61,189.87c-.49.44-.25.97.54,1.19.79.21,1.83.02,2.32-.43.48-.45.22-.97-.56-1.18-.78-.2-1.81-.02-2.29.42Z"/><polygon class="cls-27" points="985.7 186.01 979.19 191.69 978.45 191.49 984.97 185.82 985.7 186.01"/><polygon class="cls-28" points="996.16 189.47 991.31 194.15 991.96 194.33 996.8 189.63 996.16 189.47"/><polygon class="cls-28" points="997.61 189.84 992.78 194.56 993.44 194.74 998.25 190 997.61 189.84"/><polygon class="cls-21" points="995.2 209.1 971.01 202.13 971.01 192.65 995.2 199.56 995.2 209.1"/><polygon class="cls-24" points="1019.98 174.1 1019.98 182.89 995.2 209.1 995.2 199.56 1019.98 174.1"/><path class="cls-13" d="M973.55,199.72c.6.17,1.2.35,1.8.53l1.79.55c1.2.37,2.39.74,3.58,1.11,1.19.38,2.39.76,3.58,1.14l1.79.58c.6.2,1.19.39,1.79.6-.6-.17-1.2-.35-1.8-.53l-1.79-.55c-1.2-.37-2.39-.74-3.58-1.11-1.19-.38-2.39-.76-3.58-1.14l-1.79-.58c-.6-.2-1.19-.39-1.79-.6Z"/><polygon class="cls-13" points="995.2 202.52 981.36 198.36 995.2 202.39 995.2 202.52"/><path class="cls-13" d="M973.87,195.14s.09,0,.13.01l.13.03.26.06c.18.04.35.09.53.13l1.05.27c.7.19,1.4.39,2.1.58,1.4.39,2.8.81,4.2,1.21,1.4.42,2.8.83,4.19,1.26l2.09.65c.7.22,1.39.44,2.09.66l-2.1-.6-2.1-.61-4.2-1.23-4.19-1.24-2.1-.62-1.05-.3-.53-.14-.26-.07-.13-.03s-.09-.02-.13-.02Z"/><polygon class="cls-23" points="995.2 202.36 1010.03 187.3 995.2 202.47 995.2 202.36"/><polygon class="cls-23" points="1019.98 176.57 1013.26 183.16 1019.98 176.46 1019.98 176.57"/><polygon class="cls-23" points="1019.98 179.83 1016.37 183.73 1019.98 179.72 1019.98 179.83"/><path class="cls-23" d="M996.9,203.96c.29-.32.59-.63.88-.95l.89-.93c.59-.62,1.19-1.23,1.79-1.85.6-.61,1.2-1.22,1.8-1.83l.91-.9c.3-.3.61-.6.91-.89-.29.32-.59.63-.88.95l-.89.93c-.59.62-1.19,1.23-1.79,1.85-.6.61-1.2,1.22-1.8,1.83l-.91.9c-.3.3-.61.6-.91.89Z"/><polygon class="cls-22" points="982.54 183.01 1005.59 188.89 1012.27 182.09 989.67 177.06 982.54 183.01"/><polygon class="cls-25" points="983.84 181.92 1006.85 187.59 1011.23 183.16 988.67 177.89 983.84 181.92"/><polygon class="cls-15" points="1005.59 188.89 1005.59 198.12 1012.27 191.05 1012.27 182.09 1005.59 188.89"/><polygon class="cls-22" points="1006.85 187.59 1007 196.62 1011.23 192.14 1011.23 183.16 1006.85 187.59"/><polygon class="cls-1" points="1041.1 194.54 1016.35 220.15 992.13 213.09 1019.19 190.48 1041.1 194.54"/><path class="cls-27" d="M1019.18,191.31l-.34.29-24.2,20.36-.48.4-.37.31,22.27,6.41.34-.35.45-.46,22.83-23.39-20.25-3.79-.26.22ZM1030.39,193.42l.69.5,6.81,1.29-6.5,6.58.2.7-6.51,6.63-1.36.42-8.25,8.35-7.5-2.13-1.58.12-3.1-.89-.62-.74-6.85-1.95,8.81-7.49-.02-.71,7.04-5.95,1.22-.35,7.05-5.99,6.3,1.19,1.33-.11,2.83.53Z"/><path class="cls-27" d="M1020.84,202.07c-1.1-.25-2.18.01-3.54.7-1.03.52-1.61.74-2.21.59-.54-.13-.69-.51-.13-1,.47-.42,1.08-.7,1.46-.83l-.73-.42c-.47.18-1.05.49-1.54.88l-.8-.18-.77.68.91.21c-.45.72-.08,1.3.86,1.52.88.21,2.06-.02,3.45-.75,1.05-.54,1.66-.7,2.3-.55.62.14.81.54.15,1.17-.46.43-1.22.82-1.76,1.02l.82.47c.62-.24,1.27-.63,1.8-1.1l.85.2.74-.71-.93-.21c.53-.82.16-1.43-.91-1.67Z"/><path class="cls-27" d="M1025.5,205.05c-2.26,2.23-7.68,3.24-11.9,2.19-4.1-1.02-5.34-3.55-2.95-5.62,2.31-2,7.29-2.89,11.26-2.04,4.08.88,5.77,3.31,3.59,5.47ZM1011.47,201.8c-2.1,1.83-.98,4.07,2.64,4.96,3.72.92,8.49.04,10.49-1.93,1.94-1.9.47-4.06-3.14-4.85-3.52-.76-7.95.04-9.99,1.81Z"/><path class="cls-27" d="M1022.07,195.92c-.77.68-.22,1.49,1.23,1.79,1.47.3,3.28-.02,4.03-.73.74-.7.15-1.49-1.3-1.78-1.43-.28-3.2.03-3.96.71ZM1026.81,196.88c-.6.57-2.07.83-3.24.59-1.17-.24-1.61-.89-.99-1.44.61-.55,2.04-.8,3.2-.57,1.17.23,1.64.87,1.04,1.43Z"/><path class="cls-27" d="M1023.34,196.18c-.39.35-.11.76.64.92.75.15,1.67-.01,2.05-.37.38-.36.09-.76-.66-.91-.74-.15-1.65.02-2.03.37Z"/><polygon class="cls-27" points="1022.02 193.16 1016.81 197.71 1016.11 197.56 1021.33 193.03 1022.02 193.16"/><polygon class="cls-28" points="1031.97 195.71 1028.13 199.43 1028.74 199.56 1032.57 195.83 1031.97 195.71"/><polygon class="cls-28" points="1033.33 195.98 1029.51 199.72 1030.13 199.85 1033.94 196.09 1033.33 195.98"/><path class="cls-27" d="M1006.39,209.96c-.96.86-.51,1.9,1.03,2.32,1.56.42,3.61.04,4.55-.84.93-.87.41-1.9-1.12-2.3-1.52-.39-3.51-.03-4.45.82ZM1011.42,211.29c-.76.71-2.41,1.02-3.66.68-1.24-.34-1.61-1.18-.84-1.87.76-.69,2.37-.98,3.6-.66,1.24.32,1.65,1.15.9,1.86Z"/><path class="cls-27" d="M1007.73,210.31c-.49.44-.25.97.54,1.19.79.21,1.83.02,2.32-.43.48-.45.22-.97-.56-1.18-.78-.2-1.81-.02-2.29.42Z"/><polygon class="cls-27" points="1006.82 206.45 1000.31 212.13 999.57 211.93 1006.09 206.26 1006.82 206.45"/><polygon class="cls-28" points="1017.28 209.91 1012.43 214.6 1013.08 214.78 1017.92 210.07 1017.28 209.91"/><polygon class="cls-28" points="1018.73 210.28 1013.9 215 1014.56 215.18 1019.37 210.44 1018.73 210.28"/><polygon class="cls-21" points="1016.32 229.55 992.13 222.57 992.13 213.09 1016.32 220 1016.32 229.55"/><polygon class="cls-24" points="1041.1 194.54 1041.1 203.33 1016.32 229.55 1016.32 220 1041.1 194.54"/><path class="cls-13" d="M994.67,220.16c.6.17,1.2.35,1.8.53l1.79.55c1.2.37,2.39.74,3.58,1.11,1.19.38,2.39.76,3.58,1.14l1.79.58c.6.2,1.19.39,1.79.6-.6-.17-1.2-.35-1.8-.53l-1.79-.55c-1.2-.37-2.39-.74-3.58-1.11-1.19-.38-2.39-.76-3.58-1.14l-1.79-.58c-.6-.2-1.19-.39-1.79-.6Z"/><polygon class="cls-13" points="1016.32 222.97 1002.48 218.81 1016.32 222.83 1016.32 222.97"/><path class="cls-13" d="M994.99,215.58s.09,0,.13.01l.13.03.26.06c.18.04.35.09.53.13l1.05.27c.7.19,1.4.39,2.1.58,1.4.39,2.8.81,4.2,1.21,1.4.42,2.8.83,4.19,1.26l2.09.65c.7.22,1.39.44,2.09.66l-2.1-.6-2.1-.61-4.2-1.23-4.19-1.24-2.1-.62-1.05-.3-.53-.14-.26-.07-.13-.03s-.09-.02-.13-.02Z"/><polygon class="cls-23" points="1016.32 222.81 1031.15 207.74 1016.32 222.92 1016.32 222.81"/><polygon class="cls-23" points="1041.1 197.01 1034.38 203.6 1041.1 196.9 1041.1 197.01"/><polygon class="cls-23" points="1041.1 200.27 1037.49 204.17 1041.1 200.16 1041.1 200.27"/><path class="cls-23" d="M1018.02,224.4c.29-.32.59-.63.88-.95l.89-.93c.59-.62,1.19-1.23,1.79-1.85.6-.61,1.2-1.22,1.8-1.83l.91-.9c.3-.3.61-.6.91-.89-.29.32-.59.63-.88.95l-.89.93c-.59.62-1.19,1.23-1.79,1.85-.6.61-1.2,1.22-1.8,1.83l-.91.9c-.3.3-.61.6-.91.89Z"/><polygon class="cls-22" points="1003.66 203.45 1026.71 209.33 1033.39 202.53 1010.79 197.5 1003.66 203.45"/><polygon class="cls-25" points="1004.96 202.36 1027.98 208.03 1032.35 203.6 1009.8 198.33 1004.96 202.36"/><polygon class="cls-15" points="1026.71 209.33 1026.71 218.56 1033.39 211.49 1033.39 202.53 1026.71 209.33"/><polygon class="cls-22" points="1027.98 208.03 1028.12 217.06 1032.35 212.58 1032.35 203.6 1027.98 208.03"/><polygon class="cls-1" points="1046.11 180.22 1021.36 205.83 997.14 198.77 1024.2 176.16 1046.11 180.22"/><path class="cls-27" d="M1024.18,176.99l-.34.29-24.2,20.36-.48.4-.37.31,22.27,6.41.34-.35.45-.46,22.83-23.39-20.25-3.79-.26.22ZM1035.4,179.1l.69.5,6.81,1.29-6.5,6.58.2.7-6.51,6.63-1.36.42-8.25,8.35-7.5-2.13-1.58.12-3.1-.89-.62-.74-6.85-1.95,8.81-7.49-.02-.71,7.04-5.95,1.22-.35,7.05-5.99,6.3,1.19,1.33-.11,2.83.53Z"/><path class="cls-27" d="M1025.84,187.75c-1.1-.25-2.18.01-3.54.7-1.03.52-1.61.74-2.21.59-.54-.13-.69-.51-.13-1,.47-.42,1.08-.7,1.46-.83l-.73-.42c-.47.18-1.05.49-1.54.88l-.8-.18-.77.68.91.21c-.45.72-.08,1.3.86,1.52.88.21,2.06-.02,3.45-.75,1.05-.54,1.66-.7,2.3-.55.62.14.81.54.15,1.17-.46.43-1.22.82-1.76,1.02l.82.47c.62-.24,1.27-.63,1.8-1.1l.85.2.74-.71-.93-.21c.53-.82.16-1.43-.91-1.67Z"/><path class="cls-27" d="M1030.51,190.73c-2.26,2.23-7.68,3.24-11.9,2.19-4.1-1.02-5.34-3.55-2.95-5.62,2.31-2,7.29-2.89,11.26-2.04,4.08.88,5.77,3.31,3.59,5.47ZM1016.48,187.48c-2.1,1.83-.98,4.07,2.64,4.96,3.72.92,8.49.04,10.49-1.93,1.94-1.9.47-4.06-3.14-4.85-3.52-.76-7.95.04-9.99,1.81Z"/><path class="cls-27" d="M1027.08,181.6c-.77.68-.22,1.49,1.23,1.79,1.47.3,3.28-.02,4.03-.73.74-.7.15-1.49-1.3-1.78-1.43-.28-3.2.03-3.96.71ZM1031.82,182.56c-.6.57-2.07.83-3.24.59-1.17-.24-1.61-.89-.99-1.44.61-.55,2.04-.8,3.2-.57,1.17.23,1.64.87,1.04,1.43Z"/><path class="cls-27" d="M1028.35,181.86c-.39.35-.11.76.64.92.75.15,1.67-.01,2.05-.37.38-.36.09-.76-.66-.91-.74-.15-1.65.02-2.03.37Z"/><polygon class="cls-27" points="1027.03 178.84 1021.82 183.39 1021.12 183.24 1026.34 178.71 1027.03 178.84"/><polygon class="cls-28" points="1036.98 181.39 1033.14 185.11 1033.75 185.24 1037.58 181.51 1036.98 181.39"/><polygon class="cls-28" points="1038.34 181.66 1034.52 185.4 1035.14 185.53 1038.94 181.77 1038.34 181.66"/><path class="cls-27" d="M1011.4,195.64c-.96.86-.51,1.9,1.03,2.32,1.56.42,3.61.04,4.55-.84.93-.87.41-1.9-1.12-2.3-1.52-.39-3.51-.03-4.45.82ZM1016.43,196.97c-.76.71-2.41,1.02-3.66.68-1.24-.34-1.61-1.18-.84-1.87.76-.69,2.37-.98,3.6-.66,1.24.32,1.65,1.15.9,1.86Z"/><path class="cls-27" d="M1012.74,195.99c-.49.44-.25.97.54,1.19.79.21,1.83.02,2.32-.43.48-.45.22-.97-.56-1.18-.78-.2-1.81-.02-2.29.42Z"/><polygon class="cls-27" points="1011.83 192.13 1005.32 197.81 1004.58 197.61 1011.1 191.94 1011.83 192.13"/><polygon class="cls-28" points="1022.29 195.59 1017.44 200.28 1018.09 200.46 1022.93 195.75 1022.29 195.59"/><polygon class="cls-28" points="1023.74 195.96 1018.91 200.68 1019.57 200.86 1024.38 196.12 1023.74 195.96"/><polygon class="cls-21" points="1021.33 215.23 997.14 208.25 997.14 198.77 1021.33 205.68 1021.33 215.23"/><polygon class="cls-24" points="1046.11 180.22 1046.11 189.01 1021.33 215.23 1021.33 205.68 1046.11 180.22"/><path class="cls-13" d="M999.68,205.84c.6.17,1.2.35,1.8.53l1.79.55c1.2.37,2.39.74,3.58,1.11,1.19.38,2.39.76,3.58,1.14l1.79.58c.6.2,1.19.39,1.79.6-.6-.17-1.2-.35-1.8-.53l-1.79-.55c-1.2-.37-2.39-.74-3.58-1.11-1.19-.38-2.39-.76-3.58-1.14l-1.79-.58c-.6-.2-1.19-.39-1.79-.6Z"/><polygon class="cls-13" points="1021.33 208.65 1007.49 204.49 1021.33 208.51 1021.33 208.65"/><path class="cls-13" d="M1000,201.26s.09,0,.13.01l.13.03.26.06c.18.04.35.09.53.13l1.05.27c.7.19,1.4.39,2.1.58,1.4.39,2.8.81,4.2,1.21,1.4.42,2.8.83,4.19,1.26l2.09.65c.7.22,1.39.44,2.09.66l-2.1-.6-2.1-.61-4.2-1.23-4.19-1.24-2.1-.62-1.05-.3-.53-.14-.26-.07-.13-.03s-.09-.02-.13-.02Z"/><polygon class="cls-23" points="1021.33 208.49 1036.15 193.42 1021.33 208.6 1021.33 208.49"/><polygon class="cls-23" points="1046.11 182.69 1039.39 189.28 1046.11 182.58 1046.11 182.69"/><polygon class="cls-23" points="1046.11 185.95 1042.5 189.85 1046.11 185.84 1046.11 185.95"/><path class="cls-23" d="M1023.03,210.08c.29-.32.59-.63.88-.95l.89-.93c.59-.62,1.19-1.23,1.79-1.85.6-.61,1.2-1.22,1.8-1.83l.91-.9c.3-.3.61-.6.91-.89-.29.32-.59.63-.88.95l-.89.93c-.59.62-1.19,1.23-1.79,1.85-.6.61-1.2,1.22-1.8,1.83l-.91.9c-.3.3-.61.6-.91.89Z"/><polygon class="cls-22" points="1008.67 189.13 1031.72 195.01 1038.39 188.21 1015.8 183.18 1008.67 189.13"/><polygon class="cls-25" points="1009.97 188.05 1032.98 193.71 1037.36 189.28 1014.8 184.01 1009.97 188.05"/><polygon class="cls-15" points="1031.72 195.01 1031.72 204.24 1038.39 197.17 1038.39 188.21 1031.72 195.01"/><polygon class="cls-22" points="1032.98 193.71 1033.13 202.74 1037.36 198.26 1037.36 189.28 1032.98 193.71"/></g></g></svg>