<?xml version="1.0" encoding="UTF-8"?><svg xmlns="http://www.w3.org/2000/svg" xmlns:xlink="http://www.w3.org/1999/xlink" viewBox="0 0 14400 14400"><defs><style>.cls-1{fill:#a7c750;}.cls-2{stroke:#39b54a;}.cls-2,.cls-3{fill:#8cc63f;}.cls-2,.cls-4,.cls-5{stroke-miterlimit:10;}.cls-6{fill:#39b54a;}.cls-4{stroke:#fe938c;}.cls-4,.cls-7,.cls-5{fill:none;}.cls-8{fill:url(#radial-gradient);mix-blend-mode:multiply;}.cls-9,.cls-10{fill:#fff;}.cls-10,.cls-11{opacity:.5;}.cls-5{stroke:#006837;stroke-width:10px;}.cls-12{fill:#6ea84f;}.cls-13{fill:#688716;}.cls-14{isolation:isolate;}.cls-15{fill:#b17f4a;}.cls-16{fill:#038765;}.cls-17{fill:#fe938c;}.cls-18{opacity:.2;}.cls-19{fill:#c5efb9;}.cls-20{fill:#262262;}.cls-21{fill:#8cab38;}.cls-22{fill:#ca9e67;}.cls-23{fill:#5d7a0f;}.cls-24{fill:#74941f;}.cls-25{fill:#e6c091;}.cls-26{clip-path:url(#clippath);}.cls-27{fill:#64801b;}.cls-28{fill:#c6e673;}</style><clipPath id="clippath"><path class="cls-20" d="M7673.59,7130.34l.28,110.32-590.96-48.08c-162.6-15.14-170.36-17.03-177.87-20.12l-45.77-18.86-62.83-25.4,877.14,2.14Z"/></clipPath><radialGradient id="radial-gradient" cx="7011.79" cy="7224.04" fx="7011.79" fy="7224.04" r="15.44" gradientTransform="translate(-3770.99 -3074.12) rotate(20.41) scale(2.03 .78)" gradientUnits="userSpaceOnUse"><stop offset=".02" stop-color="#212133"/><stop offset=".07" stop-color="#424251"/><stop offset=".15" stop-color="#6e6e79"/><stop offset=".24" stop-color="#95959d"/><stop offset=".32" stop-color="#b6b6bb"/><stop offset=".42" stop-color="#d0d0d4"/><stop offset=".52" stop-color="#e5e5e7"/><stop offset=".64" stop-color="#f3f3f4"/><stop offset=".78" stop-color="#fcfcfc"/><stop offset="1" stop-color="#fff"/></radialGradient></defs><g class="cls-14"><g id="Layer_3"><path class="cls-20" d="M7673.59,7130.34l.28,110.32-590.96-48.08c-162.6-15.14-170.36-17.03-177.87-20.12l-45.77-18.86-62.83-25.4,877.14,2.14Z"/><g class="cls-26"><rect class="cls-7" x="6796.45" y="7128.21" width="130.01" height="62.76"/><rect class="cls-7" x="6926.46" y="7190.97" width="212.43" height="26.55"/><g class="cls-18"><rect class="cls-4" x="6800.84" y="7128.67" width="875.23" height="113.36"/><line class="cls-4" x1="6800.84" y1="7223.14" x2="7676.07" y2="7223.14"/><line class="cls-4" x1="6800.84" y1="7204.24" x2="7676.07" y2="7204.24"/><line class="cls-4" x1="6800.84" y1="7185.35" x2="7676.07" y2="7185.35"/><line class="cls-4" x1="6800.84" y1="7166.46" x2="7676.07" y2="7166.46"/><line class="cls-4" x1="6800.84" y1="7147.56" x2="7676.07" y2="7147.56"/><line class="cls-4" x1="7651.76" y1="7128.67" x2="7651.76" y2="7242.03"/><line class="cls-4" x1="7627.45" y1="7128.67" x2="7627.45" y2="7242.03"/><line class="cls-4" x1="7603.14" y1="7128.67" x2="7603.14" y2="7242.03"/><line class="cls-4" x1="7578.83" y1="7128.67" x2="7578.83" y2="7242.03"/><line class="cls-4" x1="7554.51" y1="7128.67" x2="7554.51" y2="7242.03"/><line class="cls-4" x1="7530.2" y1="7128.67" x2="7530.2" y2="7242.03"/><line class="cls-4" x1="7505.89" y1="7128.67" x2="7505.89" y2="7242.03"/><line class="cls-4" x1="7481.58" y1="7128.67" x2="7481.58" y2="7242.03"/><line class="cls-4" x1="7457.27" y1="7128.67" x2="7457.27" y2="7242.03"/><line class="cls-4" x1="7432.95" y1="7128.67" x2="7432.95" y2="7242.03"/><line class="cls-4" x1="7408.64" y1="7128.67" x2="7408.64" y2="7242.03"/><line class="cls-4" x1="7384.33" y1="7128.67" x2="7384.33" y2="7242.03"/><line class="cls-4" x1="7360.02" y1="7128.67" x2="7360.02" y2="7242.03"/><line class="cls-4" x1="7335.71" y1="7128.67" x2="7335.71" y2="7242.03"/><line class="cls-4" x1="7311.39" y1="7128.67" x2="7311.39" y2="7242.03"/><line class="cls-4" x1="7287.08" y1="7128.67" x2="7287.08" y2="7242.03"/><line class="cls-4" x1="7262.77" y1="7128.67" x2="7262.77" y2="7242.03"/><line class="cls-4" x1="7238.46" y1="7128.67" x2="7238.46" y2="7242.03"/><line class="cls-4" x1="7214.15" y1="7128.67" x2="7214.15" y2="7242.03"/><line class="cls-4" x1="7189.83" y1="7128.67" x2="7189.83" y2="7242.03"/><line class="cls-4" x1="7165.52" y1="7128.67" x2="7165.52" y2="7242.03"/><line class="cls-4" x1="7141.21" y1="7128.67" x2="7141.21" y2="7242.03"/><line class="cls-4" x1="7116.9" y1="7128.67" x2="7116.9" y2="7242.03"/><line class="cls-4" x1="7092.59" y1="7128.67" x2="7092.59" y2="7242.03"/><line class="cls-4" x1="7068.27" y1="7128.67" x2="7068.27" y2="7242.03"/><line class="cls-4" x1="7043.96" y1="7128.67" x2="7043.96" y2="7242.03"/><line class="cls-4" x1="7019.65" y1="7128.67" x2="7019.65" y2="7242.03"/><line class="cls-4" x1="6995.34" y1="7128.67" x2="6995.34" y2="7242.03"/><line class="cls-4" x1="6971.02" y1="7128.67" x2="6971.02" y2="7242.03"/><line class="cls-4" x1="6946.71" y1="7128.67" x2="6946.71" y2="7242.03"/><line class="cls-4" x1="6922.4" y1="7128.67" x2="6922.4" y2="7242.03"/><line class="cls-4" x1="6898.09" y1="7128.67" x2="6898.09" y2="7242.03"/><line class="cls-4" x1="6873.78" y1="7128.67" x2="6873.78" y2="7242.03"/><line class="cls-4" x1="6849.46" y1="7128.67" x2="6849.46" y2="7242.03"/><line class="cls-4" x1="6825.15" y1="7128.67" x2="6825.15" y2="7242.03"/></g></g><line class="cls-5" x1="6796.45" y1="7128.21" x2="6709.9" y2="7128"/><path class="cls-5" d="M6796.45,7128.21l62.83,25.4,45.77,18.86c7.51,3.09,15.27,4.98,177.87,20.12l590.96,48.08-.28-110.32-877.14-2.14Z"/><line class="cls-5" x1="6796.43" y1="7128.2" x2="6796.45" y2="7128.21"/><rect class="cls-7" x="7445.01" y="7124.54" width="88.85" height="11.06"/><path class="cls-17" d="M7445.84,7132.76c.51.31,1.25.57,2.03.57,1.16,0,1.83-.61,1.83-1.5,0-.82-.47-1.29-1.65-1.74-1.43-.51-2.31-1.25-2.31-2.48,0-1.37,1.13-2.38,2.83-2.38.9,0,1.55.21,1.94.43l-.31.92c-.29-.16-.87-.42-1.66-.42-1.2,0-1.65.72-1.65,1.31,0,.82.53,1.22,1.74,1.69,1.48.57,2.24,1.29,2.24,2.57,0,1.35-1,2.52-3.07,2.52-.84,0-1.77-.25-2.24-.56l.29-.95Z"/><path class="cls-17" d="M7454.07,7126.34h-2.67v-.96h6.49v.96h-2.68v7.8h-1.14v-7.8Z"/><path class="cls-17" d="M7458.87,7125.49c.57-.12,1.39-.18,2.17-.18,1.21,0,1.99.22,2.54.71.44.39.69.99.69,1.66,0,1.16-.73,1.92-1.65,2.24v.04c.68.23,1.08.86,1.29,1.77.29,1.22.49,2.07.68,2.41h-1.17c-.14-.25-.34-1-.58-2.09-.26-1.21-.73-1.66-1.75-1.7h-1.07v3.8h-1.13v-8.65ZM7460,7129.48h1.16c1.21,0,1.98-.66,1.98-1.66,0-1.13-.82-1.62-2.01-1.64-.55,0-.94.05-1.12.1v3.2Z"/><path class="cls-17" d="M7470.4,7130.03h-3.41v3.16h3.8v.95h-4.93v-8.76h4.73v.95h-3.6v2.77h3.41v.94Z"/><path class="cls-17" d="M7472.1,7132.76c.51.31,1.25.57,2.03.57,1.16,0,1.83-.61,1.83-1.5,0-.82-.47-1.29-1.65-1.74-1.43-.51-2.31-1.25-2.31-2.48,0-1.37,1.13-2.38,2.83-2.38.9,0,1.55.21,1.94.43l-.31.92c-.29-.16-.87-.42-1.66-.42-1.2,0-1.65.72-1.65,1.31,0,.82.53,1.22,1.74,1.69,1.48.57,2.24,1.29,2.24,2.57,0,1.35-1,2.52-3.07,2.52-.84,0-1.77-.25-2.24-.56l.29-.95Z"/><path class="cls-17" d="M7478.51,7132.76c.51.31,1.25.57,2.03.57,1.16,0,1.83-.61,1.83-1.5,0-.82-.47-1.29-1.65-1.74-1.43-.51-2.31-1.25-2.31-2.48,0-1.37,1.13-2.38,2.83-2.38.9,0,1.55.21,1.94.43l-.31.92c-.29-.16-.87-.42-1.66-.42-1.2,0-1.65.72-1.65,1.31,0,.82.53,1.22,1.74,1.69,1.48.57,2.24,1.29,2.24,2.57,0,1.35-1,2.52-3.07,2.52-.84,0-1.77-.25-2.24-.56l.29-.95Z"/><path class="cls-17" d="M7493.34,7133.56l-5.42-9.01h10.83l-5.41,9.01Z"/><path class="cls-17" d="M7503.85,7133.33c.25.03.53,0,.92-.04.66-.09,1.29-.36,1.77-.82.56-.51.96-1.25,1.12-2.25h-.04c-.47.57-1.14.91-1.99.91-1.52,0-2.5-1.14-2.5-2.59,0-1.6,1.16-3,2.89-3s2.79,1.4,2.79,3.56c0,1.86-.62,3.16-1.46,3.96-.65.64-1.55,1.03-2.46,1.13-.42.06-.78.08-1.05.06v-.94ZM7504.26,7128.47c0,1.05.64,1.79,1.62,1.79.77,0,1.37-.38,1.66-.88.07-.1.1-.23.1-.42,0-1.44-.53-2.55-1.73-2.55-.97,0-1.66.86-1.66,2.05Z"/><path class="cls-17" d="M7510.52,7133.33c.25.03.53,0,.92-.04.66-.09,1.29-.36,1.77-.82.56-.51.96-1.25,1.12-2.25h-.04c-.47.57-1.14.91-1.99.91-1.52,0-2.5-1.14-2.5-2.59,0-1.6,1.16-3,2.89-3s2.79,1.4,2.79,3.56c0,1.86-.62,3.16-1.46,3.96-.65.64-1.55,1.03-2.46,1.13-.42.06-.78.08-1.05.06v-.94ZM7510.93,7128.47c0,1.05.64,1.79,1.62,1.79.77,0,1.37-.38,1.66-.88.07-.1.1-.23.1-.42,0-1.44-.53-2.55-1.73-2.55-.97,0-1.66.86-1.66,2.05Z"/><path class="cls-17" d="M7520.33,7128.06c0,1.78-.94,2.67-2.03,2.67s-1.96-.84-1.98-2.55c0-1.69.92-2.64,2.04-2.64,1.18,0,1.96.91,1.96,2.52ZM7517.24,7128.14c-.03,1.08.38,1.9,1.09,1.9.75,0,1.09-.81,1.09-1.92,0-1.03-.3-1.88-1.09-1.88-.71,0-1.09.84-1.09,1.91ZM7518.23,7134.28l4.97-8.74h.73l-4.97,8.74h-.73ZM7525.83,7131.56c0,1.78-.94,2.67-2.02,2.67s-1.96-.84-1.98-2.54c0-1.7.92-2.65,2.04-2.65,1.18,0,1.95.91,1.95,2.52ZM7522.74,7131.64c-.01,1.08.4,1.9,1.11,1.9.75,0,1.09-.81,1.09-1.92,0-1.03-.3-1.88-1.09-1.88-.71,0-1.11.84-1.11,1.91Z"/><path class="cls-17" d="M7560.43,7133.5c-.42.21-1.25.42-2.31.42-2.47,0-4.33-1.56-4.33-4.43s1.86-4.6,4.58-4.6c1.09,0,1.78.23,2.08.39l-.27.92c-.43-.21-1.04-.36-1.77-.36-2.05,0-3.42,1.31-3.42,3.61,0,2.15,1.24,3.52,3.37,3.52.69,0,1.39-.14,1.85-.36l.23.9Z"/><path class="cls-17" d="M7563.32,7131.03l-.91,2.76h-1.17l2.98-8.76h1.37l2.99,8.76h-1.21l-.94-2.76h-3.11ZM7566.19,7130.15l-.86-2.52c-.19-.57-.33-1.09-.46-1.6h-.03c-.13.52-.27,1.05-.44,1.59l-.86,2.54h2.64Z"/><path class="cls-17" d="M7569.7,7132.41c.51.31,1.25.57,2.03.57,1.16,0,1.83-.61,1.83-1.5,0-.82-.47-1.29-1.65-1.74-1.43-.51-2.31-1.25-2.31-2.48,0-1.36,1.13-2.38,2.83-2.38.9,0,1.55.21,1.94.43l-.31.92c-.29-.16-.87-.42-1.66-.42-1.2,0-1.65.71-1.65,1.31,0,.82.53,1.22,1.74,1.69,1.48.57,2.24,1.29,2.24,2.57,0,1.35-1,2.52-3.07,2.52-.84,0-1.77-.25-2.24-.56l.29-.95Z"/><path class="cls-17" d="M7577.39,7125.02v3.67h4.24v-3.67h1.14v8.76h-1.14v-4.11h-4.24v4.11h-1.13v-8.76h1.13Z"/><path class="cls-17" d="M7587.5,7125.02h4.72v.95h-3.59v2.91h3.32v.94h-3.32v3.97h-1.13v-8.76Z"/><path class="cls-17" d="M7593.83,7125.02h1.13v7.81h3.74v.95h-4.88v-8.76Z"/><path class="cls-17" d="M7606.94,7129.31c0,3.02-1.83,4.62-4.07,4.62s-3.94-1.79-3.94-4.45c0-2.78,1.73-4.6,4.07-4.6s3.94,1.83,3.94,4.43ZM7600.14,7129.46c0,1.87,1.01,3.55,2.79,3.55s2.81-1.65,2.81-3.64c0-1.74-.91-3.56-2.79-3.56s-2.81,1.73-2.81,3.65Z"/><path class="cls-17" d="M7609.84,7133.79l-2.22-8.76h1.2l1.04,4.43c.26,1.09.49,2.18.65,3.03h.03c.14-.87.42-1.91.71-3.04l1.17-4.42h1.18l1.07,4.45c.25,1.04.48,2.08.61,3h.03c.18-.96.43-1.94.7-3.03l1.16-4.42h1.16l-2.48,8.76h-1.18l-1.11-4.56c-.27-1.12-.46-1.98-.57-2.86h-.03c-.16.87-.35,1.73-.68,2.86l-1.25,4.56h-1.18Z"/><path class="cls-17" d="M7627.68,7124.21l5.41,9.01h-10.83l5.42-9.01Z"/><path class="cls-17" d="M7640,7126.4h-.03l-1.47.79-.22-.87,1.85-.99h.97v8.45h-1.1v-7.38Z"/><path class="cls-17" d="M7649.8,7129.47c0,2.87-1.07,4.46-2.94,4.46-1.65,0-2.77-1.55-2.79-4.34,0-2.83,1.22-4.39,2.94-4.39s2.79,1.59,2.79,4.28ZM7645.21,7129.6c0,2.2.68,3.44,1.72,3.44,1.17,0,1.73-1.36,1.73-3.52s-.53-3.45-1.72-3.45c-1,0-1.73,1.22-1.73,3.52Z"/><path class="cls-17" d="M7656.47,7129.47c0,2.87-1.07,4.46-2.94,4.46-1.65,0-2.77-1.55-2.79-4.34,0-2.83,1.22-4.39,2.94-4.39s2.79,1.59,2.79,4.28ZM7651.88,7129.6c0,2.2.68,3.44,1.72,3.44,1.17,0,1.73-1.36,1.73-3.52s-.53-3.45-1.72-3.45c-1,0-1.73,1.22-1.73,3.52Z"/><path class="cls-17" d="M7661.33,7127.72c0,1.78-.94,2.67-2.03,2.67s-1.96-.84-1.98-2.55c0-1.69.92-2.64,2.04-2.64,1.18,0,1.96.91,1.96,2.52ZM7658.24,7127.79c-.03,1.08.38,1.9,1.09,1.9.75,0,1.09-.81,1.09-1.92,0-1.03-.3-1.89-1.09-1.89-.71,0-1.09.85-1.09,1.91ZM7659.23,7133.93l4.97-8.74h.73l-4.97,8.74h-.73ZM7666.83,7131.21c0,1.78-.94,2.67-2.02,2.67s-1.96-.84-1.98-2.54c0-1.7.92-2.65,2.04-2.65,1.18,0,1.95.91,1.95,2.52ZM7663.74,7131.29c-.01,1.08.4,1.9,1.11,1.9.75,0,1.09-.81,1.09-1.92,0-1.03-.3-1.89-1.09-1.89-.71,0-1.11.85-1.11,1.91Z"/><path class="cls-17" d="M6878.14,7124.12c.69-.1,1.51-.18,2.41-.18,1.62,0,2.78.38,3.55,1.09.78.71,1.24,1.73,1.24,3.15s-.44,2.6-1.26,3.41c-.82.82-2.17,1.26-3.87,1.26-.81,0-1.48-.04-2.05-.1v-8.62ZM6879.27,7131.87c.29.05.7.06,1.14.06,2.42,0,3.73-1.35,3.73-3.72.01-2.07-1.16-3.38-3.55-3.38-.58,0-1.03.05-1.33.12v6.92Z"/><path class="cls-17" d="M6891.33,7128.66h-3.41v3.16h3.8v.95h-4.93v-8.76h4.73v.95h-3.6v2.77h3.41v.94Z"/><path class="cls-17" d="M6893.19,7124.12c.49-.1,1.27-.18,2.07-.18,1.13,0,1.86.19,2.41.64.46.34.73.86.73,1.55,0,.84-.56,1.59-1.48,1.92v.03c.83.21,1.81.9,1.81,2.2,0,.75-.3,1.33-.74,1.75-.61.56-1.6.82-3.03.82-.78,0-1.38-.05-1.75-.1v-8.62ZM6894.32,7127.71h1.03c1.2,0,1.9-.62,1.9-1.47,0-1.03-.78-1.43-1.92-1.43-.52,0-.82.04-1,.08v2.82ZM6894.32,7131.91c.22.04.55.05.95.05,1.17,0,2.25-.43,2.25-1.7,0-1.2-1.03-1.69-2.26-1.69h-.94v3.34Z"/><path class="cls-17" d="M6901.78,7124.96h-2.67v-.96h6.49v.96h-2.68v7.8h-1.14v-7.8Z"/><path class="cls-17" d="M6914.85,7132.19l-5.42-9.01h10.83l-5.41,9.01Z"/><path class="cls-17" d="M6927.17,7125.38h-.03l-1.47.79-.22-.87,1.85-.99h.97v8.45h-1.1v-7.38Z"/><path class="cls-17" d="M6936.97,7128.45c0,2.87-1.07,4.46-2.94,4.46-1.65,0-2.77-1.55-2.79-4.34,0-2.83,1.22-4.39,2.94-4.39s2.79,1.59,2.79,4.28ZM6932.38,7128.58c0,2.2.68,3.44,1.72,3.44,1.17,0,1.73-1.36,1.73-3.52s-.53-3.45-1.72-3.45c-1,0-1.73,1.22-1.73,3.52Z"/><path class="cls-17" d="M6943.64,7128.45c0,2.87-1.07,4.46-2.94,4.46-1.65,0-2.77-1.55-2.79-4.34,0-2.83,1.22-4.39,2.94-4.39s2.79,1.59,2.79,4.28ZM6939.05,7128.58c0,2.2.68,3.44,1.72,3.44,1.17,0,1.73-1.36,1.73-3.52s-.53-3.45-1.72-3.45c-1,0-1.73,1.22-1.73,3.52Z"/><path class="cls-17" d="M6948.5,7126.69c0,1.78-.94,2.67-2.03,2.67s-1.96-.84-1.98-2.55c0-1.69.92-2.64,2.04-2.64,1.18,0,1.96.91,1.96,2.52ZM6945.41,7126.77c-.03,1.08.38,1.9,1.09,1.9.75,0,1.09-.81,1.09-1.92,0-1.03-.3-1.89-1.09-1.89-.72,0-1.09.85-1.09,1.91ZM6946.4,7132.91l4.97-8.74h.73l-4.97,8.74h-.73ZM6954,7130.19c0,1.78-.94,2.67-2.02,2.67s-1.96-.84-1.98-2.54c0-1.7.92-2.65,2.04-2.65,1.18,0,1.95.91,1.95,2.52ZM6950.91,7130.27c-.01,1.08.4,1.9,1.11,1.9.75,0,1.09-.81,1.09-1.92,0-1.03-.3-1.89-1.09-1.89-.71,0-1.11.85-1.11,1.91Z"/><path class="cls-17" d="M6874.84,7163.11c-.44-.05-1.27-.32-2.24-.88-2.25-1.3-3.45-3.5-2.58-5.66.83-2.07,3.06-2.48,5.52-1.11.99.55,1.55,1.07,1.77,1.34-.17.19-.35.38-.52.58-.33-.37-.84-.8-1.5-1.17-1.86-1.04-3.48-.77-4.18.98-.65,1.62.05,3.34,1.99,4.45.63.36,1.31.61,1.8.67-.02.27-.04.54-.06.81Z"/><path class="cls-17" d="M6884.04,7164.01c-.88,2.37-3.07,2.78-5.13,1.7-2.14-1.12-3.09-3.33-2.29-5.36.83-2.14,2.94-2.69,5.09-1.61,2.2,1.11,3.1,3.22,2.34,5.27ZM6877.73,7160.92c-.56,1.44-.13,3.24,1.52,4.1,1.66.86,3.09.04,3.67-1.52.51-1.37.2-3.2-1.53-4.07-1.72-.87-3.08,0-3.66,1.49Z"/><path class="cls-17" d="M6892.13,7168.26c.29-1,.63-2.21.96-3.08-.01,0-.03-.01-.04-.02-.57.71-1.22,1.44-1.99,2.22-.89.92-1.79,1.84-2.68,2.74-.27-.12-.54-.24-.81-.36-.04-1.3-.08-2.61-.11-3.91-.03-1.16-.03-2.2.04-3.13,0,0-.02,0-.02-.01-.34.85-.83,1.99-1.28,2.99-.44.95-.88,1.91-1.32,2.86-.34-.16-.67-.32-1.01-.48,1.05-2.2,2.09-4.41,3.13-6.63.45.21.89.41,1.34.62.06,1.33.11,2.66.17,3.99.03,1.01.03,1.9-.03,2.71.01,0,.02.01.04.02.46-.61,1.03-1.24,1.72-1.96.89-.91,1.79-1.83,2.67-2.76.45.19.9.38,1.35.56-.66,2.42-1.32,4.84-1.99,7.25-.35-.15-.7-.29-1.04-.44.3-1.05.6-2.11.9-3.17Z"/><path class="cls-17" d="M6896.38,7165.57c.54.13,1.23.33,2.09.66,1.05.4,1.76.89,2.12,1.46.34.51.43,1.12.22,1.76-.22.65-.62,1.08-1.16,1.29-.75.31-1.76.23-2.81-.18-.32-.12-.61-.25-.84-.4-.33.95-.66,1.89-1,2.83-.36-.14-.71-.29-1.07-.43.83-2.32,1.65-4.65,2.46-6.98ZM6896.25,7169.41c.21.14.5.28.86.42,1.29.5,2.27.25,2.61-.73.32-.94-.3-1.68-1.47-2.13-.47-.18-.83-.28-1.03-.31-.32.92-.64,1.84-.96,2.76Z"/><path class="cls-17" d="M6908.9,7173.78c-.82,2.51-3.02,3.29-5.17,2.57-2.22-.75-3.26-2.79-2.52-4.96.78-2.27,2.91-3.18,5.14-2.47,2.27.73,3.26,2.69,2.55,4.86ZM6902.37,7171.77c-.52,1.53-.02,3.25,1.69,3.83,1.72.58,3.15-.49,3.69-2.14.47-1.45.1-3.22-1.7-3.8-1.78-.58-3.14.53-3.68,2.11Z"/><path class="cls-17" d="M6912.54,7170.92c-.46,1.45-.92,2.9-1.39,4.34-.53,1.64.08,2.58,1.21,2.9,1.25.35,2.29-.16,2.8-1.8.46-1.46.91-2.92,1.37-4.38.37.09.73.18,1.1.27-.44,1.44-.89,2.88-1.34,4.32-.71,2.28-2.38,2.86-4.21,2.34-1.73-.49-2.75-1.74-2.02-4,.46-1.43.93-2.87,1.39-4.31.36.1.73.21,1.09.31Z"/><path class="cls-17" d="M6917.22,7180.15c.77-2.47,1.54-4.95,2.29-7.44.39.09.79.18,1.18.27.52,1.46,1.04,2.92,1.56,4.38.36,1.01.62,1.9.79,2.76,0,0,.02,0,.03,0,.2-1.02.45-1.94.8-3.11.31-1.05.62-2.1.93-3.15.34.07.68.13,1.02.2-.74,2.52-1.48,5.03-2.23,7.53-.37-.08-.74-.15-1.11-.23-.52-1.46-1.03-2.92-1.54-4.38-.34-.96-.64-1.94-.82-2.85-.01,0-.03,0-.04,0-.22.96-.47,1.86-.85,3.1-.33,1.06-.65,2.12-.98,3.18-.34-.08-.69-.17-1.03-.25Z"/><path class="cls-17" d="M6927.7,7174.5c.69.03,1.5.1,2.36.23,1.56.25,2.59.74,3.15,1.47.58.73.77,1.68.42,2.92-.35,1.25-1.06,2.21-2.06,2.8-1,.59-2.42.77-4.08.48-.78-.14-1.43-.29-1.97-.46.73-2.47,1.46-4.95,2.18-7.44ZM6926.85,7181.39c.26.09.67.18,1.1.25,2.35.41,3.96-.59,4.54-2.66.52-1.81-.29-3.1-2.59-3.47-.56-.09-1-.12-1.31-.11-.57,2-1.15,3.99-1.74,5.98Z"/><path class="cls-17" d="M6937.16,7175.76c-.7,2.57-1.4,5.14-2.11,7.7-.37-.05-.73-.09-1.1-.14.72-2.56,1.43-5.12,2.13-7.68.36.04.73.09,1.09.13Z"/><path class="cls-17" d="M6936.97,7183.69c.71-2.57,1.4-5.15,2.09-7.73.4.04.79.08,1.19.11.55,1.39,1.11,2.78,1.67,4.16.39.96.66,1.82.86,2.65,0,0,.02,0,.03-.01.17-1.05.4-2,.71-3.21.28-1.09.57-2.18.85-3.27.34.02.68.04,1.02.06-.67,2.61-1.34,5.21-2.02,7.81-.37-.03-.74-.05-1.11-.08-.55-1.39-1.1-2.78-1.65-4.17-.36-.92-.69-1.86-.89-2.74-.01,0-.03,0-.04,0-.2.98-.42,1.92-.77,3.2-.3,1.1-.6,2.2-.9,3.3-.35-.04-.69-.07-1.04-.11Z"/><path class="cls-17" d="M6951.83,7184.28c-.53.16-1.57.41-2.71.38-1.28-.04-2.27-.39-2.91-1.17-.56-.69-.75-1.76-.43-2.98.61-2.34,2.77-3.95,5.58-3.9.97.02,1.68.22,2,.38-.15.28-.31.56-.46.83-.4-.19-.93-.35-1.77-.36-2.04-.04-3.68,1.09-4.18,3.06-.51,1.99.49,3.24,2.46,3.3.72.02,1.23-.06,1.51-.18.19-.79.39-1.57.58-2.36-.57,0-1.14-.02-1.72-.04.07-.27.14-.55.2-.82.93.02,1.85.04,2.78.04-.31,1.27-.62,2.54-.93,3.81Z"/><path class="cls-17" d="M7125,7132.14c.5.32,1.24.59,2.02.6,1.16.02,1.84-.58,1.85-1.47.01-.82-.45-1.29-1.63-1.76-1.42-.53-2.3-1.28-2.28-2.52.02-1.36,1.17-2.36,2.87-2.34.9.01,1.54.23,1.93.46l-.32.92c-.28-.16-.87-.43-1.66-.44-1.2-.02-1.66.69-1.67,1.29-.01.82.52,1.23,1.72,1.71,1.47.59,2.22,1.32,2.2,2.6-.02,1.35-1.04,2.51-3.1,2.48-.84-.01-1.76-.27-2.23-.59l.3-.94Z"/><path class="cls-17" d="M7131.67,7124.85l1.13.02-.11,7.81,3.74.05v.95s-4.89-.07-4.89-.07l.12-8.76Z"/><path class="cls-17" d="M7144.73,7129.32c-.04,3.02-1.9,4.59-4.13,4.56-2.31-.03-3.91-1.85-3.88-4.5.04-2.78,1.79-4.58,4.13-4.54,2.39.03,3.91,1.89,3.88,4.49ZM7137.92,7129.37c-.03,1.87.96,3.56,2.75,3.59,1.79.02,2.83-1.61,2.86-3.6.02-1.74-.86-3.57-2.75-3.6-1.87-.03-2.83,1.69-2.86,3.61Z"/><path class="cls-17" d="M7147.56,7133.83l-2.1-8.79,1.2.02.98,4.45c.25,1.1.46,2.19.61,3.04h.03c.15-.87.44-1.91.76-3.03l1.23-4.4,1.18.02,1,4.46c.23,1.04.45,2.09.57,3.01h.03c.2-.96.46-1.93.74-3.02l1.22-4.4,1.16.02-2.61,8.73-1.18-.02-1.04-4.58c-.26-1.12-.43-1.98-.53-2.87h-.03c-.17.87-.38,1.72-.72,2.85l-1.31,4.54-1.18-.02Z"/><path class="cls-17" d="M7161.34,7131.27l-.95,2.74-1.17-.02,3.1-8.72,1.37.02,2.87,8.8-1.21-.02-.9-2.77-3.11-.04ZM7164.22,7130.42l-.82-2.53c-.19-.58-.31-1.1-.43-1.61h-.03c-.14.52-.29,1.05-.46,1.58l-.89,2.52,2.64.04Z"/><path class="cls-17" d="M7167.84,7134.11l.12-8.76,1.23.02,2.75,4.47c.64,1.04,1.13,1.97,1.53,2.87h.03c-.09-1.18-.1-2.25-.08-3.62l.05-3.67,1.07.02-.12,8.76-1.14-.02-2.72-4.48c-.6-.98-1.17-1.99-1.6-2.95h-.04c.05,1.12.06,2.17.04,3.63l-.05,3.74h-1.07Z"/><path class="cls-17" d="M7176.51,7125.59c.69-.09,1.51-.16,2.41-.15,1.62.02,2.77.42,3.53,1.14.77.73,1.21,1.75,1.19,3.16-.02,1.43-.48,2.59-1.31,3.39-.83.81-2.19,1.23-3.89,1.21-.81-.01-1.48-.06-2.05-.13l.12-8.62ZM7177.54,7133.35c.29.06.7.07,1.14.08,2.42.03,3.75-1.3,3.78-3.67.04-2.07-1.11-3.4-3.5-3.43-.58,0-1.03.04-1.33.1l-.1,6.92Z"/><path class="cls-17" d="M7187.67,7133.01c.5.32,1.24.59,2.02.6,1.16.02,1.84-.59,1.85-1.47.01-.82-.45-1.29-1.63-1.76-1.42-.53-2.3-1.28-2.28-2.52.02-1.36,1.16-2.36,2.87-2.34.9.01,1.54.23,1.93.46l-.32.92c-.28-.16-.87-.43-1.66-.44-1.2-.02-1.66.69-1.67,1.29-.01.82.52,1.23,1.72,1.71,1.47.59,2.22,1.32,2.2,2.61-.02,1.35-1.04,2.51-3.1,2.48-.84-.01-1.76-.27-2.23-.59l.3-.95Z"/><path class="cls-17" d="M7195.98,7126.7l-2.67-.04v-.96s6.5.09,6.5.09v.96s-2.69-.04-2.69-.04l-.11,7.8-1.14-.02.11-7.8Z"/><path class="cls-17" d="M7205.27,7130.52l-3.41-.05-.04,3.16,3.8.05v.95s-4.94-.07-4.94-.07l.12-8.76,4.73.07v.95s-3.62-.05-3.62-.05l-.04,2.77,3.41.05v.94Z"/><path class="cls-17" d="M7208.52,7131.92l-.95,2.74-1.17-.02,3.1-8.72,1.37.02,2.87,8.8-1.21-.02-.9-2.77-3.11-.04ZM7211.41,7131.08l-.82-2.53c-.19-.57-.31-1.1-.43-1.61h-.03c-.14.52-.29,1.05-.46,1.58l-.89,2.52,2.64.04Z"/><path class="cls-17" d="M7215.14,7126.12c.69-.09,1.51-.16,2.41-.15,1.62.02,2.77.42,3.53,1.14.77.73,1.21,1.75,1.19,3.16-.02,1.43-.48,2.59-1.31,3.39-.83.81-2.19,1.23-3.89,1.21-.81-.01-1.48-.06-2.05-.13l.12-8.62ZM7216.17,7133.89c.29.06.7.08,1.14.08,2.42.03,3.75-1.3,3.78-3.67.04-2.07-1.11-3.4-3.5-3.43-.58,0-1.03.04-1.33.1l-.1,6.92Z"/><path class="cls-17" d="M7225.27,7134.91l.05-3.72-2.7-5.08,1.29.02,1.2,2.43c.33.67.58,1.2.85,1.82h.03c.25-.57.56-1.14.91-1.79l1.29-2.4,1.29.02-3.01,4.99-.05,3.73-1.14-.02Z"/><path class="cls-17" d="M7437.59,7215.9l4.7.41-.08.95-3.57-.31-.25,2.9,3.3.29-.08.93-3.3-.29-.35,3.95-1.13-.1.76-8.73Z"/><path class="cls-17" d="M7445.02,7216.55l-.76,8.73-1.13-.1.76-8.73,1.13.1Z"/><path class="cls-17" d="M7446.23,7225.45l.76-8.73,1.23.11,2.41,4.66c.56,1.08.98,2.04,1.32,2.97h.03c0-1.19.07-2.25.18-3.61l.32-3.65,1.06.09-.76,8.73-1.14-.1-2.38-4.67c-.52-1.03-1.02-2.07-1.38-3.06h-.04c-.03,1.12-.1,2.17-.22,3.62l-.33,3.73-1.06-.09Z"/><path class="cls-17" d="M7456.4,7223.58l-1.15,2.67-1.17-.1,3.73-8.47,1.36.12,2.22,8.99-1.2-.11-.69-2.83-3.1-.27ZM7459.34,7222.95l-.63-2.59c-.14-.59-.23-1.12-.31-1.63h-.03c-.17.5-.36,1.02-.58,1.54l-1.08,2.45,2.63.23Z"/><path class="cls-17" d="M7462.68,7226.89l.76-8.73,1.23.11,2.41,4.66c.56,1.08.98,2.04,1.32,2.97h.03c0-1.19.07-2.25.18-3.61l.32-3.65,1.06.09-.76,8.73-1.14-.1-2.38-4.67c-.52-1.03-1.02-2.07-1.38-3.06h-.04c-.03,1.12-.1,2.17-.22,3.62l-.33,3.73-1.06-.09Z"/><path class="cls-17" d="M7477.32,7227.88c-.43.17-1.28.31-2.34.21-2.46-.21-4.18-1.93-3.93-4.79.24-2.73,2.25-4.42,4.96-4.19,1.09.09,1.75.39,2.04.57l-.35.9c-.41-.24-1-.45-1.73-.52-2.05-.18-3.52,1.01-3.72,3.3-.19,2.14.92,3.62,3.05,3.8.69.06,1.4-.02,1.87-.2l.16.91Z"/><path class="cls-17" d="M7480.6,7219.66l-.76,8.73-1.13-.1.76-8.73,1.13.1Z"/><path class="cls-17" d="M7483.46,7225.94l-1.15,2.67-1.17-.1,3.73-8.47,1.36.12,2.21,8.99-1.2-.1-.69-2.83-3.09-.27ZM7486.4,7225.31l-.64-2.59c-.14-.59-.23-1.12-.31-1.63h-.03c-.17.5-.36,1.02-.58,1.54l-1.08,2.45,2.63.23Z"/><path class="cls-17" d="M7490.49,7220.53l1.13.1-.68,7.78,3.73.33-.08.95-4.86-.42.76-8.73Z"/><path class="cls-17" d="M7504.71,7230.28c-.43.17-1.28.31-2.34.21-2.46-.21-4.18-1.93-3.93-4.79.24-2.73,2.25-4.42,4.96-4.19,1.09.1,1.75.39,2.04.57l-.35.9c-.41-.24-1-.45-1.73-.52-2.05-.18-3.52,1.01-3.72,3.3-.19,2.14.92,3.62,3.05,3.8.69.06,1.4-.02,1.87-.2l.15.91Z"/><path class="cls-17" d="M7506.86,7221.96l1.13.1-.68,7.78,3.73.33-.08.95-4.86-.42.76-8.73Z"/><path class="cls-17" d="M7513.86,7228.6l-1.15,2.67-1.17-.1,3.73-8.47,1.36.12,2.21,8.99-1.2-.11-.69-2.83-3.09-.27ZM7516.8,7227.97l-.64-2.59c-.14-.59-.23-1.12-.31-1.63h-.03c-.17.5-.36,1.02-.58,1.54l-1.08,2.45,2.63.23Z"/><path class="cls-17" d="M7520.89,7223.31c.58-.07,1.4-.06,2.18,0,1.21.11,1.96.39,2.46.93.41.43.6,1.04.54,1.72-.1,1.15-.89,1.85-1.84,2.08v.04c.65.29,1,.95,1.12,1.87.18,1.24.31,2.1.46,2.46l-1.17-.1c-.12-.26-.25-1.03-.4-2.14-.15-1.23-.58-1.72-1.6-1.85l-1.06-.09-.33,3.78-1.13-.1.75-8.61ZM7521.67,7227.38l1.15.1c1.2.11,2.03-.49,2.11-1.49.1-1.13-.67-1.69-1.87-1.81-.54-.05-.94-.03-1.12,0l-.28,3.19Z"/><path class="cls-17" d="M7528.99,7223.9l-.76,8.73-1.13-.1.76-8.73,1.13.1Z"/><path class="cls-17" d="M7532.54,7225.17l-2.66-.23.08-.96,6.46.57-.08.96-2.67-.23-.68,7.77-1.14-.1.68-7.77Z"/><path class="cls-17" d="M7538.94,7233.56l.32-3.7-2.32-5.27,1.28.11,1.02,2.52c.28.69.49,1.24.71,1.88h.03c.3-.55.64-1.09,1.04-1.72l1.47-2.3,1.28.11-3.37,4.76-.33,3.72-1.14-.1Z"/><path class="cls-17" d="M7600.22,7238.65c-.43.18-1.27.33-2.34.26-2.46-.16-4.22-1.84-4.03-4.71.18-2.74,2.16-4.47,4.87-4.29,1.09.07,1.76.35,2.05.53l-.33.9c-.41-.24-1.01-.43-1.74-.48-2.05-.14-3.5,1.08-3.65,3.38-.14,2.14,1,3.6,3.13,3.74.69.05,1.4-.05,1.87-.24l.17.91Z"/><path class="cls-17" d="M7609.11,7235.05c-.2,3.01-2.14,4.48-4.37,4.33-2.31-.15-3.81-2.05-3.63-4.7.19-2.78,2.03-4.48,4.37-4.32,2.39.16,3.81,2.09,3.64,4.69ZM7602.31,7234.74c-.12,1.87.78,3.61,2.55,3.73,1.79.12,2.91-1.46,3.04-3.45.12-1.74-.67-3.62-2.55-3.74-1.87-.12-2.92,1.54-3.04,3.46Z"/><path class="cls-17" d="M7610.28,7239.61l.58-8.74,1.23.08,2.51,4.61c.58,1.07,1.02,2.02,1.38,2.95h.03c-.03-1.19.02-2.25.11-3.61l.24-3.66,1.06.07-.58,8.74-1.14-.08-2.48-4.62c-.54-1.01-1.06-2.05-1.44-3.03h-.04c0,1.12-.05,2.17-.15,3.62l-.25,3.74-1.06-.07Z"/><path class="cls-17" d="M7618.75,7238.79c.49.34,1.21.65,1.99.71,1.16.08,1.87-.49,1.93-1.37.05-.82-.38-1.31-1.53-1.85-1.39-.6-2.23-1.4-2.14-2.63.09-1.36,1.29-2.3,2.99-2.19.89.06,1.53.31,1.9.56l-.37.9c-.27-.18-.84-.47-1.63-.53-1.19-.08-1.69.6-1.73,1.2-.05.82.45,1.26,1.63,1.8,1.44.67,2.15,1.43,2.06,2.72-.09,1.35-1.17,2.45-3.23,2.31-.84-.06-1.75-.36-2.19-.71l.35-.93Z"/><path class="cls-17" d="M7626.92,7231.93l-.58,8.74-1.13-.08.58-8.74,1.13.08Z"/><path class="cls-17" d="M7628.24,7239.42c.49.34,1.21.65,1.99.71,1.15.08,1.87-.49,1.93-1.37.05-.82-.38-1.32-1.53-1.85-1.39-.6-2.23-1.4-2.14-2.63.09-1.36,1.29-2.3,2.99-2.19.9.06,1.53.31,1.9.56l-.37.9c-.27-.17-.84-.47-1.63-.53-1.19-.08-1.7.6-1.74,1.2-.05.82.45,1.25,1.63,1.8,1.44.67,2.15,1.43,2.06,2.72-.09,1.35-1.17,2.45-3.23,2.31-.84-.06-1.75-.36-2.19-.71l.35-.93Z"/><path class="cls-17" d="M7636.88,7233.56l-2.66-.18.06-.96,6.47.43-.06.96-2.67-.18-.52,7.78-1.14-.08.52-7.78Z"/><path class="cls-17" d="M7645.95,7237.86l-3.4-.23-.21,3.15,3.79.25-.06.95-4.92-.33.58-8.74,4.72.31-.06.95-3.59-.24-.18,2.76,3.4.23-.06.93Z"/><path class="cls-17" d="M7647.53,7242.09l.58-8.74,1.23.08,2.51,4.61c.58,1.07,1.03,2.02,1.38,2.95h.03c-.03-1.19.02-2.25.11-3.61l.24-3.66,1.06.07-.58,8.74-1.14-.08-2.48-4.62c-.54-1.01-1.06-2.05-1.44-3.03h-.04c0,1.12-.05,2.17-.15,3.62l-.25,3.74-1.06-.07Z"/><path class="cls-17" d="M7658.24,7234.98l-2.66-.18.06-.96,6.47.43-.06.96-2.67-.18-.52,7.78-1.14-.08.52-7.78Z"/></g><g id="Layer_2"><path class="cls-8" d="M7651.33,7201.09c-2.33,6.25-17.39,6.41-33.64.36s-27.55-16.02-25.22-22.27c2.32-6.25,17.39-6.41,33.64-.36s27.55,16.02,25.22,22.26Z"/><polygon class="cls-16" points="7653.23 7183.66 7629.7 7169.63 7602.69 7164.85 7586.05 7170.98 7624.93 7182.43 7661.43 7198.9 7653.23 7183.66"/><polygon class="cls-6" points="7653.23 7183.66 7626.23 7178.92 7602.69 7164.85 7586.04 7170.97 7621.34 7192.07 7661.84 7199.17 7653.23 7183.66"/><polygon class="cls-6" points="7653.23 7183.66 7626.23 7178.92 7621.34 7192.07 7661.84 7199.17 7653.23 7183.66"/><g class="cls-11"><path class="cls-9" d="M7626.2,7178.83c-.07-.01-.12,0-.13.04l-4.88,13.12s.09.07.14.09c.07.03.17.04.17.03l4.85-13.07-.15-.21Z"/></g><g class="cls-11"><path class="cls-9" d="M7626.2,7179s-.03-.01-.05-.02l-23.54-14.08s.02-.03.09-.04c.1,0,.19,0,.23.02l23.39,13.99c.07.04.1.11.05.14-.03.02-.1.02-.16,0Z"/></g><polygon class="cls-12" points="7634.22 7157.56 7620.73 7155.19 7615.84 7168.34 7645.93 7164.66 7634.22 7157.56"/><polygon class="cls-3" points="7644.91 7164.88 7632.42 7162.29 7620.7 7155.18 7604.01 7161.38 7627.52 7175.44 7653.65 7180.02 7644.91 7164.88"/><polygon class="cls-2" points="7645.9 7164.65 7632.42 7162.29 7627.52 7175.44 7654.51 7180.17 7645.9 7164.65"/><path class="cls-10" d="M7632.48,7162.16c-.08-.03-.17-.02-.18.03l-4.92,13.16s.12.08.15.09c.04.01.16.04.16.03l4.91-13.16s-.04-.11-.12-.14Z"/><g class="cls-11"><path class="cls-9" d="M7632.42,7162.29s-.03-.01-.05-.02l-11.78-7.04s.05-.02.1-.04c.04-.01.2.02.23.04l11.6,6.93c.07.04.1.11.05.14-.03.03-.1.02-.17,0Z"/></g><g class="cls-11"><path class="cls-9" d="M7632.42,7162.29s.04.01.05.02l13.44,2.36s-.1-.08-.16-.12c-.11-.07-.19-.13-.24-.13l-13.09-2.3c-.08-.01-.14.02-.13.07,0,.04.06.08.12.11Z"/></g><path class="cls-10" d="M7653.26,7183.68c-.07-.08-.22-.15-.26-.16l-26.87-4.7s-.04.07-.03.09c0,.02.04.1.07.11l27.12,4.74s.03-.03-.02-.08Z"/><polygon class="cls-19" points="7638.65 7145.54 7621.96 7151.67 7633.74 7158.72 7647.27 7161.09 7638.65 7145.54"/><polygon class="cls-19" points="7638.65 7145.54 7633.74 7158.72 7647.27 7161.09 7638.65 7145.54"/><path class="cls-10" d="M7634.4,7156.56c.46-1.22,1.4-3.74,2.02-5.37.3-.82,1.85-4.83,2.05-5.3,0-.01.16-.36.18-.35.03.01-.07.38-.08.39,0,0-1.62,4.53-1.92,5.34-.6,1.63-1.53,4.16-1.98,5.38-.44,1.23-.75,2.09-.75,2.09-.05,0-.13-.02-.15-.03-.03-.01-.12-.06-.15-.09,0,0,.33-.86.79-2.07Z"/><path class="cls-6" d="M7636.4,7157.37c-.04.19-.19.29-.37.25-.1-.02-.17-.08-.21-.17l-.07.34-.08-.02.17-.84.08.02-.02.12c.07-.07.16-.1.26-.08.17.03.28.19.24.37ZM7636.31,7157.35c.03-.14-.05-.26-.18-.28-.13-.03-.25.05-.28.19-.03.14.05.26.18.28.13.03.25-.05.28-.19Z"/><path class="cls-6" d="M7636.67,7156.84l.08.02-.17.87-.08-.02.17-.87Z"/><path class="cls-6" d="M7637.35,7157.48l-.08.38-.08-.02.02-.1c-.05.06-.13.08-.23.06-.14-.03-.21-.12-.19-.22.02-.09.1-.16.27-.13l.19.04v-.04c.03-.1-.02-.17-.13-.2-.08-.02-.16,0-.22.03l-.03-.07c.07-.04.17-.05.27-.03.16.03.23.13.2.29ZM7637.23,7157.66l.02-.1-.19-.04c-.12-.02-.17.02-.18.08-.01.07.03.13.13.15.09.02.17-.01.22-.09Z"/><path class="cls-6" d="M7638.14,7157.67l-.07.36-.08-.02.07-.35c.03-.13-.03-.21-.15-.23-.13-.03-.23.04-.26.18l-.06.32-.08-.02.12-.61.08.02-.02.11c.06-.07.15-.09.26-.07.15.03.24.14.2.31Z"/><path class="cls-6" d="M7638.93,7157.82l-.07.36-.08-.02.07-.35c.03-.13-.03-.21-.15-.23-.13-.03-.23.04-.26.18l-.06.32-.08-.02.12-.61.08.02-.02.11c.06-.07.15-.09.26-.07.15.03.23.14.2.31Z"/><path class="cls-6" d="M7639.2,7157.61l.08.02-.12.61-.08-.02.12-.61ZM7639.22,7157.41s.04-.05.07-.05.06.04.05.07c0,.03-.04.06-.07.05-.03,0-.06-.04-.05-.07Z"/><path class="cls-6" d="M7640.03,7158.04l-.07.36-.08-.02.07-.35c.03-.13-.03-.21-.15-.23-.13-.03-.23.04-.26.18l-.06.32-.08-.02.12-.61.08.02-.02.11c.06-.07.15-.09.26-.07.15.03.24.14.2.31Z"/><path class="cls-6" d="M7640.88,7157.94l-.11.54c-.04.21-.17.29-.37.25-.11-.02-.21-.08-.27-.15l.05-.06c.05.06.13.11.22.13.16.03.24-.03.27-.18l.02-.08c-.07.07-.16.09-.26.07-.18-.04-.29-.18-.25-.36.04-.18.19-.27.37-.24.1.02.18.08.22.17l.02-.12.08.02ZM7640.74,7158.22c.03-.13-.05-.24-.19-.27-.14-.03-.25.04-.28.18-.03.13.05.25.19.27.14.03.25-.04.28-.18Z"/><path class="cls-6" d="M7641.52,7157.99v.07s.17.04.17.04v.07s-.2-.04-.2-.04l-.11.54-.08-.02.11-.54-.11-.02v-.07s.12.02.12.02v-.08c.04-.11.12-.17.24-.15.05,0,.09.03.12.06l-.04.06s-.05-.04-.09-.05c-.07-.01-.12.02-.13.09Z"/><path class="cls-6" d="M7641.67,7158.42c.04-.18.19-.29.37-.25.18.04.29.19.25.37-.04.18-.19.29-.37.25-.18-.04-.29-.19-.25-.38ZM7642.21,7158.52c.03-.14-.05-.26-.18-.28-.13-.03-.25.05-.28.19-.03.14.05.26.18.28s.25-.05.28-.19Z"/><path class="cls-6" d="M7642.84,7158.32l-.02.08s-.01,0-.02,0c-.13-.03-.22.04-.25.18l-.06.31-.08-.02.12-.61.08.02-.02.12c.05-.07.14-.1.25-.08Z"/><path class="cls-6" d="M7643.81,7158.79l-.07.36-.08-.02.07-.35c.03-.13-.03-.21-.15-.23-.13-.03-.23.04-.26.18l-.06.32-.08-.02.12-.61.08.02-.02.11c.06-.07.15-.09.26-.07.15.03.24.14.2.31Z"/><path class="cls-6" d="M7644.56,7159.02l-.51-.1c-.02.13.06.24.2.26.07.01.15,0,.2-.04l.04.06c-.07.05-.16.07-.26.05-.19-.04-.3-.2-.26-.38.04-.18.19-.29.36-.25.17.04.27.19.24.37,0,0,0,.02,0,.03ZM7644.06,7158.85l.43.09c.01-.12-.06-.22-.18-.25-.12-.02-.22.04-.26.16Z"/><path class="cls-6" d="M7645.05,7159.41l-.14-.3-.25.22-.09-.02.3-.27-.17-.34.09.02.14.28.23-.2.09.02-.29.25.18.36-.09-.02Z"/><path class="cls-6" d="M7645.61,7159.48s-.09.03-.14.02c-.12-.02-.17-.1-.14-.21l.07-.37-.11-.02v-.07s.12.02.12.02l.03-.13.08.02-.03.13.19.04v.07s-.2-.04-.2-.04l-.07.37c-.01.07.02.12.08.13.03,0,.07,0,.1-.01l.02.07Z"/><path class="cls-6" d="M7625.5,7151.77l.07-.04c.02.06.08.13.15.18.1.06.16.05.2,0,.09-.14-.32-.25-.19-.46.05-.09.17-.1.3-.02.07.04.13.11.16.17l-.07.04c-.03-.06-.07-.11-.13-.14-.1-.06-.16-.05-.19,0-.09.14.32.25.19.46-.06.09-.18.1-.31.01-.09-.06-.16-.14-.17-.2Z"/><path class="cls-6" d="M7626.63,7152.11l-.21.33-.07-.04.05-.08c-.07.03-.15.03-.24-.03-.12-.08-.15-.18-.1-.28.05-.08.15-.12.3-.02l.17.11.02-.03c.06-.09.04-.17-.06-.23-.07-.04-.15-.06-.22-.05v-.07c.08-.01.18.01.26.06.14.09.17.2.08.34ZM7626.46,7152.23l.05-.09-.17-.1c-.1-.06-.16-.05-.2,0-.04.06-.01.13.07.19.08.05.17.05.24,0Z"/><path class="cls-6" d="M7627.39,7152.3l-.57.38-.07-.05.1-.68.08.05-.09.58.48-.32.07.04Z"/><path class="cls-6" d="M7627.49,7152.36l.07.04-.33.53-.07-.04.33-.53ZM7627.58,7152.19s.06-.04.08-.02c.03.02.04.05.02.08-.02.03-.06.04-.09.02-.03-.02-.04-.06-.02-.08Z"/><path class="cls-6" d="M7628.11,7153.07l-.19.31-.07-.04.19-.3c.07-.11.05-.21-.05-.27-.11-.07-.23-.04-.3.07l-.18.28-.07-.04.33-.53.07.04-.06.1c.08-.04.17-.03.27.02.13.08.17.21.07.36Z"/><path class="cls-6" d="M7628.93,7153.27l-.29.46c-.12.18-.26.21-.43.1-.1-.06-.17-.15-.2-.24l.07-.03c.02.08.08.15.16.2.13.08.23.06.32-.07l.04-.07c-.09.04-.18.03-.27-.03-.15-.1-.2-.27-.1-.43.1-.15.28-.18.43-.09.09.06.14.14.14.24l.06-.1.07.04ZM7628.7,7153.48c.07-.11.04-.25-.08-.32-.12-.07-.25-.05-.32.07s-.04.25.08.32c.12.07.25.05.32-.07Z"/><path class="cls-6" d="M7628.76,7153.82l.07-.04c.02.06.07.13.15.18.1.06.16.06.2,0,.09-.14-.32-.25-.19-.46.05-.09.17-.1.3-.02.07.04.13.11.16.17l-.07.04c-.03-.06-.07-.11-.13-.14-.09-.06-.16-.05-.19,0-.09.14.32.25.19.46-.06.09-.18.1-.31.01-.09-.06-.15-.14-.17-.2Z"/><path class="cls-6" d="M7630.01,7153.87l-.04.06.16.1-.04.06-.16-.1-.3.47-.07-.04.3-.47-.09-.06.04-.06.09.06.04-.07c.06-.09.16-.12.26-.06.04.02.07.06.08.1l-.06.04s-.03-.06-.06-.08c-.06-.04-.12-.03-.16.04Z"/><path class="cls-6" d="M7630,7154.32c.1-.16.29-.2.44-.1.15.1.2.28.1.44s-.28.2-.44.1c-.16-.1-.2-.28-.1-.44ZM7630.46,7154.61c.08-.12.05-.26-.06-.33-.11-.07-.25-.04-.33.08-.08.12-.04.26.07.33.11.07.25.04.33-.08Z"/><path class="cls-6" d="M7631.12,7154.65l-.04.07s-.01,0-.02-.01c-.11-.07-.22-.04-.3.08l-.17.27-.07-.04.33-.53.07.04-.07.1c.08-.05.17-.04.27.02Z"/><path class="cls-6" d="M7632,7155.21l-.29.46c-.12.18-.26.21-.43.1-.1-.06-.17-.15-.2-.24l.07-.03c.02.08.08.15.16.2.13.08.23.06.32-.07l.04-.07c-.09.04-.18.03-.27-.03-.15-.1-.2-.27-.1-.43s.28-.18.43-.09c.09.06.14.14.14.24l.06-.1.07.04ZM7631.78,7155.42c.07-.11.04-.25-.08-.32-.12-.07-.25-.05-.32.07-.07.12-.04.25.08.32.12.07.25.05.33-.07Z"/><path class="cls-6" d="M7631.98,7155.57c.1-.16.29-.2.44-.1.15.1.2.28.1.44-.1.16-.28.2-.44.1-.16-.1-.2-.28-.1-.44ZM7632.45,7155.86c.08-.12.05-.26-.06-.33-.11-.07-.25-.04-.33.08-.08.12-.05.26.07.33.11.07.25.04.33-.08Z"/><path class="cls-6" d="M7633.1,7156.19l-.21.33-.07-.04.05-.08c-.07.03-.15.03-.24-.03-.12-.08-.15-.18-.1-.28.05-.08.15-.12.3-.02l.17.11.02-.03c.06-.09.04-.17-.06-.23-.07-.04-.15-.06-.22-.05v-.07c.08-.01.18.01.26.06.14.09.17.2.08.34ZM7632.92,7156.31l.05-.09-.17-.1c-.1-.07-.16-.05-.2,0-.04.06-.01.13.07.18.08.05.16.05.24,0Z"/><path class="cls-6" d="M7633.56,7155.89l.07.04-.47.75-.07-.04.47-.75Z"/><path class="cls-6" d="M7633.32,7156.7l.07-.04c.02.06.08.13.15.18.1.06.16.05.2,0,.09-.14-.32-.25-.19-.46.05-.09.17-.1.3-.02.07.04.13.11.16.17l-.07.04c-.03-.06-.07-.11-.13-.14-.09-.06-.16-.05-.19,0-.09.14.32.25.19.46-.06.09-.18.1-.31.01-.09-.05-.16-.14-.17-.2Z"/><path class="cls-19" d="M7636.92,7190.08c.05-.23.25-.37.49-.32.13.03.23.1.28.22l-.09.04c-.04-.09-.11-.14-.21-.16-.17-.04-.32.06-.36.25-.04.19.07.33.24.37.09.02.18,0,.25-.07l.07.07c-.08.09-.21.12-.34.09-.24-.05-.37-.25-.33-.48Z"/><path class="cls-19" d="M7638.46,7190.28l-.1.49-.1-.02.02-.12c-.06.07-.17.1-.3.08-.18-.04-.27-.15-.24-.29.02-.12.12-.21.35-.16l.25.05v-.05c.04-.13-.03-.22-.17-.25-.1-.02-.21,0-.28.04l-.03-.09c.09-.05.22-.07.34-.04.2.04.3.17.26.37ZM7638.3,7190.51l.03-.13-.25-.05c-.15-.03-.21.02-.23.1-.02.09.04.16.17.19.12.02.22-.02.28-.11Z"/><path class="cls-19" d="M7638.56,7190.72l.06-.07c.05.06.15.12.26.14.15.03.22,0,.24-.09.04-.21-.5-.14-.44-.46.03-.13.16-.2.36-.16.1.02.21.07.26.13l-.06.08c-.06-.06-.14-.1-.22-.11-.14-.03-.22.01-.23.09-.04.21.5.15.44.46-.03.14-.16.2-.37.16-.13-.03-.25-.09-.3-.16Z"/><path class="cls-19" d="M7640.2,7190.66l-.09.46-.11-.02.09-.45c.03-.17-.04-.27-.19-.3-.17-.03-.3.05-.33.23l-.08.41-.11-.02.22-1.11.11.02-.09.46c.08-.08.19-.11.32-.08.19.04.3.18.26.4Z"/><path class="cls-19" d="M7641.27,7190.19c.06.01.12.04.15.08l-.05.07s-.06-.05-.11-.06c-.09-.02-.15.02-.17.12l-.02.09.24.05-.02.09-.24-.05-.14.7-.11-.02.14-.7-.14-.03.02-.09.14.03.02-.1c.03-.14.13-.22.28-.19ZM7641.62,7190.26l-.22,1.11-.11-.02.22-1.11.11.02Z"/><path class="cls-19" d="M7641.7,7191.02c.05-.23.25-.37.48-.32s.37.25.32.48c-.05.23-.25.37-.48.32s-.37-.25-.32-.48ZM7642.39,7191.16c.04-.18-.06-.33-.23-.36s-.32.06-.35.25c-.04.18.07.33.23.37.17.03.32-.06.35-.25Z"/><path class="cls-19" d="M7643.93,7191.06l-.45.73-.1-.02-.12-.69-.38.6-.1-.02-.14-.85.1.02.11.72.39-.62.09.02.12.72.38-.62.1.02Z"/><path class="cls-19" d="M7600.42,7173.65l-.57-.36c-.08.15-.03.31.12.4.08.05.17.07.26.04v.09c-.09.03-.21.01-.32-.05-.21-.13-.26-.37-.14-.57.13-.2.36-.26.55-.14.19.12.24.35.11.55,0,0-.01.02-.02.03ZM7599.9,7173.22l.48.3c.07-.14.03-.29-.1-.38-.13-.08-.29-.05-.38.08Z"/><path class="cls-19" d="M7601.78,7174.39l-.25.39-.09-.06.24-.38c.09-.14.06-.26-.06-.34-.14-.09-.28-.05-.38.1l-.22.36-.09-.06.24-.38c.09-.14.06-.26-.06-.34-.14-.09-.28-.05-.38.1l-.22.36-.09-.06.43-.68.09.05-.08.12c.1-.05.22-.04.33.03.11.07.17.17.15.3.1-.06.24-.05.36.03.17.1.21.27.09.46Z"/><path class="cls-19" d="M7602.58,7175l-.57-.36c-.08.15-.03.31.12.41.08.05.17.07.26.04v.09c-.09.03-.21.01-.32-.05-.21-.13-.26-.37-.14-.57.13-.2.36-.26.55-.13.19.12.24.35.11.55,0,0-.01.02-.02.03ZM7602.05,7174.58l.48.3c.07-.14.03-.29-.1-.38-.13-.08-.29-.05-.38.07Z"/><path class="cls-19" d="M7603.34,7174.97l-.06.09s-.02-.01-.02-.02c-.14-.09-.28-.05-.38.11l-.22.35-.09-.06.43-.68.09.06-.08.13c.1-.06.22-.06.34.02Z"/><path class="cls-19" d="M7604.13,7175.47l-.38.6c-.15.23-.33.27-.55.12-.12-.08-.22-.19-.25-.3l.09-.04c.03.1.1.2.21.26.17.11.3.08.41-.09l.05-.09c-.11.05-.24.03-.35-.04-.19-.12-.25-.35-.13-.54.12-.2.35-.24.55-.11.11.07.18.18.18.31l.08-.13.09.05ZM7603.83,7175.74c.09-.15.05-.32-.1-.41-.15-.09-.32-.06-.41.09s-.05.32.1.41c.15.09.32.06.42-.09Z"/><path class="cls-19" d="M7604.74,7176.37l-.57-.36c-.08.15-.03.31.12.41.08.05.17.07.26.04v.09c-.09.03-.21.01-.32-.05-.21-.13-.26-.37-.14-.57.13-.2.36-.26.55-.14.19.12.24.35.11.55,0,0-.01.02-.02.03ZM7604.22,7175.94l.48.3c.07-.14.03-.29-.1-.38-.13-.08-.29-.05-.38.07Z"/><path class="cls-19" d="M7605.61,7176.8l-.25.39-.09-.06.24-.38c.09-.14.06-.26-.07-.35-.15-.09-.29-.06-.39.1l-.22.36-.09-.06.43-.68.09.06-.08.12c.1-.05.22-.04.34.03.17.11.22.27.1.47Z"/><path class="cls-19" d="M7605.76,7176.97c.13-.2.36-.25.57-.12.12.07.18.18.18.3h-.1c0-.09-.05-.17-.13-.22-.15-.09-.32-.06-.42.1-.1.16-.06.33.09.43.08.05.17.06.26.02l.04.09c-.11.05-.24.04-.35-.03-.2-.13-.26-.36-.13-.57Z"/><path class="cls-19" d="M7607.33,7177.49l-.82.55c-.14.1-.24.09-.34.03-.06-.04-.11-.1-.13-.17l.09-.04c.01.06.04.1.09.13.06.04.12.04.21-.02l.07-.05.12-.87.1.06-.11.74.62-.42.09.06Z"/><path class="cls-19" d="M7608.14,7177.99l-.06.09s-.02-.01-.02-.02c-.14-.09-.28-.05-.38.11l-.22.35-.09-.06.43-.68.09.06-.08.13c.1-.06.22-.06.34.02Z"/><path class="cls-19" d="M7608.66,7178.84l-.57-.36c-.08.15-.03.31.12.41.08.05.17.07.26.04v.09c-.09.03-.21.01-.32-.05-.21-.13-.27-.37-.14-.57.13-.2.36-.26.55-.13.19.12.24.35.11.55,0,0-.01.02-.02.03ZM7608.13,7178.41l.48.3c.07-.14.03-.29-.1-.38-.13-.08-.29-.05-.38.07Z"/><path class="cls-19" d="M7608.6,7179.13l.09-.04c.03.08.1.17.19.23.13.08.21.07.25,0,.11-.18-.42-.31-.25-.58.07-.11.22-.13.39-.02.09.06.17.14.2.21l-.09.05c-.03-.08-.09-.14-.16-.18-.12-.08-.21-.06-.25,0-.12.18.41.32.25.58-.07.12-.22.13-.4.02-.11-.07-.2-.17-.22-.26Z"/><path class="cls-19" d="M7610.07,7179.73l-.57-.36c-.08.15-.03.31.12.41.08.05.17.07.26.04v.09c-.09.04-.21.01-.32-.05-.21-.13-.26-.37-.14-.57.13-.2.36-.26.55-.14s.24.35.11.55c0,0-.01.02-.02.03ZM7609.54,7179.3l.48.3c.07-.14.03-.29-.1-.38-.13-.08-.29-.05-.38.08Z"/><path class="cls-19" d="M7610.83,7179.69l-.06.09s-.02-.01-.02-.02c-.14-.09-.28-.05-.38.11l-.22.35-.09-.06.43-.68.09.06-.08.13c.1-.06.22-.06.34.02Z"/><path class="cls-19" d="M7611.6,7180.18l-.73.49-.09-.06.13-.87.1.06-.11.74.62-.42.09.06Z"/><path class="cls-19" d="M7612.07,7180.99l-.57-.36c-.08.15-.03.31.12.4.08.05.17.07.26.04v.09c-.09.03-.21.01-.32-.05-.21-.13-.26-.37-.14-.57.13-.2.36-.26.55-.14.19.12.24.35.11.55,0,0-.01.02-.02.03ZM7611.54,7180.57l.48.3c.07-.14.03-.29-.1-.38-.13-.08-.29-.05-.38.08Z"/><path class="cls-19" d="M7636.51,7187.48c-.05.24-.25.37-.47.32-.13-.03-.23-.11-.27-.22l-.03.16-.1-.02.22-1.11.11.02-.09.47c.09-.09.21-.12.33-.1.22.04.36.24.31.48ZM7636.41,7187.46c.04-.18-.07-.33-.23-.36-.17-.03-.32.06-.35.25-.04.18.07.33.23.36.17.03.32-.06.35-.25Z"/><path class="cls-19" d="M7637.41,7187.7l-.66-.13c-.02.17.08.3.25.33.1.02.19,0,.26-.05l.05.08c-.09.07-.21.09-.33.07-.25-.05-.38-.25-.33-.48.05-.23.24-.37.46-.32s.35.24.3.48c0,0,0,.02,0,.03ZM7636.77,7187.49l.56.11c.02-.16-.07-.29-.23-.32-.15-.03-.29.06-.33.21Z"/><path class="cls-19" d="M7638.37,7187.79l-.09.46-.11-.02.09-.45c.03-.17-.04-.27-.19-.3-.17-.03-.3.05-.33.23l-.08.41-.11-.02.16-.79.1.02-.03.15c.08-.08.19-.12.33-.09.19.04.3.17.26.4Z"/><path class="cls-19" d="M7639.33,7188.08l-.66-.13c-.02.17.08.3.25.33.1.02.19,0,.26-.05l.05.08c-.09.07-.21.09-.33.07-.25-.05-.38-.25-.33-.48.05-.23.24-.37.46-.32s.35.24.3.48c0,0,0,.02,0,.03ZM7638.69,7187.87l.56.11c.02-.16-.07-.29-.23-.32-.15-.03-.29.06-.33.21Z"/><path class="cls-19" d="M7639.96,7187.41c.06.01.12.04.15.08l-.05.07s-.06-.05-.11-.06c-.09-.02-.15.02-.17.12l-.02.09.24.05-.02.09-.24-.05-.14.7-.11-.02.14-.7-.14-.03.02-.09.14.03.02-.1c.03-.14.13-.22.28-.19ZM7640.26,7187.82l.11.02-.16.79-.11-.02.16-.79ZM7640.45,7187.59s-.05.07-.09.06c-.04,0-.07-.05-.06-.09,0-.04.05-.07.09-.06.04,0,.07.05.06.09Z"/><path class="cls-19" d="M7640.51,7188.28c.05-.24.25-.37.49-.32.13.03.23.1.28.22l-.09.04c-.04-.09-.12-.14-.21-.16-.17-.03-.32.06-.36.25-.04.19.06.33.24.37.09.02.18,0,.25-.07l.07.07c-.08.09-.21.12-.34.1-.24-.05-.37-.25-.33-.48Z"/><path class="cls-19" d="M7641.51,7188.07l.11.02-.16.79-.11-.02.16-.79ZM7641.54,7187.81s.05-.07.09-.06c.04,0,.07.05.06.09,0,.04-.05.07-.09.06-.04,0-.07-.05-.06-.09Z"/><path class="cls-19" d="M7642.45,7188.56l-.1.49-.1-.02.02-.12c-.06.07-.17.1-.3.08-.18-.04-.27-.15-.24-.29.02-.12.12-.21.35-.16l.25.05v-.05c.04-.13-.03-.22-.17-.25-.1-.02-.21,0-.28.04l-.03-.09c.09-.05.22-.07.34-.04.2.04.3.17.26.37ZM7642.29,7188.79l.03-.13-.25-.05c-.15-.03-.21.02-.23.1-.02.09.04.16.17.19.12.02.22-.02.28-.11Z"/><path class="cls-19" d="M7643.2,7188.39l-.02.1s-.02,0-.03,0c-.16-.03-.29.05-.32.24l-.08.4-.11-.02.16-.79.1.02-.03.15c.07-.09.18-.13.33-.1Z"/><path class="cls-19" d="M7643.39,7188.44l.11.02-.16.79-.11-.02.16-.79ZM7643.41,7188.18s.05-.07.09-.06c.04,0,.07.05.06.09,0,.04-.05.07-.09.06-.04,0-.07-.05-.06-.09Z"/><path class="cls-19" d="M7644.39,7189.08l-.66-.13c-.02.17.08.3.25.33.1.02.19,0,.26-.05l.05.08c-.09.07-.21.09-.33.07-.25-.05-.38-.25-.33-.48.05-.23.24-.37.46-.32.22.04.35.24.3.48,0,0,0,.02,0,.03ZM7643.75,7188.87l.56.11c.02-.16-.07-.29-.23-.32-.15-.03-.29.06-.33.21Z"/><path class="cls-19" d="M7644.45,7189.37l.06-.07c.05.06.15.12.26.14.15.03.22,0,.24-.09.04-.21-.5-.15-.44-.46.03-.13.16-.2.36-.16.1.02.21.07.26.13l-.06.08c-.06-.06-.14-.1-.22-.11-.14-.03-.22.01-.23.09-.04.21.5.15.44.46-.03.14-.16.2-.37.16-.13-.03-.25-.09-.3-.16Z"/><path class="cls-19" d="M7601.81,7170.77l.09.06-.6.96-.09-.06.6-.96Z"/><path class="cls-19" d="M7601.7,7171.57c.13-.2.36-.25.56-.13.2.12.25.36.13.56-.13.2-.36.25-.56.13-.2-.13-.26-.36-.13-.56ZM7602.29,7171.95c.1-.16.06-.33-.08-.42-.14-.09-.32-.05-.42.11-.1.16-.06.33.09.42.14.09.32.05.42-.11Z"/><path class="cls-19" d="M7602.51,7172.08c.13-.2.36-.25.56-.13.2.12.25.36.13.56-.13.2-.37.25-.56.13s-.25-.36-.13-.56ZM7603.1,7172.46c.1-.16.06-.33-.09-.42s-.32-.05-.42.1c-.1.16-.06.33.09.42s.32.05.42-.11Z"/><path class="cls-19" d="M7603.64,7172.79l-.25.05-.12.19-.09-.06.6-.96.09.06-.41.65.64-.12.11.07-.47.09.06.6-.11-.07-.06-.51Z"/><path class="cls-19" d="M7605.19,7173.77c-.13.21-.36.26-.56.13-.11-.07-.18-.18-.17-.31l-.08.13-.09-.05.6-.96.09.06-.26.41c.11-.05.23-.04.34.03.19.12.25.35.12.56ZM7605.1,7173.71c.1-.16.06-.33-.09-.42-.14-.09-.32-.05-.42.1-.1.16-.06.33.09.42.14.09.32.05.42-.1Z"/><path class="cls-19" d="M7605.94,7174.13l-.27.42-.09-.06.07-.11c-.08.04-.19.04-.31-.04-.15-.1-.2-.24-.12-.35.07-.1.19-.15.38-.03l.22.14.03-.04c.07-.12.05-.22-.08-.3-.09-.06-.19-.08-.28-.06v-.09c.11-.01.23.01.33.08.18.11.22.26.11.44ZM7605.71,7174.29l.07-.11-.21-.13c-.13-.08-.21-.06-.25.01-.05.08-.02.17.09.24.1.06.21.06.3,0Z"/><path class="cls-19" d="M7606.07,7174.33c.13-.2.36-.25.57-.12.11.07.18.18.18.3h-.1c0-.09-.05-.17-.13-.22-.15-.09-.32-.06-.42.1-.1.16-.06.33.09.43.08.05.17.06.26.02l.04.09c-.11.05-.24.04-.35-.03-.2-.13-.26-.36-.13-.57Z"/><path class="cls-19" d="M7607.11,7174.98l-.25.05-.12.19-.09-.06.6-.96.09.06-.41.65.64-.12.11.07-.47.1.06.6-.11-.07-.06-.51Z"/><path class="cls-19" d="M7607.55,7175.64s-.03.04-.06.06l-.17.14-.06-.04.16-.16s-.03-.06,0-.1c.03-.04.07-.05.11-.03.04.03.05.07.02.11Z"/><path class="cls-19" d="M7608.65,7175.09l.09.06-.6.96-.09-.06.6-.96Z"/><path class="cls-19" d="M7608.54,7175.88c.13-.2.36-.25.56-.13.2.12.25.36.13.56-.13.2-.37.25-.56.13-.2-.13-.25-.36-.13-.56ZM7609.13,7176.26c.1-.16.06-.33-.08-.42-.14-.09-.32-.05-.42.11-.1.16-.06.33.09.42.14.09.32.05.42-.11Z"/><path class="cls-19" d="M7609.34,7176.39c.13-.2.36-.25.56-.13.2.12.25.36.13.56-.13.2-.37.25-.56.13-.2-.12-.25-.36-.13-.56ZM7609.94,7176.77c.1-.16.06-.33-.08-.42-.14-.09-.32-.05-.42.1-.1.16-.06.33.09.43.14.09.32.05.42-.11Z"/><path class="cls-19" d="M7610.47,7177.1l-.25.05-.12.19-.09-.06.6-.96.09.06-.41.65.64-.12.11.07-.47.09.06.6-.11-.07-.06-.51Z"/><path class="cls-19" d="M7611.71,7177.3l-.05.08.21.13-.05.08-.21-.13-.38.6-.09-.06.38-.6-.12-.08.05-.08.12.08.05-.08c.08-.12.2-.16.33-.07.05.03.09.08.11.13l-.07.05s-.04-.07-.08-.1c-.08-.05-.15-.03-.2.05Z"/><path class="cls-19" d="M7611.7,7177.88c.13-.2.36-.25.56-.13.2.12.25.36.13.56-.13.2-.37.25-.56.13-.2-.13-.25-.36-.13-.56ZM7612.29,7178.25c.1-.16.06-.33-.08-.42-.14-.09-.32-.05-.42.11-.1.16-.06.33.09.42.14.09.32.05.42-.11Z"/><path class="cls-19" d="M7613.13,7178.3l-.06.09s-.02-.01-.02-.02c-.14-.09-.28-.05-.38.11l-.22.35-.09-.06.43-.68.09.06-.08.13c.1-.06.22-.06.34.02Z"/><path class="cls-19" d="M7614.32,7179.06l-.69.52-.09-.05.14-.69-.57.42-.09-.05.17-.84.09.06-.15.71.58-.44.08.05-.15.71.58-.44.08.05Z"/><path class="cls-19" d="M7614.79,7179.71l-.27.42-.09-.05.07-.11c-.08.04-.19.04-.31-.04-.15-.1-.2-.24-.12-.35.07-.11.19-.15.38-.03l.22.14.03-.04c.07-.12.05-.22-.08-.3-.09-.05-.19-.08-.28-.06v-.09c.11-.01.23.01.33.08.18.11.22.26.11.44ZM7614.56,7179.87l.07-.11-.21-.13c-.13-.08-.21-.06-.25,0-.05.08-.02.17.09.24.1.07.21.06.3,0Z"/><path class="cls-19" d="M7615.55,7179.82l-.06.09s-.02-.01-.02-.02c-.14-.09-.28-.05-.38.11l-.22.35-.09-.06.43-.68.09.06-.08.13c.1-.06.22-.06.34.02Z"/><path class="cls-19" d="M7616.5,7180.04l-.6.96-.09-.06.08-.13c-.11.06-.24.05-.35-.02-.19-.12-.25-.35-.12-.56.13-.21.36-.25.55-.13.11.07.17.17.17.3l.26-.41.09.06ZM7616.02,7180.6c.1-.16.06-.33-.08-.42-.14-.09-.32-.05-.42.11-.1.16-.06.33.09.42.14.09.32.05.42-.11Z"/><path class="cls-19" d="M7638.42,7193.17s-.12.03-.18.02c-.15-.03-.21-.13-.19-.28l.09-.48-.14-.03.02-.09.14.03.03-.17.11.02-.03.17.24.05-.02.09-.24-.05-.09.47c-.02.09.02.15.11.17.04,0,.09,0,.12-.02l.02.08Z"/><path class="cls-19" d="M7639.29,7192.89l-.1.49-.1-.02.02-.12c-.06.07-.17.1-.3.08-.18-.04-.27-.15-.24-.29.02-.12.12-.21.35-.16l.25.05v-.05c.04-.13-.03-.22-.17-.25-.1-.02-.2,0-.28.04l-.03-.09c.09-.05.22-.07.34-.04.2.04.3.17.26.37ZM7639.14,7193.12l.03-.13-.25-.05c-.15-.03-.21.02-.23.1-.02.09.04.16.17.19.12.02.22-.02.28-.11Z"/><path class="cls-19" d="M7639.99,7193.53l-.18-.38-.32.28-.12-.02.39-.34-.22-.44.12.02.17.36.3-.26.12.02-.37.33.23.47-.12-.02Z"/><path class="cls-19" d="M7641.02,7193.36l-.66-.13c-.02.17.08.3.25.33.1.02.19,0,.26-.05l.05.08c-.09.07-.21.09-.33.07-.25-.05-.38-.25-.33-.48.05-.23.24-.37.46-.32s.35.24.3.48c0,0,0,.02,0,.03ZM7640.37,7193.15l.56.11c.02-.16-.07-.29-.23-.32-.15-.03-.29.06-.33.21Z"/><path class="cls-19" d="M7641.07,7193.65l.06-.07c.05.06.15.12.26.14.15.03.22,0,.24-.09.04-.21-.5-.15-.44-.46.03-.13.16-.2.36-.16.1.02.21.07.26.13l-.06.08c-.06-.06-.14-.1-.22-.11-.14-.03-.22.01-.23.09-.04.21.5.15.44.46-.03.14-.17.2-.37.16-.13-.03-.25-.09-.3-.16Z"/><path class="cls-19" d="M7619.29,7158.69l.08.05.56-.88-.08-.05.2-.32.5.32-.08.13c.06-.02.12-.03.19-.04.07,0,.14.02.2.06.13.08.19.19.19.33,0,.14-.06.3-.17.48-.12.18-.24.3-.36.36-.13.06-.25.05-.38-.03-.06-.04-.11-.09-.14-.15-.03-.06-.04-.12-.05-.19l-.16.25.13.08-.2.32-.63-.4.2-.32ZM7620.27,7158.66s.06-.04.09-.08l.12-.2s.04-.08.03-.11c0-.03-.03-.06-.06-.08-.04-.02-.07-.03-.1-.02-.03,0-.06.04-.09.08l-.12.2s-.04.08-.03.11c0,.03.03.06.06.08.04.02.07.03.1.02Z"/><path class="cls-19" d="M7622.14,7158.78s.03.04.04.05l-.24.38c-.04-.05-.08-.1-.14-.14-.08-.05-.15-.07-.22-.05-.07.02-.13.07-.18.15l-.11.17.17.11-.2.32-.67-.42.2-.32.08.05.28-.45-.08-.05.2-.32.5.32-.09.14c.07-.03.13-.05.2-.05.06,0,.13.02.19.06.03.02.05.03.07.05Z"/><path class="cls-19" d="M7621.77,7159.93c-.04-.16,0-.33.12-.52s.26-.3.42-.33c.16-.04.33,0,.5.11.18.11.28.25.32.41.04.16,0,.33-.12.52-.12.19-.26.3-.42.33s-.33,0-.5-.11c-.17-.11-.28-.24-.32-.4ZM7622.4,7160s.06-.04.09-.08l.12-.2s.04-.08.03-.11c0-.03-.02-.06-.06-.08-.04-.02-.07-.03-.1-.02-.03,0-.06.04-.09.08l-.12.2s-.04.08-.03.11c0,.03.03.06.06.08.04.02.07.03.1.02Z"/><path class="cls-19" d="M7622.92,7160.72c-.02-.11.02-.24.12-.4l.22-.36-.08-.05.2-.32s.09.04.13.03c.04-.01.07-.04.1-.08l.06-.09.39.25-.15.23.25.16-.2.32-.25-.16-.2.32s-.04.08-.03.11c0,.03.03.06.06.08.05.03.1.06.16.08l-.19.31s-.1-.02-.16-.05c-.07-.02-.13-.06-.19-.09-.13-.08-.21-.18-.23-.29Z"/><path class="cls-19" d="M7623.76,7161.19c-.04-.16,0-.33.12-.52s.26-.3.42-.33c.16-.04.33,0,.5.11.17.11.27.24.28.38.02.14-.02.29-.11.43l-.09.14-.6-.38h0c-.03.06-.04.1-.03.14.01.04.05.08.11.12.07.05.15.09.22.12.08.03.14.05.21.07l-.2.31c-.06,0-.14-.02-.23-.05-.09-.03-.19-.08-.29-.14-.17-.11-.28-.24-.32-.4ZM7624.64,7160.94v-.02s.05-.08.05-.11c0-.03-.03-.06-.06-.08-.04-.02-.07-.03-.1-.02-.03,0-.06.04-.09.08v.02s.2.13.2.13Z"/><path class="cls-19" d="M7624.86,7161.88c-.04-.16,0-.33.12-.52.12-.19.26-.3.42-.33.16-.04.33,0,.5.11.08.05.16.12.22.19.06.07.1.14.13.2l-.25.39-.32-.2.02-.04s.04-.08.04-.11-.02-.06-.06-.08c-.07-.04-.13-.03-.19.06l-.11.17c-.06.1-.04.19.07.25.1.07.23.13.38.19l-.19.31c-.05,0-.12-.03-.21-.06-.09-.03-.17-.07-.25-.12-.17-.11-.28-.25-.32-.4Z"/><path class="cls-19" d="M7625.88,7162.59c-.02-.11.02-.24.12-.4l.22-.35-.08-.05.2-.32s.09.04.13.03c.04-.01.07-.04.1-.08l.06-.09.39.25-.15.23.25.16-.2.32-.25-.16-.2.32s-.04.08-.03.11c0,.03.03.06.06.08.05.03.1.06.16.08l-.19.31s-.1-.02-.16-.05c-.07-.02-.13-.06-.19-.09-.13-.08-.21-.18-.23-.29Z"/><path class="cls-19" d="M7635.44,7166.79c-.09-.03-.16-.07-.21-.1l.07-.37c.15.06.28.1.4.12.08.02.14.01.18,0,.04-.02.07-.06.08-.14l.02-.1s-.1.08-.16.1c-.06.03-.13.03-.21.02-.15-.03-.24-.11-.29-.24-.05-.13-.05-.3-.01-.51.04-.21.11-.37.21-.47.1-.1.22-.14.36-.11.07.01.13.05.18.1.05.05.09.1.11.16l.03-.15.59.12-.07.37-.09-.02-.16.8c-.04.22-.13.37-.25.45-.12.08-.29.1-.49.06-.1-.02-.2-.05-.29-.08ZM7636.01,7165.94s.04-.05.05-.1l.04-.23s0-.09,0-.12-.04-.04-.09-.05c-.04,0-.08,0-.1.02-.03.02-.04.05-.05.1l-.04.23s0,.09,0,.12.04.05.09.05c.04,0,.08,0,.1-.02Z"/><path class="cls-19" d="M7637.85,7165.39s.04.02.06.04l-.09.43c-.05-.04-.11-.06-.18-.08-.09-.02-.16,0-.22.03-.06.04-.1.11-.12.21l-.04.2.19.04-.07.37-.78-.15.07-.37.09.02.1-.52-.09-.02.07-.37.59.12-.03.17c.05-.05.11-.09.17-.12.06-.02.12-.03.2-.01.03,0,.05.01.08.02Z"/><path class="cls-19" d="M7637.92,7166.6c-.09-.14-.12-.31-.07-.53.04-.22.13-.37.27-.46.14-.09.31-.11.51-.07.21.04.35.13.44.26.09.14.11.31.07.53-.04.22-.13.37-.27.46-.14.09-.31.12-.51.08s-.35-.13-.44-.26ZM7638.54,7166.44s.04-.05.05-.1l.04-.23s0-.09,0-.12c-.02-.03-.04-.05-.09-.05-.04,0-.07,0-.1.02s-.04.05-.05.1l-.04.23s0,.09,0,.12c.02.03.04.04.09.05.04,0,.08,0,.1-.02Z"/><path class="cls-19" d="M7639.44,7167.04l-.11-.95-.09-.02.07-.37.66.13-.07.37-.09-.02v.37s.03,0,.03,0l.3-.7.39.08v.76s.03,0,.03,0l.15-.34-.09-.02.07-.37.62.12-.07.37-.09-.02-.45.84-.52-.1v-.66s-.01,0-.01,0l-.24.61-.49-.1Z"/><path class="cls-19" d="M7605.18,7170.62l-.2.32-.54-.34.1-.15c-.17.06-.33.05-.47-.04-.11-.07-.17-.15-.18-.26-.01-.1.02-.21.1-.33l.26-.41-.09-.05.2-.32.54.34-.41.64s-.04.08-.03.11c0,.03.03.06.07.08s.07.03.1.02c.03,0,.06-.04.09-.08l.2-.32-.11-.07.2-.32.56.35-.49.77.09.05Z"/><path class="cls-19" d="M7606.54,7171.47l-.2.32-.62-.39.2-.32.08.05.2-.32s.04-.08.03-.11c0-.03-.03-.06-.06-.08-.08-.05-.14-.03-.2.05l-.2.32.08.05-.2.32-.62-.39.2-.32.09.05.28-.45-.09-.05.2-.32.54.34-.1.15c.17-.06.33-.05.47.04.11.07.17.15.18.26.01.1-.02.21-.09.33l-.26.41.09.05Z"/><path class="cls-19" d="M7606.56,7171.77c0-.14.05-.3.17-.49.12-.18.24-.3.37-.36.13-.06.26-.04.39.04.07.04.12.1.15.16.03.07.05.13.06.19l.16-.25-.12-.07.2-.32.57.36-.76,1.2.09.05-.2.32-.54-.34.08-.13c-.06.02-.12.03-.2.03s-.14-.02-.21-.06c-.13-.08-.2-.2-.21-.34ZM7607.29,7171.9s.06-.04.09-.08l.12-.2s.04-.08.03-.11c0-.03-.03-.06-.07-.08s-.07-.03-.11-.02c-.03,0-.06.03-.09.08l-.12.2s-.04.08-.03.11c0,.03.03.06.07.08s.07.03.1.02Z"/><path class="cls-19" d="M7607.92,7172.62c-.04-.16,0-.34.11-.53.12-.19.26-.29.43-.33.17-.03.34.01.53.13.18.12.29.25.31.4s-.01.29-.1.44l-.09.14-.64-.4h0c-.03.06-.04.11-.02.15.01.04.05.08.12.12.08.05.16.09.24.13s.15.06.22.07l-.2.31c-.06,0-.14-.02-.24-.06-.1-.04-.2-.09-.31-.15-.19-.12-.3-.26-.34-.42ZM7608.83,7172.4v-.02s.05-.08.05-.11c0-.03-.03-.06-.07-.08-.04-.02-.07-.03-.1-.02-.03,0-.06.03-.09.08v.02s.21.14.21.14Z"/><path class="cls-19" d="M7610.47,7172.85s.04.04.05.06l-.24.37c-.04-.06-.09-.1-.15-.14-.08-.05-.16-.07-.23-.05-.07.02-.13.07-.19.15l-.11.17.18.11-.2.32-.71-.45.2-.32.09.05.28-.45-.09-.05.2-.32.54.34-.09.14c.07-.03.14-.05.21-.05s.13.02.2.06c.03.02.05.04.07.06Z"/><path class="cls-19" d="M7609.92,7173.98l.18-.29.32.2v.02c-.05.06-.03.12.05.17.07.04.12.04.15,0,.02-.03.02-.05,0-.08-.01-.03-.04-.06-.08-.1l-.09-.08c-.18-.17-.21-.35-.09-.54.07-.11.17-.17.3-.18.13,0,.26.03.41.12.16.1.29.22.36.34l-.17.27-.3-.19v-.02s.03-.05.02-.08c0-.02-.03-.05-.06-.07-.07-.04-.11-.04-.14,0-.01.02-.02.04,0,.07.01.02.04.05.08.1l.1.09c.1.1.16.19.17.28.01.09-.01.18-.07.28-.07.12-.17.18-.3.19-.12.01-.26-.03-.41-.13-.17-.11-.31-.23-.43-.38Z"/><path class="cls-19" d="M7611.12,7174.71c-.03-.11,0-.25.11-.41l.22-.36-.09-.05.2-.32s.09.04.13.03c.04-.01.08-.04.1-.08l.06-.09.42.26-.15.23.26.17-.2.32-.26-.17-.2.32s-.04.08-.03.11c0,.03.03.06.07.08.05.03.11.06.17.08l-.19.31s-.1-.03-.17-.05c-.07-.03-.14-.06-.2-.1-.14-.09-.22-.19-.25-.3Z"/><path class="cls-19" d="M7613.14,7175.63l-.2.32-.52-.33.08-.13c-.05.02-.12.04-.19.04-.07,0-.15-.02-.22-.07-.1-.06-.16-.14-.18-.22-.02-.09,0-.18.06-.27.16-.25.45-.24.87.02.02-.05.03-.09,0-.12-.02-.04-.07-.08-.14-.12-.06-.04-.13-.07-.2-.1-.08-.03-.15-.05-.22-.07l.23-.36c.08.03.16.06.25.1s.17.09.25.13c.2.12.31.25.35.37.04.12.01.26-.08.41l-.23.36.09.05ZM7612.71,7175.17c-.06-.04-.11-.06-.15-.06-.04,0-.07.01-.1.05-.01.02-.02.04-.01.07,0,.02.02.04.04.06.03.02.07.02.11,0,.04-.02.07-.05.1-.11h0Z"/><path class="cls-19" d="M7614.5,7176.49l-.2.32-.62-.39.2-.32.08.05.2-.32s.04-.08.03-.11c0-.03-.03-.06-.06-.08-.08-.05-.14-.03-.2.05l-.2.32.08.05-.2.32-.62-.39.2-.32.09.05.28-.45-.09-.05.2-.32.54.34-.1.15c.17-.06.33-.05.47.04.11.07.17.15.18.26.01.1-.02.21-.09.33l-.26.41.09.05Z"/><path class="cls-19" d="M7614.52,7176.79c0-.14.05-.3.17-.49.12-.18.24-.3.37-.36.13-.06.26-.04.39.04.07.04.12.1.15.16.03.07.05.13.06.19l.16-.25-.12-.07.2-.32.57.36-.76,1.2.09.05-.2.32-.54-.34.08-.13c-.06.02-.13.03-.2.03-.07,0-.14-.02-.21-.06-.13-.08-.2-.2-.21-.34ZM7615.25,7176.92s.06-.04.09-.08l.12-.2s.04-.08.03-.11c0-.03-.03-.06-.07-.08s-.07-.03-.11-.02c-.03,0-.06.03-.09.08l-.12.2s-.04.08-.03.11c0,.03.03.06.07.08s.07.03.1.02Z"/><path class="cls-19" d="M7638.1,7184.79l-.07.37-.6-.12.03-.15s-.1.08-.17.1-.14.03-.23.01c-.11-.02-.2-.07-.25-.14-.05-.07-.07-.17-.05-.28.06-.29.33-.39.82-.3,0-.05,0-.09-.04-.12-.03-.03-.09-.05-.17-.06-.07-.01-.14-.02-.22-.02s-.16,0-.23.01l.08-.42c.08,0,.17,0,.27,0,.1,0,.19.02.28.04.23.04.38.12.46.22.08.1.1.24.07.41l-.08.42.1.02ZM7637.53,7184.51c-.07-.01-.12-.01-.16,0-.04.01-.07.04-.07.08,0,.03,0,.05.01.07.01.02.03.03.06.04.04,0,.07,0,.1-.03s.05-.07.06-.13h0Z"/><path class="cls-19" d="M7638.29,7185.07c-.1-.14-.13-.31-.08-.53.04-.22.14-.37.28-.46.14-.09.32-.11.54-.07.11.02.2.05.29.1.09.05.16.09.2.14l-.09.45-.39-.08v-.04s.01-.09,0-.12c-.02-.03-.05-.05-.09-.05-.09-.02-.14.02-.16.12l-.04.2c-.02.12.03.19.17.22.13.03.28.04.45.05l-.07.36c-.06.01-.13.02-.23.02-.1,0-.2-.01-.3-.03-.22-.04-.37-.13-.47-.27Z"/><path class="cls-19" d="M7639.59,7185.38c-.07-.09-.08-.23-.04-.42l.08-.41-.1-.02.07-.37c.06.01.1,0,.14-.02s.06-.06.07-.11l.02-.1.48.1-.05.27.31.06-.07.37-.31-.06-.07.37s0,.09.01.12c.02.03.05.05.09.05.06.01.12.02.19.02l-.07.36s-.11.01-.18.01c-.07,0-.15,0-.22-.02-.16-.03-.27-.09-.34-.19Z"/><path class="cls-19" d="M7640.4,7185.63l.07-.37.1.02.1-.52-.1-.02.07-.37.62.12-.18.89.1.02-.07.37-.72-.14ZM7640.78,7184.26l.08-.38.46.09-.08.38-.46-.09Z"/><path class="cls-19" d="M7641.38,7185.68c-.1-.14-.13-.31-.08-.53.04-.22.14-.37.28-.46.14-.09.32-.11.54-.07.22.04.38.13.47.27.1.14.12.32.08.53-.04.22-.14.37-.28.46-.14.09-.32.11-.54.07-.21-.04-.37-.13-.47-.27ZM7642.04,7185.53s.04-.05.05-.1l.05-.23s0-.09-.01-.12c-.02-.03-.05-.05-.09-.05s-.08,0-.11.02c-.03.02-.04.05-.05.1l-.04.23s0,.09.01.12c.02.03.05.05.09.05.04,0,.08,0,.11-.02Z"/><path class="cls-19" d="M7644.21,7186l-.07.37-.72-.14.07-.37.09.02.07-.37s0-.09,0-.12-.05-.05-.09-.05c-.09-.02-.15.02-.17.12l-.07.37.1.02-.07.37-.72-.14.07-.37.1.02.1-.52-.1-.02.07-.37.62.12-.04.18c.14-.12.29-.16.45-.13.13.03.21.08.26.17.05.09.06.21.03.34l-.09.48.1.02Z"/><path class="cls-6" d="M7631.85,7149.61s-.09-.08-.11-.11l.13-.21c.08.07.16.13.23.18.05.03.09.05.12.04.03,0,.06-.02.09-.06l.04-.06s-.08.02-.13.02-.09-.01-.14-.04c-.09-.06-.13-.13-.14-.22,0-.09.03-.2.11-.32s.16-.2.24-.24c.09-.04.17-.03.26.03.04.03.08.06.1.11s.03.08.04.13l.06-.09.35.22-.13.21-.06-.04-.29.45c-.08.12-.17.2-.26.21-.1.02-.21-.01-.33-.09-.06-.04-.12-.08-.17-.12ZM7632.42,7149.23s.04-.02.06-.05l.08-.13s.02-.05.02-.07c0-.02-.02-.04-.04-.05-.03-.02-.05-.02-.07-.02-.02,0-.04.02-.06.05l-.08.13s-.02.05-.02.07c0,.02.02.04.04.06.02.02.05.02.07.02Z"/><path class="cls-6" d="M7632.83,7149.7c-.03-.11,0-.22.07-.35.08-.12.17-.19.28-.22.11-.02.22,0,.35.08.12.08.2.17.23.28.03.11,0,.22-.07.34-.08.12-.17.19-.28.21-.11.02-.23,0-.35-.08-.12-.08-.2-.17-.23-.28ZM7633.27,7149.77s.04-.02.06-.05l.08-.13s.02-.05.02-.08c0-.02-.02-.04-.04-.06s-.05-.02-.07-.02c-.02,0-.04.02-.06.05l-.08.13s-.03.05-.02.07c0,.02.02.04.04.05s.05.02.07.02Z"/><path class="cls-6" d="M7634.38,7150.5l-.13.21-.34-.21.06-.09s-.08.02-.13.02-.1-.02-.14-.05c-.06-.04-.11-.09-.12-.15-.01-.06,0-.12.04-.18.1-.16.29-.16.57,0,.02-.03.02-.06,0-.08-.01-.02-.04-.05-.09-.08-.04-.02-.08-.05-.13-.07s-.1-.03-.14-.04l.15-.24c.05.02.11.04.17.07.06.03.11.06.16.09.13.08.21.16.23.24.03.08,0,.17-.05.27l-.15.24.06.04ZM7634.1,7150.19s-.07-.04-.1-.04c-.03,0-.05,0-.06.03,0,.02-.01.03,0,.04,0,.01.01.03.03.04.02.01.04.01.07,0,.03-.01.05-.03.07-.07h0Z"/><path class="cls-6" d="M7634.29,7150.74l.13-.21.06.04.37-.58-.06-.04.13-.21.35.22-.5.79.06.04-.13.21-.41-.26Z"/><path class="cls-6" d="M7634.76,7150.99l.12-.19.21.13h0c-.03.05-.01.09.04.12.05.03.08.03.1,0,.01-.02.01-.03,0-.05,0-.02-.03-.04-.06-.07l-.06-.05c-.12-.11-.14-.23-.06-.36.05-.07.11-.11.19-.12.08,0,.17.02.27.08.11.07.19.14.24.23l-.11.18-.2-.12h0s.01-.05,0-.06-.02-.03-.04-.05c-.04-.03-.07-.03-.09,0,0,.01,0,.03,0,.04s.02.04.05.06l.06.06c.07.06.11.12.11.18,0,.06,0,.12-.05.18-.05.08-.11.12-.2.13s-.17-.02-.27-.08c-.11-.07-.2-.15-.28-.25Z"/><path class="cls-6" d="M7636.79,7152.02l.05-.25h.07s.13-.66.13-.66h-.07s.05-.26.05-.26l.41.08-.18.92h.07s-.05.26-.05.26l-.48-.09Z"/><path class="cls-6" d="M7637.45,7152.05c-.07-.09-.08-.21-.06-.35.03-.14.09-.24.18-.3.09-.06.21-.07.35-.04.14.03.24.08.28.17.05.09.06.18.04.29l-.02.11-.49-.1h0s0,.08.02.1c.02.02.05.04.1.05.06.01.12.02.18.02.06,0,.11,0,.15,0l-.05.24s-.09.02-.16.02c-.07,0-.15,0-.22-.02-.14-.03-.25-.09-.31-.18ZM7637.96,7151.7v-.02s0-.06,0-.08c-.01-.02-.03-.03-.06-.04s-.05,0-.07.01c-.02.01-.03.03-.04.07v.02s.17.04.17.04Z"/><path class="cls-6" d="M7638.37,7152.68c-.06-.02-.11-.04-.15-.06l.05-.25c.1.04.19.07.28.08.06.01.1.01.13,0,.03-.01.05-.04.06-.09v-.06s-.06.05-.1.07c-.04.02-.09.02-.14.01-.1-.02-.17-.07-.21-.16-.04-.08-.04-.2-.01-.34.03-.14.08-.24.14-.31.07-.07.15-.09.25-.07.05,0,.09.03.13.06.03.03.06.07.08.11l.02-.1.41.08-.05.25h-.07s-.1.51-.1.51c-.03.15-.08.24-.17.29-.09.05-.2.06-.34.03-.07-.01-.14-.03-.2-.06ZM7638.77,7152.13s.03-.04.04-.07l.03-.15s0-.06,0-.08c-.01-.02-.03-.03-.06-.04-.03,0-.05,0-.07,0-.02.01-.03.04-.04.07l-.03.15s0,.06,0,.08c.01.02.03.03.06.04.03,0,.05,0,.07,0Z"/><path class="cls-6" d="M7640.11,7152.42l-.05.25-.4-.08.02-.1s-.07.05-.11.07c-.04.02-.09.02-.15,0-.08-.01-.13-.05-.17-.1-.04-.05-.05-.11-.03-.18.04-.19.22-.25.54-.2,0-.03,0-.06-.02-.08-.02-.02-.06-.03-.11-.04-.04,0-.09-.01-.15-.01-.05,0-.1,0-.15,0l.05-.28c.05,0,.11,0,.18,0,.06,0,.12.01.18.02.15.03.25.08.3.14.05.07.07.16.05.27l-.06.28h.07ZM7639.73,7152.23s-.08,0-.11,0c-.03,0-.04.02-.05.05,0,.02,0,.03,0,.04,0,.01.02.02.04.03.03,0,.05,0,.07-.02.02-.02.03-.05.04-.09h0Z"/><path class="cls-6" d="M7640.24,7152.6c-.07-.09-.08-.21-.06-.35.03-.14.09-.24.18-.3.09-.06.21-.07.35-.04.07.01.13.04.19.07.06.03.1.06.13.09l-.06.3-.26-.05v-.03s0-.06,0-.08c-.01-.02-.03-.03-.06-.04-.06-.01-.09.01-.11.08l-.03.13c-.02.08.02.13.11.14.08.02.18.03.29.03l-.05.24s-.09.01-.15.01-.13,0-.19-.02c-.14-.03-.25-.09-.31-.18Z"/><path class="cls-6" d="M7642.02,7152.19l-.05.25h-.06s-.3.47-.3.47c-.08.12-.15.21-.23.26-.08.05-.17.07-.27.05-.04,0-.08-.02-.12-.04-.04-.02-.08-.04-.11-.06l.05-.27.21.04v.02s0,.04.03.04c.02,0,.04,0,.06-.02l-.11-.66h-.06s.05-.26.05-.26l.45.09-.05.25h-.05s.03.24.03.24l.12-.22h-.05s.05-.26.05-.26l.42.08Z"/><path class="cls-19" d="M7617.09,7160.1l-.6.96-.09-.05.08-.13c-.11.06-.24.05-.35-.02-.19-.12-.25-.35-.12-.56.13-.21.36-.25.55-.13.11.07.17.17.17.3l.26-.41.09.06ZM7616.61,7160.66c.1-.16.06-.33-.08-.42-.14-.09-.32-.05-.42.1-.1.16-.06.33.09.42.14.09.32.05.42-.11Z"/><path class="cls-19" d="M7617.53,7161.28l-.57-.36c-.08.15-.03.31.12.4.08.05.17.07.26.04v.09c-.09.03-.21.01-.32-.05-.21-.13-.26-.37-.14-.57s.36-.26.55-.13c.19.12.24.35.11.55,0,0-.01.02-.02.03ZM7617,7160.86l.48.3c.07-.14.03-.29-.1-.38-.13-.08-.29-.05-.38.07Z"/><path class="cls-19" d="M7618.42,7161.81c-.13.21-.36.26-.56.13-.11-.07-.17-.18-.17-.3l-.08.13-.09-.05.6-.96.09.06-.26.41c.11-.05.23-.04.34.03.19.12.25.35.12.56ZM7618.33,7161.75c.1-.16.06-.33-.09-.42-.14-.09-.32-.05-.42.1-.1.16-.06.33.09.42.14.09.32.05.42-.1Z"/><path class="cls-19" d="M7618.78,7162.45c-.06,0-.12,0-.17-.04-.13-.08-.15-.2-.07-.32l.26-.41-.12-.08.05-.08.12.08.09-.15.09.06-.09.15.21.13-.05.08-.21-.13-.26.41c-.05.08-.04.15.04.2.04.02.08.04.12.03v.09Z"/><path class="cls-19" d="M7620.63,7163.12l-.25.39-.09-.06.24-.38c.09-.14.06-.26-.06-.34-.14-.09-.28-.05-.38.1l-.22.36-.09-.06.24-.38c.09-.14.06-.26-.06-.34-.14-.09-.28-.05-.38.1l-.22.36-.09-.06.43-.68.09.05-.08.12c.1-.05.22-.04.33.03.11.07.17.17.15.3.1-.06.24-.05.36.03.17.1.21.27.09.46Z"/><path class="cls-19" d="M7621.41,7163.58l-.27.42-.09-.06.07-.11c-.09.04-.19.04-.31-.04-.15-.1-.2-.24-.12-.35.07-.11.19-.15.38-.03l.21.14.03-.04c.07-.12.05-.22-.08-.3-.09-.06-.19-.08-.28-.06v-.09c.11-.01.23.01.34.08.18.11.22.26.11.44ZM7621.18,7163.74l.07-.11-.21-.13c-.13-.08-.21-.06-.25.01-.05.08-.02.17.09.24.1.06.21.06.3,0Z"/><path class="cls-19" d="M7622.26,7164.16l-.25.39-.09-.06.24-.38c.09-.14.06-.26-.07-.34-.15-.09-.29-.06-.39.09l-.22.36-.09-.06.43-.68.09.05-.08.12c.1-.05.22-.04.34.03.17.1.22.27.1.47Z"/><path class="cls-19" d="M7623.04,7164.61l-.27.42-.09-.05.07-.11c-.08.04-.19.04-.3-.04-.15-.1-.2-.24-.12-.35.07-.11.19-.15.38-.03l.22.14.03-.04c.07-.12.05-.22-.08-.3-.09-.05-.19-.08-.28-.06v-.09c.11-.02.23.02.33.08.18.11.22.26.11.44ZM7622.81,7164.77l.07-.11-.21-.13c-.13-.08-.21-.06-.25.01-.05.08-.02.17.09.24.1.07.21.06.3,0Z"/><path class="cls-19" d="M7624.09,7164.91l-.38.6c-.15.23-.33.27-.55.13-.12-.08-.22-.19-.25-.3l.09-.04c.03.1.1.2.21.26.17.11.3.08.41-.09l.05-.09c-.11.05-.24.04-.35-.04-.19-.12-.25-.35-.13-.55.12-.19.35-.23.55-.11.11.07.18.18.18.3l.08-.13.09.05ZM7623.79,7165.17c.09-.15.05-.32-.1-.41-.15-.09-.32-.06-.41.08-.09.15-.05.32.1.41.15.09.32.06.42-.09Z"/><path class="cls-19" d="M7624.7,7165.81l-.57-.36c-.08.15-.03.31.12.4.08.05.17.07.26.04v.09c-.09.03-.21.01-.32-.05-.21-.13-.26-.37-.14-.57s.36-.26.55-.13c.19.12.24.35.11.55,0,0-.01.02-.02.03ZM7624.18,7165.38l.48.3c.07-.14.03-.29-.1-.38-.13-.08-.29-.05-.38.07Z"/><path class="cls-19" d="M7626.06,7166.55l-.25.39-.09-.06.24-.38c.09-.14.06-.26-.06-.34-.14-.09-.28-.05-.38.1l-.22.36-.09-.06.24-.38c.09-.14.07-.26-.06-.34-.14-.09-.28-.05-.38.1l-.22.36-.09-.06.43-.68.09.06-.08.12c.1-.05.22-.04.33.03.11.07.17.17.15.3.1-.06.24-.05.36.03.17.1.21.27.09.46Z"/><path class="cls-19" d="M7626.86,7167.17l-.57-.36c-.08.15-.03.31.12.4.08.05.17.07.26.04v.09c-.09.04-.21.01-.32-.05-.21-.13-.26-.37-.14-.57.13-.2.36-.26.55-.14.19.12.24.35.11.55,0,0-.01.02-.02.03ZM7626.33,7166.74l.48.3c.07-.14.03-.29-.1-.38-.13-.08-.29-.05-.38.07Z"/><path class="cls-19" d="M7627.72,7167.6l-.25.39-.09-.06.24-.38c.09-.14.06-.26-.07-.35-.15-.09-.29-.06-.39.1l-.22.36-.09-.06.43-.68.09.05-.08.12c.1-.05.22-.04.34.03.17.1.22.27.1.46Z"/><path class="cls-19" d="M7628.11,7168.33c-.06,0-.12,0-.17-.04-.13-.08-.15-.2-.07-.32l.26-.41-.12-.08.05-.08.12.08.09-.15.09.06-.09.15.21.13-.05.08-.21-.13-.26.41c-.05.08-.04.15.04.2.04.02.08.04.12.03v.09Z"/><path class="cls-19" d="M7615.14,7162.04l.09.06-.43.68-.09-.06.43-.68ZM7615.25,7161.82s.07-.05.11-.02.05.07.03.11c-.02.04-.07.05-.11.03-.04-.02-.05-.07-.03-.11Z"/><path class="cls-19" d="M7615.93,7162.94l-.25.39-.09-.06.24-.38c.09-.14.06-.26-.07-.35-.15-.09-.29-.06-.39.1l-.22.36-.09-.06.43-.68.09.06-.08.12c.1-.05.22-.04.34.03.17.1.22.27.1.47Z"/><path class="cls-19" d="M7615.89,7163.35l.09-.05c.03.08.1.17.19.23.13.08.21.07.25,0,.11-.18-.42-.32-.25-.58.07-.11.22-.13.39-.02.09.06.17.14.2.21l-.09.05c-.03-.08-.09-.14-.16-.19-.12-.08-.21-.06-.25,0-.12.18.41.32.25.58-.07.12-.23.13-.4.02-.11-.07-.2-.17-.22-.26Z"/><path class="cls-19" d="M7617.6,7163.6l-.43.68-.09-.06.08-.12c-.1.05-.22.04-.33-.02-.17-.11-.23-.28-.1-.47l.25-.39.09.06-.24.38c-.09.14-.06.27.07.35.14.09.29.05.39-.1l.22-.36.09.06Z"/><path class="cls-19" d="M7618.21,7163.97l-.06.09s-.01-.01-.02-.02c-.14-.09-.28-.05-.39.11l-.22.35-.09-.06.43-.68.09.06-.08.13c.1-.06.22-.06.34.02Z"/><path class="cls-19" d="M7618.72,7164.66l-.27.42-.09-.06.07-.11c-.08.04-.19.04-.3-.04-.15-.1-.2-.24-.12-.35.07-.1.19-.15.38-.03l.22.14.03-.04c.07-.12.05-.22-.08-.3-.09-.05-.19-.08-.28-.06v-.09c.11-.02.23.01.34.08.18.11.22.26.11.44ZM7618.49,7164.82l.07-.11-.21-.13c-.13-.08-.21-.06-.25.01-.05.08-.02.17.09.24.1.07.21.06.3,0Z"/><path class="cls-19" d="M7619.58,7165.24l-.25.39-.09-.06.24-.38c.09-.14.06-.26-.07-.35-.15-.09-.29-.06-.39.1l-.22.36-.09-.06.43-.68.09.06-.08.12c.1-.05.22-.04.34.03.17.1.22.27.1.47Z"/><path class="cls-19" d="M7619.73,7165.41c.13-.2.37-.25.57-.12.12.07.18.18.18.3h-.1c0-.09-.05-.17-.13-.22-.15-.09-.32-.06-.42.1-.1.16-.06.33.09.43.08.05.17.06.26.03l.04.09c-.11.05-.23.04-.35-.03-.2-.13-.26-.36-.13-.57Z"/><path class="cls-19" d="M7621.08,7166.31l-.57-.36c-.08.15-.03.31.12.4.08.05.17.07.26.04v.09c-.09.03-.21.01-.32-.05-.21-.13-.26-.37-.14-.57s.36-.26.55-.13.24.35.11.55c0,0-.01.02-.02.03ZM7620.56,7165.88l.48.3c.07-.14.03-.29-.1-.38-.13-.08-.29-.05-.38.07Z"/><path class="cls-19" d="M7621.14,7166.69s.08-.06.13-.03c.04.03.05.08.02.13-.03.04-.08.06-.13.03-.04-.03-.05-.08-.03-.13ZM7621.29,7166.52l.02-.04c.04-.07.11-.13.22-.17.1-.03.17-.06.2-.12.04-.06.03-.13-.05-.19-.05-.03-.11-.05-.16-.04l.02-.1c.06,0,.15.02.22.06.15.09.16.23.1.33-.05.09-.14.12-.25.15-.1.03-.16.07-.19.14l-.02.03-.1-.06Z"/><path class="cls-19" d="M7633.16,7168.68l.11.02-.16.79-.11-.02.16-.79ZM7633.18,7168.43s.05-.07.09-.06.07.05.06.09c0,.04-.05.07-.09.06-.04,0-.07-.05-.06-.09Z"/><path class="cls-19" d="M7634.22,7169.23l-.09.46-.11-.02.09-.45c.03-.17-.04-.27-.19-.3-.17-.03-.3.05-.33.23l-.08.41-.11-.02.16-.79.1.02-.03.15c.08-.08.19-.12.33-.09.19.04.3.17.26.4Z"/><path class="cls-19" d="M7634.58,7168.96l.11.02-.16.79-.11-.02.16-.79ZM7634.6,7168.71s.05-.07.09-.06c.04,0,.07.05.06.09,0,.04-.05.07-.09.06-.04,0-.07-.05-.06-.09Z"/><path class="cls-19" d="M7635.25,7169.86s-.12.04-.18.02c-.15-.03-.21-.13-.18-.28l.09-.48-.14-.03.02-.09.14.03.03-.17.11.02-.03.17.24.05-.02.09-.24-.05-.09.47c-.02.09.02.15.11.17.04,0,.09,0,.12-.02l.02.08Z"/><path class="cls-19" d="M7635.59,7169.16l.11.02-.16.79-.11-.02.16-.79ZM7635.61,7168.91s.05-.07.09-.06c.04,0,.07.05.06.09,0,.04-.05.07-.09.06-.04,0-.07-.05-.06-.09Z"/><path class="cls-19" d="M7636.53,7169.66l-.1.49-.1-.02.02-.12c-.06.07-.17.1-.3.08-.18-.04-.27-.15-.24-.29.02-.12.12-.21.35-.16l.25.05v-.05c.04-.14-.03-.22-.17-.25-.1-.02-.2,0-.28.04l-.03-.09c.09-.05.22-.07.34-.04.2.04.3.17.26.37ZM7636.37,7169.89l.03-.13-.25-.05c-.15-.03-.21.02-.23.1-.02.09.04.16.17.19.12.02.22-.01.28-.11Z"/><path class="cls-19" d="M7636.94,7169.09l.11.02-.22,1.11-.11-.02.22-1.11Z"/><path class="cls-19" d="M7637.42,7170.25l.06-.07c.05.06.15.12.26.14.15.03.22,0,.24-.09.04-.21-.5-.15-.44-.46.03-.13.15-.2.36-.16.1.02.21.07.26.13l-.06.08c-.06-.06-.14-.1-.22-.11-.14-.03-.22.02-.23.09-.04.21.5.15.44.46-.03.14-.16.2-.37.16-.13-.03-.25-.09-.3-.16Z"/><path class="cls-19" d="M7638.94,7170.14l-.1.49-.1-.02.02-.12c-.06.07-.17.1-.3.08-.18-.04-.27-.15-.24-.29.02-.12.12-.21.35-.16l.25.05v-.05c.04-.14-.03-.22-.17-.25-.1-.02-.2,0-.28.04l-.03-.09c.09-.05.22-.07.34-.04.2.04.3.17.26.37ZM7638.78,7170.37l.03-.13-.25-.05c-.15-.03-.21.02-.23.1-.02.09.04.16.17.19.12.02.22-.01.28-.11Z"/><path class="cls-19" d="M7639.93,7170.02l-.51.72-.11-.02-.19-.86.11.02.16.73.43-.61.1.02Z"/><path class="cls-19" d="M7640.08,7170.05l.11.02-.16.79-.11-.02.16-.79ZM7640.11,7169.8s.05-.07.09-.06c.04,0,.07.05.06.09,0,.04-.05.07-.09.06-.04,0-.07-.05-.06-.09Z"/><path class="cls-19" d="M7641.14,7170.61l-.09.46-.11-.02.09-.45c.03-.17-.04-.27-.19-.3-.17-.03-.3.05-.33.23l-.08.41-.11-.02.16-.79.1.02-.03.15c.08-.08.19-.12.33-.09.19.04.3.17.26.4Z"/><path class="cls-19" d="M7642.23,7170.48l-.14.69c-.05.27-.21.37-.47.32-.14-.03-.28-.1-.34-.19l.07-.07c.06.08.17.15.29.17.2.04.31-.03.35-.23l.02-.1c-.09.09-.21.12-.34.09-.22-.04-.36-.23-.32-.46.04-.23.25-.35.47-.3.13.03.23.1.28.22l.03-.15.1.02ZM7642.05,7170.83c.03-.17-.07-.31-.24-.35s-.32.06-.35.23c-.03.17.07.31.24.35.17.04.32-.06.36-.23Z"/><path class="cls-19" d="M7642.28,7171.21l.06-.07c.05.06.15.12.26.14.15.03.22,0,.24-.09.04-.21-.5-.15-.44-.46.03-.13.15-.2.36-.16.1.02.21.07.26.13l-.06.08c-.06-.06-.14-.1-.22-.11-.14-.03-.22.01-.23.09-.04.21.5.15.44.46-.03.14-.16.2-.37.16-.13-.03-.25-.09-.3-.16Z"/><path class="cls-3" d="M7558.22,7171.38l-5.25,6.2-.8-.32.32-6.94-4.53,5.27-.79-.31.42-8.12.78.31-.38,6.98,4.58-5.31.71.28-.35,7.02,4.55-5.36.73.29Z"/><path class="cls-3" d="M7561.86,7178.25l-4.5-1.79c-.36,1.16.2,2.25,1.38,2.71.65.26,1.33.26,1.93-.05l.22.63c-.71.38-1.58.39-2.42.06-1.68-.67-2.37-2.26-1.74-3.86s2.2-2.29,3.71-1.69c1.51.6,2.17,2.15,1.53,3.76-.02.06-.07.14-.1.22ZM7557.57,7175.93l3.81,1.51c.33-1.09-.15-2.13-1.2-2.55-1.04-.41-2.1.02-2.61,1.04Z"/><path class="cls-3" d="M7567.6,7179.52l-1.32,3.33-.7-.28.33-.84c-.55.42-1.31.51-2.2.16-1.22-.48-1.71-1.41-1.34-2.34.33-.83,1.14-1.31,2.68-.7l1.71.68.13-.33c.37-.92.04-1.63-.96-2.03-.7-.28-1.45-.29-2.04-.08l-.11-.67c.72-.25,1.63-.2,2.48.14,1.39.55,1.9,1.56,1.35,2.95ZM7566.19,7180.95l.35-.88-1.69-.67c-1.04-.41-1.54-.14-1.76.41-.25.62.1,1.21.96,1.55.82.32,1.58.17,2.14-.42Z"/><path class="cls-3" d="M7571.26,7176.05l.73.29-3.01,7.59-.73-.29,3.01-7.59Z"/><path class="cls-3" d="M7573.99,7185.53c-.39.14-.87.1-1.29-.07-1.01-.4-1.35-1.2-.96-2.19l1.29-3.25-.96-.38.24-.61.96.38.47-1.18.73.29-.47,1.18,1.64.65-.24.61-1.64-.65-1.27,3.21c-.25.63-.06,1.11.54,1.35.3.12.63.14.91.04l.05.62Z"/><path class="cls-3" d="M7581.36,7185.23l-1.24,3.12-.73-.29,1.21-3.05c.45-1.14.09-1.95-.94-2.36-1.16-.46-2.17-.03-2.65,1.2l-1.12,2.82-.73-.29,3.01-7.59.73.29-1.25,3.15c.65-.46,1.49-.54,2.4-.18,1.31.52,1.91,1.63,1.3,3.18Z"/><path class="cls-3" d="M7591.67,7190.71c-.48,1.22-1.66,1.56-3.45.85l-3.29-1.31,2.84-7.16,3.09,1.22c1.6.63,2.25,1.67,1.79,2.84-.32.82-.98,1.19-1.74,1.19.84.57,1.15,1.39.77,2.36ZM7590.94,7190.35c.37-.93-.16-1.61-1.41-2.11l-2.53-1-1.07,2.69,2.53,1c1.26.5,2.11.36,2.48-.58ZM7588.28,7184.02l-1.03,2.6,2.28.9c1.15.46,1.98.28,2.33-.58.34-.86-.15-1.56-1.29-2.02l-2.28-.9Z"/><path class="cls-3" d="M7599.47,7189.79l-2.13,5.38-.7-.28.39-.98c-.64.5-1.48.61-2.34.27-1.37-.54-1.97-1.67-1.35-3.21l1.24-3.12.73.29-1.21,3.05c-.45,1.15-.09,1.96.93,2.37,1.12.45,2.12,0,2.6-1.23l1.12-2.82.73.29Z"/><path class="cls-3" d="M7601.5,7190.6l.73.29-2.13,5.38-.73-.29,2.13-5.38ZM7602.01,7188.83c.11-.28.44-.42.73-.3.3.12.44.44.33.71-.12.3-.44.44-.74.32-.3-.12-.44-.45-.33-.73Z"/><path class="cls-3" d="M7605.13,7189.48l.73.29-3.01,7.59-.73-.29,3.01-7.59Z"/><path class="cls-3" d="M7612.79,7192.52l-3.01,7.59-.7-.28.42-1.06c-.73.55-1.63.65-2.52.29-1.53-.61-2.24-2.18-1.59-3.8.64-1.63,2.23-2.28,3.76-1.67.86.34,1.45,1,1.62,1.88l1.28-3.23.73.29ZM7610.13,7197.13c.5-1.26-.03-2.44-1.16-2.89-1.15-.45-2.34.04-2.84,1.3s.03,2.44,1.17,2.89c1.14.45,2.33-.05,2.83-1.31Z"/><path class="cls-3" d="M7613.94,7195.53l.73.29-2.13,5.38-.73-.29,2.13-5.38ZM7614.44,7193.76c.11-.28.44-.42.73-.3.3.12.44.44.33.71-.12.3-.44.44-.74.32-.3-.12-.44-.45-.33-.73Z"/><path class="cls-3" d="M7620.74,7200.84l-1.24,3.12-.73-.29,1.21-3.05c.45-1.14.09-1.95-.93-2.36-1.16-.46-2.17-.03-2.65,1.2l-1.12,2.82-.73-.29,2.13-5.38.7.28-.39.99c.65-.5,1.52-.59,2.46-.22,1.31.52,1.91,1.63,1.3,3.18Z"/><path class="cls-3" d="M7628.61,7201.35l-1.87,4.72c-.73,1.85-1.98,2.33-3.76,1.62-.98-.39-1.83-1.07-2.18-1.82l.59-.41c.33.66,1,1.25,1.83,1.58,1.36.54,2.23.16,2.76-1.17l.27-.69c-.72.51-1.63.56-2.51.21-1.53-.61-2.27-2.14-1.66-3.69.61-1.54,2.2-2.14,3.73-1.53.9.36,1.53,1.03,1.7,1.92l.41-1.03.7.28ZM7626.89,7203.62c.46-1.17-.08-2.3-1.27-2.77-1.19-.47-2.35,0-2.81,1.16s.07,2.31,1.25,2.78c1.19.47,2.37,0,2.83-1.16Z"/><path class="cls-3" d="M7638.08,7209.11c-.48,1.22-1.66,1.56-3.45.85l-3.29-1.31,2.84-7.16,3.09,1.22c1.59.63,2.25,1.67,1.79,2.84-.32.82-.98,1.19-1.74,1.19.84.57,1.15,1.39.77,2.36ZM7637.35,7208.75c.37-.93-.15-1.61-1.41-2.11l-2.53-1-1.07,2.69,2.53,1c1.26.5,2.11.36,2.48-.58ZM7634.69,7202.42l-1.03,2.6,2.28.9c1.15.45,1.98.28,2.33-.58s-.15-1.56-1.29-2.02l-2.28-.9Z"/><path class="cls-3" d="M7641.91,7204.06l.73.29-3.01,7.59-.73-.29,3.01-7.59Z"/><path class="cls-3" d="M7642.17,7209.84c.63-1.6,2.25-2.27,3.82-1.64,1.58.62,2.28,2.22,1.65,3.81-.63,1.59-2.24,2.28-3.82,1.66-1.58-.62-2.29-2.23-1.65-3.83ZM7646.91,7211.71c.5-1.26-.02-2.43-1.16-2.89s-2.34.04-2.84,1.3c-.5,1.26.03,2.44,1.17,2.89,1.15.45,2.33-.05,2.83-1.31Z"/><path class="cls-3" d="M7648.59,7212.38c.64-1.61,2.25-2.27,3.85-1.63.91.36,1.54,1.02,1.68,1.9l-.69.15c-.15-.69-.62-1.17-1.25-1.42-1.18-.47-2.37.03-2.87,1.29-.5,1.27.03,2.44,1.2,2.9.62.25,1.29.23,1.88-.17l.4.58c-.71.53-1.62.59-2.53.23-1.61-.64-2.32-2.23-1.69-3.84Z"/><path class="cls-3" d="M7656.8,7215.62l-1.73.66-.61,1.53-.73-.29,3.01-7.59.73.29-2.04,5.14,4.38-1.66.9.36-3.17,1.29,1.26,4.18-.89-.35-1.1-3.56Z"/><path class="cls-3" d="M7659.21,7219l.55-.44c.3.51.92,1.06,1.67,1.36,1.02.41,1.58.22,1.79-.31.56-1.4-3.37-1.68-2.53-3.81.35-.88,1.37-1.23,2.74-.69.7.28,1.38.77,1.7,1.26l-.55.46c-.34-.51-.85-.87-1.4-1.09-.97-.38-1.55-.18-1.75.33-.58,1.45,3.35,1.74,2.53,3.81-.37.93-1.43,1.21-2.83.65-.89-.35-1.64-.98-1.93-1.53Z"/><path class="cls-3" d="M7449.02,7174.07l.68,2.95,3.88-.9.16.69-3.88.9.74,3.18-.79.18-1.74-7.5,5.14-1.19.16.69-4.35,1.01Z"/><path class="cls-3" d="M7455.02,7176.9c-.39-1.67.56-3.14,2.21-3.53s3.14.53,3.52,2.2c.39,1.67-.55,3.15-2.2,3.54-1.65.38-3.15-.54-3.54-2.21ZM7459.98,7175.75c-.31-1.32-1.4-1.99-2.6-1.71-1.2.28-1.9,1.37-1.59,2.68.3,1.32,1.41,1.99,2.61,1.71,1.2-.28,1.89-1.36,1.58-2.68Z"/><path class="cls-3" d="M7464.48,7171.69l.17.74c-.06.01-.13.02-.18.03-1.18.27-1.72,1.19-1.42,2.52l.67,2.87-.76.18-1.31-5.64.73-.17.26,1.1c.18-.83.81-1.4,1.84-1.64Z"/><path class="cls-3" d="M7474.38,7169.44l-.83,6.13-.72.17-2.85-4.21-.71,5.03-.72.17-3.43-5.15.73-.17,2.88,4.38.7-5.21.65-.15,2.91,4.37.68-5.21.7-.16Z"/><path class="cls-3" d="M7480.11,7170.37l.81,3.49-.73.17-.2-.88c-.21.66-.79,1.17-1.72,1.38-1.28.3-2.21-.19-2.44-1.16-.2-.87.19-1.73,1.81-2.1l1.79-.41-.08-.34c-.22-.96-.89-1.36-1.94-1.12-.73.17-1.35.58-1.72,1.1l-.48-.49c.46-.61,1.23-1.09,2.12-1.29,1.46-.34,2.45.2,2.79,1.66ZM7479.76,7172.35l-.21-.92-1.77.41c-1.09.25-1.35.76-1.21,1.34.15.65.77.94,1.67.73.86-.2,1.4-.75,1.52-1.56Z"/><path class="cls-3" d="M7484.51,7167.05l.17.74c-.06.01-.13.02-.18.03-1.18.27-1.72,1.19-1.42,2.52l.67,2.87-.76.18-1.31-5.64.73-.17.25,1.1c.18-.83.81-1.39,1.85-1.64Z"/><path class="cls-3" d="M7490.45,7163.28l1.84,7.95-.73.17-.26-1.11c-.29.87-.97,1.46-1.91,1.67-1.61.37-3.08-.52-3.47-2.22-.4-1.7.54-3.14,2.15-3.51.9-.21,1.76,0,2.4.62l-.79-3.39.76-.18ZM7490.88,7168.59c-.31-1.32-1.41-1.99-2.6-1.71-1.2.28-1.9,1.37-1.59,2.68.31,1.32,1.41,1.99,2.61,1.71,1.19-.28,1.89-1.36,1.58-2.68Z"/><path class="cls-3" d="M7495.64,7162.55l.79-.18,1.58,6.82,4.2-.97.16.69-4.99,1.16-1.74-7.5Z"/><path class="cls-3" d="M7502.22,7165.96c-.39-1.67.56-3.14,2.21-3.53,1.65-.38,3.14.53,3.52,2.2.39,1.67-.55,3.15-2.2,3.54-1.65.38-3.15-.54-3.54-2.21ZM7507.18,7164.81c-.31-1.32-1.4-1.99-2.6-1.71s-1.9,1.37-1.59,2.68,1.41,1.99,2.61,1.71c1.2-.28,1.89-1.36,1.58-2.68Z"/><path class="cls-3" d="M7508.94,7164.4c-.39-1.67.56-3.14,2.21-3.53s3.14.53,3.52,2.2c.39,1.67-.54,3.15-2.2,3.54-1.65.38-3.15-.54-3.54-2.21ZM7513.9,7163.25c-.31-1.32-1.4-1.99-2.6-1.71-1.2.28-1.9,1.37-1.59,2.68.31,1.32,1.41,1.99,2.61,1.71s1.89-1.36,1.58-2.68Z"/><path class="cls-3" d="M7518.31,7162.22l-1.05,1.53.37,1.61-.76.18-1.84-7.95.76-.18,1.25,5.39,2.65-3.86.94-.22-1.88,2.86,3.41,2.72-.93.22-2.93-2.3Z"/><path class="cls-3" d="M7521.34,7156.68c-.07-.29.12-.59.43-.67.31-.07.61.11.68.4.07.31-.11.61-.43.69-.31.07-.62-.12-.68-.42ZM7521.93,7158.42l.76-.18,1.31,5.64-.76.18-1.31-5.64Z"/><path class="cls-3" d="M7530.55,7158.92l.76,3.27-.76.18-.74-3.19c-.28-1.19-1.04-1.66-2.11-1.41-1.21.28-1.8,1.21-1.5,2.49l.69,2.96-.76.18-1.31-5.64.73-.17.24,1.04c.25-.78.92-1.35,1.89-1.58,1.37-.32,2.5.26,2.87,1.88Z"/><path class="cls-3" d="M7537.31,7154.86l1.15,4.95c.45,1.94-.3,3.04-2.17,3.47-1.03.24-2.11.16-2.83-.26l.25-.67c.65.36,1.53.46,2.4.26,1.42-.33,1.93-1.13,1.61-2.53l-.17-.72c-.3.83-1.02,1.39-1.94,1.6-1.61.37-3.09-.47-3.47-2.09s.59-3,2.2-3.38c.94-.22,1.85-.02,2.49.61l-.25-1.08.73-.17ZM7537.19,7157.71c-.28-1.22-1.38-1.85-2.62-1.56s-1.94,1.33-1.66,2.55,1.37,1.86,2.61,1.57c1.24-.29,1.95-1.34,1.67-2.57Z"/><path class="cls-3" d="M7542.18,7155.72c-.51-2.2.79-4.2,3.05-4.73,1.09-.25,2.16-.12,3,.46l-.39.62c-.75-.48-1.57-.57-2.42-.38-1.81.42-2.86,2.06-2.45,3.84.41,1.78,2.08,2.79,3.89,2.37.86-.2,1.54-.64,2.01-1.41l.62.39c-.5.88-1.4,1.49-2.5,1.74-2.25.52-4.3-.71-4.81-2.91Z"/><path class="cls-3" d="M7554.62,7153.11l.81,3.49-.73.17-.2-.88c-.21.66-.79,1.17-1.72,1.38-1.28.29-2.21-.19-2.44-1.16-.2-.87.19-1.73,1.81-2.1l1.79-.41-.08-.34c-.22-.96-.89-1.36-1.94-1.12-.73.17-1.36.58-1.72,1.1l-.47-.49c.46-.61,1.23-1.09,2.12-1.29,1.46-.34,2.45.2,2.79,1.66ZM7554.27,7155.08l-.21-.92-1.77.41c-1.09.25-1.35.76-1.21,1.34.15.65.77.94,1.67.73.86-.2,1.4-.75,1.52-1.56Z"/><path class="cls-3" d="M7556.56,7155.66l.2-.68c.53.25,1.36.35,2.15.17,1.07-.25,1.43-.71,1.3-1.27-.34-1.47-3.73.54-4.24-1.69-.21-.92.42-1.79,1.86-2.12.73-.17,1.57-.15,2.12.06l-.19.69c-.57-.23-1.2-.23-1.77-.1-1.02.24-1.38.74-1.25,1.27.35,1.52,3.74-.47,4.24,1.69.23.97-.49,1.81-1.95,2.15-.93.22-1.9.12-2.46-.17Z"/><path class="cls-3" d="M7567.16,7150.44l.76,3.27-.76.18-.74-3.19c-.28-1.19-1.04-1.66-2.11-1.41-1.21.28-1.8,1.21-1.5,2.49l.68,2.96-.76.18-1.84-7.95.76-.18.76,3.3c.27-.75.92-1.3,1.87-1.52,1.37-.32,2.5.26,2.87,1.88Z"/><path class="cls-3" d="M7572.17,7145.54l.68,2.95,3.88-.9.16.69-3.88.9.74,3.18-.79.18-1.74-7.5,5.14-1.19.16.69-4.35,1.01Z"/><path class="cls-3" d="M7577.74,7143.05l.76-.18,1.84,7.95-.76.18-1.84-7.95Z"/><path class="cls-3" d="M7581.24,7147.65c-.39-1.67.56-3.14,2.21-3.53,1.65-.38,3.14.53,3.52,2.2.39,1.67-.54,3.15-2.2,3.54-1.65.38-3.15-.53-3.54-2.21ZM7586.2,7146.5c-.31-1.32-1.4-1.99-2.6-1.71-1.2.28-1.9,1.37-1.59,2.68.31,1.32,1.41,1.99,2.61,1.71,1.2-.28,1.88-1.36,1.58-2.68Z"/><path class="cls-3" d="M7595.99,7141.26l-.83,6.13-.72.17-2.85-4.21-.71,5.03-.72.17-3.43-5.15.73-.17,2.88,4.38.7-5.21.65-.15,2.91,4.37.68-5.21.7-.16Z"/></g><g id="Layer_4"><polygon class="cls-1" points="7528.29 7187.23 7508.34 7202.03 7488.8 7197.95 7510.62 7184.88 7528.29 7187.23"/><path class="cls-27" d="M7510.61,7185.37l-.28.17-19.51,11.77-.39.23-.29.18,17.96,3.71.28-.2.36-.27,18.41-13.52-16.33-2.19-.21.13ZM7519.65,7186.59l.56.29,5.49.75-5.24,3.8.16.41-5.25,3.83-1.09.24-6.65,4.82-6.05-1.23-1.28.07-2.5-.51-.5-.42-5.52-1.12,7.1-4.33v-.41s5.67-3.44,5.67-3.44l.98-.2,5.68-3.46,5.08.69,1.07-.07,2.28.31Z"/><path class="cls-27" d="M7511.95,7191.58c-.89-.14-1.76,0-2.85.41-.83.3-1.3.43-1.79.34-.44-.07-.55-.29-.11-.58.38-.25.87-.4,1.17-.48l-.58-.24c-.38.1-.85.28-1.25.51l-.64-.11-.62.39.73.12c-.36.42-.07.75.69.88.71.12,1.66-.01,2.78-.44.84-.31,1.34-.41,1.86-.32.5.08.65.31.12.68-.37.25-.99.48-1.42.59l.66.27c.5-.14,1.02-.37,1.45-.64l.68.11.6-.41-.75-.12c.43-.48.13-.83-.73-.96Z"/><path class="cls-27" d="M7515.71,7193.3c-1.82,1.29-6.19,1.87-9.59,1.26-3.3-.59-4.31-2.05-2.38-3.25,1.86-1.15,5.88-1.67,9.08-1.18,3.29.51,4.65,1.91,2.89,3.16ZM7504.4,7191.43c-1.7,1.06-.79,2.35,2.13,2.87,3,.53,6.85.02,8.46-1.11,1.56-1.1.38-2.35-2.53-2.8-2.84-.44-6.41.02-8.06,1.05Z"/><path class="cls-27" d="M7512.95,7188.03c-.62.4-.18.86.99,1.04,1.18.18,2.65-.01,3.25-.42.6-.4.12-.86-1.05-1.03-1.16-.16-2.58.02-3.19.41ZM7516.77,7188.58c-.49.33-1.67.48-2.62.34-.94-.14-1.3-.51-.8-.83.49-.32,1.64-.46,2.58-.33.94.13,1.32.5.84.83Z"/><path class="cls-27" d="M7513.97,7188.18c-.31.2-.09.44.51.53.6.09,1.35,0,1.66-.21.31-.21.07-.44-.53-.53-.6-.09-1.33,0-1.64.21Z"/><polygon class="cls-27" points="7512.91 7186.44 7508.71 7189.07 7508.14 7188.98 7512.35 7186.36 7512.91 7186.44"/><polygon class="cls-28" points="7520.93 7187.91 7517.83 7190.06 7518.32 7190.13 7521.42 7187.98 7520.93 7187.91"/><polygon class="cls-28" points="7522.02 7188.06 7518.95 7190.22 7519.44 7190.3 7522.51 7188.13 7522.02 7188.06"/><path class="cls-27" d="M7500.3,7196.14c-.77.5-.41,1.1.83,1.34,1.25.24,2.91.02,3.67-.49.75-.51.33-1.1-.91-1.33-1.23-.23-2.83-.02-3.59.47ZM7504.36,7196.91c-.61.41-1.94.59-2.95.39-1-.19-1.3-.68-.67-1.08.62-.4,1.91-.57,2.9-.38,1,.19,1.33.67.73,1.07Z"/><path class="cls-27" d="M7501.38,7196.35c-.39.26-.2.56.43.69.64.12,1.48.01,1.87-.25.39-.26.18-.56-.45-.68-.63-.12-1.46,0-1.85.24Z"/><polygon class="cls-27" points="7500.65 7194.11 7495.4 7197.4 7494.8 7197.28 7500.06 7194.01 7500.65 7194.11"/><polygon class="cls-28" points="7509.08 7196.11 7505.17 7198.82 7505.7 7198.93 7509.6 7196.21 7509.08 7196.11"/><polygon class="cls-28" points="7510.25 7196.33 7506.36 7199.06 7506.89 7199.16 7510.77 7196.42 7510.25 7196.33"/><polygon class="cls-21" points="7508.31 7207.46 7488.8 7203.43 7488.8 7197.95 7508.31 7201.95 7508.31 7207.46"/><polygon class="cls-24" points="7528.29 7187.23 7528.29 7192.31 7508.31 7207.46 7508.31 7201.95 7528.29 7187.23"/><path class="cls-13" d="M7490.85,7202.04c.48.1.97.21,1.45.31l1.45.32c.96.21,1.93.43,2.89.64.96.22,1.92.44,2.89.66l1.44.34c.48.11.96.23,1.44.34-.48-.1-.97-.2-1.45-.31l-1.45-.32c-.96-.21-1.93-.43-2.89-.64-.96-.22-1.92-.44-2.89-.66l-1.44-.34c-.48-.11-.96-.23-1.44-.34Z"/><polygon class="cls-13" points="7508.31 7203.66 7497.15 7201.26 7508.31 7203.58 7508.31 7203.66"/><path class="cls-13" d="M7491.11,7199.39s.07,0,.11,0h.11s.21.05.21.05c.14.02.28.05.43.08l.85.16c.57.11,1.13.22,1.7.34,1.13.23,2.26.47,3.39.7,1.13.24,2.25.48,3.38.73l1.69.37c.56.13,1.12.25,1.69.38l-1.69-.35-1.69-.35-3.38-.71-3.38-.72-1.69-.36-.85-.18-.42-.08-.21-.04-.11-.02s-.07-.01-.11-.01Z"/><polygon class="cls-23" points="7508.31 7203.57 7520.27 7194.86 7508.31 7203.63 7508.31 7203.57"/><polygon class="cls-23" points="7528.29 7188.66 7522.87 7192.47 7528.29 7188.6 7528.29 7188.66"/><polygon class="cls-23" points="7528.29 7190.54 7525.38 7192.8 7528.29 7190.48 7528.29 7190.54"/><path class="cls-23" d="M7509.68,7204.49c.24-.18.47-.36.71-.55l.72-.54c.48-.36.96-.71,1.44-1.07.48-.35.97-.71,1.45-1.06l.73-.52c.25-.17.49-.35.73-.52-.24.18-.47.36-.71.55l-.72.54c-.48.36-.96.71-1.44,1.07-.48.35-.97.71-1.45,1.06l-.73.52c-.25.17-.49.35-.73.52Z"/><polygon class="cls-22" points="7498.1 7192.38 7516.69 7195.78 7522.07 7191.85 7503.85 7188.94 7498.1 7192.38"/><polygon class="cls-25" points="7499.15 7191.75 7517.71 7195.03 7521.24 7192.47 7503.05 7189.42 7499.15 7191.75"/><polygon class="cls-15" points="7516.69 7195.78 7516.69 7201.11 7522.07 7197.03 7522.07 7191.85 7516.69 7195.78"/><polygon class="cls-22" points="7517.71 7195.03 7517.83 7200.25 7521.24 7197.66 7521.24 7192.47 7517.71 7195.03"/><polygon class="cls-1" points="7532.71 7178.23 7512.75 7193.03 7493.21 7188.95 7515.04 7175.88 7532.71 7178.23"/><path class="cls-27" d="M7515.03,7176.36l-.28.17-19.51,11.77-.39.23-.29.18,17.96,3.71.28-.2.36-.27,18.41-13.52-16.33-2.19-.21.13ZM7524.07,7177.58l.56.29,5.49.75-5.24,3.8.16.41-5.25,3.83-1.09.24-6.65,4.82-6.05-1.23-1.28.07-2.5-.51-.5-.42-5.52-1.12,7.1-4.33v-.41s5.67-3.44,5.67-3.44l.98-.2,5.68-3.46,5.08.69,1.07-.07,2.28.31Z"/><path class="cls-27" d="M7516.37,7182.58c-.89-.14-1.76,0-2.85.41-.83.3-1.3.43-1.79.34-.44-.07-.55-.29-.11-.58.38-.25.87-.4,1.17-.48l-.58-.24c-.38.1-.85.28-1.25.51l-.64-.11-.62.39.73.12c-.36.42-.07.75.69.88.71.12,1.66-.01,2.78-.44.84-.31,1.34-.41,1.86-.32.5.08.65.31.12.68-.37.25-.99.48-1.42.59l.66.27c.5-.14,1.02-.37,1.45-.64l.68.11.6-.41-.75-.12c.43-.48.13-.83-.73-.96Z"/><path class="cls-27" d="M7520.13,7184.3c-1.82,1.29-6.19,1.87-9.59,1.26-3.3-.59-4.31-2.05-2.38-3.25,1.86-1.15,5.88-1.67,9.08-1.18,3.29.51,4.65,1.91,2.89,3.16ZM7508.81,7182.43c-1.7,1.06-.79,2.35,2.13,2.87,3,.53,6.85.02,8.46-1.11,1.56-1.1.38-2.35-2.53-2.8-2.84-.44-6.41.02-8.06,1.05Z"/><path class="cls-27" d="M7517.36,7179.03c-.62.4-.18.86.99,1.04,1.18.18,2.65-.01,3.25-.42.6-.4.12-.86-1.05-1.03-1.16-.16-2.58.02-3.19.41ZM7521.19,7179.58c-.49.33-1.67.48-2.62.34-.94-.14-1.3-.51-.8-.83.49-.32,1.64-.46,2.58-.33.94.13,1.32.5.84.83Z"/><path class="cls-27" d="M7518.38,7179.17c-.31.2-.09.44.51.53.6.09,1.35,0,1.66-.21.31-.21.07-.44-.53-.53-.6-.09-1.33,0-1.64.21Z"/><polygon class="cls-27" points="7517.32 7177.43 7513.12 7180.06 7512.56 7179.98 7516.76 7177.36 7517.32 7177.43"/><polygon class="cls-28" points="7525.35 7178.91 7522.25 7181.05 7522.74 7181.13 7525.83 7178.97 7525.35 7178.91"/><polygon class="cls-28" points="7526.44 7179.06 7523.36 7181.22 7523.86 7181.3 7526.93 7179.13 7526.44 7179.06"/><path class="cls-27" d="M7504.72,7187.14c-.77.5-.41,1.1.83,1.34,1.25.24,2.91.02,3.67-.49.75-.51.33-1.1-.91-1.33-1.23-.23-2.83-.02-3.59.47ZM7508.77,7187.91c-.61.41-1.94.59-2.95.39-1-.19-1.3-.68-.67-1.08.62-.4,1.91-.57,2.9-.38,1,.19,1.33.67.73,1.07Z"/><path class="cls-27" d="M7505.8,7187.34c-.39.26-.2.56.43.69.64.12,1.48.01,1.87-.25.39-.26.18-.56-.45-.68-.63-.12-1.46,0-1.85.24Z"/><polygon class="cls-27" points="7505.06 7185.11 7499.81 7188.4 7499.22 7188.28 7504.48 7185 7505.06 7185.11"/><polygon class="cls-28" points="7513.5 7187.11 7509.59 7189.82 7510.11 7189.92 7514.01 7187.2 7513.5 7187.11"/><polygon class="cls-28" points="7514.66 7187.32 7510.78 7190.05 7511.31 7190.16 7515.19 7187.42 7514.66 7187.32"/><polygon class="cls-21" points="7512.72 7198.46 7493.21 7194.43 7493.21 7188.95 7512.72 7192.94 7512.72 7198.46"/><polygon class="cls-24" points="7532.71 7178.23 7532.71 7183.31 7512.72 7198.46 7512.72 7192.94 7532.71 7178.23"/><path class="cls-13" d="M7495.27,7193.04c.48.1.97.21,1.45.31l1.45.32c.96.21,1.93.43,2.89.64.96.22,1.92.44,2.89.66l1.44.34c.48.11.96.23,1.44.34-.48-.1-.97-.2-1.45-.31l-1.45-.32c-.96-.21-1.93-.43-2.89-.64-.96-.22-1.92-.44-2.89-.66l-1.44-.34c-.48-.11-.96-.23-1.44-.34Z"/><polygon class="cls-13" points="7512.72 7194.66 7501.56 7192.25 7512.72 7194.58 7512.72 7194.66"/><path class="cls-13" d="M7495.52,7190.39s.07,0,.11,0h.11s.21.05.21.05c.14.02.28.05.43.08l.85.16c.57.11,1.13.22,1.7.34,1.13.23,2.26.47,3.39.7,1.13.24,2.25.48,3.38.73l1.69.37c.56.13,1.12.25,1.69.38l-1.69-.35-1.69-.35-3.38-.71-3.38-.72-1.69-.36-.85-.18-.42-.08-.21-.04-.11-.02s-.07-.01-.11-.01Z"/><polygon class="cls-23" points="7512.72 7194.56 7524.68 7185.86 7512.72 7194.63 7512.72 7194.56"/><polygon class="cls-23" points="7532.71 7179.66 7527.29 7183.46 7532.71 7179.59 7532.71 7179.66"/><polygon class="cls-23" points="7532.71 7181.54 7529.8 7183.8 7532.71 7181.48 7532.71 7181.54"/><path class="cls-23" d="M7514.1,7195.48c.24-.18.47-.36.71-.55l.72-.54c.48-.36.96-.71,1.44-1.07.48-.35.97-.71,1.45-1.06l.73-.52c.25-.17.49-.35.73-.52-.24.18-.47.36-.71.55l-.72.54c-.48.36-.96.71-1.44,1.07-.48.35-.97.71-1.45,1.06l-.73.52c-.25.17-.49.35-.73.52Z"/><polygon class="cls-22" points="7502.52 7183.38 7521.1 7186.78 7526.49 7182.85 7508.26 7179.94 7502.52 7183.38"/><polygon class="cls-25" points="7503.56 7182.75 7522.12 7186.02 7525.65 7183.46 7507.46 7180.42 7503.56 7182.75"/><polygon class="cls-15" points="7521.1 7186.78 7521.1 7192.11 7526.49 7188.02 7526.49 7182.85 7521.1 7186.78"/><polygon class="cls-22" points="7522.12 7186.02 7522.24 7191.24 7525.65 7188.66 7525.65 7183.46 7522.12 7186.02"/><polygon class="cls-1" points="7549.74 7190.04 7529.78 7204.84 7510.25 7200.76 7532.07 7187.69 7549.74 7190.04"/><path class="cls-27" d="M7532.06,7188.17l-.28.17-19.51,11.77-.39.23-.29.18,17.96,3.71.28-.2.36-.27,18.41-13.52-16.33-2.19-.21.13ZM7541.1,7189.39l.56.29,5.49.75-5.24,3.8.16.41-5.25,3.83-1.09.24-6.65,4.82-6.05-1.23-1.28.07-2.5-.51-.5-.42-5.52-1.12,7.1-4.33v-.41s5.67-3.44,5.67-3.44l.98-.2,5.68-3.46,5.08.69,1.07-.07,2.28.31Z"/><path class="cls-27" d="M7533.4,7194.39c-.89-.14-1.76,0-2.85.41-.83.3-1.3.43-1.79.34-.44-.07-.55-.29-.11-.58.38-.25.87-.4,1.17-.48l-.58-.24c-.38.1-.85.28-1.25.51l-.64-.11-.62.39.73.12c-.36.42-.07.75.69.88.71.12,1.66-.01,2.78-.44.84-.31,1.34-.41,1.86-.32.5.08.65.31.12.68-.37.25-.99.48-1.42.59l.66.27c.5-.14,1.02-.37,1.45-.64l.68.11.6-.41-.75-.12c.43-.48.13-.83-.73-.96Z"/><path class="cls-27" d="M7537.16,7196.11c-1.82,1.29-6.19,1.87-9.59,1.26-3.3-.59-4.31-2.05-2.38-3.25,1.86-1.15,5.88-1.67,9.08-1.18,3.29.51,4.65,1.91,2.89,3.16ZM7525.85,7194.24c-1.7,1.06-.79,2.35,2.13,2.87,3,.53,6.85.02,8.46-1.11,1.56-1.1.38-2.35-2.53-2.8-2.84-.44-6.41.02-8.06,1.05Z"/><path class="cls-27" d="M7534.39,7190.84c-.62.4-.18.86.99,1.04,1.18.18,2.65-.01,3.25-.42.6-.4.12-.86-1.05-1.03-1.16-.16-2.58.02-3.19.41ZM7538.22,7191.39c-.49.33-1.67.48-2.62.34-.94-.14-1.3-.51-.8-.83.49-.32,1.64-.46,2.58-.33.94.13,1.32.5.84.83Z"/><path class="cls-27" d="M7535.42,7190.99c-.31.2-.09.44.51.53.6.09,1.35,0,1.66-.21.31-.21.07-.44-.53-.53-.6-.09-1.33,0-1.64.21Z"/><polygon class="cls-27" points="7534.35 7189.25 7530.16 7191.87 7529.59 7191.79 7533.8 7189.17 7534.35 7189.25"/><polygon class="cls-28" points="7542.38 7190.72 7539.28 7192.86 7539.77 7192.94 7542.86 7190.79 7542.38 7190.72"/><polygon class="cls-28" points="7543.47 7190.87 7540.39 7193.03 7540.89 7193.11 7543.96 7190.94 7543.47 7190.87"/><path class="cls-27" d="M7521.75,7198.95c-.77.5-.41,1.1.83,1.34,1.25.24,2.91.02,3.67-.49.75-.51.33-1.1-.91-1.33-1.23-.23-2.83-.02-3.59.47ZM7525.81,7199.72c-.61.41-1.94.59-2.95.39-1-.19-1.3-.68-.67-1.08.62-.4,1.91-.57,2.9-.38,1,.19,1.33.67.73,1.07Z"/><path class="cls-27" d="M7522.83,7199.16c-.39.26-.2.56.43.69.64.12,1.48.01,1.87-.25.39-.26.18-.56-.45-.68-.63-.12-1.46,0-1.85.24Z"/><polygon class="cls-27" points="7522.09 7196.92 7516.85 7200.21 7516.25 7200.09 7521.51 7196.82 7522.09 7196.92"/><polygon class="cls-28" points="7530.53 7198.92 7526.62 7201.63 7527.15 7201.73 7531.05 7199.02 7530.53 7198.92"/><polygon class="cls-28" points="7531.7 7199.14 7527.81 7201.87 7528.34 7201.97 7532.22 7199.23 7531.7 7199.14"/><polygon class="cls-21" points="7529.76 7210.27 7510.25 7206.24 7510.25 7200.76 7529.76 7204.75 7529.76 7210.27"/><polygon class="cls-24" points="7549.74 7190.04 7549.74 7195.12 7529.76 7210.27 7529.76 7204.75 7549.74 7190.04"/><path class="cls-13" d="M7512.3,7204.85c.48.1.97.21,1.45.31l1.45.32c.96.21,1.93.43,2.89.64.96.22,1.92.44,2.89.66l1.44.34c.48.11.96.23,1.44.34-.48-.1-.97-.2-1.45-.31l-1.45-.32c-.96-.21-1.93-.43-2.89-.64-.96-.22-1.92-.44-2.89-.66l-1.44-.34c-.48-.11-.96-.23-1.44-.34Z"/><polygon class="cls-13" points="7529.76 7206.47 7518.6 7204.06 7529.76 7206.39 7529.76 7206.47"/><path class="cls-13" d="M7512.55,7202.2s.07,0,.11,0h.11s.21.05.21.05c.14.02.28.05.43.08l.85.16c.57.11,1.13.22,1.7.34,1.13.23,2.26.47,3.39.7,1.13.24,2.25.48,3.38.73l1.69.37c.56.13,1.12.25,1.69.38l-1.69-.35-1.69-.35-3.38-.71-3.38-.72-1.69-.36-.85-.18-.42-.08-.21-.04-.11-.02s-.07-.01-.11-.01Z"/><polygon class="cls-23" points="7529.76 7206.38 7541.71 7197.67 7529.76 7206.44 7529.76 7206.38"/><polygon class="cls-23" points="7549.74 7191.47 7544.32 7195.28 7549.74 7191.4 7549.74 7191.47"/><polygon class="cls-23" points="7549.74 7193.35 7546.83 7195.61 7549.74 7193.29 7549.74 7193.35"/><path class="cls-23" d="M7531.13,7207.3c.24-.18.47-.36.71-.55l.72-.54c.48-.36.96-.71,1.44-1.07.48-.35.97-.71,1.45-1.06l.73-.52c.25-.17.49-.35.73-.52-.24.18-.47.36-.71.55l-.72.54c-.48.36-.96.71-1.44,1.07-.48.35-.97.71-1.45,1.06l-.73.52c-.25.17-.49.35-.73.52Z"/><polygon class="cls-22" points="7519.55 7195.19 7538.13 7198.59 7543.52 7194.66 7525.3 7191.75 7519.55 7195.19"/><polygon class="cls-25" points="7520.6 7194.56 7539.15 7197.83 7542.69 7195.28 7524.5 7192.23 7520.6 7194.56"/><polygon class="cls-15" points="7538.13 7198.59 7538.13 7203.92 7543.52 7199.84 7543.52 7194.66 7538.13 7198.59"/><polygon class="cls-22" points="7539.15 7197.83 7539.27 7203.05 7542.69 7200.47 7542.69 7195.28 7539.15 7197.83"/><polygon class="cls-1" points="7553.78 7181.77 7533.82 7196.56 7514.29 7192.48 7536.11 7179.42 7553.78 7181.77"/><path class="cls-27" d="M7536.1,7179.9l-.28.17-19.51,11.77-.39.23-.29.18,17.96,3.71.28-.2.36-.27,18.41-13.52-16.33-2.19-.21.13ZM7545.14,7181.12l.56.29,5.49.75-5.24,3.8.16.41-5.25,3.83-1.09.24-6.65,4.82-6.05-1.23-1.28.07-2.5-.51-.5-.42-5.52-1.12,7.1-4.33v-.41s5.67-3.44,5.67-3.44l.98-.2,5.68-3.46,5.08.69,1.07-.07,2.28.31Z"/><path class="cls-27" d="M7537.44,7186.12c-.89-.14-1.76,0-2.85.41-.83.3-1.3.43-1.79.34-.44-.07-.55-.29-.11-.58.38-.25.87-.4,1.17-.48l-.58-.24c-.38.1-.85.28-1.25.51l-.64-.11-.62.39.73.12c-.36.42-.07.75.69.88.71.12,1.66-.01,2.78-.44.84-.31,1.34-.41,1.86-.32.5.08.65.31.12.68-.37.25-.99.48-1.42.59l.66.27c.5-.14,1.02-.37,1.45-.64l.68.11.6-.41-.75-.12c.43-.48.13-.83-.73-.96Z"/><path class="cls-27" d="M7541.2,7187.84c-1.82,1.29-6.19,1.87-9.59,1.26-3.3-.59-4.31-2.05-2.38-3.25,1.86-1.15,5.88-1.67,9.08-1.18,3.29.51,4.65,1.91,2.89,3.16ZM7529.88,7185.96c-1.7,1.06-.79,2.35,2.13,2.87,3,.53,6.85.02,8.46-1.11,1.56-1.1.38-2.35-2.53-2.8-2.84-.44-6.41.02-8.06,1.05Z"/><path class="cls-27" d="M7538.43,7182.56c-.62.4-.18.86.99,1.04,1.18.18,2.65-.01,3.25-.42.6-.4.12-.86-1.05-1.03-1.16-.16-2.58.02-3.19.41ZM7542.26,7183.12c-.49.33-1.67.48-2.62.34-.94-.14-1.3-.51-.8-.83.49-.32,1.64-.46,2.58-.33.94.13,1.32.5.84.83Z"/><path class="cls-27" d="M7539.45,7182.71c-.31.2-.09.44.51.53.6.09,1.35,0,1.66-.21.31-.21.07-.44-.53-.53-.6-.09-1.33,0-1.64.21Z"/><polygon class="cls-27" points="7538.39 7180.97 7534.19 7183.6 7533.63 7183.51 7537.84 7180.89 7538.39 7180.97"/><polygon class="cls-28" points="7546.42 7182.44 7543.32 7184.59 7543.81 7184.66 7546.9 7182.51 7546.42 7182.44"/><polygon class="cls-28" points="7547.51 7182.6 7544.43 7184.76 7544.93 7184.83 7548 7182.66 7547.51 7182.6"/><path class="cls-27" d="M7525.79,7190.68c-.77.5-.41,1.1.83,1.34,1.25.24,2.91.02,3.67-.49.75-.51.33-1.1-.91-1.33-1.23-.23-2.83-.02-3.59.47ZM7529.84,7191.45c-.61.41-1.94.59-2.95.39-1-.19-1.3-.68-.67-1.08.62-.4,1.91-.57,2.9-.38,1,.19,1.33.67.73,1.07Z"/><path class="cls-27" d="M7526.87,7190.88c-.39.26-.2.56.43.69.64.12,1.48.01,1.87-.25.39-.26.18-.56-.45-.68-.63-.12-1.46,0-1.85.24Z"/><polygon class="cls-27" points="7526.13 7188.65 7520.88 7191.93 7520.29 7191.81 7525.55 7188.54 7526.13 7188.65"/><polygon class="cls-28" points="7534.57 7190.65 7530.66 7193.36 7531.19 7193.46 7535.09 7190.74 7534.57 7190.65"/><polygon class="cls-28" points="7535.74 7190.86 7531.85 7193.59 7532.38 7193.7 7536.26 7190.96 7535.74 7190.86"/><polygon class="cls-21" points="7533.8 7202 7514.29 7197.96 7514.29 7192.48 7533.8 7196.48 7533.8 7202"/><polygon class="cls-24" points="7553.78 7181.77 7553.78 7186.84 7533.8 7202 7533.8 7196.48 7553.78 7181.77"/><path class="cls-13" d="M7516.34,7196.57c.48.1.97.21,1.45.31l1.45.32c.96.21,1.93.43,2.89.64.96.22,1.92.44,2.89.66l1.44.34c.48.11.96.23,1.44.34-.48-.1-.97-.2-1.45-.31l-1.45-.32c-.96-.21-1.93-.43-2.89-.64-.96-.22-1.92-.44-2.89-.66l-1.44-.34c-.48-.11-.96-.23-1.44-.34Z"/><polygon class="cls-13" points="7533.8 7198.19 7522.63 7195.79 7533.8 7198.12 7533.8 7198.19"/><path class="cls-13" d="M7516.59,7193.92s.07,0,.11,0h.11s.21.05.21.05c.14.02.28.05.43.08l.85.16c.57.11,1.13.22,1.7.34,1.13.23,2.26.47,3.39.7,1.13.24,2.25.48,3.38.73l1.69.37c.56.13,1.12.25,1.69.38l-1.69-.35-1.69-.35-3.38-.71-3.38-.72-1.69-.36-.85-.18-.42-.08-.21-.04-.11-.02s-.07-.01-.11-.01Z"/><polygon class="cls-23" points="7533.8 7198.1 7545.75 7189.4 7533.8 7198.16 7533.8 7198.1"/><polygon class="cls-23" points="7553.78 7183.19 7548.36 7187 7553.78 7183.13 7553.78 7183.19"/><polygon class="cls-23" points="7553.78 7185.08 7550.87 7187.33 7553.78 7185.01 7553.78 7185.08"/><path class="cls-23" d="M7535.17,7199.02c.24-.18.47-.36.71-.55l.72-.54c.48-.36.96-.71,1.44-1.07.48-.35.97-.71,1.45-1.06l.73-.52c.25-.17.49-.35.73-.52-.24.18-.47.36-.71.55l-.72.54c-.48.36-.96.71-1.44,1.07-.48.35-.97.71-1.45,1.06l-.73.52c-.25.17-.49.35-.73.52Z"/><polygon class="cls-22" points="7523.59 7186.92 7542.17 7190.31 7547.56 7186.39 7529.33 7183.47 7523.59 7186.92"/><polygon class="cls-25" points="7524.64 7186.29 7543.19 7189.56 7546.72 7187 7528.53 7183.95 7524.64 7186.29"/><polygon class="cls-15" points="7542.17 7190.31 7542.17 7195.64 7547.56 7191.56 7547.56 7186.39 7542.17 7190.31"/><polygon class="cls-22" points="7543.19 7189.56 7543.31 7194.78 7546.72 7192.19 7546.72 7187 7543.19 7189.56"/></g></g></svg>