<?xml version="1.0" encoding="UTF-8"?><svg xmlns="http://www.w3.org/2000/svg" xmlns:xlink="http://www.w3.org/1999/xlink" viewBox="0 0 1200 300"><defs><style>.cls-1{fill:#a7c750;}.cls-2{stroke:#39b54a;}.cls-2,.cls-3{fill:#8cc63f;}.cls-2,.cls-4,.cls-5{stroke-miterlimit:10;}.cls-6{fill:#39b54a;}.cls-4{stroke:#fe938c;}.cls-4,.cls-7,.cls-5{fill:none;}.cls-8{fill:url(#radial-gradient);mix-blend-mode:multiply;}.cls-9,.cls-10{fill:#fff;}.cls-10,.cls-11{opacity:.5;}.cls-5{stroke:#006837;stroke-width:10px;}.cls-12{fill:#6ea84f;}.cls-13{fill:#688716;}.cls-14{isolation:isolate;}.cls-15{fill:#b17f4a;}.cls-16{fill:#038765;}.cls-17{fill:#fe938c;}.cls-18{opacity:.2;}.cls-19{fill:#c5efb9;}.cls-20{fill:#262262;}.cls-21{fill:#8cab38;}.cls-22{fill:#ca9e67;}.cls-23{fill:#5d7a0f;}.cls-24{fill:#74941f;}.cls-25{fill:#e6c091;}.cls-26{clip-path:url(#clippath);}.cls-27{fill:#64801b;}.cls-28{fill:#c6e673;}</style><clipPath id="clippath"><path class="cls-20" d="M1194.18,57.65l.35,191.53-732.06-83.48c-201.42-26.28-211.03-29.57-220.33-34.93l-56.7-32.74-77.83-44.1,1086.57,3.71Z"/></clipPath><radialGradient id="radial-gradient" cx="459.66" cy="110.41" fx="459.66" fy="110.41" r="19.13" gradientTransform="translate(284.29 -408.7) rotate(27.54) scale(2.15 1.04) skewX(6.19)" gradientUnits="userSpaceOnUse"><stop offset=".02" stop-color="#212133"/><stop offset=".07" stop-color="#424251"/><stop offset=".15" stop-color="#6e6e79"/><stop offset=".24" stop-color="#95959d"/><stop offset=".32" stop-color="#b6b6bb"/><stop offset=".42" stop-color="#d0d0d4"/><stop offset=".52" stop-color="#e5e5e7"/><stop offset=".64" stop-color="#f3f3f4"/><stop offset=".78" stop-color="#fcfcfc"/><stop offset="1" stop-color="#fff"/></radialGradient></defs><g class="cls-14"><g id="Layer_3"><path class="cls-20" d="M1194.18,57.65l.35,191.53-732.06-83.48c-201.42-26.28-211.03-29.57-220.33-34.93l-56.7-32.74-77.83-44.1,1086.57,3.71Z"/><g class="cls-26"><rect class="cls-7" x="107.61" y="53.94" width="161.05" height="108.97"/><rect class="cls-7" x="268.66" y="162.91" width="263.14" height="46.1"/><g class="cls-18"><rect class="cls-4" x="113.05" y="54.75" width="1084.2" height="196.82"/><line class="cls-4" x1="113.05" y1="218.77" x2="1197.25" y2="218.77"/><line class="cls-4" x1="113.05" y1="185.96" x2="1197.25" y2="185.96"/><line class="cls-4" x1="113.05" y1="153.16" x2="1197.25" y2="153.16"/><line class="cls-4" x1="113.05" y1="120.36" x2="1197.25" y2="120.36"/><line class="cls-4" x1="113.05" y1="87.55" x2="1197.25" y2="87.55"/><line class="cls-4" x1="1167.14" y1="54.75" x2="1167.14" y2="251.57"/><line class="cls-4" x1="1137.02" y1="54.75" x2="1137.02" y2="251.57"/><line class="cls-4" x1="1106.9" y1="54.75" x2="1106.9" y2="251.57"/><line class="cls-4" x1="1076.79" y1="54.75" x2="1076.79" y2="251.57"/><line class="cls-4" x1="1046.67" y1="54.75" x2="1046.67" y2="251.57"/><line class="cls-4" x1="1016.55" y1="54.75" x2="1016.55" y2="251.57"/><line class="cls-4" x1="986.44" y1="54.75" x2="986.44" y2="251.57"/><line class="cls-4" x1="956.32" y1="54.75" x2="956.32" y2="251.57"/><line class="cls-4" x1="926.2" y1="54.75" x2="926.2" y2="251.57"/><line class="cls-4" x1="896.09" y1="54.75" x2="896.09" y2="251.57"/><line class="cls-4" x1="865.97" y1="54.75" x2="865.97" y2="251.57"/><line class="cls-4" x1="835.85" y1="54.75" x2="835.85" y2="251.57"/><line class="cls-4" x1="805.74" y1="54.75" x2="805.74" y2="251.57"/><line class="cls-4" x1="775.62" y1="54.75" x2="775.62" y2="251.57"/><line class="cls-4" x1="745.5" y1="54.75" x2="745.5" y2="251.57"/><line class="cls-4" x1="715.39" y1="54.75" x2="715.39" y2="251.57"/><line class="cls-4" x1="685.27" y1="54.75" x2="685.27" y2="251.57"/><line class="cls-4" x1="655.15" y1="54.75" x2="655.15" y2="251.57"/><line class="cls-4" x1="625.04" y1="54.75" x2="625.04" y2="251.57"/><line class="cls-4" x1="594.92" y1="54.75" x2="594.92" y2="251.57"/><line class="cls-4" x1="564.8" y1="54.75" x2="564.8" y2="251.57"/><line class="cls-4" x1="534.69" y1="54.75" x2="534.69" y2="251.57"/><line class="cls-4" x1="504.57" y1="54.75" x2="504.57" y2="251.57"/><line class="cls-4" x1="474.45" y1="54.75" x2="474.45" y2="251.57"/><line class="cls-4" x1="444.34" y1="54.75" x2="444.34" y2="251.57"/><line class="cls-4" x1="414.22" y1="54.75" x2="414.22" y2="251.57"/><line class="cls-4" x1="384.1" y1="54.75" x2="384.1" y2="251.57"/><line class="cls-4" x1="353.99" y1="54.75" x2="353.99" y2="251.57"/><line class="cls-4" x1="323.87" y1="54.75" x2="323.87" y2="251.57"/><line class="cls-4" x1="293.75" y1="54.75" x2="293.75" y2="251.57"/><line class="cls-4" x1="263.64" y1="54.75" x2="263.64" y2="251.57"/><line class="cls-4" x1="233.52" y1="54.75" x2="233.52" y2="251.57"/><line class="cls-4" x1="203.4" y1="54.75" x2="203.4" y2="251.57"/><line class="cls-4" x1="173.29" y1="54.75" x2="173.29" y2="251.57"/><line class="cls-4" x1="143.17" y1="54.75" x2="143.17" y2="251.57"/></g></g><line class="cls-5" x1="107.61" y1="53.94" x2=".4" y2="53.58"/><path class="cls-5" d="M107.61,53.94l77.83,44.1,56.7,32.74c9.3,5.37,18.91,8.65,220.33,34.93l732.06,83.48-.35-191.53-1086.57-3.71Z"/><line class="cls-5" x1="107.58" y1="53.93" x2="107.61" y2="53.94"/><rect class="cls-7" x="911.02" y="47.58" width="110.06" height="19.21"/><path class="cls-17" d="M912.05,61.85c.63.54,1.55.99,2.51.99,1.43,0,2.27-1.06,2.27-2.6,0-1.42-.58-2.23-2.04-3.02-1.77-.88-2.87-2.17-2.87-4.31,0-2.37,1.4-4.13,3.51-4.13,1.11,0,1.92.36,2.4.74l-.39,1.6c-.35-.27-1.08-.72-2.06-.72-1.48,0-2.04,1.24-2.04,2.28,0,1.42.66,2.12,2.16,2.93,1.83.99,2.77,2.23,2.77,4.47,0,2.35-1.24,4.38-3.8,4.38-1.05,0-2.19-.43-2.77-.97l.35-1.65Z"/><path class="cls-17" d="M922.25,50.7h-3.3v-1.67h8.03v1.67h-3.32v13.54h-1.42v-13.54Z"/><path class="cls-17" d="M928.19,49.23c.71-.2,1.72-.32,2.69-.32,1.5,0,2.46.38,3.14,1.24.55.68.85,1.71.85,2.89,0,2.01-.9,3.34-2.04,3.88v.07c.84.41,1.34,1.49,1.59,3.07.35,2.12.61,3.59.84,4.17h-1.45c-.18-.43-.42-1.74-.72-3.63-.32-2.1-.9-2.89-2.17-2.96h-1.32v6.59h-1.4v-15.01ZM929.59,56.16h1.43c1.5,0,2.45-1.15,2.45-2.89,0-1.96-1.01-2.82-2.5-2.84-.68,0-1.16.09-1.38.18v5.55Z"/><path class="cls-17" d="M942.47,57.11h-4.22v5.48h4.7v1.65h-6.1v-15.21h5.86v1.65h-4.46v4.81h4.22v1.62Z"/><path class="cls-17" d="M944.58,61.85c.63.54,1.54.99,2.51.99,1.43,0,2.27-1.06,2.27-2.6,0-1.42-.58-2.23-2.04-3.02-1.77-.88-2.87-2.17-2.87-4.31,0-2.37,1.4-4.13,3.51-4.13,1.11,0,1.92.36,2.4.74l-.39,1.6c-.35-.27-1.08-.72-2.06-.72-1.48,0-2.04,1.24-2.04,2.28,0,1.42.66,2.12,2.16,2.93,1.83.99,2.77,2.23,2.77,4.47,0,2.35-1.24,4.38-3.8,4.38-1.05,0-2.19-.43-2.77-.97l.35-1.65Z"/><path class="cls-17" d="M952.52,61.85c.63.54,1.54.99,2.51.99,1.43,0,2.27-1.06,2.27-2.6,0-1.42-.58-2.23-2.04-3.02-1.77-.88-2.87-2.17-2.87-4.31,0-2.37,1.4-4.13,3.51-4.13,1.11,0,1.92.36,2.4.74l-.39,1.6c-.35-.27-1.08-.72-2.06-.72-1.48,0-2.04,1.24-2.04,2.28,0,1.42.66,2.12,2.16,2.93,1.83.99,2.77,2.23,2.77,4.47,0,2.35-1.24,4.38-3.8,4.38-1.05,0-2.19-.43-2.77-.97l.35-1.65Z"/><path class="cls-17" d="M970.89,63.25l-6.71-15.64h13.41l-6.7,15.64Z"/><path class="cls-17" d="M983.91,62.84c.31.05.66,0,1.14-.07.82-.16,1.59-.63,2.19-1.42.69-.88,1.19-2.17,1.38-3.9h-.05c-.58.99-1.42,1.58-2.46,1.58-1.88,0-3.09-1.99-3.09-4.49,0-2.78,1.43-5.21,3.57-5.21s3.46,2.44,3.46,6.18c0,3.23-.77,5.48-1.8,6.88-.8,1.11-1.92,1.78-3.04,1.96-.52.11-.97.14-1.3.11v-1.62ZM984.42,54.4c0,1.83.79,3.11,2.01,3.11.95,0,1.69-.65,2.06-1.53.08-.18.13-.41.13-.72,0-2.5-.66-4.42-2.14-4.42-1.21,0-2.06,1.49-2.06,3.57Z"/><path class="cls-17" d="M992.17,62.84c.31.05.66,0,1.14-.07.82-.16,1.59-.63,2.19-1.42.69-.88,1.19-2.17,1.38-3.9h-.05c-.58.99-1.42,1.58-2.46,1.58-1.88,0-3.09-1.99-3.09-4.49,0-2.78,1.43-5.21,3.57-5.21s3.46,2.44,3.46,6.18c0,3.23-.77,5.48-1.8,6.88-.8,1.11-1.92,1.78-3.04,1.96-.52.11-.97.14-1.3.11v-1.62ZM992.68,54.4c0,1.83.79,3.11,2.01,3.11.95,0,1.69-.65,2.06-1.53.08-.18.13-.41.13-.72,0-2.5-.66-4.42-2.14-4.42-1.21,0-2.06,1.49-2.06,3.57Z"/><path class="cls-17" d="M1004.33,53.7c0,3.09-1.16,4.63-2.51,4.63s-2.43-1.47-2.45-4.42c0-2.93,1.14-4.58,2.53-4.58,1.46,0,2.43,1.58,2.43,4.38ZM1000.49,53.84c-.03,1.87.47,3.29,1.35,3.29.93,0,1.35-1.4,1.35-3.34,0-1.78-.37-3.27-1.35-3.27-.89,0-1.35,1.47-1.35,3.32ZM1001.72,64.49l6.15-15.17h.9l-6.15,15.17h-.9ZM1011.13,59.77c0,3.09-1.16,4.63-2.5,4.63s-2.43-1.47-2.45-4.4c0-2.96,1.14-4.6,2.53-4.6,1.46,0,2.42,1.58,2.42,4.38ZM1007.3,59.91c-.02,1.87.5,3.29,1.37,3.29.93,0,1.35-1.4,1.35-3.34,0-1.78-.37-3.27-1.35-3.27-.89,0-1.37,1.47-1.37,3.32Z"/><path class="cls-17" d="M1053.99,63.14c-.52.36-1.55.72-2.87.72-3.06,0-5.36-2.71-5.36-7.7s2.3-7.99,5.67-7.99c1.35,0,2.21.41,2.58.68l-.34,1.6c-.53-.36-1.29-.63-2.19-.63-2.54,0-4.23,2.28-4.23,6.27,0,3.72,1.53,6.12,4.17,6.12.85,0,1.72-.25,2.29-.63l.29,1.56Z"/><path class="cls-17" d="M1057.57,58.85l-1.13,4.78h-1.45l3.69-15.21h1.69l3.7,15.21h-1.5l-1.16-4.78h-3.85ZM1061.13,57.31l-1.06-4.38c-.24-.99-.4-1.9-.56-2.78h-.03c-.16.9-.34,1.83-.55,2.75l-1.06,4.4h3.27Z"/><path class="cls-17" d="M1065.48,61.24c.63.54,1.54.99,2.51.99,1.43,0,2.27-1.06,2.27-2.6,0-1.42-.58-2.23-2.04-3.02-1.77-.88-2.87-2.17-2.87-4.31,0-2.37,1.4-4.13,3.51-4.13,1.11,0,1.92.36,2.4.74l-.39,1.6c-.35-.27-1.08-.72-2.06-.72-1.48,0-2.04,1.24-2.04,2.28,0,1.42.66,2.12,2.16,2.93,1.83.99,2.77,2.23,2.77,4.47,0,2.35-1.24,4.38-3.8,4.38-1.05,0-2.19-.43-2.77-.97l.35-1.65Z"/><path class="cls-17" d="M1075.01,48.42v6.36h5.25v-6.36h1.42v15.21h-1.42v-7.13h-5.25v7.13h-1.4v-15.21h1.4Z"/><path class="cls-17" d="M1087.52,48.42h5.84v1.65h-4.44v5.06h4.1v1.62h-4.1v6.88h-1.4v-15.21Z"/><path class="cls-17" d="M1095.37,48.42h1.4v13.56h4.64v1.65h-6.04v-15.21Z"/><path class="cls-17" d="M1111.61,55.87c0,5.24-2.27,8.01-5.04,8.01s-4.88-3.11-4.88-7.72c0-4.83,2.14-7.99,5.04-7.99s4.88,3.18,4.88,7.7ZM1103.19,56.12c0,3.25,1.26,6.16,3.46,6.16s3.48-2.87,3.48-6.32c0-3.02-1.13-6.18-3.46-6.18s-3.48,3-3.48,6.34Z"/><path class="cls-17" d="M1115.21,63.63l-2.75-15.21h1.48l1.29,7.7c.32,1.9.61,3.79.8,5.26h.03c.18-1.51.51-3.32.88-5.28l1.45-7.67h1.46l1.32,7.72c.31,1.81.6,3.61.76,5.21h.03c.22-1.67.53-3.36.87-5.26l1.43-7.67h1.43l-3.08,15.21h-1.46l-1.37-7.92c-.34-1.94-.56-3.43-.71-4.96h-.03c-.19,1.51-.43,3-.84,4.96l-1.55,7.92h-1.46Z"/><path class="cls-17" d="M1137.3,47l6.7,15.64h-13.41l6.71-15.64Z"/><path class="cls-17" d="M1152.57,50.81h-.03l-1.82,1.38-.27-1.51,2.29-1.71h1.21v14.67h-1.37v-12.82Z"/><path class="cls-17" d="M1164.71,56.14c0,4.99-1.32,7.74-3.64,7.74-2.04,0-3.43-2.69-3.46-7.54,0-4.92,1.51-7.63,3.64-7.63s3.46,2.75,3.46,7.42ZM1159.02,56.37c0,3.81.84,5.98,2.12,5.98,1.45,0,2.14-2.37,2.14-6.12s-.66-5.98-2.12-5.98c-1.24,0-2.14,2.12-2.14,6.12Z"/><path class="cls-17" d="M1172.97,56.14c0,4.99-1.32,7.74-3.64,7.74-2.04,0-3.43-2.69-3.46-7.54,0-4.92,1.51-7.63,3.64-7.63s3.46,2.75,3.46,7.42ZM1167.29,56.37c0,3.81.84,5.98,2.12,5.98,1.45,0,2.14-2.37,2.14-6.12s-.66-5.98-2.12-5.98c-1.24,0-2.14,2.12-2.14,6.12Z"/><path class="cls-17" d="M1178.99,53.09c0,3.09-1.16,4.63-2.51,4.63s-2.43-1.47-2.45-4.42c0-2.93,1.14-4.58,2.53-4.58,1.46,0,2.43,1.58,2.43,4.38ZM1175.16,53.23c-.03,1.87.47,3.29,1.35,3.29.93,0,1.35-1.4,1.35-3.34,0-1.78-.37-3.27-1.35-3.27-.89,0-1.35,1.47-1.35,3.32ZM1176.38,63.88l6.15-15.17h.9l-6.15,15.17h-.9ZM1185.8,59.16c0,3.09-1.16,4.63-2.5,4.63s-2.43-1.47-2.45-4.4c0-2.96,1.14-4.6,2.53-4.6,1.46,0,2.42,1.58,2.42,4.38ZM1181.97,59.3c-.02,1.87.5,3.29,1.37,3.29.93,0,1.35-1.4,1.35-3.34,0-1.78-.37-3.27-1.35-3.27-.89,0-1.37,1.47-1.37,3.32Z"/><path class="cls-17" d="M208.8,46.85c.85-.18,1.87-.32,2.98-.32,2.01,0,3.44.65,4.39,1.9.97,1.24,1.53,3,1.53,5.46s-.55,4.51-1.56,5.91c-1.01,1.42-2.69,2.19-4.8,2.19-1,0-1.84-.07-2.54-.18v-14.96ZM210.2,60.3c.35.09.87.11,1.42.11,2.99,0,4.62-2.35,4.62-6.45.02-3.59-1.43-5.87-4.39-5.87-.72,0-1.27.09-1.64.2v12.01Z"/><path class="cls-17" d="M225.15,54.73h-4.22v5.48h4.7v1.65h-6.1v-15.21h5.86v1.65h-4.46v4.81h4.22v1.62Z"/><path class="cls-17" d="M227.45,46.85c.61-.18,1.58-.32,2.56-.32,1.4,0,2.3.34,2.98,1.11.56.59.9,1.49.9,2.69,0,1.47-.69,2.75-1.83,3.34v.04c1.03.36,2.24,1.56,2.24,3.81,0,1.31-.37,2.3-.92,3.05-.76.97-1.98,1.42-3.75,1.42-.97,0-1.71-.09-2.17-.18v-14.96ZM228.85,53.08h1.27c1.48,0,2.35-1.08,2.35-2.55,0-1.78-.97-2.48-2.38-2.48-.64,0-1.01.07-1.24.14v4.9ZM228.85,60.37c.27.07.68.09,1.18.09,1.45,0,2.78-.74,2.78-2.96,0-2.08-1.27-2.93-2.8-2.93h-1.16v5.8Z"/><path class="cls-17" d="M238.09,48.32h-3.3v-1.67h8.03v1.67h-3.32v13.54h-1.42v-13.54Z"/><path class="cls-17" d="M254.28,60.87l-6.71-15.64h13.41l-6.7,15.64Z"/><path class="cls-17" d="M269.54,49.04h-.03l-1.82,1.38-.27-1.51,2.29-1.71h1.21v14.67h-1.37v-12.82Z"/><path class="cls-17" d="M281.69,54.37c0,4.99-1.32,7.74-3.64,7.74-2.04,0-3.43-2.69-3.46-7.54,0-4.92,1.51-7.63,3.64-7.63s3.46,2.75,3.46,7.42ZM276,54.59c0,3.81.84,5.98,2.12,5.98,1.45,0,2.14-2.37,2.14-6.12s-.66-5.98-2.12-5.98c-1.24,0-2.14,2.12-2.14,6.12Z"/><path class="cls-17" d="M289.95,54.37c0,4.99-1.32,7.74-3.64,7.74-2.04,0-3.43-2.69-3.46-7.54,0-4.92,1.51-7.63,3.64-7.63s3.46,2.75,3.46,7.42ZM284.26,54.59c0,3.81.84,5.98,2.12,5.98,1.45,0,2.14-2.37,2.14-6.12s-.66-5.98-2.12-5.98c-1.24,0-2.14,2.12-2.14,6.12Z"/><path class="cls-17" d="M295.97,51.32c0,3.09-1.16,4.63-2.51,4.63s-2.43-1.47-2.45-4.42c0-2.93,1.14-4.58,2.53-4.58,1.46,0,2.43,1.58,2.43,4.38ZM292.14,51.45c-.03,1.87.47,3.29,1.35,3.29.93,0,1.35-1.4,1.35-3.34,0-1.78-.37-3.27-1.35-3.27-.89,0-1.35,1.47-1.35,3.32ZM293.36,62.11l6.15-15.17h.9l-6.15,15.17h-.9ZM302.78,57.39c0,3.09-1.16,4.63-2.5,4.63s-2.43-1.47-2.45-4.4c0-2.96,1.14-4.6,2.53-4.6,1.46,0,2.41,1.58,2.41,4.38ZM298.95,57.53c-.02,1.87.5,3.29,1.37,3.29.93,0,1.35-1.4,1.35-3.34,0-1.78-.37-3.27-1.35-3.27-.89,0-1.37,1.47-1.37,3.32Z"/><path class="cls-17" d="M204.72,113.83c-.55-.04-1.57-.39-2.78-1.23-2.79-1.95-4.28-5.57-3.2-9.44,1.03-3.69,3.79-4.71,6.84-2.64,1.23.83,1.92,1.67,2.2,2.1-.22.35-.43.71-.65,1.06-.41-.61-1.04-1.28-1.86-1.84-2.31-1.57-4.32-.88-5.18,2.23-.8,2.89.06,5.75,2.47,7.43.78.54,1.63.89,2.22.94-.02.47-.05.93-.07,1.4Z"/><path class="cls-17" d="M216.12,114.4c-1.09,4.18-3.8,5.1-6.36,3.45-2.65-1.71-3.83-5.4-2.85-9.02,1.03-3.79,3.65-4.99,6.31-3.33,2.72,1.7,3.84,5.29,2.89,8.89ZM208.3,109.7c-.69,2.56-.16,5.62,1.88,6.93,2.05,1.32,3.83-.25,4.55-2.99.63-2.41.25-5.55-1.9-6.9-2.13-1.34-3.82.33-4.53,2.96Z"/><path class="cls-17" d="M226.14,121.14c.36-1.76.79-3.87,1.19-5.4-.02,0-.03-.02-.05-.02-.71,1.26-1.52,2.56-2.46,3.97-1.1,1.66-2.21,3.3-3.32,4.94-.33-.19-.67-.38-1-.57-.05-2.25-.09-4.5-.14-6.76-.04-2-.04-3.81.05-5.42,0,0-.02-.01-.03-.02-.42,1.5-1.02,3.5-1.59,5.27-.54,1.69-1.09,3.37-1.63,5.05-.42-.25-.83-.5-1.25-.75,1.3-3.9,2.59-7.81,3.87-11.74.55.32,1.11.64,1.66.96.07,2.3.14,4.6.21,6.9.03,1.75.04,3.28-.03,4.7.02,0,.03.02.05.03.57-1.09,1.28-2.23,2.13-3.52,1.11-1.64,2.21-3.29,3.31-4.95.56.3,1.12.6,1.67.89-.81,4.23-1.63,8.45-2.46,12.66-.43-.23-.86-.47-1.29-.7.37-1.84.74-3.69,1.11-5.54Z"/><path class="cls-17" d="M231.4,116.24c.67.2,1.53.51,2.59,1.04,1.31.65,2.18,1.48,2.62,2.44.42.86.54,1.93.27,3.04-.27,1.13-.76,1.89-1.44,2.28-.92.56-2.18.46-3.48-.2-.4-.2-.76-.41-1.04-.65-.41,1.65-.82,3.3-1.24,4.96-.44-.23-.89-.46-1.33-.69,1.02-4.06,2.04-8.14,3.04-12.22ZM231.25,122.89c.27.24.62.46,1.07.69,1.6.81,2.81.34,3.23-1.38.4-1.65-.37-2.9-1.83-3.63-.58-.29-1.03-.45-1.28-.5-.4,1.61-.79,3.21-1.19,4.82Z"/><path class="cls-17" d="M246.91,130.11c-1.01,4.35-3.74,5.73-6.4,4.52-2.75-1.25-4.05-4.74-3.13-8.51.96-3.96,3.61-5.6,6.36-4.39,2.82,1.23,4.04,4.63,3.17,8.38ZM238.82,126.75c-.64,2.67-.03,5.63,2.09,6.59,2.13.96,3.9-.9,4.57-3.76.59-2.51.12-5.58-2.1-6.56-2.21-.98-3.89.98-4.56,3.73Z"/><path class="cls-17" d="M251.42,125.16c-.57,2.51-1.14,5.01-1.72,7.52-.66,2.84.1,4.47,1.5,5.02,1.55.61,2.84-.26,3.47-3.08.57-2.52,1.13-5.04,1.69-7.56.45.17.91.33,1.36.5-.55,2.49-1.1,4.98-1.66,7.46-.88,3.93-2.94,4.91-5.22,4.01-2.15-.85-3.41-3.01-2.5-6.93.58-2.49,1.15-4.98,1.72-7.47.45.18.9.36,1.35.54Z"/><path class="cls-17" d="M257.22,141.2c.96-4.27,1.9-8.54,2.84-12.82.49.17.98.34,1.47.51.64,2.55,1.29,5.09,1.94,7.64.45,1.77.77,3.32.98,4.8.01,0,.02,0,.04,0,.25-1.76.55-3.35.99-5.36.39-1.8.77-3.61,1.15-5.41.42.13.85.26,1.27.39-.91,4.32-1.83,8.63-2.76,12.94-.46-.15-.92-.29-1.38-.44-.64-2.54-1.28-5.09-1.91-7.64-.42-1.68-.8-3.39-1.02-4.96-.02,0-.03,0-.05,0-.28,1.65-.58,3.2-1.05,5.34-.4,1.83-.81,3.66-1.21,5.48-.43-.15-.85-.3-1.28-.46Z"/><path class="cls-17" d="M270.21,131.81c.85.09,1.85.25,2.93.55,1.94.54,3.2,1.45,3.9,2.75.72,1.31.96,2.96.53,5.08-.43,2.14-1.32,3.75-2.55,4.7-1.24.96-3.01,1.18-5.06.58-.97-.28-1.77-.58-2.44-.89.91-4.25,1.81-8.5,2.69-12.76ZM269.15,143.69c.33.18.82.35,1.36.5,2.91.84,4.91-.78,5.63-4.31.64-3.09-.36-5.39-3.21-6.18-.7-.19-1.24-.27-1.62-.27-.71,3.42-1.43,6.84-2.15,10.26Z"/><path class="cls-17" d="M281.92,134.67c-.86,4.39-1.74,8.77-2.62,13.15-.45-.11-.91-.22-1.36-.33.89-4.37,1.77-8.75,2.63-13.13.45.11.9.21,1.35.31Z"/><path class="cls-17" d="M281.68,148.38c.87-4.39,1.74-8.78,2.59-13.18.49.11.98.21,1.47.31.69,2.46,1.38,4.92,2.07,7.37.48,1.71.82,3.22,1.06,4.67.01,0,.02,0,.03-.01.21-1.8.49-3.42.88-5.48.35-1.85.7-3.7,1.05-5.56.42.08.85.15,1.27.22-.83,4.44-1.66,8.87-2.51,13.29-.46-.08-.92-.17-1.38-.26-.68-2.46-1.37-4.92-2.04-7.38-.45-1.62-.86-3.28-1.11-4.82-.02,0-.03,0-.05,0-.25,1.68-.52,3.28-.95,5.47-.37,1.88-.74,3.76-1.11,5.64-.43-.09-.86-.19-1.29-.29Z"/><path class="cls-17" d="M300.09,151.03c-.66.2-1.94.5-3.36.29-1.59-.23-2.81-.96-3.61-2.37-.7-1.26-.92-3.13-.54-5.21.76-3.97,3.43-6.51,6.91-6.05,1.2.16,2.08.61,2.48.94-.19.46-.38.92-.57,1.38-.5-.39-1.15-.73-2.2-.87-2.53-.34-4.56,1.41-5.18,4.76-.63,3.38.61,5.65,3.05,6.01.89.13,1.52.05,1.87-.11.24-1.33.48-2.67.72-4-.71-.09-1.42-.19-2.13-.29.08-.46.17-.93.25-1.39,1.15.16,2.3.31,3.44.45-.38,2.15-.77,4.3-1.15,6.45Z"/><path class="cls-17" d="M514.61,60.77c.62.55,1.54,1.02,2.5,1.04,1.43.03,2.28-1.02,2.3-2.55.01-1.42-.56-2.25-2.01-3.06-1.76-.91-2.84-2.22-2.82-4.37.02-2.37,1.44-4.1,3.55-4.06,1.11.02,1.91.4,2.39.79l-.4,1.59c-.35-.28-1.07-.74-2.05-.76-1.48-.03-2.06,1.2-2.07,2.24-.01,1.42.64,2.13,2.13,2.98,1.83,1.03,2.75,2.29,2.72,4.52-.02,2.35-1.28,4.35-3.84,4.3-1.05-.02-2.18-.47-2.76-1.02l.37-1.64Z"/><path class="cls-17" d="M522.87,48.11l1.4.03-.13,13.56,4.63.09-.02,1.65-6.04-.12.15-15.21Z"/><path class="cls-17" d="M539.04,55.88c-.05,5.24-2.35,7.97-5.12,7.91-2.87-.06-4.85-3.21-4.8-7.81.05-4.83,2.22-7.95,5.12-7.89,2.96.06,4.85,3.28,4.8,7.79ZM530.62,55.96c-.03,3.25,1.19,6.19,3.4,6.23,2.22.04,3.5-2.8,3.54-6.25.03-3.02-1.07-6.21-3.4-6.25-2.32-.04-3.51,2.93-3.54,6.27Z"/><path class="cls-17" d="M542.55,63.71l-2.6-15.26,1.48.03,1.21,7.72c.3,1.9.57,3.8.75,5.27h.03c.19-1.51.55-3.31.94-5.26l1.53-7.64,1.46.03,1.24,7.74c.29,1.81.56,3.62.71,5.23h.03c.24-1.67.56-3.35.92-5.24l1.51-7.65,1.43.03-3.23,15.15-1.46-.03-1.29-7.95c-.32-1.95-.53-3.44-.66-4.98h-.03c-.21,1.51-.46,2.99-.89,4.95l-1.62,7.89-1.46-.03Z"/><path class="cls-17" d="M559.62,59.26l-1.17,4.76-1.45-.03,3.84-15.14,1.69.03,3.55,15.28-1.5-.03-1.11-4.81-3.85-.08ZM563.19,57.79l-1.02-4.4c-.23-1-.38-1.9-.53-2.79h-.03c-.17.9-.36,1.82-.58,2.74l-1.11,4.38,3.27.06Z"/><path class="cls-17" d="M567.67,64.2l.15-15.21,1.53.03,3.4,7.76c.79,1.8,1.4,3.41,1.9,4.98l.03-.02c-.11-2.03-.12-3.89-.1-6.25l.06-6.36,1.32.03-.15,15.21-1.42-.03-3.37-7.78c-.74-1.71-1.45-3.46-1.98-5.12l-.05.02c.06,1.92.08,3.75.05,6.28l-.06,6.5-1.32-.03Z"/><path class="cls-17" d="M578.42,49.4c.85-.16,1.87-.28,2.98-.26,2.01.04,3.44.72,4.38,1.98.95,1.26,1.5,3.03,1.48,5.49-.02,2.48-.59,4.5-1.62,5.88-1.03,1.4-2.71,2.14-4.82,2.1-1-.02-1.83-.1-2.54-.23l.15-14.96ZM579.68,62.87c.35.1.87.13,1.42.14,2.99.06,4.64-2.26,4.68-6.36.05-3.59-1.38-5.9-4.34-5.95-.72-.01-1.27.06-1.64.17l-.12,12.01Z"/><path class="cls-17" d="M592.24,62.28c.62.55,1.53,1.02,2.5,1.04,1.43.03,2.28-1.02,2.29-2.55.01-1.42-.56-2.25-2.01-3.06-1.76-.92-2.84-2.22-2.82-4.37.02-2.37,1.44-4.1,3.55-4.06,1.11.02,1.91.4,2.39.79l-.4,1.6c-.35-.28-1.07-.74-2.05-.76-1.48-.03-2.06,1.2-2.07,2.24-.01,1.42.64,2.13,2.13,2.98,1.83,1.03,2.75,2.29,2.72,4.52-.02,2.35-1.28,4.35-3.84,4.3-1.05-.02-2.18-.47-2.76-1.02l.37-1.64Z"/><path class="cls-17" d="M602.54,51.33l-3.3-.06.02-1.67,8.03.16-.02,1.67-3.32-.06-.13,13.54-1.42-.03.13-13.54Z"/><path class="cls-17" d="M614.03,57.97l-4.22-.08-.05,5.48,4.7.09-.02,1.65-6.1-.12.15-15.21,5.86.11-.02,1.65-4.46-.09-.05,4.81,4.22.08-.02,1.62Z"/><path class="cls-17" d="M618.07,60.39l-1.17,4.76-1.45-.03,3.84-15.14,1.69.03,3.55,15.28-1.5-.03-1.11-4.81-3.85-.07ZM621.64,58.93l-1.02-4.4c-.23-1-.38-1.9-.54-2.79h-.03c-.17.9-.36,1.82-.58,2.74l-1.11,4.38,3.27.06Z"/><path class="cls-17" d="M626.27,50.33c.85-.16,1.87-.28,2.98-.26,2.01.04,3.44.72,4.38,1.98.95,1.26,1.5,3.03,1.47,5.49-.02,2.48-.59,4.5-1.62,5.88-1.03,1.4-2.71,2.14-4.82,2.1-1-.02-1.83-.1-2.54-.23l.15-14.96ZM627.54,63.81c.35.1.87.13,1.42.14,2.99.06,4.64-2.26,4.68-6.36.05-3.59-1.38-5.9-4.34-5.95-.72-.01-1.27.06-1.64.17l-.12,12.01Z"/><path class="cls-17" d="M638.81,65.58l.06-6.45-3.34-8.82,1.59.03,1.49,4.23c.41,1.16.72,2.09,1.05,3.16h.03c.32-.99.7-1.97,1.13-3.12l1.6-4.17,1.59.03-3.72,8.66-.06,6.48-1.42-.03Z"/><path class="cls-17" d="M901.83,206.2l5.82.71-.1,1.64-4.43-.54-.31,5.03,4.09.5-.1,1.62-4.09-.5-.43,6.86-1.39-.17.95-15.15Z"/><path class="cls-17" d="M911.04,207.33l-.95,15.15-1.39-.17.95-15.15,1.39.17Z"/><path class="cls-17" d="M912.53,222.78l.95-15.15,1.52.19,2.99,8.09c.69,1.87,1.22,3.55,1.63,5.16l.03-.02c0-2.04.08-3.89.23-6.25l.4-6.34,1.32.16-.95,15.15-1.41-.17-2.95-8.11c-.65-1.78-1.26-3.6-1.71-5.31l-.05.02c-.04,1.92-.12,3.75-.28,6.26l-.4,6.47-1.31-.16Z"/><path class="cls-17" d="M925.13,219.53l-1.42,4.63-1.44-.18,4.62-14.7,1.68.21,2.74,15.6-1.49-.18-.86-4.91-3.83-.47ZM928.77,218.43l-.79-4.49c-.18-1.02-.28-1.94-.39-2.83h-.03c-.22.88-.45,1.78-.72,2.67l-1.33,4.25,3.26.4Z"/><path class="cls-17" d="M932.9,225.28l.95-15.15,1.52.19,2.99,8.09c.69,1.87,1.22,3.55,1.63,5.16l.03-.02c0-2.04.08-3.89.23-6.25l.4-6.34,1.32.16-.95,15.15-1.41-.17-2.95-8.11c-.65-1.78-1.26-3.6-1.71-5.31l-.05.02c-.04,1.92-.12,3.75-.28,6.26l-.4,6.47-1.31-.16Z"/><path class="cls-17" d="M951.04,227.01c-.54.3-1.58.53-2.9.37-3.05-.37-5.17-3.35-4.86-8.32.3-4.74,2.79-7.68,6.14-7.26,1.35.17,2.17.67,2.52.99l-.44,1.56c-.51-.42-1.24-.79-2.14-.9-2.54-.31-4.36,1.75-4.61,5.73-.23,3.71,1.14,6.28,3.77,6.6.85.1,1.73-.04,2.32-.35l.19,1.59Z"/><path class="cls-17" d="M955.1,212.74l-.95,15.15-1.39-.17.95-15.15,1.39.17Z"/><path class="cls-17" d="M958.64,223.63l-1.42,4.63-1.44-.18,4.62-14.7,1.68.21,2.74,15.6-1.49-.18-.86-4.91-3.83-.47ZM962.28,222.54l-.79-4.49c-.18-1.02-.28-1.94-.39-2.83h-.03c-.22.88-.45,1.78-.72,2.67l-1.33,4.25,3.26.4Z"/><path class="cls-17" d="M967.36,214.24l1.4.17-.84,13.51,4.62.57-.1,1.64-6.01-.74.95-15.15Z"/><path class="cls-17" d="M984.97,231.17c-.54.3-1.58.53-2.9.37-3.05-.37-5.17-3.35-4.86-8.32.3-4.74,2.79-7.68,6.14-7.27,1.35.17,2.17.67,2.52.99l-.44,1.56c-.51-.42-1.24-.79-2.14-.9-2.53-.31-4.36,1.75-4.61,5.73-.23,3.71,1.14,6.28,3.77,6.6.85.1,1.73-.04,2.32-.35l.19,1.59Z"/><path class="cls-17" d="M987.64,216.73l1.39.17-.84,13.51,4.62.57-.1,1.64-6.01-.74.95-15.15Z"/><path class="cls-17" d="M996.31,228.25l-1.42,4.63-1.44-.18,4.62-14.7,1.68.21,2.74,15.6-1.49-.18-.86-4.91-3.83-.47ZM999.95,227.16l-.79-4.49c-.18-1.02-.28-1.94-.39-2.83h-.03c-.22.88-.45,1.78-.72,2.67l-1.33,4.25,3.26.4Z"/><path class="cls-17" d="M1005.02,219.06c.72-.12,1.74-.1,2.7.01,1.49.18,2.43.68,3.05,1.62.5.74.74,1.81.67,2.98-.12,2-1.11,3.22-2.28,3.62v.07c.8.51,1.23,1.65,1.39,3.25.22,2.16.39,3.65.57,4.26l-1.44-.18c-.15-.45-.31-1.78-.49-3.71-.19-2.13-.72-2.99-1.98-3.21l-1.32-.16-.41,6.56-1.4-.17.93-14.95ZM1005.98,226.13l1.43.18c1.49.18,2.51-.85,2.62-2.58.12-1.96-.84-2.93-2.31-3.14-.67-.08-1.16-.05-1.39,0l-.34,5.53Z"/><path class="cls-17" d="M1015.05,220.09l-.95,15.15-1.39-.17.95-15.15,1.39.17Z"/><path class="cls-17" d="M1019.44,222.3l-3.29-.4.1-1.66,8,.98-.1,1.66-3.3-.4-.84,13.49-1.41-.17.84-13.49Z"/><path class="cls-17" d="M1027.38,236.86l.4-6.43-2.87-9.14,1.59.2,1.26,4.37c.35,1.2.61,2.16.88,3.26h.03c.37-.95.8-1.89,1.28-2.99l1.82-3.99,1.59.2-4.17,8.25-.4,6.45-1.41-.17Z"/><path class="cls-17" d="M1103.29,245.7c-.53.31-1.58.58-2.9.45-3.05-.29-5.22-3.2-4.99-8.18.23-4.75,2.68-7.76,6.04-7.45,1.35.13,2.18.61,2.54.92l-.41,1.57c-.51-.41-1.26-.75-2.16-.83-2.54-.24-4.33,1.88-4.52,5.87-.18,3.72,1.24,6.25,3.87,6.49.85.08,1.73-.09,2.31-.42l.22,1.58Z"/><path class="cls-17" d="M1114.3,239.44c-.25,5.23-2.65,7.79-5.41,7.53-2.86-.27-4.72-3.56-4.5-8.16.23-4.82,2.52-7.77,5.41-7.5,2.96.28,4.72,3.63,4.51,8.14ZM1105.89,238.9c-.15,3.24.96,6.27,3.16,6.47,2.22.21,3.61-2.54,3.77-5.98.14-3.02-.83-6.28-3.16-6.49-2.31-.22-3.61,2.67-3.77,6.01Z"/><path class="cls-17" d="M1115.75,247.36l.72-15.18,1.53.14,3.11,8.01c.72,1.85,1.27,3.51,1.71,5.12l.03-.02c-.03-2.04.02-3.89.13-6.26l.3-6.35,1.32.12-.72,15.18-1.41-.13-3.07-8.03c-.68-1.76-1.32-3.56-1.79-5.26l-.05.02c0,1.92-.06,3.75-.18,6.27l-.31,6.49-1.32-.12Z"/><path class="cls-17" d="M1126.24,245.94c.6.6,1.5,1.14,2.46,1.23,1.43.13,2.32-.85,2.39-2.38.07-1.42-.47-2.28-1.9-3.21-1.73-1.04-2.76-2.43-2.66-4.57.11-2.37,1.59-3.99,3.7-3.79,1.11.1,1.9.54,2.36.97l-.46,1.56c-.34-.3-1.04-.82-2.02-.91-1.48-.14-2.1,1.05-2.15,2.08-.07,1.42.56,2.18,2.01,3.13,1.79,1.16,2.66,2.49,2.55,4.72-.11,2.34-1.45,4.25-4,4.02-1.05-.1-2.17-.63-2.72-1.23l.43-1.61Z"/><path class="cls-17" d="M1136.36,234.03l-.72,15.18-1.4-.13.72-15.18,1.4.13Z"/><path class="cls-17" d="M1138,247.04c.6.6,1.5,1.13,2.46,1.22,1.43.13,2.32-.85,2.39-2.38.07-1.42-.47-2.28-1.9-3.21-1.73-1.04-2.76-2.43-2.66-4.57.11-2.37,1.59-3.99,3.7-3.8,1.11.1,1.9.54,2.36.97l-.46,1.56c-.34-.3-1.04-.82-2.02-.91-1.48-.14-2.1,1.05-2.15,2.08-.07,1.42.56,2.18,2.02,3.13,1.79,1.16,2.66,2.49,2.55,4.72-.11,2.34-1.45,4.25-4,4.02-1.04-.1-2.17-.63-2.72-1.23l.43-1.61Z"/><path class="cls-17" d="M1148.7,236.86l-3.29-.31.08-1.67,8.02.75-.08,1.67-3.31-.31-.64,13.52-1.42-.13.64-13.52Z"/><path class="cls-17" d="M1159.94,244.33l-4.21-.39-.26,5.47,4.69.44-.08,1.65-6.09-.57.72-15.18,5.85.55-.08,1.64-4.45-.42-.23,4.8,4.21.39-.08,1.62Z"/><path class="cls-17" d="M1161.89,251.67l.72-15.18,1.53.14,3.11,8.01c.72,1.85,1.27,3.51,1.71,5.12l.03-.02c-.03-2.04.02-3.89.14-6.25l.3-6.35,1.32.12-.72,15.18-1.41-.13-3.07-8.03c-.68-1.76-1.32-3.56-1.79-5.26l-.05.02c0,1.92-.06,3.75-.18,6.27l-.31,6.49-1.32-.12Z"/><path class="cls-17" d="M1175.17,239.33l-3.29-.31.08-1.67,8.02.75-.08,1.67-3.31-.31-.64,13.52-1.42-.13.64-13.52Z"/></g><g id="Layer_2"><path class="cls-8" d="M1166.6,180.49c-2.88,10.85-21.54,11.13-41.67.63-20.14-10.5-34.12-27.81-31.24-38.66,2.88-10.85,21.54-11.13,41.67-.63s34.12,27.81,31.24,38.66Z"/><polygon class="cls-16" points="1168.96 150.22 1139.81 125.87 1106.35 117.57 1085.73 128.22 1133.89 148.1 1179.11 176.68 1168.96 150.22"/><polygon class="cls-6" points="1168.96 150.22 1135.51 142 1106.35 117.57 1085.73 128.2 1129.44 164.83 1179.61 177.16 1168.96 150.22"/><polygon class="cls-6" points="1168.96 150.22 1135.51 142 1129.44 164.83 1179.61 177.16 1168.96 150.22"/><g class="cls-11"><path class="cls-9" d="M1135.48,141.83c-.08-.02-.15,0-.16.06l-6.05,22.78s.12.12.18.15c.09.04.21.08.22.05l6.01-22.69-.19-.36Z"/></g><g class="cls-11"><path class="cls-9" d="M1135.47,142.13s-.04-.02-.06-.04l-29.16-24.45s.02-.06.11-.07c.13-.02.24.01.28.04l28.97,24.29c.09.08.12.18.07.24-.04.04-.12.04-.2,0Z"/></g><polygon class="cls-12" points="1145.4 104.9 1128.7 100.8 1122.64 123.63 1159.92 117.24 1145.4 104.9"/><polygon class="cls-3" points="1158.65 117.62 1143.17 113.11 1128.66 100.78 1107.99 111.54 1137.11 135.94 1169.47 143.9 1158.65 117.62"/><polygon class="cls-2" points="1159.88 117.22 1143.17 113.11 1137.11 135.94 1170.53 144.16 1159.88 117.22"/><path class="cls-10" d="M1143.24,112.9c-.11-.05-.2-.03-.23.04l-6.09,22.85s.14.13.18.15c.05.03.2.07.2.05l6.08-22.85c.02-.08-.05-.19-.15-.24Z"/><g class="cls-11"><path class="cls-9" d="M1143.17,113.11s-.04-.02-.06-.04l-14.59-12.22s.07-.04.13-.07c.04-.02.25.03.29.06l14.38,12.03c.09.08.12.18.07.24-.04.04-.12.04-.21,0Z"/></g><g class="cls-11"><path class="cls-9" d="M1143.17,113.11s.04.02.07.03l16.65,4.1s-.13-.13-.2-.2c-.13-.12-.24-.23-.29-.23l-16.21-3.99c-.1-.02-.18.03-.16.12,0,.07.07.14.15.18Z"/></g><path class="cls-10" d="M1168.99,150.26c-.09-.13-.27-.26-.32-.27l-33.29-8.16s-.05.13-.04.16c0,.04.06.18.09.19l33.59,8.23s.04-.05-.03-.15Z"/><polygon class="cls-19" points="1150.89 84.04 1130.22 94.69 1144.82 106.92 1161.57 111.04 1150.89 84.04"/><polygon class="cls-19" points="1150.89 84.04 1144.82 106.92 1161.57 111.04 1150.89 84.04"/><path class="cls-10" d="M1145.62,103.17c.57-2.12,1.74-6.49,2.5-9.32.37-1.42,2.3-8.38,2.54-9.2,0-.02.2-.62.23-.61.03.02-.09.65-.1.69,0,0-2,7.87-2.38,9.28-.74,2.84-1.9,7.21-2.46,9.34-.55,2.13-.93,3.63-.93,3.63-.07,0-.16-.03-.19-.05-.04-.02-.15-.11-.19-.15,0,0,.41-1.49.98-3.6Z"/><path class="cls-6" d="M1148.1,104.58c-.05.32-.24.5-.45.44-.12-.03-.21-.14-.26-.29l-.08.59-.1-.03.21-1.46.1.03-.03.21c.08-.12.2-.17.32-.14.21.06.35.32.3.65ZM1147.99,104.55c.04-.25-.06-.45-.22-.49-.16-.04-.31.09-.34.34-.04.25.06.45.22.49.16.04.31-.09.34-.34Z"/><path class="cls-6" d="M1148.45,103.67l.1.03-.21,1.5-.1-.03.21-1.5Z"/><path class="cls-6" d="M1149.29,104.78l-.09.66-.1-.03.02-.17c-.06.1-.16.14-.29.1-.17-.05-.26-.2-.23-.39.02-.16.12-.28.34-.22l.24.07v-.06c.04-.18-.02-.3-.17-.34-.1-.03-.2,0-.27.06l-.03-.12c.09-.07.21-.09.33-.06.2.05.29.22.25.5ZM1149.13,105.09l.03-.17-.24-.07c-.15-.04-.21.03-.22.14-.02.12.04.22.16.25.12.03.21-.02.27-.15Z"/><path class="cls-6" d="M1150.26,105.09l-.09.62-.1-.03.08-.6c.03-.22-.04-.36-.18-.4-.16-.04-.29.07-.32.31l-.08.56-.1-.03.15-1.07.1.03-.03.2c.07-.11.19-.16.32-.12.18.05.29.24.25.54Z"/><path class="cls-6" d="M1151.23,105.36l-.09.62-.1-.03.08-.6c.03-.22-.04-.36-.18-.4-.16-.04-.29.07-.32.31l-.08.56-.1-.03.15-1.07.1.03-.03.2c.07-.11.19-.16.32-.12.18.05.29.24.25.54Z"/><path class="cls-6" d="M1151.58,104.99l.1.03-.15,1.07-.1-.03.15-1.07ZM1151.6,104.65c0-.05.05-.09.09-.08.04.01.07.07.06.12,0,.06-.05.1-.09.08-.04-.01-.07-.07-.06-.12Z"/><path class="cls-6" d="M1152.6,105.74l-.09.62-.1-.03.08-.6c.03-.22-.04-.36-.18-.4-.16-.05-.29.07-.32.31l-.08.56-.1-.03.15-1.07.1.03-.03.2c.07-.11.19-.16.32-.12.18.05.29.24.25.54Z"/><path class="cls-6" d="M1153.65,105.57l-.13.94c-.05.37-.2.5-.45.43-.14-.04-.27-.13-.33-.26l.07-.09c.06.11.16.2.28.23.19.05.3-.05.33-.31l.02-.14c-.08.12-.2.16-.32.12-.22-.06-.35-.32-.31-.62s.24-.47.45-.41c.13.04.23.14.27.3l.03-.2.1.03ZM1153.48,106.05c.03-.23-.07-.42-.23-.47-.17-.05-.31.08-.34.31-.03.23.06.42.23.47.17.05.31-.08.34-.31Z"/><path class="cls-6" d="M1154.45,105.66l-.02.12.23.06-.02.12-.23-.06-.13.94-.1-.03.13-.94-.14-.04.02-.12.14.04.02-.13c.03-.19.13-.29.27-.25.06.02.11.05.14.11l-.05.1s-.06-.07-.1-.08c-.09-.02-.14.03-.16.16Z"/><path class="cls-6" d="M1154.64,106.4c.04-.32.24-.49.46-.43s.35.33.31.65c-.04.32-.24.5-.46.44-.22-.06-.35-.33-.31-.65ZM1155.3,106.58c.04-.25-.06-.45-.22-.49-.16-.04-.31.09-.34.34s.06.45.22.49c.16.04.3-.09.34-.34Z"/><path class="cls-6" d="M1156.08,106.24l-.02.14s-.02,0-.02,0c-.16-.04-.28.07-.31.32l-.08.54-.1-.03.15-1.07.1.03-.03.21c.07-.13.17-.18.31-.14Z"/><path class="cls-6" d="M1157.29,107.04l-.09.62-.1-.03.08-.6c.03-.22-.04-.36-.18-.4-.16-.04-.29.07-.32.31l-.08.56-.1-.03.15-1.07.1.03-.03.2c.07-.11.19-.16.32-.12.18.05.29.24.25.54Z"/><path class="cls-6" d="M1158.21,107.44l-.63-.18c-.02.23.08.41.25.45.09.03.18,0,.25-.08l.04.11c-.08.09-.2.13-.32.09-.24-.07-.37-.34-.32-.65.04-.32.23-.5.45-.44.21.06.34.32.29.64,0,.01,0,.03,0,.04ZM1157.59,107.15l.54.15c.02-.21-.07-.39-.22-.43-.15-.04-.28.08-.32.28Z"/><path class="cls-6" d="M1158.81,108.11l-.18-.51-.3.38-.12-.03.38-.46-.21-.6.12.03.17.48.29-.35.11.03-.36.44.23.63-.12-.03Z"/><path class="cls-6" d="M1159.51,108.24s-.11.05-.17.03c-.14-.04-.21-.18-.18-.37l.09-.64-.14-.04.02-.12.14.04.03-.23.1.03-.03.23.23.06-.02.12-.23-.06-.09.64c-.02.12.02.21.1.23.04.01.09,0,.12-.02l.02.11Z"/><path class="cls-6" d="M1134.6,94.85l.08-.06c.03.1.09.23.19.31.12.11.2.1.24,0,.11-.24-.4-.43-.24-.79.07-.15.21-.18.38-.03.08.07.16.19.19.29l-.08.06c-.03-.11-.09-.19-.16-.25-.12-.1-.2-.09-.24,0-.11.25.4.44.24.79-.07.16-.22.17-.39.02-.11-.1-.19-.24-.22-.35Z"/><path class="cls-6" d="M1136.01,95.44l-.25.57-.08-.07.06-.14c-.08.06-.18.05-.29-.05-.15-.13-.19-.32-.12-.48.06-.14.18-.2.37-.04l.21.18.02-.06c.07-.16.05-.3-.08-.41-.08-.08-.18-.1-.27-.08v-.13c.1-.02.22.02.32.11.17.15.21.35.11.59ZM1135.79,95.66l.07-.15-.21-.18c-.13-.11-.2-.08-.24.01-.05.11-.02.23.09.32.1.09.2.09.29,0Z"/><path class="cls-6" d="M1136.94,95.78l-.7.66-.09-.08.12-1.17.09.08-.11,1,.6-.56.09.08Z"/><path class="cls-6" d="M1137.06,95.89l.09.08-.41.92-.09-.08.41-.92ZM1137.17,95.59s.07-.06.1-.03c.04.03.05.1.03.14-.02.05-.07.07-.11.03-.04-.03-.05-.1-.02-.15Z"/><path class="cls-6" d="M1137.83,97.11l-.24.53-.09-.08.23-.52c.09-.19.06-.36-.07-.47-.14-.12-.28-.08-.38.13l-.22.48-.09-.08.41-.92.08.07-.08.17c.1-.07.21-.06.33.04.16.14.21.37.09.63Z"/><path class="cls-6" d="M1138.85,97.47l-.36.8c-.14.31-.32.36-.53.17-.12-.11-.21-.26-.24-.41l.09-.05c.03.13.1.26.2.35.17.15.29.11.39-.12l.05-.12c-.11.07-.23.05-.33-.05-.19-.17-.25-.47-.13-.74s.34-.32.53-.15c.11.1.18.24.18.41l.08-.18.08.07ZM1138.57,97.83c.09-.2.04-.43-.1-.55-.14-.13-.31-.08-.4.11s-.05.43.1.56c.14.13.31.08.4-.12Z"/><path class="cls-6" d="M1138.64,98.42l.08-.06c.03.1.09.23.19.31.12.11.2.1.24,0,.11-.24-.4-.43-.24-.79.07-.15.21-.18.38-.03.08.08.16.19.19.29l-.08.06c-.03-.11-.09-.19-.16-.25-.12-.1-.2-.09-.24,0-.11.25.4.44.24.79-.07.16-.22.17-.39.02-.11-.1-.19-.24-.22-.35Z"/><path class="cls-6" d="M1140.18,98.5l-.05.11.2.18-.05.1-.2-.18-.36.81-.09-.08.36-.81-.12-.1.05-.1.12.1.05-.11c.07-.16.19-.21.32-.1.05.04.09.11.11.17l-.07.06c-.01-.05-.04-.1-.08-.13-.08-.07-.14-.04-.19.07Z"/><path class="cls-6" d="M1140.17,99.28c.12-.27.35-.34.54-.17.19.17.25.49.12.76-.12.27-.35.34-.54.17-.19-.17-.25-.49-.12-.76ZM1140.75,99.79c.1-.21.06-.45-.08-.57-.14-.12-.31-.07-.41.14-.1.21-.06.45.08.57.14.12.31.07.4-.14Z"/><path class="cls-6" d="M1141.56,99.85l-.05.12s-.01-.02-.02-.02c-.14-.12-.28-.07-.37.14l-.21.47-.09-.08.41-.92.08.07-.08.18c.1-.08.21-.08.33.03Z"/><path class="cls-6" d="M1142.66,100.83l-.36.8c-.14.31-.32.36-.53.17-.12-.11-.21-.26-.24-.41l.09-.05c.03.13.1.26.2.35.17.15.29.11.39-.12l.05-.12c-.11.07-.23.05-.33-.05-.19-.17-.25-.47-.13-.74s.34-.32.53-.15c.11.1.18.24.18.41l.08-.18.08.08ZM1142.37,101.19c.09-.2.05-.43-.1-.55-.14-.13-.31-.08-.4.11s-.05.43.1.55c.14.13.31.08.4-.11Z"/><path class="cls-6" d="M1142.63,101.45c.12-.27.35-.34.54-.17.19.17.25.49.12.76-.12.27-.35.34-.54.17-.19-.17-.25-.49-.12-.76ZM1143.21,101.96c.1-.21.06-.45-.08-.57-.14-.12-.31-.07-.41.14-.1.21-.06.45.08.57.14.12.31.07.4-.14Z"/><path class="cls-6" d="M1144.02,102.53l-.25.57-.08-.08.06-.14c-.08.06-.18.05-.29-.05-.15-.13-.19-.32-.12-.48.06-.14.18-.2.37-.04l.21.18.02-.06c.07-.16.05-.3-.08-.41-.08-.08-.18-.1-.27-.08v-.13c.1-.02.22.02.33.11.17.15.21.35.1.59ZM1143.8,102.74l.07-.15-.21-.18c-.13-.11-.2-.08-.24.01-.05.11-.02.23.09.32.1.09.2.09.29,0Z"/><path class="cls-6" d="M1144.58,102.01l.09.08-.58,1.29-.09-.08.58-1.29Z"/><path class="cls-6" d="M1144.29,103.41l.08-.06c.03.1.09.23.19.31.13.11.2.1.24,0,.11-.24-.4-.43-.24-.79.07-.15.21-.18.38-.03.08.07.16.19.19.29l-.08.06c-.03-.11-.09-.19-.16-.25-.12-.1-.2-.09-.24,0-.11.25.4.44.24.79-.07.16-.22.17-.39.02-.11-.1-.19-.24-.22-.35Z"/><path class="cls-19" d="M1148.75,161.36c.06-.41.31-.63.6-.55.16.05.29.17.34.38l-.11.07c-.05-.16-.14-.25-.25-.28-.21-.06-.4.11-.44.43-.05.32.08.58.29.64.11.03.22,0,.31-.12l.08.12c-.1.16-.26.21-.42.16-.29-.08-.46-.43-.4-.84Z"/><path class="cls-19" d="M1150.66,161.72l-.12.85-.12-.04.03-.21c-.08.12-.21.18-.37.13-.22-.06-.33-.26-.3-.5.03-.21.15-.36.43-.28l.31.09v-.08c.04-.23-.03-.39-.21-.44-.12-.04-.25,0-.35.07l-.04-.15c.11-.09.27-.12.42-.07.25.07.37.29.32.64ZM1150.46,162.12l.03-.22-.31-.08c-.19-.05-.26.03-.29.17-.02.16.05.28.21.33.15.04.27-.03.35-.19Z"/><path class="cls-19" d="M1150.78,162.48l.08-.13c.07.11.19.21.32.25.19.05.27-.02.29-.15.05-.36-.62-.25-.54-.79.03-.22.19-.35.44-.28.13.04.26.12.33.22l-.08.13c-.07-.11-.17-.17-.27-.2-.18-.05-.27.03-.29.16-.05.37.62.27.55.79-.03.24-.21.35-.46.28-.16-.04-.3-.16-.37-.28Z"/><path class="cls-19" d="M1152.81,162.38l-.11.79-.13-.04.11-.78c.04-.29-.04-.47-.23-.52-.21-.06-.37.09-.41.4l-.1.72-.13-.04.27-1.93.13.04-.11.8c.09-.14.24-.19.4-.15.24.07.37.3.32.7Z"/><path class="cls-19" d="M1154.14,161.55c.07.02.14.07.18.14l-.06.13c-.03-.05-.08-.09-.13-.11-.11-.03-.18.04-.21.21l-.02.16.3.08-.02.16-.3-.08-.17,1.21-.13-.04.17-1.21-.18-.05.02-.16.18.05.02-.17c.03-.24.16-.38.35-.32ZM1154.58,161.69l-.27,1.93-.13-.04.27-1.93.13.04Z"/><path class="cls-19" d="M1154.67,163.01c.06-.41.31-.63.59-.56s.45.43.4.83-.31.64-.59.56-.46-.43-.4-.83ZM1155.53,163.25c.04-.32-.08-.58-.29-.63-.21-.06-.39.11-.44.43s.08.58.29.63c.21.06.39-.11.44-.43Z"/><path class="cls-19" d="M1157.43,163.07l-.56,1.26-.12-.03-.15-1.21-.47,1.04-.12-.03-.17-1.47.13.04.14,1.25.48-1.07.11.03.15,1.25.47-1.08.12.03Z"/><path class="cls-19" d="M1103.54,132.84l-.7-.62c-.1.26-.04.54.15.7.1.09.22.12.33.07l.02.16c-.13.06-.28.02-.41-.09-.26-.23-.33-.64-.17-.99s.44-.44.68-.23c.24.21.3.61.14.96,0,.01-.02.03-.02.05ZM1102.89,132.1l.6.53c.09-.24.04-.51-.12-.66-.16-.14-.36-.09-.47.13Z"/><path class="cls-19" d="M1105.23,134.13l-.31.68-.11-.1.3-.67c.11-.25.08-.45-.07-.59-.17-.15-.35-.09-.47.18l-.28.62-.11-.1.3-.67c.11-.25.08-.46-.07-.59-.17-.15-.35-.09-.47.18l-.28.62-.11-.1.53-1.18.11.1-.1.22c.12-.09.27-.08.41.05.14.12.21.3.19.51.13-.1.29-.09.44.05.2.18.26.47.11.8Z"/><path class="cls-19" d="M1106.21,135.2l-.7-.62c-.1.26-.04.54.15.7.1.09.22.12.33.07l.02.16c-.13.06-.28.02-.41-.09-.26-.23-.33-.64-.17-.99s.44-.44.68-.23c.24.21.3.6.14.96,0,.01-.02.03-.03.05ZM1105.56,134.46l.6.53c.09-.24.04-.51-.12-.66-.16-.14-.36-.09-.47.13Z"/><path class="cls-19" d="M1107.16,135.13l-.07.15s-.02-.02-.03-.03c-.18-.16-.35-.09-.48.18l-.27.6-.11-.1.53-1.18.11.1-.1.23c.12-.11.27-.1.42.04Z"/><path class="cls-19" d="M1108.13,136l-.47,1.04c-.18.41-.41.46-.69.22-.15-.14-.27-.33-.31-.53l.11-.07c.04.17.13.34.26.45.21.19.37.14.5-.15l.07-.15c-.14.09-.29.06-.43-.06-.24-.21-.32-.61-.16-.95.15-.34.44-.41.68-.2.14.12.23.31.23.53l.1-.23.11.1ZM1107.77,136.47c.12-.26.06-.55-.13-.71-.19-.16-.4-.11-.51.15-.11.26-.06.55.12.71.19.16.4.11.51-.15Z"/><path class="cls-19" d="M1108.89,137.57l-.7-.62c-.1.26-.04.54.15.7.1.09.22.12.33.07l.02.16c-.13.06-.28.02-.41-.09-.26-.23-.33-.64-.17-.99s.44-.44.68-.23.3.6.14.96c0,.01-.02.03-.02.05ZM1108.24,136.83l.6.53c.09-.24.04-.51-.12-.66-.16-.14-.36-.09-.47.13Z"/><path class="cls-19" d="M1109.96,138.32l-.31.68-.11-.1.3-.67c.11-.25.08-.46-.08-.6-.18-.16-.36-.1-.49.17l-.28.62-.11-.1.53-1.18.11.1-.1.22c.13-.09.28-.07.42.06.2.18.27.47.12.81Z"/><path class="cls-19" d="M1110.15,138.61c.16-.35.45-.44.7-.21.14.13.23.31.23.52h-.12c0-.16-.07-.3-.17-.39-.18-.16-.4-.1-.52.18-.12.28-.07.58.11.74.1.09.21.11.32.04l.05.16c-.14.09-.29.07-.44-.06-.25-.22-.32-.63-.16-.98Z"/><path class="cls-19" d="M1112.09,139.51l-1.01.95c-.17.17-.3.16-.42.06-.08-.07-.14-.17-.16-.29l.11-.07c.02.1.05.17.11.23.08.07.15.06.26-.04l.09-.08.15-1.51.12.1-.13,1.28.77-.72.11.1Z"/><path class="cls-19" d="M1113.1,140.39l-.07.15s-.02-.02-.03-.03c-.18-.16-.35-.09-.48.18l-.27.6-.11-.1.53-1.18.11.1-.1.23c.12-.11.27-.1.42.04Z"/><path class="cls-19" d="M1113.74,141.86l-.7-.62c-.1.26-.04.54.15.7.1.09.22.12.33.07l.02.16c-.13.06-.28.02-.41-.09-.26-.23-.33-.64-.17-.99s.44-.44.68-.23c.24.21.3.61.14.96,0,.01-.02.03-.02.05ZM1113.09,141.12l.6.53c.09-.24.04-.51-.12-.66-.16-.14-.36-.09-.47.13Z"/><path class="cls-19" d="M1113.67,142.37l.11-.08c.03.13.12.29.24.4.16.14.26.12.31,0,.14-.31-.52-.55-.31-1.01.09-.19.27-.23.48-.04.11.1.21.24.25.37l-.11.08c-.04-.14-.12-.24-.2-.32-.15-.13-.26-.11-.31,0-.14.32.51.56.31,1.01-.09.2-.28.22-.5.03-.14-.12-.25-.31-.28-.45Z"/><path class="cls-19" d="M1115.49,143.4l-.7-.62c-.1.26-.04.54.15.7.1.09.22.12.33.07l.02.16c-.13.06-.28.02-.41-.09-.26-.23-.33-.64-.17-.99s.44-.44.68-.23c.24.21.3.6.14.96,0,.01-.02.03-.02.05ZM1114.84,142.66l.6.53c.09-.24.04-.51-.12-.66-.16-.14-.36-.09-.47.13Z"/><path class="cls-19" d="M1116.44,143.34l-.07.15s-.02-.02-.03-.03c-.18-.16-.35-.09-.48.18l-.27.6-.11-.1.53-1.18.11.1-.1.23c.12-.11.27-.1.42.04Z"/><path class="cls-19" d="M1117.38,144.19l-.9.85-.12-.1.16-1.51.12.1-.14,1.28.77-.72.11.1Z"/><path class="cls-19" d="M1117.96,145.59l-.7-.62c-.1.26-.04.54.15.7.1.09.22.12.33.07l.02.16c-.13.06-.28.02-.41-.09-.26-.23-.33-.64-.17-.99s.44-.44.68-.23.3.6.14.96c0,.01-.02.03-.02.05ZM1117.31,144.85l.6.53c.09-.24.04-.51-.12-.66-.16-.14-.36-.09-.47.13Z"/><path class="cls-19" d="M1148.25,156.86c-.06.41-.31.64-.58.56-.16-.04-.28-.18-.33-.39l-.04.27-.13-.04.27-1.93.13.04-.12.82c.11-.15.25-.21.41-.17.28.08.45.42.39.83ZM1148.11,156.82c.04-.32-.08-.58-.29-.63-.21-.06-.39.11-.44.43-.04.32.08.58.29.63.21.06.39-.11.44-.43Z"/><path class="cls-19" d="M1149.36,157.23l-.82-.23c-.03.29.1.52.32.58.12.03.23,0,.32-.1l.06.14c-.11.12-.25.16-.41.12-.3-.08-.47-.43-.41-.84.06-.41.3-.64.58-.56.27.08.43.42.37.83,0,.02,0,.04,0,.06ZM1148.56,156.87l.69.19c.02-.27-.09-.5-.28-.55s-.36.1-.41.36Z"/><path class="cls-19" d="M1150.55,157.39l-.11.79-.13-.04.11-.77c.04-.29-.05-.47-.23-.52-.21-.06-.37.09-.41.4l-.1.72-.13-.04.19-1.37.13.04-.04.25c.09-.15.24-.21.41-.16.24.07.37.3.32.7Z"/><path class="cls-19" d="M1151.74,157.89l-.82-.23c-.03.29.1.52.32.58.12.03.23,0,.32-.1l.06.14c-.11.12-.25.16-.41.12-.3-.08-.47-.43-.41-.84.06-.41.3-.64.57-.56s.43.42.37.83c0,.02,0,.04,0,.06ZM1150.94,157.53l.69.19c.02-.27-.09-.5-.28-.55-.19-.05-.36.1-.41.36Z"/><path class="cls-19" d="M1152.51,156.74c.07.02.14.07.18.14l-.06.13c-.03-.05-.08-.09-.13-.11-.11-.03-.18.04-.21.21l-.02.16.3.08-.02.16-.3-.08-.17,1.21-.13-.04.17-1.21-.17-.05.02-.16.17.05.02-.17c.03-.24.16-.38.35-.32ZM1152.89,157.44l.13.04-.19,1.37-.13-.04.19-1.37ZM1153.12,157.05c-.01.08-.06.12-.12.11-.05-.01-.09-.09-.08-.16,0-.07.06-.12.11-.1s.09.08.08.15Z"/><path class="cls-19" d="M1153.2,158.24c.06-.41.31-.63.6-.55.17.05.29.17.34.38l-.11.07c-.05-.16-.14-.25-.25-.28-.21-.06-.4.11-.44.43-.05.32.08.58.29.64.11.03.23,0,.31-.12l.09.12c-.1.16-.26.21-.42.17-.29-.08-.46-.43-.4-.84Z"/><path class="cls-19" d="M1154.44,157.87l.13.04-.19,1.37-.13-.04.19-1.37ZM1154.47,157.43c0-.07.06-.12.11-.1s.09.08.08.15c-.01.08-.06.12-.12.11-.05-.01-.09-.09-.08-.16Z"/><path class="cls-19" d="M1155.6,158.73l-.12.85-.13-.04.03-.21c-.08.12-.21.18-.37.13-.22-.06-.33-.26-.3-.5.03-.21.15-.36.43-.28l.31.09v-.08c.04-.23-.03-.39-.21-.44-.13-.04-.25,0-.35.07l-.04-.15c.11-.09.27-.12.42-.08.25.07.37.29.32.64ZM1155.4,159.13l.03-.22-.31-.08c-.19-.05-.26.04-.28.17-.02.16.05.28.21.33.15.04.27-.03.35-.19Z"/><path class="cls-19" d="M1156.52,158.44l-.03.18s-.02,0-.03-.01c-.2-.06-.35.09-.4.41l-.1.7-.13-.04.19-1.37.13.04-.04.27c.09-.17.22-.23.4-.18Z"/><path class="cls-19" d="M1156.76,158.52l.13.04-.19,1.37-.13-.04.19-1.37ZM1156.79,158.08c0-.07.06-.12.12-.1.05.02.09.08.08.15-.01.07-.06.12-.12.11-.05-.01-.09-.09-.08-.16Z"/><path class="cls-19" d="M1158,159.63l-.82-.23c-.03.29.1.52.32.58.12.03.23,0,.32-.1l.06.14c-.11.12-.25.16-.41.12-.3-.08-.47-.43-.41-.84.06-.41.3-.64.57-.56s.43.42.37.83c0,.02,0,.04,0,.06ZM1157.21,159.27l.69.19c.02-.27-.09-.5-.28-.55-.19-.05-.36.1-.41.36Z"/><path class="cls-19" d="M1158.07,160.14l.08-.13c.07.11.19.21.32.25.19.05.27-.02.29-.15.05-.36-.62-.25-.54-.79.03-.22.19-.35.44-.28.13.04.26.12.33.22l-.08.13c-.07-.11-.17-.17-.27-.2-.18-.05-.27.03-.29.15-.05.37.62.27.55.79-.03.24-.21.35-.46.28-.16-.04-.31-.16-.37-.28Z"/><path class="cls-19" d="M1105.25,127.85l.11.1-.75,1.66-.11-.1.75-1.66Z"/><path class="cls-19" d="M1105.12,129.23c.16-.35.45-.44.7-.22.25.22.31.63.16.98s-.45.44-.7.22c-.25-.22-.32-.63-.16-.98ZM1105.86,129.89c.12-.28.07-.58-.1-.73-.18-.16-.4-.09-.52.18-.12.28-.07.58.11.74.18.16.39.09.52-.18Z"/><path class="cls-19" d="M1106.12,130.12c.16-.35.45-.44.7-.22.25.22.31.63.16.98s-.45.44-.7.22c-.25-.22-.32-.63-.16-.98ZM1106.86,130.77c.12-.28.07-.58-.1-.73-.18-.16-.4-.09-.52.18-.12.28-.07.58.11.74.18.16.39.09.52-.18Z"/><path class="cls-19" d="M1107.52,131.35l-.31.08-.15.34-.11-.1.75-1.66.11.1-.51,1.13.79-.2.14.12-.58.16.08,1.04-.14-.12-.07-.89Z"/><path class="cls-19" d="M1109.44,133.06c-.16.36-.45.44-.69.23-.14-.12-.22-.31-.22-.53l-.1.23-.11-.1.75-1.66.11.1-.32.71c.14-.09.29-.07.42.05.24.21.31.61.15.97ZM1109.33,132.95c.12-.28.07-.58-.11-.74-.18-.16-.4-.09-.52.18-.12.28-.07.58.11.74.18.16.4.09.52-.18Z"/><path class="cls-19" d="M1110.37,133.68l-.33.73-.11-.1.08-.18c-.11.08-.24.06-.38-.06-.19-.17-.25-.41-.15-.61.08-.18.23-.26.48-.05l.27.24.03-.07c.09-.2.06-.38-.1-.52-.11-.1-.24-.13-.34-.11v-.16c.13-.03.28.03.42.14.22.19.27.45.13.76ZM1110.09,133.95l.09-.19-.26-.23c-.16-.14-.26-.1-.31.02-.06.14-.02.29.11.41.13.11.26.11.38,0Z"/><path class="cls-19" d="M1110.53,134.02c.16-.35.45-.44.7-.22.14.13.23.31.23.52h-.12c0-.16-.07-.3-.17-.39-.18-.16-.4-.1-.53.18-.12.28-.07.58.11.74.1.09.21.11.32.04l.05.16c-.14.09-.29.07-.43-.06-.25-.22-.32-.63-.16-.98Z"/><path class="cls-19" d="M1111.82,135.15l-.31.08-.15.34-.11-.1.75-1.66.11.1-.51,1.13.79-.2.14.12-.58.16.08,1.04-.14-.12-.07-.89Z"/><path class="cls-19" d="M1112.37,136.31s-.04.06-.08.11l-.21.25-.08-.07.2-.28s-.03-.11,0-.17c.03-.07.09-.09.14-.05.05.04.06.13.03.2Z"/><path class="cls-19" d="M1113.73,135.34l.11.1-.75,1.66-.11-.1.75-1.66Z"/><path class="cls-19" d="M1113.59,136.72c.16-.35.45-.44.7-.22.25.22.32.63.16.98s-.45.44-.7.22c-.25-.22-.32-.63-.16-.98ZM1114.33,137.37c.12-.28.08-.58-.1-.73-.18-.16-.4-.09-.52.18-.12.28-.07.58.11.74.18.16.39.09.52-.18Z"/><path class="cls-19" d="M1114.59,137.61c.16-.35.45-.44.7-.22.25.22.32.63.16.98s-.45.44-.7.22c-.25-.22-.32-.63-.16-.98ZM1115.33,138.26c.12-.28.07-.58-.11-.73-.18-.16-.4-.09-.52.18-.12.28-.07.58.11.74.18.16.39.09.52-.18Z"/><path class="cls-19" d="M1115.99,138.84l-.31.08-.15.34-.11-.1.75-1.66.11.1-.51,1.13.79-.2.14.12-.58.16.08,1.04-.14-.12-.07-.89Z"/><path class="cls-19" d="M1117.52,139.18l-.06.14.26.23-.06.13-.26-.23-.47,1.04-.11-.1.47-1.04-.15-.13.06-.13.15.13.07-.15c.09-.21.25-.27.41-.12.06.05.12.14.13.22l-.09.08c-.01-.07-.05-.13-.1-.17-.1-.09-.18-.06-.25.09Z"/><path class="cls-19" d="M1117.5,140.18c.16-.35.45-.44.7-.22.25.22.32.63.16.98s-.45.44-.7.22c-.25-.22-.32-.63-.16-.98ZM1118.24,140.83c.12-.28.08-.58-.1-.73-.18-.16-.4-.09-.52.18-.12.28-.07.58.11.74.18.16.39.09.52-.18Z"/><path class="cls-19" d="M1119.28,140.92l-.07.15s-.02-.02-.03-.03c-.18-.16-.35-.09-.48.18l-.27.6-.11-.1.53-1.18.11.1-.1.23c.12-.11.27-.1.42.04Z"/><path class="cls-19" d="M1120.76,142.23l-.85.9-.11-.1.17-1.2-.7.73-.11-.09.21-1.46.11.1-.19,1.23.72-.76.1.09-.18,1.24.72-.77.1.09Z"/><path class="cls-19" d="M1121.34,143.37l-.33.73-.11-.1.08-.18c-.11.08-.24.06-.38-.06-.19-.17-.24-.41-.15-.61.08-.18.23-.26.47-.05l.27.24.03-.07c.09-.2.06-.38-.1-.52-.11-.1-.24-.13-.34-.11v-.16c.13-.03.28.03.42.14.22.19.27.45.14.76ZM1121.05,143.65l.09-.19-.26-.23c-.16-.14-.26-.1-.31.02-.06.14-.02.29.11.41.13.11.26.11.38,0Z"/><path class="cls-19" d="M1122.28,143.56l-.07.15s-.02-.02-.03-.03c-.18-.16-.35-.09-.48.18l-.27.6-.11-.1.53-1.18.11.1-.1.23c.12-.11.27-.1.42.04Z"/><path class="cls-19" d="M1123.45,143.94l-.75,1.66-.11-.1.1-.23c-.14.1-.29.08-.43-.04-.24-.21-.31-.61-.15-.97.16-.36.45-.44.69-.23.13.12.21.3.22.52l.32-.71.11.1ZM1122.86,144.92c.12-.28.07-.58-.1-.73-.18-.16-.4-.09-.52.18-.12.28-.07.58.11.74.18.16.39.09.52-.18Z"/><path class="cls-19" d="M1150.61,166.74c-.06.05-.14.06-.22.04-.18-.05-.26-.22-.23-.48l.12-.83-.18-.05.02-.16.18.05.04-.3.13.04-.04.3.3.08-.02.16-.3-.08-.12.82c-.02.16.02.27.13.3.05.01.11,0,.16-.03l.03.15Z"/><path class="cls-19" d="M1151.69,166.25l-.12.85-.13-.04.03-.21c-.08.12-.21.18-.37.13-.22-.06-.33-.26-.3-.5.03-.21.15-.36.43-.28l.31.09v-.08c.04-.23-.03-.39-.21-.44-.13-.04-.25,0-.35.07l-.04-.15c.12-.09.27-.12.42-.08.25.07.37.29.32.64ZM1151.5,166.65l.03-.22-.31-.08c-.19-.05-.27.04-.29.17-.02.16.06.28.21.33.15.04.27-.03.35-.19Z"/><path class="cls-19" d="M1152.55,167.37l-.23-.66-.39.49-.15-.04.49-.59-.27-.77.15.04.22.62.37-.45.14.04-.46.56.29.81-.15-.04Z"/><path class="cls-19" d="M1153.82,167.07l-.82-.23c-.02.29.1.52.32.58.12.03.23,0,.32-.1l.06.14c-.11.12-.25.16-.41.12-.3-.08-.47-.43-.41-.84.06-.4.3-.64.57-.56.27.08.43.41.38.82,0,.02,0,.04-.01.06ZM1153.03,166.7l.69.19c.02-.27-.09-.5-.28-.55-.19-.05-.35.1-.41.36Z"/><path class="cls-19" d="M1153.89,167.58l.08-.13c.07.11.19.21.33.25.18.05.27-.02.29-.15.05-.36-.62-.25-.54-.79.03-.22.19-.35.44-.28.13.03.26.12.33.22l-.08.13c-.07-.11-.17-.17-.27-.2-.18-.05-.27.03-.29.16-.05.37.62.27.54.79-.03.24-.2.35-.46.28-.16-.04-.31-.16-.37-.28Z"/><path class="cls-19" d="M1126.91,106.87l.1.09.69-1.53-.1-.09.25-.56.62.55-.1.23c.07-.04.15-.06.24-.06.08,0,.17.03.24.1.16.14.23.33.23.57,0,.24-.07.52-.21.84-.14.32-.29.53-.45.63-.16.1-.31.09-.47-.05-.08-.07-.13-.16-.17-.27-.04-.11-.05-.22-.06-.32l-.19.43.16.14-.25.56-.78-.69.25-.56ZM1128.13,106.82s.07-.06.11-.14l.15-.34c.03-.08.05-.14.04-.19,0-.05-.03-.1-.08-.14-.04-.04-.09-.05-.12-.04-.04.02-.07.06-.11.14l-.15.34c-.03.07-.05.14-.04.19,0,.05.03.1.08.14.04.04.08.05.12.03Z"/><path class="cls-19" d="M1130.44,107.02s.04.07.05.1l-.29.65c-.04-.09-.1-.17-.17-.24-.1-.08-.19-.11-.27-.08-.08.03-.16.12-.23.27l-.13.3.21.18-.25.56-.83-.73.25-.56.1.09.35-.78-.1-.09.25-.56.63.55-.11.25c.09-.06.17-.09.25-.09s.16.03.23.1c.03.03.06.06.08.09Z"/><path class="cls-19" d="M1129.98,109.02c-.04-.28,0-.58.15-.9.15-.32.32-.52.52-.58.2-.06.41,0,.62.19.22.19.35.43.39.71.04.28,0,.58-.15.9-.15.32-.32.52-.52.58-.2.06-.41,0-.62-.19s-.35-.42-.39-.7ZM1130.77,109.15s.07-.06.11-.14l.15-.34c.03-.08.05-.14.04-.19s-.03-.1-.08-.14-.08-.05-.12-.04c-.04.02-.07.06-.11.14l-.15.34c-.03.08-.05.14-.04.19,0,.05.03.1.08.14s.09.05.12.04Z"/><path class="cls-19" d="M1131.41,110.4c-.03-.19.02-.42.14-.7l.28-.62-.1-.09.25-.56c.06.05.11.07.16.05s.09-.07.12-.14l.07-.15.48.43-.18.4.31.27-.25.56-.31-.27-.25.56c-.03.08-.05.14-.04.19,0,.05.03.1.08.14.06.05.12.1.2.14l-.24.53c-.05-.01-.12-.04-.21-.08-.08-.04-.16-.1-.24-.16-.16-.14-.26-.31-.29-.5Z"/><path class="cls-19" d="M1132.45,111.21c-.04-.28,0-.58.15-.9.15-.32.32-.52.51-.58.2-.06.41,0,.62.19.21.19.33.41.35.66.02.25-.03.5-.14.75l-.11.25-.74-.65v.02c-.05.08-.06.16-.04.23.01.07.06.14.14.21.09.08.18.15.28.2.09.05.18.09.25.12l-.25.54c-.07,0-.17-.03-.29-.09-.12-.06-.24-.14-.36-.24-.22-.19-.35-.42-.39-.7ZM1133.54,110.78l.02-.04c.03-.08.05-.14.04-.2,0-.05-.03-.1-.08-.14-.04-.04-.08-.05-.12-.04-.04.02-.07.06-.11.14l-.02.04.26.23Z"/><path class="cls-19" d="M1133.8,112.41c-.04-.28,0-.58.15-.9.15-.32.32-.52.51-.58.2-.06.41,0,.62.19.11.09.2.2.27.33.08.13.13.24.16.34l-.3.67-.39-.35.03-.06c.03-.08.05-.14.04-.19,0-.05-.03-.1-.08-.14-.09-.08-.17-.04-.23.1l-.13.29c-.08.18-.05.33.08.45.13.11.28.22.47.33l-.24.53c-.07-.01-.15-.05-.26-.1-.11-.06-.21-.13-.31-.22-.22-.19-.35-.43-.4-.7Z"/><path class="cls-19" d="M1135.08,113.64c-.03-.19.02-.42.14-.7l.28-.62-.1-.09.25-.56c.06.05.11.07.16.05s.09-.07.12-.14l.07-.15.48.43-.18.4.31.27-.25.56-.31-.27-.25.56c-.03.07-.05.14-.04.19,0,.05.03.1.08.14.06.05.12.1.2.14l-.24.53c-.05-.01-.12-.04-.21-.08s-.16-.1-.23-.16c-.16-.14-.26-.31-.29-.5Z"/><path class="cls-19" d="M1146.91,120.93c-.11-.06-.2-.11-.26-.17l.09-.65c.18.1.34.17.49.22.1.03.18.02.23,0,.05-.03.09-.11.11-.24l.02-.17c-.06.07-.12.13-.2.18-.08.05-.16.06-.25.03-.18-.05-.3-.19-.36-.41-.06-.23-.07-.52-.01-.89.05-.37.14-.64.26-.81.12-.18.27-.24.45-.19.09.02.17.08.23.17.06.08.11.18.14.27l.04-.27.72.2-.09.65-.12-.03-.2,1.39c-.05.38-.16.64-.31.78s-.35.17-.61.1c-.13-.04-.25-.08-.36-.14ZM1147.62,119.46s.05-.09.07-.18l.06-.39c.01-.09,0-.15-.01-.2-.02-.05-.05-.08-.11-.09-.05-.01-.09,0-.12.03-.03.03-.05.09-.07.18l-.06.4c-.01.09,0,.15.01.2.02.05.05.08.11.09.05.01.09,0,.12-.03Z"/><path class="cls-19" d="M1149.91,118.51s.05.04.08.06l-.11.75c-.07-.06-.14-.11-.22-.13-.11-.03-.2-.01-.28.06-.07.07-.12.19-.15.36l-.05.34.24.07-.09.65-.96-.27.09-.65.12.03.13-.9-.12-.03.09-.65.73.2-.04.29c.07-.1.13-.17.21-.21.07-.04.15-.05.24-.02.04,0,.07.02.1.04Z"/><path class="cls-19" d="M1149.99,120.6c-.11-.24-.14-.54-.09-.92.05-.38.16-.64.33-.8.17-.16.38-.2.63-.13.25.07.44.23.55.46.11.24.14.54.09.91-.05.38-.17.64-.33.8s-.38.2-.63.13-.43-.22-.55-.46ZM1150.76,120.33s.05-.09.07-.18l.06-.39c.01-.09,0-.15-.01-.2-.02-.05-.05-.08-.11-.09-.05-.01-.09,0-.12.03s-.05.09-.07.18l-.06.4c-.01.09,0,.15.01.2s.06.08.11.09c.05.01.09,0,.12-.03Z"/><path class="cls-19" d="M1151.87,121.38l-.13-1.64-.11-.03.09-.65.82.23-.09.65-.11-.03v.64s.04,0,.04,0l.37-1.21.49.14v1.32s.04,0,.04,0l.18-.59-.11-.03.09-.65.77.21-.09.65-.11-.03-.56,1.45-.64-.18v-1.14s-.02,0-.02,0l-.3,1.06-.61-.17Z"/><path class="cls-19" d="M1109.44,127.58l-.25.56-.67-.59.12-.27c-.21.1-.4.08-.58-.07-.13-.12-.21-.27-.22-.44-.01-.18.03-.37.12-.58l.32-.72-.11-.09.25-.56.67.59-.5,1.12c-.03.07-.05.14-.04.2,0,.06.04.1.08.15s.09.06.13.04c.04-.01.08-.06.11-.13l.25-.56-.13-.12.25-.56.69.61-.6,1.33.11.09Z"/><path class="cls-19" d="M1111.12,129.06l-.25.56-.77-.68.25-.56.1.09.25-.56c.03-.08.05-.14.04-.2,0-.06-.03-.1-.08-.14-.1-.09-.18-.06-.25.09l-.25.56.1.09-.25.56-.77-.68.25-.56.11.09.35-.78-.11-.09.25-.56.67.59-.12.27c.21-.11.4-.08.58.07.13.12.21.27.22.44.01.18-.03.37-.12.58l-.32.72.11.09Z"/><path class="cls-19" d="M1111.15,129.57c0-.25.06-.53.21-.85.14-.32.29-.53.46-.62.16-.1.32-.07.49.07.08.07.14.17.18.28.04.11.06.22.07.33l.19-.43-.14-.13.25-.56.7.62-.94,2.09.11.09-.25.56-.67-.59.1-.23c-.07.04-.15.06-.24.06-.09,0-.17-.04-.26-.11-.17-.15-.25-.34-.26-.59ZM1112.04,129.8s.08-.06.11-.13l.15-.34c.03-.08.05-.14.04-.2,0-.06-.03-.1-.08-.15-.05-.04-.09-.05-.13-.04-.04.02-.08.06-.11.13l-.15.34c-.03.07-.05.14-.04.2,0,.06.04.11.08.15.05.04.09.06.13.04Z"/><path class="cls-19" d="M1112.82,131.06c-.05-.28,0-.59.14-.91.15-.32.32-.51.53-.57.21-.05.42.02.65.22.23.2.36.43.38.69.03.26-.02.51-.13.75l-.11.25-.79-.7v.02c-.05.08-.06.16-.04.23.02.07.07.14.15.22.1.09.2.16.29.22.1.06.19.1.27.13l-.25.54c-.08,0-.18-.04-.3-.1-.12-.06-.25-.15-.38-.26-.23-.2-.37-.45-.43-.73ZM1113.95,130.67l.02-.04c.03-.08.05-.14.04-.2,0-.06-.04-.1-.08-.15-.05-.04-.09-.05-.13-.04-.04.02-.08.06-.11.13l-.02.04.28.25Z"/><path class="cls-19" d="M1115.99,131.45s.04.07.06.1l-.29.65c-.05-.1-.11-.18-.19-.25-.1-.09-.2-.12-.29-.1-.09.03-.17.11-.23.26l-.13.3.22.19-.25.56-.88-.78.25-.56.11.09.35-.78-.11-.09.25-.56.67.59-.11.25c.09-.06.17-.08.25-.08s.16.04.25.11c.03.03.06.06.09.1Z"/><path class="cls-19" d="M1115.31,133.42l.23-.5.39.35-.02.03c-.05.11-.02.21.08.29.09.08.15.07.19,0,.02-.05.02-.09,0-.14-.02-.04-.05-.1-.11-.18l-.11-.14c-.23-.29-.26-.6-.11-.94.09-.2.21-.3.37-.32.16-.01.33.06.51.22.2.18.35.38.45.6l-.21.47-.37-.33.02-.03s.02-.09.01-.13c-.01-.04-.04-.08-.08-.12-.08-.07-.14-.07-.17,0-.02.04-.02.08,0,.12.01.04.05.1.1.17l.12.16c.13.17.2.33.21.49.01.16-.01.32-.09.48-.09.21-.22.32-.37.34-.15.02-.32-.06-.51-.22-.2-.18-.38-.4-.53-.66Z"/><path class="cls-19" d="M1116.8,134.69c-.03-.19.01-.43.14-.71l.28-.62-.11-.09.25-.56c.06.05.12.07.17.06.05-.02.09-.06.13-.14l.07-.15.52.46-.18.4.33.29-.25.56-.33-.29-.25.56c-.03.07-.05.14-.04.2,0,.06.04.1.08.15.06.05.13.1.21.15l-.24.53c-.06-.02-.13-.05-.22-.09-.08-.05-.17-.1-.25-.17-.17-.15-.28-.32-.31-.52Z"/><path class="cls-19" d="M1119.29,136.29l-.25.56-.64-.57.1-.23c-.07.04-.15.06-.24.06s-.18-.04-.27-.12c-.12-.11-.2-.24-.23-.39-.03-.15,0-.31.07-.48.19-.43.55-.42,1.08.03.03-.08.03-.15,0-.21-.02-.06-.08-.13-.17-.21-.07-.06-.16-.12-.25-.17-.09-.05-.18-.09-.27-.12l.28-.63c.1.05.2.1.31.18.11.07.21.15.31.23.24.21.39.43.43.64.05.21.01.45-.1.71l-.28.63.11.09ZM1118.76,135.48c-.07-.06-.14-.1-.19-.11-.05,0-.09.02-.12.08-.02.04-.02.08-.02.12,0,.04.02.07.05.1.04.04.09.04.13.01s.09-.09.13-.18v-.02Z"/><path class="cls-19" d="M1120.98,137.78l-.25.56-.77-.68.25-.56.1.09.25-.56c.03-.08.05-.14.04-.2,0-.06-.03-.1-.08-.14-.1-.09-.18-.06-.24.09l-.25.56.1.09-.25.56-.77-.68.25-.56.11.09.35-.78-.11-.09.25-.56.67.59-.12.27c.21-.11.4-.08.58.07.13.12.21.27.22.44.01.18-.03.37-.12.58l-.32.72.11.09Z"/><path class="cls-19" d="M1121.01,138.29c0-.25.06-.53.21-.85.14-.32.29-.53.46-.62.16-.1.32-.08.49.07.08.07.14.17.18.28.04.11.06.22.07.33l.19-.43-.14-.13.25-.56.7.62-.94,2.09.11.09-.25.56-.67-.59.1-.23c-.07.04-.15.06-.24.06-.09,0-.17-.04-.26-.11-.17-.15-.25-.34-.26-.59ZM1121.9,138.52s.08-.06.11-.13l.15-.34c.03-.08.05-.14.04-.2,0-.06-.03-.1-.08-.15s-.09-.06-.13-.04-.08.06-.11.13l-.15.34c-.03.07-.05.14-.04.2,0,.06.04.1.08.15s.09.05.13.04Z"/><path class="cls-19" d="M1150.21,152.18l-.09.65-.74-.21.04-.27c-.05.07-.12.13-.21.18-.08.04-.18.05-.29.02-.14-.04-.24-.12-.31-.25-.07-.13-.09-.29-.06-.48.07-.5.41-.67,1.01-.51,0-.09,0-.16-.05-.2s-.11-.08-.21-.11c-.08-.02-.18-.04-.28-.04-.1,0-.19,0-.28.03l.1-.73c.11,0,.21,0,.34,0,.12.01.23.03.34.06.28.08.47.2.57.38.1.18.13.41.09.71l-.1.73.12.03ZM1149.5,151.69c-.08-.02-.15-.03-.2,0-.05.02-.08.07-.09.14,0,.04,0,.08.01.12.02.03.04.05.08.06.05.01.09,0,.13-.06.03-.05.06-.13.07-.23v-.02Z"/><path class="cls-19" d="M1150.45,152.67c-.12-.24-.16-.54-.1-.92.05-.38.17-.64.35-.8s.4-.19.67-.12c.13.04.25.1.36.18.11.08.2.17.25.25l-.11.78-.48-.13v-.07c.02-.09.02-.15,0-.2s-.06-.08-.12-.1c-.11-.03-.18.04-.2.21l-.05.34c-.03.21.04.33.21.38.16.04.34.07.55.08l-.09.62c-.07.02-.16.03-.28.03-.12,0-.24-.02-.37-.05-.27-.08-.46-.23-.59-.47Z"/><path class="cls-19" d="M1152.05,153.21c-.08-.16-.1-.41-.05-.73l.1-.71-.12-.03.09-.65c.07.02.13,0,.17-.03.04-.04.07-.11.08-.2l.03-.18.6.17-.07.47.38.11-.09.65-.38-.11-.09.65c-.01.09,0,.16.02.2.02.05.06.08.11.1.07.02.15.03.24.03l-.09.62c-.06.01-.13.02-.22.02s-.18-.01-.28-.04c-.2-.06-.34-.16-.42-.33Z"/><path class="cls-19" d="M1153.06,153.64l.09-.65.12.04.13-.9-.12-.04.09-.65.77.21-.22,1.55.12.03-.09.65-.9-.25ZM1153.54,151.27l.09-.66.57.16-.09.66-.57-.16Z"/><path class="cls-19" d="M1154.28,153.73c-.12-.24-.16-.54-.1-.92.05-.38.17-.64.35-.8s.4-.19.67-.12c.27.08.47.23.59.47s.15.55.1.92c-.05.38-.17.64-.35.8-.18.15-.4.19-.67.12s-.46-.23-.58-.47ZM1155.09,153.47s.06-.09.07-.18l.06-.39c.01-.09,0-.15-.02-.2-.02-.05-.06-.08-.11-.09-.05-.02-.1,0-.13.03-.03.03-.06.09-.07.18l-.06.4c-.01.09,0,.16.01.2.02.05.06.08.11.1.05.01.1,0,.13-.03Z"/><path class="cls-19" d="M1157.78,154.28l-.09.65-.89-.25.09-.65.12.03.09-.65c.01-.09,0-.15-.01-.2-.02-.05-.06-.08-.11-.09-.11-.03-.18.04-.21.21l-.09.65.12.03-.09.65-.89-.25.09-.65.12.04.13-.9-.12-.04.09-.65.77.21-.04.31c.17-.2.36-.28.56-.22.16.04.26.15.32.3.06.16.07.36.04.6l-.12.83.12.03Z"/><path class="cls-6" d="M1142.47,91.1c-.06-.08-.11-.14-.14-.19l.17-.37c.1.13.2.23.28.31.06.05.11.08.15.08.04,0,.08-.04.11-.11l.04-.1s-.1.04-.16.04c-.06,0-.11-.02-.17-.07-.11-.1-.17-.22-.17-.39,0-.16.04-.35.13-.56.09-.21.19-.35.3-.41.11-.07.21-.05.32.05.05.05.09.11.12.18.03.07.04.15.05.22l.07-.15.44.39-.17.37-.07-.06-.36.79c-.1.22-.21.34-.33.37-.12.03-.26-.02-.41-.16-.08-.07-.15-.14-.21-.22ZM1143.17,90.45s.05-.04.07-.09l.1-.22s.03-.09.03-.13c0-.04-.02-.07-.05-.1-.03-.03-.06-.04-.08-.03s-.05.04-.07.09l-.1.22s-.03.09-.03.13c0,.04.02.07.05.1.03.03.06.04.09.03Z"/><path class="cls-6" d="M1143.68,91.27c-.04-.19,0-.39.09-.6.1-.21.21-.34.35-.37.13-.04.28.01.43.15.15.14.25.3.28.49.03.19,0,.39-.09.6-.1.21-.21.34-.35.37-.14.04-.28-.01-.43-.15-.15-.13-.24-.29-.28-.48ZM1144.22,91.38s.05-.04.07-.09l.1-.22s.03-.09.03-.13c0-.04-.02-.07-.05-.1-.03-.03-.06-.04-.08-.03-.03,0-.05.04-.07.09l-.1.22s-.03.09-.03.13c0,.04.02.07.05.1.03.03.06.04.09.03Z"/><path class="cls-6" d="M1145.61,92.65l-.17.37-.42-.37.07-.15s-.1.04-.16.04c-.06,0-.12-.03-.18-.08-.08-.07-.13-.16-.15-.26-.02-.1,0-.21.05-.31.13-.28.36-.28.71.02.02-.05.02-.1,0-.14-.02-.04-.05-.09-.11-.14-.05-.04-.1-.08-.16-.11-.06-.03-.12-.06-.18-.08l.19-.41c.07.03.13.07.21.12.07.05.14.1.2.15.16.14.25.28.29.42.03.14.01.3-.07.47l-.19.42.07.06ZM1145.26,92.12s-.09-.07-.12-.07c-.03,0-.06.01-.08.06-.01.03-.01.05,0,.08,0,.03.02.05.04.07.03.02.06.03.09,0,.03-.02.06-.06.09-.12h0Z"/><path class="cls-6" d="M1145.49,93.06l.17-.37.07.06.46-1.01-.07-.06.17-.37.44.39-.62,1.38.07.06-.17.37-.51-.45Z"/><path class="cls-6" d="M1146.08,93.5l.15-.33.26.23v.02c-.04.07-.03.14.04.19.06.05.1.05.12,0,.01-.03.01-.06,0-.09,0-.03-.03-.07-.07-.12l-.07-.09c-.15-.19-.17-.4-.07-.62.06-.13.14-.2.24-.21.1,0,.21.04.33.14.13.12.23.25.3.39l-.14.31-.24-.22v-.02s.03-.06.02-.09c0-.03-.03-.06-.05-.08-.05-.05-.09-.05-.11,0-.01.03-.01.05,0,.08,0,.03.03.06.06.11l.08.11c.08.11.13.22.14.32,0,.1,0,.21-.06.32-.06.14-.14.21-.24.22-.1.01-.21-.04-.34-.15-.13-.12-.25-.26-.35-.43Z"/><path class="cls-6" d="M1148.59,95.28l.06-.43.08.02.17-1.17-.08-.02.06-.43.51.14-.23,1.6.08.02-.06.43-.59-.16Z"/><path class="cls-6" d="M1149.41,95.34c-.08-.16-.1-.36-.07-.61s.11-.42.23-.53c.12-.1.26-.13.44-.08s.29.15.35.3c.06.15.08.32.05.51l-.03.19-.6-.17v.02c-.01.06,0,.12.02.15.02.04.07.07.13.08.08.02.15.03.22.04.07,0,.13,0,.19-.01l-.06.42s-.12.03-.2.04c-.09,0-.18,0-.28-.04-.17-.05-.3-.15-.38-.31ZM1150.03,94.73v-.03c.01-.06,0-.1,0-.14-.01-.03-.04-.05-.08-.06s-.06,0-.09.02-.04.06-.04.12v.03s.21.06.21.06Z"/><path class="cls-6" d="M1150.55,96.44c-.08-.04-.14-.08-.18-.11l.06-.43c.13.07.24.12.35.15.07.02.12.02.16,0,.04-.02.06-.07.07-.16l.02-.11s-.08.09-.14.12c-.06.03-.12.04-.18.02-.13-.04-.21-.13-.26-.28-.04-.15-.05-.34-.02-.59.03-.24.09-.42.17-.54.08-.11.19-.15.31-.12.06.02.12.06.16.11.04.06.07.12.1.18l.03-.18.51.14-.06.43-.08-.02-.13.92c-.04.25-.11.42-.21.51-.1.09-.25.11-.43.06-.09-.02-.17-.06-.25-.1ZM1151.04,95.48s.04-.06.04-.12l.04-.26c0-.06,0-.1,0-.13-.01-.03-.04-.05-.08-.06-.04,0-.06,0-.09.02-.02.02-.04.06-.04.12l-.04.26c0,.06,0,.1,0,.13.01.03.04.05.07.06.04,0,.07,0,.09-.02Z"/><path class="cls-6" d="M1152.7,95.98l-.06.43-.49-.14.03-.18s-.08.09-.13.12c-.06.03-.12.04-.19.02-.09-.03-.16-.08-.21-.16-.04-.08-.05-.19-.04-.32.05-.33.27-.44.67-.34,0-.06,0-.1-.03-.13-.03-.03-.07-.05-.14-.07-.06-.02-.12-.02-.18-.03-.07,0-.13,0-.18.02l.07-.48c.07,0,.14,0,.22,0,.08,0,.15.02.23.04.18.05.31.13.38.25.07.12.09.27.06.47l-.07.48.08.02ZM1152.24,95.66c-.05-.02-.1-.02-.13,0-.03.01-.05.04-.06.09,0,.03,0,.06,0,.08s.03.04.05.04c.03,0,.06,0,.08-.04.02-.03.04-.08.05-.15v-.02Z"/><path class="cls-6" d="M1152.86,96.3c-.08-.16-.1-.36-.07-.61s.11-.42.23-.52c.12-.1.26-.13.44-.08.08.02.17.06.24.12.07.05.13.11.17.16l-.07.51-.32-.09v-.05c.01-.06.01-.1,0-.13-.01-.03-.04-.05-.08-.06-.07-.02-.12.03-.13.14l-.03.22c-.02.13.03.22.13.25.1.03.23.05.37.05l-.06.41s-.11.02-.19.02-.16-.01-.24-.04c-.18-.05-.3-.15-.39-.31Z"/><path class="cls-6" d="M1155.06,95.58l-.06.43-.07-.02-.37.83c-.09.21-.19.36-.28.45s-.2.12-.33.08c-.05-.01-.1-.04-.15-.06-.05-.03-.1-.06-.14-.1l.07-.47.26.07v.03s0,.07.04.08c.03,0,.05,0,.07-.04l-.14-1.14-.07-.02.06-.43.55.15-.06.43-.06-.02.04.43.15-.38-.06-.02.06-.43.52.14Z"/><path class="cls-19" d="M1124.18,109.32l-.75,1.66-.11-.1.1-.23c-.14.1-.29.08-.43-.04-.24-.21-.31-.61-.15-.97.16-.36.45-.44.69-.23.13.12.21.3.21.52l.32-.71.11.1ZM1123.59,110.3c.12-.28.07-.58-.1-.73-.18-.16-.4-.09-.52.18-.12.28-.07.58.11.74.18.16.39.09.52-.18Z"/><path class="cls-19" d="M1124.73,111.37l-.7-.62c-.1.26-.04.54.15.7.1.09.22.12.33.07l.02.16c-.13.06-.28.02-.41-.09-.26-.23-.33-.64-.17-.99.16-.35.44-.44.68-.23.24.21.3.6.14.96,0,.01-.02.03-.03.05ZM1124.08,110.63l.6.53c.09-.24.04-.51-.12-.66-.16-.14-.36-.09-.47.13Z"/><path class="cls-19" d="M1125.84,112.29c-.16.36-.45.44-.69.23-.14-.12-.22-.31-.22-.53l-.1.23-.11-.1.75-1.66.11.1-.32.71c.14-.09.29-.07.42.05.24.21.31.61.15.97ZM1125.72,112.19c.12-.28.07-.58-.11-.74-.18-.16-.4-.09-.52.18-.12.28-.07.58.11.74.18.16.4.09.52-.18Z"/><path class="cls-19" d="M1126.28,113.4c-.07.02-.15-.02-.21-.07-.16-.14-.19-.34-.09-.56l.32-.71-.15-.13.06-.13.15.13.12-.26.11.1-.12.26.26.23-.06.13-.26-.23-.32.7c-.06.14-.05.26.05.34.05.04.1.06.15.05v.15Z"/><path class="cls-19" d="M1128.57,114.57l-.31.68-.11-.1.3-.67c.11-.25.08-.46-.07-.59-.17-.15-.35-.09-.47.18l-.28.62-.11-.1.3-.67c.11-.25.08-.46-.07-.59-.17-.15-.35-.09-.47.18l-.28.62-.11-.1.53-1.18.11.1-.1.22c.12-.09.27-.08.41.05.14.12.21.3.19.51.13-.1.29-.09.45.05.21.18.26.47.11.8Z"/><path class="cls-19" d="M1129.53,115.36l-.33.73-.11-.1.08-.18c-.11.08-.24.06-.38-.06-.19-.17-.25-.41-.15-.61.08-.18.23-.26.47-.05l.27.24.03-.07c.09-.2.06-.38-.1-.52-.11-.1-.24-.13-.34-.11v-.16c.13-.03.28.03.42.14.22.19.27.45.13.76ZM1129.25,115.63l.09-.19-.26-.23c-.16-.14-.26-.1-.31.02-.06.14-.02.29.11.41.13.11.26.11.38,0Z"/><path class="cls-19" d="M1130.6,116.36l-.31.68-.11-.1.3-.67c.11-.25.08-.46-.08-.6-.18-.16-.37-.1-.49.17l-.28.62-.11-.1.53-1.18.11.1-.1.22c.12-.09.28-.07.42.06.21.18.27.47.12.81Z"/><path class="cls-19" d="M1131.56,117.15l-.33.73-.11-.1.08-.18c-.1.08-.24.06-.38-.06-.19-.17-.25-.41-.15-.61.08-.18.23-.26.48-.05l.27.24.03-.07c.09-.2.06-.38-.1-.52-.11-.1-.24-.13-.34-.11v-.16c.13-.03.28.03.42.14.22.19.27.45.13.76ZM1131.28,117.43l.09-.19-.26-.23c-.16-.14-.26-.1-.31.02-.06.14-.02.29.11.41.13.11.26.11.38,0Z"/><path class="cls-19" d="M1132.85,117.67l-.47,1.04c-.18.41-.41.46-.69.22-.15-.14-.27-.33-.31-.53l.11-.07c.04.17.13.34.26.45.21.19.37.14.5-.15l.07-.15c-.14.09-.29.06-.43-.06-.24-.21-.32-.61-.16-.95s.44-.41.68-.2c.14.12.23.31.23.53l.1-.23.11.1ZM1132.49,118.13c.11-.26.06-.55-.13-.71s-.4-.11-.51.15c-.12.26-.06.55.12.71s.4.11.52-.15Z"/><path class="cls-19" d="M1133.62,119.23l-.71-.62c-.1.26-.04.54.15.7.1.09.22.12.33.07l.02.16c-.13.06-.28.02-.41-.1-.26-.23-.33-.64-.17-.99.16-.35.44-.44.68-.23s.3.6.14.96c0,.01-.02.03-.02.05ZM1132.97,118.49l.6.53c.09-.24.04-.51-.12-.66-.16-.14-.36-.09-.47.13Z"/><path class="cls-19" d="M1135.31,120.53l-.31.68-.11-.1.3-.67c.11-.25.08-.46-.07-.59-.17-.15-.35-.09-.47.18l-.28.62-.11-.1.3-.67c.11-.25.08-.46-.07-.59-.17-.15-.35-.09-.47.18l-.28.62-.11-.1.53-1.18.11.1-.1.21c.12-.09.27-.07.41.05.14.12.21.3.19.51.13-.1.29-.09.45.05.2.18.26.46.11.8Z"/><path class="cls-19" d="M1136.29,121.59l-.7-.62c-.1.26-.04.54.15.7.1.09.22.12.33.07l.02.16c-.13.06-.28.02-.41-.09-.26-.23-.33-.64-.17-.99.16-.35.44-.44.68-.23.24.21.3.6.14.96,0,.01-.02.03-.03.05ZM1135.64,120.85l.6.53c.09-.24.04-.51-.12-.66-.16-.14-.36-.09-.47.13Z"/><path class="cls-19" d="M1137.36,122.34l-.31.68-.11-.1.3-.67c.11-.25.08-.46-.08-.6-.18-.16-.36-.1-.49.17l-.28.62-.11-.1.53-1.18.11.1-.1.22c.12-.09.28-.07.42.06.21.18.27.47.12.81Z"/><path class="cls-19" d="M1137.84,123.62c-.07.02-.15-.02-.21-.07-.16-.14-.19-.34-.09-.56l.32-.71-.15-.13.06-.13.15.13.12-.26.11.1-.12.26.26.23-.06.13-.26-.23-.32.7c-.06.14-.04.26.05.34.05.04.1.06.15.05v.15Z"/><path class="cls-19" d="M1121.77,112.69l.11.1-.53,1.18-.11-.1.53-1.18ZM1121.91,112.3c.03-.06.09-.08.13-.04.05.04.06.12.03.18-.03.06-.09.09-.14.04-.05-.04-.06-.12-.03-.19Z"/><path class="cls-19" d="M1122.75,114.25l-.31.68-.11-.1.3-.67c.11-.25.08-.46-.08-.6-.18-.16-.36-.1-.49.17l-.28.62-.11-.1.53-1.18.11.1-.1.22c.12-.09.28-.07.42.06.21.18.27.47.12.81Z"/><path class="cls-19" d="M1122.7,114.97l.11-.08c.03.13.12.29.24.4.16.14.26.12.31,0,.14-.31-.52-.55-.31-1.01.09-.19.27-.23.48-.04.11.1.21.24.25.37l-.11.08c-.04-.14-.12-.24-.2-.32-.15-.13-.26-.11-.31,0-.14.32.51.56.31,1.01-.09.2-.28.22-.5.03-.14-.12-.25-.3-.28-.45Z"/><path class="cls-19" d="M1124.82,115.39l-.53,1.18-.11-.1.1-.21c-.12.09-.27.08-.4-.04-.21-.19-.28-.48-.13-.82l.31-.68.11.1-.3.67c-.11.25-.08.46.08.6.18.16.36.09.48-.17l.28-.62.11.1Z"/><path class="cls-19" d="M1125.57,116.04l-.07.15s-.02-.02-.03-.03c-.18-.16-.35-.09-.48.19l-.27.6-.11-.1.53-1.18.11.1-.1.23c.12-.11.27-.1.42.04Z"/><path class="cls-19" d="M1126.2,117.24l-.33.73-.11-.1.08-.18c-.11.08-.24.06-.38-.06-.19-.17-.25-.41-.15-.61.08-.18.23-.26.48-.05l.27.24.03-.07c.09-.2.06-.38-.1-.52-.11-.1-.24-.13-.34-.11v-.16c.13-.03.28.03.42.14.22.19.27.45.13.76ZM1125.92,117.51l.09-.19-.26-.23c-.16-.14-.26-.1-.31.02-.06.14-.02.29.11.41.13.11.26.11.38,0Z"/><path class="cls-19" d="M1127.27,118.24l-.31.68-.11-.1.3-.67c.11-.25.08-.46-.08-.6-.18-.16-.36-.1-.49.17l-.28.62-.11-.1.53-1.18.11.1-.1.22c.12-.09.28-.07.42.06.21.18.27.47.12.81Z"/><path class="cls-19" d="M1127.45,118.54c.16-.35.45-.44.7-.22.14.13.23.31.22.52h-.12c0-.16-.07-.3-.17-.39-.18-.16-.4-.1-.53.18-.12.28-.07.58.11.74.1.09.21.11.32.04l.05.16c-.14.09-.29.07-.43-.06-.25-.22-.32-.63-.16-.98Z"/><path class="cls-19" d="M1129.13,120.09l-.7-.62c-.1.26-.04.54.15.7.1.09.22.12.33.07l.02.16c-.13.06-.28.02-.41-.09-.26-.23-.33-.64-.17-.99.16-.35.44-.44.68-.23s.3.61.14.96c0,.01-.02.03-.02.05ZM1128.48,119.35l.6.53c.09-.24.04-.51-.12-.66-.16-.14-.36-.09-.47.13Z"/><path class="cls-19" d="M1129.21,120.75c.04-.08.1-.11.16-.06.06.05.07.14.03.22-.04.08-.1.11-.16.05-.06-.05-.07-.14-.03-.22ZM1129.38,120.47l.02-.06c.04-.13.13-.24.27-.3.12-.06.2-.11.25-.21.05-.11.04-.24-.06-.33-.06-.05-.13-.08-.19-.07l.03-.17c.08,0,.18.04.27.11.18.16.2.4.12.57-.07.15-.18.21-.31.27-.12.05-.19.13-.24.25l-.02.06-.12-.11Z"/><path class="cls-19" d="M1144.09,124.21l.13.04-.19,1.37-.13-.04.19-1.37ZM1144.12,123.77c0-.07.06-.12.12-.1.05.02.09.08.08.15-.01.08-.06.12-.11.11-.05-.02-.09-.09-.08-.16Z"/><path class="cls-19" d="M1145.41,125.18l-.11.79-.13-.04.11-.77c.04-.29-.05-.47-.23-.52-.21-.06-.37.09-.41.4l-.1.72-.13-.04.19-1.37.13.04-.04.25c.09-.15.24-.21.41-.16.24.07.37.3.32.7Z"/><path class="cls-19" d="M1145.85,124.7l.13.04-.19,1.37-.13-.04.19-1.37ZM1145.88,124.26c0-.07.06-.12.12-.1s.09.08.08.15c-.01.08-.06.12-.11.11-.05-.02-.09-.09-.08-.16Z"/><path class="cls-19" d="M1146.68,126.27c-.06.05-.14.06-.22.04-.18-.05-.26-.22-.23-.48l.12-.83-.17-.05.02-.16.18.05.04-.3.13.04-.04.3.3.08-.02.16-.3-.08-.12.82c-.02.16.02.27.13.3.05.02.11,0,.15-.03l.03.15Z"/><path class="cls-19" d="M1147.1,125.05l.13.04-.19,1.37-.13-.04.19-1.37ZM1147.13,124.61c0-.07.06-.12.12-.1s.09.08.08.15c0,.08-.06.12-.12.11-.05-.01-.09-.09-.08-.16Z"/><path class="cls-19" d="M1148.26,125.91l-.12.85-.12-.04.03-.21c-.08.12-.21.18-.37.13-.22-.06-.33-.26-.3-.5.03-.21.15-.36.43-.28l.31.09v-.08c.04-.23-.03-.39-.21-.44-.12-.03-.25,0-.35.07l-.04-.15c.11-.09.27-.12.42-.07.25.07.37.29.32.64ZM1148.07,126.31l.03-.22-.31-.08c-.19-.05-.26.04-.28.18-.02.16.05.28.21.33.15.04.27-.03.35-.19Z"/><path class="cls-19" d="M1148.77,124.93l.13.04-.27,1.93-.13-.04.27-1.93Z"/><path class="cls-19" d="M1149.37,126.94l.08-.13c.07.11.19.21.32.25.19.05.27-.02.29-.15.05-.36-.62-.25-.54-.79.03-.22.19-.35.44-.28.13.04.26.12.33.22l-.08.13c-.07-.11-.17-.17-.27-.2-.18-.05-.27.03-.29.16-.05.37.62.27.54.79-.03.24-.2.35-.46.28-.16-.04-.31-.16-.37-.28Z"/><path class="cls-19" d="M1151.25,126.74l-.12.85-.13-.04.03-.21c-.08.12-.21.18-.37.13-.22-.06-.33-.26-.3-.5.03-.21.15-.36.43-.28l.31.09v-.08c.04-.23-.03-.39-.21-.44-.13-.04-.25,0-.35.07l-.04-.15c.11-.09.27-.12.42-.07.25.07.37.29.32.64ZM1151.06,127.14l.03-.22-.31-.08c-.19-.05-.26.03-.28.18-.02.16.05.28.21.33.15.04.27-.03.35-.19Z"/><path class="cls-19" d="M1152.48,126.55l-.63,1.25-.13-.04-.24-1.49.14.04.2,1.27.53-1.06.13.04Z"/><path class="cls-19" d="M1152.67,126.6l.13.04-.19,1.37-.13-.04.19-1.37ZM1152.7,126.16c0-.07.06-.12.12-.1.05.01.09.08.08.15,0,.08-.06.12-.11.11-.05-.01-.09-.09-.08-.16Z"/><path class="cls-19" d="M1153.98,127.56l-.11.79-.13-.04.11-.77c.04-.29-.05-.47-.23-.52-.21-.06-.37.09-.41.4l-.1.72-.13-.04.19-1.37.13.03-.04.25c.09-.15.24-.21.41-.16.24.07.37.3.32.7Z"/><path class="cls-19" d="M1155.33,127.34l-.17,1.2c-.07.47-.26.64-.58.55-.18-.05-.34-.17-.42-.34l.08-.12c.08.14.21.25.36.29.25.07.38-.06.43-.4l.02-.17c-.11.15-.26.2-.42.16-.28-.08-.45-.41-.39-.8.06-.39.3-.6.58-.52.16.04.29.18.35.38l.04-.26.12.04ZM1155.11,127.95c.04-.3-.08-.54-.3-.6-.21-.06-.4.1-.44.4-.04.3.08.54.3.6.21.06.4-.1.44-.4Z"/><path class="cls-19" d="M1155.39,128.61l.08-.13c.07.11.19.21.33.25.18.05.27-.02.29-.15.05-.36-.62-.25-.54-.79.03-.22.19-.35.44-.28.13.04.26.12.33.22l-.08.13c-.07-.11-.17-.17-.27-.2-.18-.05-.27.03-.29.16-.05.37.62.27.54.79-.03.24-.2.35-.46.28-.16-.04-.31-.16-.37-.28Z"/><path class="cls-3" d="M1051.26,128.9l-6.51,10.76-.99-.55.4-12.04-5.61,9.15-.98-.54.53-14.09.96.54-.46,12.11,5.67-9.21.87.49-.43,12.19,5.64-9.3.9.5Z"/><path class="cls-3" d="M1055.77,140.84l-5.58-3.1c-.45,2.01.25,3.9,1.7,4.71.81.45,1.65.44,2.39-.09l.28,1.1c-.88.66-1.95.68-3,.1-2.08-1.16-2.93-3.93-2.15-6.7.78-2.77,2.72-3.97,4.6-2.93,1.88,1.04,2.68,3.73,1.89,6.54-.03.11-.08.24-.12.38ZM1050.46,136.8l4.73,2.63c.4-1.89-.18-3.7-1.49-4.42-1.29-.72-2.6.03-3.24,1.8Z"/><path class="cls-3" d="M1062.88,143.04l-1.64,5.79-.86-.48.41-1.46c-.68.73-1.63.88-2.73.27-1.51-.84-2.12-2.45-1.66-4.07.41-1.44,1.41-2.28,3.32-1.22l2.12,1.18.16-.57c.45-1.6.05-2.83-1.19-3.52-.86-.48-1.79-.5-2.53-.13l-.14-1.17c.9-.43,2.02-.34,3.07.25,1.72.96,2.36,2.71,1.67,5.12ZM1061.14,145.53l.43-1.53-2.09-1.16c-1.29-.72-1.91-.24-2.18.72-.31,1.08.12,2.1,1.19,2.69,1.01.56,1.95.3,2.65-.72Z"/><path class="cls-3" d="M1067.42,137.02l.9.5-3.73,13.17-.9-.5,3.73-13.17Z"/><path class="cls-3" d="M1070.79,153.48c-.48.25-1.07.16-1.59-.12-1.25-.7-1.67-2.08-1.18-3.8l1.6-5.64-1.19-.66.3-1.07,1.19.66.58-2.04.9.5-.58,2.04,2.03,1.13-.3,1.06-2.03-1.13-1.58,5.57c-.31,1.1-.08,1.93.67,2.34.37.2.78.25,1.12.07l.06,1.08Z"/><path class="cls-3" d="M1079.93,152.95l-1.53,5.41-.9-.5,1.5-5.29c.56-1.97.11-3.39-1.16-4.09-1.43-.8-2.68-.05-3.29,2.08l-1.39,4.9-.9-.5,3.73-13.17.9.5-1.55,5.47c.8-.81,1.85-.94,2.98-.32,1.62.9,2.37,2.83,1.61,5.51Z"/><path class="cls-3" d="M1092.7,162.47c-.6,2.11-2.05,2.7-4.27,1.47l-4.08-2.27,3.51-12.43,3.83,2.13c1.98,1.1,2.79,2.9,2.21,4.93-.4,1.42-1.21,2.06-2.15,2.07,1.04.99,1.43,2.42.95,4.1ZM1091.79,161.84c.46-1.62-.19-2.8-1.75-3.66l-3.13-1.74-1.32,4.67,3.13,1.74c1.56.87,2.61.63,3.07-1ZM1088.49,150.85l-1.28,4.51,2.83,1.57c1.42.79,2.46.48,2.88-1.01.42-1.49-.19-2.71-1.6-3.5l-2.83-1.57Z"/><path class="cls-3" d="M1102.36,160.87l-2.64,9.34-.86-.48.48-1.7c-.79.88-1.84,1.05-2.9.46-1.7-.94-2.44-2.89-1.68-5.58l1.53-5.41.9.5-1.5,5.29c-.56,1.99-.11,3.41,1.15,4.11,1.39.77,2.62,0,3.23-2.13l1.39-4.9.9.5Z"/><path class="cls-3" d="M1104.88,162.27l.9.5-2.64,9.34-.9-.5,2.64-9.34ZM1105.51,159.21c.14-.48.54-.73.91-.52.37.2.55.76.41,1.24-.15.51-.54.77-.92.56-.37-.21-.54-.77-.4-1.27Z"/><path class="cls-3" d="M1109.37,160.33l.9.5-3.73,13.17-.9-.5,3.73-13.17Z"/><path class="cls-3" d="M1118.86,165.6l-3.73,13.17-.86-.48.52-1.85c-.9.96-2.02,1.12-3.12.51-1.9-1.06-2.77-3.78-1.97-6.6.8-2.82,2.76-3.95,4.66-2.9,1.06.59,1.8,1.74,2.01,3.25l1.59-5.61.9.5ZM1115.56,173.61c.62-2.18-.03-4.23-1.44-5.01-1.42-.79-2.9.08-3.51,2.26-.62,2.18.03,4.23,1.45,5.02,1.41.78,2.88-.08,3.5-2.27Z"/><path class="cls-3" d="M1120.28,170.83l.9.5-2.64,9.34-.9-.5,2.64-9.34ZM1120.91,167.77c.14-.48.54-.73.91-.52.37.2.55.76.41,1.24-.15.52-.54.77-.92.56-.37-.2-.54-.77-.4-1.27Z"/><path class="cls-3" d="M1128.71,180.06l-1.53,5.41-.9-.5,1.5-5.29c.56-1.97.11-3.39-1.16-4.09-1.43-.8-2.68-.05-3.29,2.08l-1.39,4.9-.9-.5,2.64-9.34.86.48-.49,1.72c.8-.87,1.89-1.03,3.04-.38,1.62.9,2.36,2.83,1.61,5.52Z"/><path class="cls-3" d="M1138.46,180.93l-2.32,8.2c-.91,3.21-2.45,4.04-4.65,2.82-1.22-.68-2.26-1.85-2.7-3.16l.73-.71c.41,1.15,1.24,2.17,2.26,2.74,1.68.94,2.76.28,3.42-2.02l.34-1.19c-.89.88-2.02.97-3.11.37-1.9-1.06-2.82-3.72-2.06-6.4.76-2.68,2.72-3.71,4.62-2.65,1.11.62,1.9,1.79,2.11,3.33l.51-1.79.86.48ZM1136.33,184.89c.57-2.02-.1-4-1.57-4.82-1.47-.82-2.91-.02-3.49,2.01s.08,4.01,1.55,4.83c1.47.82,2.93,0,3.5-2.02Z"/><path class="cls-3" d="M1150.19,194.42c-.6,2.11-2.05,2.7-4.27,1.47l-4.08-2.27,3.52-12.43,3.83,2.13c1.98,1.1,2.79,2.9,2.21,4.93-.4,1.42-1.21,2.06-2.15,2.07,1.04.99,1.43,2.42.95,4.1ZM1149.29,193.79c.46-1.62-.19-2.8-1.75-3.66l-3.13-1.74-1.32,4.67,3.13,1.74c1.56.87,2.61.63,3.07-1ZM1145.99,182.8l-1.28,4.51,2.83,1.57c1.42.79,2.46.48,2.88-1.01.42-1.49-.19-2.71-1.6-3.5l-2.83-1.57Z"/><path class="cls-3" d="M1154.93,185.65l.9.5-3.73,13.17-.9-.5,3.73-13.17Z"/><path class="cls-3" d="M1155.26,195.67c.78-2.77,2.79-3.94,4.74-2.85,1.95,1.08,2.83,3.85,2.04,6.62s-2.78,3.96-4.73,2.88c-1.95-1.08-2.83-3.88-2.05-6.64ZM1161.13,198.93c.62-2.18-.02-4.22-1.44-5.01-1.42-.79-2.9.08-3.51,2.26-.62,2.18.03,4.23,1.45,5.02,1.42.79,2.88-.08,3.5-2.27Z"/><path class="cls-3" d="M1163.2,200.09c.79-2.79,2.79-3.94,4.77-2.83,1.13.63,1.9,1.78,2.09,3.3l-.85.27c-.19-1.19-.77-2.03-1.55-2.46-1.46-.81-2.93.05-3.55,2.24-.62,2.2.04,4.23,1.49,5.04.77.43,1.6.4,2.33-.29l.49,1.01c-.87.91-2,1.02-3.13.4-1.99-1.11-2.88-3.88-2.09-6.67Z"/><path class="cls-3" d="M1173.38,205.72l-2.14,1.15-.75,2.66-.9-.5,3.73-13.17.9.5-2.53,8.93,5.42-2.88,1.12.62-3.93,2.23,1.55,7.25-1.1-.61-1.36-6.18Z"/><path class="cls-3" d="M1176.37,211.58l.69-.77c.37.88,1.14,1.84,2.07,2.36,1.27.7,1.96.39,2.22-.53.69-2.43-4.18-2.92-3.13-6.61.43-1.53,1.69-2.14,3.39-1.2.86.48,1.7,1.34,2.11,2.18l-.68.79c-.42-.89-1.05-1.51-1.74-1.89-1.2-.67-1.92-.31-2.17.58-.71,2.52,4.15,3.02,3.13,6.61-.46,1.62-1.77,2.1-3.5,1.13-1.1-.61-2.03-1.7-2.38-2.66Z"/><path class="cls-3" d="M915.99,133.58l.85,5.12,4.81-1.56.2,1.19-4.81,1.56.91,5.53-.98.32-2.15-13.03,6.37-2.07.2,1.19-5.39,1.75Z"/><path class="cls-3" d="M923.42,138.48c-.48-2.9.69-5.46,2.74-6.12s3.89.91,4.37,3.82c.48,2.9-.68,5.47-2.72,6.14s-3.9-.93-4.38-3.83ZM929.57,136.49c-.38-2.29-1.73-3.46-3.22-2.97-1.49.48-2.35,2.37-1.97,4.66.38,2.29,1.75,3.45,3.23,2.97,1.49-.48,2.34-2.37,1.96-4.66Z"/><path class="cls-3" d="M935.14,129.44l.21,1.28c-.08.03-.16.03-.23.06-1.46.47-2.13,2.07-1.75,4.37l.83,4.99-.94.31-1.62-9.79.9-.29.32,1.92c.22-1.45,1-2.42,2.29-2.84Z"/><path class="cls-3" d="M947.41,125.53l-1.02,10.65-.89.29-3.53-7.3-.88,8.74-.89.29-4.25-8.93.9-.29,3.57,7.61.87-9.05.81-.26,3.61,7.59.84-9.04.86-.28Z"/><path class="cls-3" d="M954.5,127.15l1,6.07-.9.29-.25-1.53c-.26,1.14-.98,2.03-2.14,2.4-1.58.51-2.74-.33-3.02-2.02-.25-1.51.23-3,2.24-3.65l2.22-.72-.1-.6c-.28-1.67-1.11-2.37-2.41-1.94-.9.29-1.68,1.02-2.13,1.91l-.59-.85c.57-1.07,1.52-1.89,2.62-2.25,1.81-.59,3.04.35,3.46,2.88ZM954.07,130.58l-.26-1.6-2.19.71c-1.35.44-1.67,1.33-1.5,2.33.19,1.13.96,1.63,2.07,1.27,1.06-.34,1.73-1.31,1.89-2.71Z"/><path class="cls-3" d="M959.95,121.38l.21,1.28c-.08.03-.16.03-.23.06-1.46.47-2.13,2.06-1.75,4.37l.82,4.99-.94.31-1.62-9.79.9-.29.32,1.92c.22-1.44,1-2.42,2.29-2.84Z"/><path class="cls-3" d="M967.31,114.84l2.28,13.81-.9.29-.32-1.93c-.35,1.51-1.21,2.53-2.36,2.9-1.99.65-3.81-.9-4.3-3.86s.67-5.45,2.66-6.1c1.12-.36,2.18,0,2.98,1.07l-.97-5.88.94-.31ZM967.85,124.05c-.38-2.29-1.75-3.45-3.22-2.97-1.49.48-2.35,2.37-1.97,4.66.38,2.29,1.75,3.45,3.23,2.97,1.47-.48,2.34-2.37,1.96-4.66Z"/><path class="cls-3" d="M973.74,113.57l.98-.32,1.96,11.83,5.21-1.69.2,1.19-6.19,2.01-2.15-13.03Z"/><path class="cls-3" d="M981.89,119.49c-.48-2.9.69-5.46,2.74-6.12,2.05-.66,3.89.91,4.37,3.82.48,2.9-.68,5.47-2.72,6.14-2.04.66-3.9-.93-4.38-3.83ZM988.04,117.5c-.38-2.29-1.73-3.46-3.22-2.97s-2.35,2.37-1.97,4.66c.38,2.29,1.75,3.45,3.23,2.97s2.34-2.37,1.96-4.66Z"/><path class="cls-3" d="M990.21,116.79c-.48-2.9.69-5.46,2.74-6.12,2.04-.66,3.89.91,4.37,3.82.48,2.9-.68,5.47-2.72,6.14-2.04.66-3.9-.93-4.38-3.83ZM996.36,114.79c-.38-2.29-1.73-3.46-3.22-2.97s-2.35,2.37-1.97,4.66c.38,2.29,1.75,3.45,3.23,2.97,1.49-.48,2.34-2.37,1.96-4.66Z"/><path class="cls-3" d="M1001.83,113l-1.3,2.66.46,2.79-.94.31-2.28-13.81.94-.31,1.55,9.36,3.29-6.69,1.17-.38-2.33,4.97,4.22,4.73-1.16.38-3.63-4Z"/><path class="cls-3" d="M1005.58,103.39c-.08-.5.15-1.03.54-1.16s.76.19.84.69c.09.54-.13,1.06-.53,1.19-.39.12-.76-.2-.85-.72ZM1006.3,106.41l.94-.31,1.62,9.79-.94.31-1.62-9.79Z"/><path class="cls-3" d="M1016.98,107.27l.94,5.67-.94.31-.92-5.54c-.34-2.07-1.29-2.88-2.62-2.44-1.5.49-2.23,2.1-1.86,4.33l.85,5.14-.94.31-1.62-9.79.9-.29.3,1.8c.31-1.35,1.14-2.35,2.34-2.74,1.7-.55,3.1.45,3.56,3.26Z"/><path class="cls-3" d="M1025.36,100.22l1.42,8.6c.56,3.37-.37,5.28-2.68,6.03-1.27.41-2.61.28-3.5-.45l.31-1.16c.8.62,1.89.8,2.97.45,1.77-.57,2.39-1.97,1.99-4.39l-.21-1.25c-.38,1.44-1.27,2.41-2.41,2.78-1.99.65-3.83-.82-4.29-3.62-.46-2.81.73-5.22,2.72-5.87,1.17-.38,2.29-.04,3.08,1.06l-.31-1.88.9-.29ZM1025.21,105.17c-.35-2.12-1.71-3.21-3.25-2.71-1.54.5-2.4,2.31-2.05,4.43s1.7,3.23,3.24,2.73c1.54-.5,2.41-2.33,2.06-4.45Z"/><path class="cls-3" d="M1031.39,101.71c-.63-3.81.98-7.3,3.78-8.21,1.35-.44,2.68-.2,3.71.79l-.48,1.08c-.94-.83-1.94-1-3-.65-2.24.73-3.55,3.58-3.04,6.67.51,3.09,2.58,4.85,4.82,4.12,1.06-.34,1.92-1.11,2.49-2.46l.77.67c-.61,1.53-1.73,2.58-3.1,3.03-2.79.91-5.32-1.23-5.96-5.05Z"/><path class="cls-3" d="M1046.8,97.18l1,6.07-.9.29-.25-1.53c-.26,1.14-.98,2.03-2.14,2.4-1.58.51-2.74-.33-3.02-2.02-.25-1.51.23-3,2.24-3.65l2.22-.72-.1-.6c-.28-1.67-1.1-2.37-2.41-1.94-.9.29-1.68,1.02-2.13,1.91l-.59-.85c.57-1.07,1.52-1.89,2.62-2.25,1.81-.59,3.04.35,3.46,2.88ZM1046.37,100.61l-.26-1.6-2.19.71c-1.35.44-1.67,1.33-1.5,2.33.19,1.13.96,1.63,2.07,1.27,1.06-.35,1.73-1.31,1.89-2.71Z"/><path class="cls-3" d="M1049.21,101.61l.25-1.18c.66.43,1.68.61,2.67.29,1.33-.43,1.77-1.24,1.61-2.21-.42-2.55-4.62.93-5.26-2.94-.26-1.6.52-3.11,2.3-3.69.9-.29,1.94-.26,2.62.11l-.24,1.19c-.71-.4-1.48-.4-2.2-.17-1.26.41-1.71,1.28-1.55,2.21.44,2.64,4.64-.82,5.26,2.94.28,1.69-.6,3.14-2.42,3.73-1.16.38-2.36.22-3.04-.29Z"/><path class="cls-3" d="M1062.34,92.54l.94,5.67-.94.31-.92-5.54c-.34-2.07-1.29-2.88-2.61-2.44-1.5.49-2.23,2.1-1.86,4.33l.85,5.14-.94.31-2.28-13.81.94-.31.95,5.73c.33-1.3,1.14-2.25,2.32-2.64,1.7-.55,3.1.45,3.56,3.26Z"/><path class="cls-3" d="M1068.54,84.04l.85,5.12,4.81-1.56.2,1.19-4.81,1.56.91,5.53-.98.32-2.15-13.03,6.37-2.07.2,1.19-5.39,1.75Z"/><path class="cls-3" d="M1075.44,79.72l.94-.31,2.28,13.81-.94.31-2.28-13.81Z"/><path class="cls-3" d="M1079.78,87.7c-.48-2.9.69-5.46,2.74-6.12,2.04-.66,3.89.91,4.37,3.82.48,2.9-.68,5.47-2.72,6.14-2.04.66-3.9-.93-4.38-3.83ZM1085.93,85.71c-.38-2.29-1.73-3.46-3.22-2.97-1.49.48-2.35,2.37-1.97,4.66.38,2.29,1.75,3.45,3.23,2.97s2.34-2.37,1.96-4.66Z"/><path class="cls-3" d="M1098.05,76.61l-1.02,10.65-.89.29-3.53-7.3-.88,8.74-.89.29-4.25-8.93.9-.29,3.57,7.61.87-9.05.81-.26,3.61,7.59.84-9.04.86-.28Z"/></g><g id="Layer_4"><polygon class="cls-1" points="1014.19 156.43 989.47 182.12 965.27 175.04 992.3 152.35 1014.19 156.43"/><path class="cls-27" d="M992.29,153.18l-.34.29-24.17,20.43-.48.41-.37.31,22.25,6.44.34-.35.45-.46,22.81-23.47-20.23-3.81-.26.22ZM1003.49,155.3l.69.5,6.8,1.29-6.5,6.6.2.7-6.5,6.65-1.35.42-8.24,8.37-7.49-2.14-1.58.12-3.1-.89-.61-.74-6.84-1.95,8.8-7.51-.02-.71,7.04-5.97,1.22-.35,7.04-6.01,6.3,1.2,1.32-.11,2.83.53Z"/><path class="cls-27" d="M993.94,163.98c-1.1-.25-2.18.01-3.54.7-1.03.52-1.61.74-2.21.6-.54-.13-.68-.51-.13-1.01.47-.43,1.08-.7,1.45-.84l-.72-.42c-.47.18-1.05.49-1.54.89l-.79-.18-.77.68.91.21c-.45.72-.08,1.3.86,1.52.88.21,2.06-.02,3.45-.76,1.05-.54,1.66-.7,2.3-.56.62.14.81.55.14,1.17-.46.43-1.22.83-1.76,1.02l.82.47c.62-.24,1.27-.64,1.8-1.1l.84.2.74-.72-.93-.21c.53-.83.16-1.43-.91-1.67Z"/><path class="cls-27" d="M998.61,166.97c-2.25,2.24-7.67,3.25-11.88,2.19-4.09-1.02-5.33-3.57-2.95-5.63,2.31-2,7.28-2.9,11.24-2.05,4.08.88,5.76,3.32,3.59,5.49ZM984.59,163.71c-2.1,1.84-.98,4.08,2.64,4.98,3.72.92,8.48.04,10.48-1.93,1.94-1.91.47-4.08-3.14-4.86-3.52-.77-7.94.04-9.98,1.82Z"/><path class="cls-27" d="M995.18,157.81c-.76.69-.22,1.5,1.22,1.8,1.46.31,3.28-.02,4.03-.73.74-.7.15-1.49-1.3-1.78-1.43-.28-3.2.03-3.95.71ZM999.91,158.77c-.6.57-2.06.83-3.24.59-1.17-.24-1.61-.89-.99-1.45.61-.55,2.03-.81,3.19-.58,1.17.23,1.64.88,1.04,1.44Z"/><path class="cls-27" d="M996.44,158.07c-.39.35-.11.77.64.92.75.15,1.67-.01,2.05-.37.38-.36.09-.77-.66-.91-.74-.15-1.65.02-2.03.37Z"/><polygon class="cls-27" points="995.13 155.04 989.93 159.61 989.23 159.46 994.44 154.91 995.13 155.04"/><polygon class="cls-28" points="1005.07 157.6 1001.23 161.33 1001.84 161.46 1005.67 157.72 1005.07 157.6"/><polygon class="cls-28" points="1006.42 157.87 1002.61 161.62 1003.23 161.75 1007.03 157.99 1006.42 157.87"/><path class="cls-27" d="M979.51,171.9c-.96.86-.51,1.91,1.03,2.33,1.55.43,3.61.04,4.55-.85.93-.88.41-1.91-1.12-2.31-1.52-.39-3.5-.03-4.45.82ZM984.54,173.23c-.76.71-2.41,1.02-3.66.68-1.24-.34-1.61-1.18-.84-1.88.76-.69,2.37-.99,3.6-.67,1.24.32,1.65,1.16.9,1.86Z"/><path class="cls-27" d="M980.85,172.25c-.49.44-.25.98.54,1.19.79.21,1.83.02,2.32-.43.48-.45.22-.98-.56-1.18-.78-.21-1.81-.02-2.29.42Z"/><polygon class="cls-27" points="979.94 168.37 973.44 174.08 972.7 173.87 979.22 168.19 979.94 168.37"/><polygon class="cls-28" points="990.39 171.85 985.55 176.55 986.2 176.73 991.03 172.01 990.39 171.85"/><polygon class="cls-28" points="991.84 172.22 987.02 176.96 987.68 177.14 992.48 172.38 991.84 172.22"/><polygon class="cls-21" points="989.43 191.55 965.27 184.55 965.27 175.04 989.43 181.97 989.43 191.55"/><polygon class="cls-24" points="1014.19 156.43 1014.19 165.24 989.43 191.55 989.43 181.97 1014.19 156.43"/><path class="cls-13" d="M967.81,182.13c.6.17,1.2.36,1.79.53l1.79.55c1.19.37,2.39.74,3.58,1.12,1.19.38,2.38.76,3.58,1.15l1.79.58c.59.2,1.19.39,1.78.6-.6-.17-1.2-.36-1.79-.53l-1.79-.55c-1.19-.37-2.39-.74-3.58-1.12-1.19-.38-2.38-.76-3.58-1.15l-1.79-.58c-.59-.2-1.19-.39-1.78-.6Z"/><polygon class="cls-13" points="989.43 184.95 975.61 180.77 989.43 184.81 989.43 184.95"/><path class="cls-13" d="M968.12,177.53s.09,0,.13.01l.13.03.26.06c.18.04.35.09.53.13l1.05.28c.7.19,1.4.39,2.1.58,1.4.4,2.8.81,4.19,1.22,1.4.42,2.79.84,4.19,1.27l2.09.65c.7.22,1.39.44,2.09.66l-2.1-.6-2.1-.61-4.19-1.24-4.19-1.25-2.09-.62-1.05-.31-.53-.15-.26-.07-.13-.03s-.09-.02-.13-.02Z"/><polygon class="cls-23" points="989.43 184.79 1004.24 169.67 989.43 184.9 989.43 184.79"/><polygon class="cls-23" points="1014.19 158.9 1007.47 165.52 1014.19 158.79 1014.19 158.9"/><polygon class="cls-23" points="1014.19 162.18 1010.58 166.09 1014.19 162.06 1014.19 162.18"/><path class="cls-23" d="M991.14,186.38c.29-.32.59-.63.88-.95l.89-.94c.59-.62,1.19-1.24,1.79-1.86.6-.61,1.2-1.23,1.8-1.83l.9-.91c.3-.3.61-.6.91-.9-.29.32-.59.63-.88.95l-.89.94c-.59.62-1.19,1.24-1.79,1.86-.6.61-1.2,1.23-1.8,1.83l-.9.91c-.3.3-.61.6-.91.9Z"/><polygon class="cls-22" points="976.79 165.37 999.81 171.26 1006.48 164.45 983.91 159.39 976.79 165.37"/><polygon class="cls-25" points="978.09 164.28 1001.08 169.96 1005.45 165.52 982.92 160.23 978.09 164.28"/><polygon class="cls-15" points="999.81 171.26 999.81 180.52 1006.48 173.43 1006.48 164.45 999.81 171.26"/><polygon class="cls-22" points="1001.08 169.96 1001.22 179.02 1005.45 174.53 1005.45 165.52 1001.08 169.96"/><polygon class="cls-1" points="1019.66 140.79 994.93 166.49 970.73 159.4 997.77 136.72 1019.66 140.79"/><path class="cls-27" d="M997.75,137.55l-.34.29-24.17,20.43-.48.41-.37.31,22.25,6.44.34-.35.45-.46,22.81-23.47-20.23-3.81-.26.22ZM1008.95,139.67l.69.5,6.8,1.29-6.5,6.6.2.7-6.5,6.65-1.35.42-8.24,8.37-7.49-2.14-1.58.12-3.1-.89-.61-.74-6.84-1.95,8.8-7.51-.02-.71,7.04-5.97,1.22-.35,7.04-6.01,6.3,1.2,1.32-.11,2.83.53Z"/><path class="cls-27" d="M999.41,148.35c-1.1-.25-2.18.01-3.54.7-1.03.52-1.61.74-2.21.6-.54-.13-.68-.51-.13-1.01.47-.43,1.08-.7,1.45-.84l-.72-.42c-.47.18-1.05.49-1.54.89l-.79-.18-.77.68.91.21c-.45.72-.08,1.3.86,1.52.88.21,2.06-.02,3.45-.76,1.05-.54,1.66-.7,2.3-.56.62.14.81.55.14,1.17-.46.43-1.22.83-1.76,1.02l.82.47c.62-.24,1.27-.64,1.8-1.1l.84.2.74-.72-.93-.21c.53-.83.16-1.43-.91-1.67Z"/><path class="cls-27" d="M1004.07,151.33c-2.25,2.24-7.67,3.25-11.88,2.19-4.09-1.02-5.33-3.57-2.95-5.63,2.31-2,7.28-2.9,11.24-2.05,4.08.88,5.76,3.32,3.59,5.49ZM990.06,148.08c-2.1,1.84-.98,4.08,2.64,4.98,3.72.92,8.48.04,10.48-1.93,1.94-1.91.47-4.08-3.14-4.86-3.52-.77-7.94.04-9.98,1.82Z"/><path class="cls-27" d="M1000.65,142.18c-.76.69-.22,1.5,1.22,1.8,1.46.31,3.28-.02,4.03-.73.74-.7.15-1.49-1.3-1.78-1.43-.28-3.2.03-3.95.71ZM1005.38,143.14c-.6.57-2.06.83-3.24.59-1.17-.24-1.61-.89-.99-1.45.61-.55,2.03-.81,3.19-.58,1.17.23,1.64.88,1.04,1.44Z"/><path class="cls-27" d="M1001.91,142.44c-.39.35-.11.77.64.92.75.15,1.67-.01,2.05-.37.38-.36.09-.77-.66-.91-.74-.15-1.65.02-2.03.37Z"/><polygon class="cls-27" points="1000.6 139.41 995.4 143.98 994.69 143.83 999.91 139.28 1000.6 139.41"/><polygon class="cls-28" points="1010.54 141.97 1006.7 145.7 1007.31 145.83 1011.14 142.09 1010.54 141.97"/><polygon class="cls-28" points="1011.89 142.23 1008.08 145.99 1008.69 146.12 1012.5 142.35 1011.89 142.23"/><path class="cls-27" d="M984.98,156.26c-.96.86-.51,1.91,1.03,2.33,1.55.43,3.61.04,4.55-.85.93-.88.41-1.91-1.12-2.31-1.52-.39-3.5-.03-4.45.82ZM990.01,157.6c-.76.71-2.41,1.02-3.66.68-1.24-.34-1.61-1.18-.84-1.88.76-.69,2.37-.99,3.6-.67,1.24.32,1.65,1.16.9,1.86Z"/><path class="cls-27" d="M986.32,156.62c-.49.44-.25.98.54,1.19.79.21,1.83.02,2.32-.43.48-.45.22-.98-.56-1.18-.78-.21-1.81-.02-2.29.42Z"/><polygon class="cls-27" points="985.41 152.74 978.91 158.45 978.17 158.24 984.68 152.56 985.41 152.74"/><polygon class="cls-28" points="995.86 156.21 991.02 160.92 991.67 161.1 996.5 156.38 995.86 156.21"/><polygon class="cls-28" points="997.31 156.58 992.49 161.32 993.15 161.51 997.95 156.75 997.31 156.58"/><polygon class="cls-21" points="994.9 175.92 970.73 168.92 970.73 159.4 994.9 166.34 994.9 175.92"/><polygon class="cls-24" points="1019.66 140.79 1019.66 149.61 994.9 175.92 994.9 166.34 1019.66 140.79"/><path class="cls-13" d="M973.28,166.5c.6.17,1.2.36,1.79.53l1.79.55c1.19.37,2.39.74,3.58,1.12,1.19.38,2.38.76,3.58,1.15l1.79.58c.59.2,1.19.39,1.78.6-.6-.17-1.2-.36-1.79-.53l-1.79-.55c-1.19-.37-2.39-.74-3.58-1.12-1.19-.38-2.38-.76-3.58-1.15l-1.79-.58c-.59-.2-1.19-.39-1.78-.6Z"/><polygon class="cls-13" points="994.9 169.31 981.08 165.14 994.9 169.18 994.9 169.31"/><path class="cls-13" d="M973.59,161.9s.09,0,.13.01l.13.03.26.06c.18.04.35.09.53.13l1.05.28c.7.19,1.4.39,2.1.58,1.4.4,2.8.81,4.19,1.22,1.4.42,2.79.84,4.19,1.27l2.09.65c.7.22,1.39.44,2.09.66l-2.1-.6-2.1-.61-4.19-1.24-4.19-1.25-2.09-.62-1.05-.31-.53-.15-.26-.07-.13-.03s-.09-.02-.13-.02Z"/><polygon class="cls-23" points="994.9 169.15 1009.71 154.04 994.9 169.26 994.9 169.15"/><polygon class="cls-23" points="1019.66 143.27 1012.94 149.88 1019.66 143.16 1019.66 143.27"/><polygon class="cls-23" points="1019.66 146.54 1016.05 150.46 1019.66 146.43 1019.66 146.54"/><path class="cls-23" d="M996.6,170.75c.29-.32.59-.63.88-.95l.89-.94c.59-.62,1.19-1.24,1.79-1.86.6-.61,1.2-1.23,1.8-1.83l.9-.91c.3-.3.61-.6.91-.9-.29.32-.59.63-.88.95l-.89.94c-.59.62-1.19,1.24-1.79,1.86-.6.61-1.2,1.23-1.8,1.83l-.9.91c-.3.3-.61.6-.91.9Z"/><polygon class="cls-22" points="982.26 149.73 1005.28 155.63 1011.95 148.81 989.38 143.76 982.26 149.73"/><polygon class="cls-25" points="983.56 148.64 1006.54 154.33 1010.92 149.88 988.38 144.59 983.56 148.64"/><polygon class="cls-15" points="1005.28 155.63 1005.28 164.89 1011.95 157.8 1011.95 148.81 1005.28 155.63"/><polygon class="cls-22" points="1006.54 154.33 1006.69 163.39 1010.92 158.9 1010.92 149.88 1006.54 154.33"/><polygon class="cls-1" points="1040.76 161.3 1016.03 186.99 991.83 179.91 1018.87 157.23 1040.76 161.3"/><path class="cls-27" d="M1018.85,158.06l-.34.29-24.17,20.43-.48.41-.37.31,22.25,6.44.34-.35.45-.46,22.81-23.47-20.23-3.81-.26.22ZM1030.05,160.18l.69.5,6.8,1.29-6.5,6.6.2.7-6.5,6.65-1.35.42-8.24,8.37-7.49-2.14-1.58.12-3.1-.89-.61-.74-6.84-1.95,8.8-7.51-.02-.71,7.04-5.97,1.22-.35,7.04-6.01,6.3,1.2,1.32-.11,2.83.53Z"/><path class="cls-27" d="M1020.51,168.86c-1.1-.25-2.18.01-3.54.7-1.03.52-1.61.74-2.21.6-.54-.13-.68-.51-.13-1.01.47-.43,1.08-.7,1.45-.84l-.72-.42c-.47.18-1.05.49-1.54.89l-.79-.18-.77.68.91.21c-.45.72-.08,1.3.86,1.52.88.21,2.06-.02,3.45-.76,1.05-.54,1.66-.7,2.3-.56.62.14.81.55.14,1.17-.46.43-1.22.83-1.76,1.02l.82.47c.62-.24,1.27-.64,1.8-1.1l.84.2.74-.72-.93-.21c.53-.83.16-1.43-.91-1.67Z"/><path class="cls-27" d="M1025.17,171.84c-2.25,2.24-7.67,3.25-11.88,2.19-4.09-1.02-5.33-3.57-2.95-5.63,2.31-2,7.28-2.9,11.24-2.05,4.08.88,5.76,3.32,3.59,5.49ZM1011.16,168.59c-2.1,1.84-.98,4.08,2.64,4.98,3.72.92,8.48.04,10.48-1.93,1.94-1.91.47-4.08-3.14-4.86-3.52-.77-7.94.04-9.98,1.82Z"/><path class="cls-27" d="M1021.75,162.69c-.76.69-.22,1.5,1.22,1.8,1.46.31,3.28-.02,4.03-.73.74-.7.15-1.49-1.3-1.78-1.43-.28-3.2.03-3.95.71ZM1026.48,163.65c-.6.57-2.06.83-3.24.59-1.17-.24-1.61-.89-.99-1.45.61-.55,2.03-.81,3.19-.58,1.17.23,1.64.88,1.04,1.44Z"/><path class="cls-27" d="M1023.01,162.94c-.39.35-.11.77.64.92.75.15,1.67-.01,2.05-.37.38-.36.09-.77-.66-.91-.74-.15-1.65.02-2.03.37Z"/><polygon class="cls-27" points="1021.69 159.92 1016.49 164.48 1015.79 164.34 1021.01 159.79 1021.69 159.92"/><polygon class="cls-28" points="1031.64 162.48 1027.8 166.21 1028.41 166.33 1032.24 162.6 1031.64 162.48"/><polygon class="cls-28" points="1032.99 162.74 1029.18 166.5 1029.79 166.63 1033.6 162.86 1032.99 162.74"/><path class="cls-27" d="M1006.08,176.77c-.96.86-.51,1.91,1.03,2.33,1.55.43,3.61.04,4.55-.85.93-.88.41-1.91-1.12-2.31-1.52-.39-3.5-.03-4.45.82ZM1011.11,178.11c-.76.71-2.41,1.02-3.66.68-1.24-.34-1.61-1.18-.84-1.88.76-.69,2.37-.99,3.6-.67,1.24.32,1.65,1.16.9,1.86Z"/><path class="cls-27" d="M1007.42,177.13c-.49.44-.25.98.54,1.19.79.21,1.83.02,2.32-.43.48-.45.22-.98-.56-1.18-.78-.21-1.81-.02-2.29.42Z"/><polygon class="cls-27" points="1006.51 173.25 1000.01 178.96 999.27 178.75 1005.78 173.06 1006.51 173.25"/><polygon class="cls-28" points="1016.96 176.72 1012.12 181.43 1012.77 181.61 1017.6 176.89 1016.96 176.72"/><polygon class="cls-28" points="1018.4 177.09 1013.59 181.83 1014.25 182.02 1019.05 177.26 1018.4 177.09"/><polygon class="cls-21" points="1016 196.42 991.83 189.43 991.83 179.91 1016 186.85 1016 196.42"/><polygon class="cls-24" points="1040.76 161.3 1040.76 170.12 1016 196.42 1016 186.85 1040.76 161.3"/><path class="cls-13" d="M994.37,187.01c.6.17,1.2.36,1.79.53l1.79.55c1.19.37,2.39.74,3.58,1.12,1.19.38,2.38.76,3.58,1.15l1.79.58c.59.2,1.19.39,1.78.6-.6-.17-1.2-.36-1.79-.53l-1.79-.55c-1.19-.37-2.39-.74-3.58-1.12-1.19-.38-2.38-.76-3.58-1.15l-1.79-.58c-.59-.2-1.19-.39-1.78-.6Z"/><polygon class="cls-13" points="1016 189.82 1002.18 185.65 1016 189.69 1016 189.82"/><path class="cls-13" d="M994.69,182.41s.09,0,.13.01l.13.03.26.06c.18.04.35.09.53.13l1.05.28c.7.19,1.4.39,2.1.58,1.4.4,2.8.81,4.19,1.22,1.4.42,2.79.84,4.19,1.27l2.09.65c.7.22,1.39.44,2.09.66l-2.1-.6-2.1-.61-4.19-1.24-4.19-1.25-2.09-.62-1.05-.31-.53-.15-.26-.07-.13-.03s-.09-.02-.13-.02Z"/><polygon class="cls-23" points="1016 189.66 1030.81 174.55 1016 189.77 1016 189.66"/><polygon class="cls-23" points="1040.76 163.78 1034.04 170.39 1040.76 163.67 1040.76 163.78"/><polygon class="cls-23" points="1040.76 167.05 1037.15 170.97 1040.76 166.94 1040.76 167.05"/><path class="cls-23" d="M1017.7,191.26c.29-.32.59-.63.88-.95l.89-.94c.59-.62,1.19-1.24,1.79-1.86.6-.61,1.2-1.23,1.8-1.83l.9-.91c.3-.3.61-.6.91-.9-.29.32-.59.63-.88.95l-.89.94c-.59.62-1.19,1.24-1.79,1.86-.6.61-1.2,1.23-1.8,1.83l-.9.91c-.3.3-.61.6-.91.9Z"/><polygon class="cls-22" points="1003.36 170.24 1026.38 176.14 1033.05 169.32 1010.47 164.27 1003.36 170.24"/><polygon class="cls-25" points="1004.65 169.15 1027.64 174.83 1032.02 170.39 1009.48 165.1 1004.65 169.15"/><polygon class="cls-15" points="1026.38 176.14 1026.38 185.4 1033.05 178.31 1033.05 169.32 1026.38 176.14"/><polygon class="cls-22" points="1027.64 174.83 1027.79 183.9 1032.02 179.41 1032.02 170.39 1027.64 174.83"/><polygon class="cls-1" points="1045.76 146.94 1021.04 172.63 996.84 165.54 1023.87 142.86 1045.76 146.94"/><path class="cls-27" d="M1023.86,143.69l-.34.29-24.17,20.43-.48.41-.37.31,22.25,6.44.34-.35.45-.46,22.81-23.47-20.23-3.81-.26.22ZM1035.06,145.81l.69.5,6.8,1.29-6.5,6.6.2.7-6.5,6.65-1.35.42-8.24,8.37-7.49-2.14-1.58.12-3.1-.89-.61-.74-6.84-1.95,8.8-7.51-.02-.71,7.04-5.97,1.22-.35,7.04-6.01,6.3,1.2,1.32-.11,2.83.53Z"/><path class="cls-27" d="M1025.51,154.49c-1.1-.25-2.18.01-3.54.7-1.03.52-1.61.74-2.21.6-.54-.13-.68-.51-.13-1.01.47-.43,1.08-.7,1.45-.84l-.72-.42c-.47.18-1.05.49-1.54.89l-.79-.18-.77.68.91.21c-.45.72-.08,1.3.86,1.52.88.21,2.06-.02,3.45-.76,1.05-.54,1.66-.7,2.3-.56.62.14.81.55.14,1.17-.46.43-1.22.83-1.76,1.02l.82.47c.62-.24,1.27-.64,1.8-1.1l.84.2.74-.72-.93-.21c.53-.83.16-1.43-.91-1.67Z"/><path class="cls-27" d="M1030.18,157.48c-2.25,2.24-7.67,3.25-11.88,2.19-4.09-1.02-5.33-3.57-2.95-5.63,2.31-2,7.28-2.9,11.24-2.05,4.08.88,5.76,3.32,3.59,5.49ZM1016.16,154.22c-2.1,1.84-.98,4.08,2.64,4.98,3.72.92,8.48.04,10.48-1.93,1.94-1.91.47-4.08-3.14-4.86-3.52-.77-7.94.04-9.98,1.82Z"/><path class="cls-27" d="M1026.75,148.32c-.76.69-.22,1.5,1.22,1.8,1.46.31,3.28-.02,4.03-.73.74-.7.15-1.49-1.3-1.78-1.43-.28-3.2.03-3.95.71ZM1031.48,149.28c-.6.57-2.06.83-3.24.59-1.17-.24-1.61-.89-.99-1.45.61-.55,2.03-.81,3.19-.58,1.17.23,1.64.88,1.04,1.44Z"/><path class="cls-27" d="M1028.01,148.58c-.39.35-.11.77.64.92.75.15,1.67-.01,2.05-.37.38-.36.09-.77-.66-.91-.74-.15-1.65.02-2.03.37Z"/><polygon class="cls-27" points="1026.7 145.55 1021.5 150.12 1020.8 149.97 1026.01 145.42 1026.7 145.55"/><polygon class="cls-28" points="1036.64 148.11 1032.8 151.84 1033.41 151.97 1037.24 148.23 1036.64 148.11"/><polygon class="cls-28" points="1037.99 148.38 1034.18 152.13 1034.8 152.26 1038.6 148.49 1037.99 148.38"/><path class="cls-27" d="M1011.08,162.41c-.96.86-.51,1.91,1.03,2.33,1.55.43,3.61.04,4.55-.85.93-.88.41-1.91-1.12-2.31-1.52-.39-3.5-.03-4.45.82ZM1016.11,163.74c-.76.71-2.41,1.02-3.66.68-1.24-.34-1.61-1.18-.84-1.88.76-.69,2.37-.99,3.6-.67,1.24.32,1.65,1.16.9,1.86Z"/><path class="cls-27" d="M1012.42,162.76c-.49.44-.25.98.54,1.19.79.21,1.83.02,2.32-.43.48-.45.22-.98-.56-1.18-.78-.21-1.81-.02-2.29.42Z"/><polygon class="cls-27" points="1011.51 158.88 1005.01 164.59 1004.27 164.38 1010.79 158.7 1011.51 158.88"/><polygon class="cls-28" points="1021.96 162.36 1017.12 167.06 1017.77 167.24 1022.6 162.52 1021.96 162.36"/><polygon class="cls-28" points="1023.41 162.73 1018.59 167.47 1019.25 167.65 1024.05 162.89 1023.41 162.73"/><polygon class="cls-21" points="1021 182.06 996.84 175.06 996.84 165.54 1021 172.48 1021 182.06"/><polygon class="cls-24" points="1045.76 146.94 1045.76 155.75 1021 182.06 1021 172.48 1045.76 146.94"/><path class="cls-13" d="M999.38,172.64c.6.17,1.2.36,1.79.53l1.79.55c1.19.37,2.39.74,3.58,1.12,1.19.38,2.38.76,3.58,1.15l1.79.58c.59.2,1.19.39,1.78.6-.6-.17-1.2-.36-1.79-.53l-1.79-.55c-1.19-.37-2.39-.74-3.58-1.12-1.19-.38-2.38-.76-3.58-1.15l-1.79-.58c-.59-.2-1.19-.39-1.78-.6Z"/><polygon class="cls-13" points="1021 175.46 1007.18 171.28 1021 175.32 1021 175.46"/><path class="cls-13" d="M999.69,168.04s.09,0,.13.01l.13.03.26.06c.18.04.35.09.53.13l1.05.28c.7.19,1.4.39,2.1.58,1.4.4,2.8.81,4.19,1.22,1.4.42,2.79.84,4.19,1.27l2.09.65c.7.22,1.39.44,2.09.66l-2.1-.6-2.1-.61-4.19-1.24-4.19-1.25-2.09-.62-1.05-.31-.53-.15-.26-.07-.13-.03s-.09-.02-.13-.02Z"/><polygon class="cls-23" points="1021 175.3 1035.81 160.18 1021 175.41 1021 175.3"/><polygon class="cls-23" points="1045.76 149.41 1039.04 156.03 1045.76 149.3 1045.76 149.41"/><polygon class="cls-23" points="1045.76 152.68 1042.15 156.6 1045.76 152.57 1045.76 152.68"/><path class="cls-23" d="M1022.71,176.89c.29-.32.59-.63.88-.95l.89-.94c.59-.62,1.19-1.24,1.79-1.86.6-.61,1.2-1.23,1.8-1.83l.9-.91c.3-.3.61-.6.91-.9-.29.32-.59.63-.88.95l-.89.94c-.59.62-1.19,1.24-1.79,1.86-.6.61-1.2,1.23-1.8,1.83l-.9.91c-.3.3-.61.6-.91.9Z"/><polygon class="cls-22" points="1008.36 155.88 1031.38 161.77 1038.05 154.96 1015.48 149.9 1008.36 155.88"/><polygon class="cls-25" points="1009.66 154.79 1032.65 160.47 1037.02 156.03 1014.49 150.73 1009.66 154.79"/><polygon class="cls-15" points="1031.38 161.77 1031.38 171.03 1038.05 163.94 1038.05 154.96 1031.38 161.77"/><polygon class="cls-22" points="1032.65 160.47 1032.79 169.53 1037.02 165.04 1037.02 156.03 1032.65 160.47"/></g></g></svg>