<?xml version="1.0" encoding="UTF-8"?><svg xmlns="http://www.w3.org/2000/svg" xmlns:xlink="http://www.w3.org/1999/xlink" viewBox="0 0 1200 300"><defs><style>.cls-1{fill:#a7c750;}.cls-2{stroke:#39b54a;}.cls-2,.cls-3{fill:#8cc63f;}.cls-2,.cls-4,.cls-5{stroke-miterlimit:10;}.cls-6{fill:#39b54a;}.cls-4{stroke:#fe938c;}.cls-4,.cls-7,.cls-5{fill:none;}.cls-8{fill:url(#radial-gradient);mix-blend-mode:multiply;}.cls-9,.cls-10{fill:#fff;}.cls-10,.cls-11{opacity:.5;}.cls-5{stroke:#006837;stroke-width:10px;}.cls-12{fill:#6ea84f;}.cls-13{fill:#688716;}.cls-14{isolation:isolate;}.cls-15{fill:#b17f4a;}.cls-16{fill:#038765;}.cls-17{fill:#fe938c;}.cls-18{opacity:.2;}.cls-19{fill:#c5efb9;}.cls-20{fill:#262262;}.cls-21{fill:#8cab38;}.cls-22{fill:#ca9e67;}.cls-23{fill:#5d7a0f;}.cls-24{fill:#74941f;}.cls-25{fill:#e6c091;}.cls-26{clip-path:url(#clippath);}.cls-27{fill:#64801b;}.cls-28{fill:#c6e673;}</style><clipPath id="clippath"><path class="cls-20" d="M1074.09,80.84l.28,110.32-590.96-48.08c-162.6-15.14-170.36-17.03-177.87-20.12l-45.77-18.86-62.83-25.4,877.14,2.14Z"/></clipPath><radialGradient id="radial-gradient" cx="412.29" cy="174.54" fx="412.29" fy="174.54" r="15.44" gradientTransform="translate(284.29 -279.57) rotate(20.41) scale(2.03 .78)" gradientUnits="userSpaceOnUse"><stop offset=".02" stop-color="#212133"/><stop offset=".07" stop-color="#424251"/><stop offset=".15" stop-color="#6e6e79"/><stop offset=".24" stop-color="#95959d"/><stop offset=".32" stop-color="#b6b6bb"/><stop offset=".42" stop-color="#d0d0d4"/><stop offset=".52" stop-color="#e5e5e7"/><stop offset=".64" stop-color="#f3f3f4"/><stop offset=".78" stop-color="#fcfcfc"/><stop offset="1" stop-color="#fff"/></radialGradient></defs><g class="cls-14"><g id="Layer_3"><path class="cls-20" d="M1074.09,80.84l.28,110.32-590.96-48.08c-162.6-15.14-170.36-17.03-177.87-20.12l-45.77-18.86-62.83-25.4,877.14,2.14Z"/><g class="cls-26"><rect class="cls-7" x="196.95" y="78.71" width="130.01" height="62.76"/><rect class="cls-7" x="326.96" y="141.47" width="212.43" height="26.55"/><g class="cls-18"><rect class="cls-4" x="201.34" y="79.17" width="875.23" height="113.36"/><line class="cls-4" x1="201.34" y1="173.64" x2="1076.57" y2="173.64"/><line class="cls-4" x1="201.34" y1="154.74" x2="1076.57" y2="154.74"/><line class="cls-4" x1="201.34" y1="135.85" x2="1076.57" y2="135.85"/><line class="cls-4" x1="201.34" y1="116.96" x2="1076.57" y2="116.96"/><line class="cls-4" x1="201.34" y1="98.06" x2="1076.57" y2="98.06"/><line class="cls-4" x1="1052.26" y1="79.17" x2="1052.26" y2="192.53"/><line class="cls-4" x1="1027.95" y1="79.17" x2="1027.95" y2="192.53"/><line class="cls-4" x1="1003.64" y1="79.17" x2="1003.64" y2="192.53"/><line class="cls-4" x1="979.33" y1="79.17" x2="979.33" y2="192.53"/><line class="cls-4" x1="955.01" y1="79.17" x2="955.01" y2="192.53"/><line class="cls-4" x1="930.7" y1="79.17" x2="930.7" y2="192.53"/><line class="cls-4" x1="906.39" y1="79.17" x2="906.39" y2="192.53"/><line class="cls-4" x1="882.08" y1="79.17" x2="882.08" y2="192.53"/><line class="cls-4" x1="857.77" y1="79.17" x2="857.77" y2="192.53"/><line class="cls-4" x1="833.45" y1="79.17" x2="833.45" y2="192.53"/><line class="cls-4" x1="809.14" y1="79.17" x2="809.14" y2="192.53"/><line class="cls-4" x1="784.83" y1="79.17" x2="784.83" y2="192.53"/><line class="cls-4" x1="760.52" y1="79.17" x2="760.52" y2="192.53"/><line class="cls-4" x1="736.21" y1="79.17" x2="736.21" y2="192.53"/><line class="cls-4" x1="711.89" y1="79.17" x2="711.89" y2="192.53"/><line class="cls-4" x1="687.58" y1="79.17" x2="687.58" y2="192.53"/><line class="cls-4" x1="663.27" y1="79.17" x2="663.27" y2="192.53"/><line class="cls-4" x1="638.96" y1="79.17" x2="638.96" y2="192.53"/><line class="cls-4" x1="614.65" y1="79.17" x2="614.65" y2="192.53"/><line class="cls-4" x1="590.33" y1="79.17" x2="590.33" y2="192.53"/><line class="cls-4" x1="566.02" y1="79.17" x2="566.02" y2="192.53"/><line class="cls-4" x1="541.71" y1="79.17" x2="541.71" y2="192.53"/><line class="cls-4" x1="517.4" y1="79.17" x2="517.4" y2="192.53"/><line class="cls-4" x1="493.09" y1="79.17" x2="493.09" y2="192.53"/><line class="cls-4" x1="468.77" y1="79.17" x2="468.77" y2="192.53"/><line class="cls-4" x1="444.46" y1="79.17" x2="444.46" y2="192.53"/><line class="cls-4" x1="420.15" y1="79.17" x2="420.15" y2="192.53"/><line class="cls-4" x1="395.84" y1="79.17" x2="395.84" y2="192.53"/><line class="cls-4" x1="371.52" y1="79.17" x2="371.52" y2="192.53"/><line class="cls-4" x1="347.21" y1="79.17" x2="347.21" y2="192.53"/><line class="cls-4" x1="322.9" y1="79.17" x2="322.9" y2="192.53"/><line class="cls-4" x1="298.59" y1="79.17" x2="298.59" y2="192.53"/><line class="cls-4" x1="274.28" y1="79.17" x2="274.28" y2="192.53"/><line class="cls-4" x1="249.96" y1="79.17" x2="249.96" y2="192.53"/><line class="cls-4" x1="225.65" y1="79.17" x2="225.65" y2="192.53"/></g></g><line class="cls-5" x1="196.95" y1="78.71" x2="110.4" y2="78.5"/><path class="cls-5" d="M196.95,78.71l62.83,25.4,45.77,18.86c7.51,3.09,15.27,4.98,177.87,20.12l590.96,48.08-.28-110.32-877.14-2.14Z"/><line class="cls-5" x1="196.93" y1="78.7" x2="196.95" y2="78.71"/><rect class="cls-7" x="845.51" y="75.04" width="88.85" height="11.06"/><path class="cls-17" d="M846.34,83.26c.51.31,1.25.57,2.03.57,1.16,0,1.83-.61,1.83-1.5,0-.82-.47-1.29-1.65-1.74-1.43-.51-2.31-1.25-2.31-2.48,0-1.37,1.13-2.38,2.83-2.38.9,0,1.55.21,1.94.43l-.31.92c-.29-.16-.87-.42-1.66-.42-1.2,0-1.65.72-1.65,1.31,0,.82.53,1.22,1.74,1.69,1.48.57,2.24,1.29,2.24,2.57,0,1.35-1,2.52-3.07,2.52-.84,0-1.77-.25-2.24-.56l.29-.95Z"/><path class="cls-17" d="M854.57,76.84h-2.67v-.96h6.49v.96h-2.68v7.8h-1.14v-7.8Z"/><path class="cls-17" d="M859.37,75.99c.57-.12,1.39-.18,2.17-.18,1.21,0,1.99.22,2.54.71.44.39.69.99.69,1.66,0,1.16-.73,1.92-1.65,2.24v.04c.68.23,1.08.86,1.29,1.77.29,1.22.49,2.07.68,2.41h-1.17c-.14-.25-.34-1-.58-2.09-.26-1.21-.73-1.66-1.75-1.7h-1.07v3.8h-1.13v-8.65ZM860.5,79.98h1.16c1.21,0,1.98-.66,1.98-1.66,0-1.13-.82-1.62-2.01-1.64-.55,0-.94.05-1.12.1v3.2Z"/><path class="cls-17" d="M870.9,80.53h-3.41v3.16h3.8v.95h-4.93v-8.76h4.73v.95h-3.6v2.77h3.41v.94Z"/><path class="cls-17" d="M872.6,83.26c.51.31,1.25.57,2.03.57,1.16,0,1.83-.61,1.83-1.5,0-.82-.47-1.29-1.65-1.74-1.43-.51-2.31-1.25-2.31-2.48,0-1.37,1.13-2.38,2.83-2.38.9,0,1.55.21,1.94.43l-.31.92c-.29-.16-.87-.42-1.66-.42-1.2,0-1.65.72-1.65,1.31,0,.82.53,1.22,1.74,1.69,1.48.57,2.24,1.29,2.24,2.57,0,1.35-1,2.52-3.07,2.52-.84,0-1.77-.25-2.24-.56l.29-.95Z"/><path class="cls-17" d="M879.01,83.26c.51.31,1.25.57,2.03.57,1.16,0,1.83-.61,1.83-1.5,0-.82-.47-1.29-1.65-1.74-1.43-.51-2.31-1.25-2.31-2.48,0-1.37,1.13-2.38,2.83-2.38.9,0,1.55.21,1.94.43l-.31.92c-.29-.16-.87-.42-1.66-.42-1.2,0-1.65.72-1.65,1.31,0,.82.53,1.22,1.74,1.69,1.48.57,2.24,1.29,2.24,2.57,0,1.35-1,2.52-3.07,2.52-.84,0-1.77-.25-2.24-.56l.29-.95Z"/><path class="cls-17" d="M893.84,84.06l-5.42-9.01h10.83l-5.41,9.01Z"/><path class="cls-17" d="M904.35,83.83c.25.03.53,0,.92-.04.66-.09,1.29-.36,1.77-.82.56-.51.96-1.25,1.12-2.25h-.04c-.47.57-1.14.91-1.99.91-1.52,0-2.5-1.14-2.5-2.59,0-1.6,1.16-3,2.89-3s2.79,1.4,2.79,3.56c0,1.86-.62,3.16-1.46,3.96-.65.64-1.55,1.03-2.46,1.13-.42.06-.78.08-1.05.06v-.94ZM904.76,78.97c0,1.05.64,1.79,1.62,1.79.77,0,1.37-.38,1.66-.88.07-.1.1-.23.1-.42,0-1.44-.53-2.55-1.73-2.55-.97,0-1.66.86-1.66,2.05Z"/><path class="cls-17" d="M911.02,83.83c.25.03.53,0,.92-.04.66-.09,1.29-.36,1.77-.82.56-.51.96-1.25,1.12-2.25h-.04c-.47.57-1.14.91-1.99.91-1.52,0-2.5-1.14-2.5-2.59,0-1.6,1.16-3,2.89-3s2.79,1.4,2.79,3.56c0,1.86-.62,3.16-1.46,3.96-.65.64-1.55,1.03-2.46,1.13-.42.06-.78.08-1.05.06v-.94ZM911.43,78.97c0,1.05.64,1.79,1.62,1.79.77,0,1.37-.38,1.66-.88.07-.1.1-.23.1-.42,0-1.44-.53-2.55-1.73-2.55-.97,0-1.66.86-1.66,2.05Z"/><path class="cls-17" d="M920.83,78.56c0,1.78-.94,2.67-2.03,2.67s-1.96-.84-1.98-2.55c0-1.69.92-2.64,2.04-2.64,1.18,0,1.96.91,1.96,2.52ZM917.74,78.64c-.03,1.08.38,1.9,1.09,1.9.75,0,1.09-.81,1.09-1.92,0-1.03-.3-1.88-1.09-1.88-.71,0-1.09.84-1.09,1.91ZM918.73,84.78l4.97-8.74h.73l-4.97,8.74h-.73ZM926.33,82.06c0,1.78-.94,2.67-2.02,2.67s-1.96-.84-1.98-2.54c0-1.7.92-2.65,2.04-2.65,1.18,0,1.95.91,1.95,2.52ZM923.24,82.14c-.01,1.08.4,1.9,1.11,1.9.75,0,1.09-.81,1.09-1.92,0-1.03-.3-1.88-1.09-1.88-.71,0-1.11.84-1.11,1.91Z"/><path class="cls-17" d="M960.93,84c-.42.21-1.25.42-2.31.42-2.47,0-4.33-1.56-4.33-4.43s1.86-4.6,4.58-4.6c1.09,0,1.78.23,2.08.39l-.27.92c-.43-.21-1.04-.36-1.77-.36-2.05,0-3.42,1.31-3.42,3.61,0,2.15,1.24,3.52,3.37,3.52.69,0,1.39-.14,1.85-.36l.23.9Z"/><path class="cls-17" d="M963.82,81.53l-.91,2.76h-1.17l2.98-8.76h1.37l2.99,8.76h-1.21l-.94-2.76h-3.11ZM966.69,80.65l-.86-2.52c-.19-.57-.33-1.09-.46-1.6h-.03c-.13.52-.27,1.05-.44,1.59l-.86,2.54h2.64Z"/><path class="cls-17" d="M970.2,82.91c.51.31,1.25.57,2.03.57,1.16,0,1.83-.61,1.83-1.5,0-.82-.47-1.29-1.65-1.74-1.43-.51-2.31-1.25-2.31-2.48,0-1.36,1.13-2.38,2.83-2.38.9,0,1.55.21,1.94.43l-.31.92c-.29-.16-.87-.42-1.66-.42-1.2,0-1.65.71-1.65,1.31,0,.82.53,1.22,1.74,1.69,1.48.57,2.24,1.29,2.24,2.57,0,1.35-1,2.52-3.07,2.52-.84,0-1.77-.25-2.24-.56l.29-.95Z"/><path class="cls-17" d="M977.89,75.52v3.67h4.24v-3.67h1.14v8.76h-1.14v-4.11h-4.24v4.11h-1.13v-8.76h1.13Z"/><path class="cls-17" d="M988,75.52h4.72v.95h-3.59v2.91h3.32v.94h-3.32v3.97h-1.13v-8.76Z"/><path class="cls-17" d="M994.33,75.52h1.13v7.81h3.74v.95h-4.88v-8.76Z"/><path class="cls-17" d="M1007.44,79.81c0,3.02-1.83,4.62-4.07,4.62s-3.94-1.79-3.94-4.45c0-2.78,1.73-4.6,4.07-4.6s3.94,1.83,3.94,4.43ZM1000.64,79.96c0,1.87,1.01,3.55,2.79,3.55s2.81-1.65,2.81-3.64c0-1.74-.91-3.56-2.79-3.56s-2.81,1.73-2.81,3.65Z"/><path class="cls-17" d="M1010.34,84.29l-2.22-8.76h1.2l1.04,4.43c.26,1.09.49,2.18.65,3.03h.03c.14-.87.42-1.91.71-3.04l1.17-4.42h1.18l1.07,4.45c.25,1.04.48,2.08.61,3h.03c.18-.96.43-1.94.7-3.03l1.16-4.42h1.16l-2.48,8.76h-1.18l-1.11-4.56c-.27-1.12-.46-1.98-.57-2.86h-.03c-.16.87-.35,1.73-.68,2.86l-1.25,4.56h-1.18Z"/><path class="cls-17" d="M1028.18,74.71l5.41,9.01h-10.83l5.42-9.01Z"/><path class="cls-17" d="M1040.5,76.9h-.03l-1.47.79-.22-.87,1.85-.99h.97v8.45h-1.1v-7.38Z"/><path class="cls-17" d="M1050.3,79.97c0,2.87-1.07,4.46-2.94,4.46-1.65,0-2.77-1.55-2.79-4.34,0-2.83,1.22-4.39,2.94-4.39s2.79,1.59,2.79,4.28ZM1045.71,80.1c0,2.2.68,3.44,1.72,3.44,1.17,0,1.73-1.36,1.73-3.52s-.53-3.45-1.72-3.45c-1,0-1.73,1.22-1.73,3.52Z"/><path class="cls-17" d="M1056.97,79.97c0,2.87-1.07,4.46-2.94,4.46-1.65,0-2.77-1.55-2.79-4.34,0-2.83,1.22-4.39,2.94-4.39s2.79,1.59,2.79,4.28ZM1052.38,80.1c0,2.2.68,3.44,1.72,3.44,1.17,0,1.73-1.36,1.73-3.52s-.53-3.45-1.72-3.45c-1,0-1.73,1.22-1.73,3.52Z"/><path class="cls-17" d="M1061.83,78.22c0,1.78-.94,2.67-2.03,2.67s-1.96-.84-1.98-2.55c0-1.69.92-2.64,2.04-2.64,1.18,0,1.96.91,1.96,2.52ZM1058.74,78.29c-.03,1.08.38,1.9,1.09,1.9.75,0,1.09-.81,1.09-1.92,0-1.03-.3-1.89-1.09-1.89-.71,0-1.09.85-1.09,1.91ZM1059.73,84.43l4.97-8.74h.73l-4.97,8.74h-.73ZM1067.33,81.71c0,1.78-.94,2.67-2.02,2.67s-1.96-.84-1.98-2.54c0-1.7.92-2.65,2.04-2.65,1.18,0,1.95.91,1.95,2.52ZM1064.24,81.79c-.01,1.08.4,1.9,1.11,1.9.75,0,1.09-.81,1.09-1.92,0-1.03-.3-1.89-1.09-1.89-.71,0-1.11.85-1.11,1.91Z"/><path class="cls-17" d="M278.64,74.62c.69-.1,1.51-.18,2.41-.18,1.62,0,2.78.38,3.55,1.09.78.71,1.24,1.73,1.24,3.15s-.44,2.6-1.26,3.41c-.82.82-2.17,1.26-3.87,1.26-.81,0-1.48-.04-2.05-.1v-8.62ZM279.77,82.37c.29.05.7.06,1.14.06,2.42,0,3.73-1.35,3.73-3.72.01-2.07-1.16-3.38-3.55-3.38-.58,0-1.03.05-1.33.12v6.92Z"/><path class="cls-17" d="M291.83,79.16h-3.41v3.16h3.8v.95h-4.93v-8.76h4.73v.95h-3.6v2.77h3.41v.94Z"/><path class="cls-17" d="M293.69,74.62c.49-.1,1.27-.18,2.07-.18,1.13,0,1.86.19,2.41.64.46.34.73.86.73,1.55,0,.84-.56,1.59-1.48,1.92v.03c.83.21,1.81.9,1.81,2.2,0,.75-.3,1.33-.74,1.75-.61.56-1.6.82-3.03.82-.78,0-1.38-.05-1.75-.1v-8.62ZM294.82,78.21h1.03c1.2,0,1.9-.62,1.9-1.47,0-1.03-.78-1.43-1.92-1.43-.52,0-.82.04-1,.08v2.82ZM294.82,82.41c.22.04.55.05.95.05,1.17,0,2.25-.43,2.25-1.7,0-1.2-1.03-1.69-2.26-1.69h-.94v3.34Z"/><path class="cls-17" d="M302.28,75.46h-2.67v-.96h6.49v.96h-2.68v7.8h-1.14v-7.8Z"/><path class="cls-17" d="M315.35,82.69l-5.42-9.01h10.83l-5.41,9.01Z"/><path class="cls-17" d="M327.67,75.88h-.03l-1.47.79-.22-.87,1.85-.99h.97v8.45h-1.1v-7.38Z"/><path class="cls-17" d="M337.47,78.95c0,2.87-1.07,4.46-2.94,4.46-1.65,0-2.77-1.55-2.79-4.34,0-2.83,1.22-4.39,2.94-4.39s2.79,1.59,2.79,4.28ZM332.88,79.08c0,2.2.68,3.44,1.72,3.44,1.17,0,1.73-1.36,1.73-3.52s-.53-3.45-1.72-3.45c-1,0-1.73,1.22-1.73,3.52Z"/><path class="cls-17" d="M344.14,78.95c0,2.87-1.07,4.46-2.94,4.46-1.65,0-2.77-1.55-2.79-4.34,0-2.83,1.22-4.39,2.94-4.39s2.79,1.59,2.79,4.28ZM339.55,79.08c0,2.2.68,3.44,1.72,3.44,1.17,0,1.73-1.36,1.73-3.52s-.53-3.45-1.72-3.45c-1,0-1.73,1.22-1.73,3.52Z"/><path class="cls-17" d="M349,77.19c0,1.78-.94,2.67-2.03,2.67s-1.96-.84-1.98-2.55c0-1.69.92-2.64,2.04-2.64,1.18,0,1.96.91,1.96,2.52ZM345.91,77.27c-.03,1.08.38,1.9,1.09,1.9.75,0,1.09-.81,1.09-1.92,0-1.03-.3-1.89-1.09-1.89-.72,0-1.09.85-1.09,1.91ZM346.9,83.41l4.97-8.74h.73l-4.97,8.74h-.73ZM354.5,80.69c0,1.78-.94,2.67-2.02,2.67s-1.96-.84-1.98-2.54c0-1.7.92-2.65,2.04-2.65,1.18,0,1.95.91,1.95,2.52ZM351.41,80.77c-.01,1.08.4,1.9,1.11,1.9.75,0,1.09-.81,1.09-1.92,0-1.03-.3-1.89-1.09-1.89-.71,0-1.11.85-1.11,1.91Z"/><path class="cls-17" d="M275.34,113.61c-.44-.05-1.27-.32-2.24-.88-2.25-1.3-3.45-3.5-2.58-5.66.83-2.07,3.06-2.48,5.52-1.11.99.55,1.55,1.07,1.77,1.34-.17.19-.35.38-.52.58-.33-.37-.84-.8-1.5-1.17-1.86-1.04-3.48-.77-4.18.98-.65,1.62.05,3.34,1.99,4.45.63.36,1.31.61,1.8.67-.02.27-.04.54-.06.81Z"/><path class="cls-17" d="M284.54,114.51c-.88,2.37-3.07,2.78-5.13,1.7-2.14-1.12-3.09-3.33-2.29-5.36.83-2.14,2.94-2.69,5.09-1.61,2.2,1.11,3.1,3.22,2.34,5.27ZM278.23,111.42c-.56,1.44-.13,3.24,1.52,4.1,1.66.86,3.09.04,3.67-1.52.51-1.37.2-3.2-1.53-4.07-1.72-.87-3.08,0-3.66,1.49Z"/><path class="cls-17" d="M292.63,118.76c.29-1,.63-2.21.96-3.08-.01,0-.03-.01-.04-.02-.57.71-1.22,1.44-1.99,2.22-.89.92-1.79,1.84-2.68,2.74-.27-.12-.54-.24-.81-.36-.04-1.3-.08-2.61-.11-3.91-.03-1.16-.03-2.2.04-3.13,0,0-.02,0-.02-.01-.34.85-.83,1.99-1.28,2.99-.44.95-.88,1.91-1.32,2.86-.34-.16-.67-.32-1.01-.48,1.05-2.2,2.09-4.41,3.13-6.63.45.21.89.41,1.34.62.06,1.33.11,2.66.17,3.99.03,1.01.03,1.9-.03,2.71.01,0,.02.01.04.02.46-.61,1.03-1.24,1.72-1.96.89-.91,1.79-1.83,2.67-2.76.45.19.9.38,1.35.56-.66,2.42-1.32,4.84-1.99,7.25-.35-.15-.7-.29-1.04-.44.3-1.05.6-2.11.9-3.17Z"/><path class="cls-17" d="M296.88,116.07c.54.13,1.23.33,2.09.66,1.05.4,1.76.89,2.12,1.46.34.51.43,1.12.22,1.76-.22.65-.62,1.08-1.16,1.29-.75.31-1.76.23-2.81-.18-.32-.12-.61-.25-.84-.4-.33.95-.66,1.89-1,2.83-.36-.14-.71-.29-1.07-.43.83-2.32,1.65-4.65,2.46-6.98ZM296.75,119.91c.21.14.5.28.86.42,1.29.5,2.27.25,2.61-.73.32-.94-.3-1.68-1.47-2.13-.47-.18-.83-.28-1.03-.31-.32.92-.64,1.84-.96,2.76Z"/><path class="cls-17" d="M309.4,124.28c-.82,2.51-3.02,3.29-5.17,2.57-2.22-.75-3.26-2.79-2.52-4.96.78-2.27,2.91-3.18,5.14-2.47,2.27.73,3.26,2.69,2.55,4.86ZM302.87,122.27c-.52,1.53-.02,3.25,1.69,3.83,1.72.58,3.15-.49,3.69-2.14.47-1.45.1-3.22-1.7-3.8-1.78-.58-3.14.53-3.68,2.11Z"/><path class="cls-17" d="M313.04,121.42c-.46,1.45-.92,2.9-1.39,4.34-.53,1.64.08,2.58,1.21,2.9,1.25.35,2.29-.16,2.8-1.8.46-1.46.91-2.92,1.37-4.38.37.09.73.18,1.1.27-.44,1.44-.89,2.88-1.34,4.32-.71,2.28-2.38,2.86-4.21,2.34-1.73-.49-2.75-1.74-2.02-4,.46-1.43.93-2.87,1.39-4.31.36.1.73.21,1.09.31Z"/><path class="cls-17" d="M317.72,130.65c.77-2.47,1.54-4.95,2.29-7.44.39.09.79.18,1.18.27.52,1.46,1.04,2.92,1.56,4.38.36,1.01.62,1.9.79,2.76,0,0,.02,0,.03,0,.2-1.02.45-1.94.8-3.11.31-1.05.62-2.1.93-3.15.34.07.68.13,1.02.2-.74,2.52-1.48,5.03-2.23,7.53-.37-.08-.74-.15-1.11-.23-.52-1.46-1.03-2.92-1.54-4.38-.34-.96-.64-1.94-.82-2.85-.01,0-.03,0-.04,0-.22.96-.47,1.86-.85,3.1-.33,1.06-.65,2.12-.98,3.18-.34-.08-.69-.17-1.03-.25Z"/><path class="cls-17" d="M328.2,125c.69.03,1.5.1,2.36.23,1.56.25,2.59.74,3.15,1.47.58.73.77,1.68.42,2.92-.35,1.25-1.06,2.21-2.06,2.8-1,.59-2.42.77-4.08.48-.78-.14-1.43-.29-1.97-.46.73-2.47,1.46-4.95,2.18-7.44ZM327.35,131.89c.26.09.67.18,1.1.25,2.35.41,3.96-.59,4.54-2.66.52-1.81-.29-3.1-2.59-3.47-.56-.09-1-.12-1.31-.11-.57,2-1.15,3.99-1.74,5.98Z"/><path class="cls-17" d="M337.66,126.26c-.7,2.57-1.4,5.14-2.11,7.7-.37-.05-.73-.09-1.1-.14.72-2.56,1.43-5.12,2.13-7.68.36.04.73.09,1.09.13Z"/><path class="cls-17" d="M337.47,134.19c.71-2.57,1.4-5.15,2.09-7.73.4.04.79.08,1.19.11.55,1.39,1.11,2.78,1.67,4.16.39.96.66,1.82.86,2.65,0,0,.02,0,.03-.01.17-1.05.4-2,.71-3.21.28-1.09.57-2.18.85-3.27.34.02.68.04,1.02.06-.67,2.61-1.34,5.21-2.02,7.81-.37-.03-.74-.05-1.11-.08-.55-1.39-1.1-2.78-1.65-4.17-.36-.92-.69-1.86-.89-2.74-.01,0-.03,0-.04,0-.2.98-.42,1.92-.77,3.2-.3,1.1-.6,2.2-.9,3.3-.35-.04-.69-.07-1.04-.11Z"/><path class="cls-17" d="M352.33,134.78c-.53.16-1.57.41-2.71.38-1.28-.04-2.27-.39-2.91-1.17-.56-.69-.75-1.76-.43-2.98.61-2.34,2.77-3.95,5.58-3.9.97.02,1.68.22,2,.38-.15.28-.31.56-.46.83-.4-.19-.93-.35-1.77-.36-2.04-.04-3.68,1.09-4.18,3.06-.51,1.99.49,3.24,2.46,3.3.72.02,1.23-.06,1.51-.18.19-.79.39-1.57.58-2.36-.57,0-1.14-.02-1.72-.04.07-.27.14-.55.2-.82.93.02,1.85.04,2.78.04-.31,1.27-.62,2.54-.93,3.81Z"/><path class="cls-17" d="M525.5,82.64c.5.32,1.24.59,2.02.6,1.16.02,1.84-.58,1.85-1.47.01-.82-.45-1.29-1.63-1.76-1.42-.53-2.3-1.28-2.28-2.52.02-1.36,1.17-2.36,2.87-2.34.9.01,1.54.23,1.93.46l-.32.92c-.28-.16-.87-.43-1.66-.44-1.2-.02-1.66.69-1.67,1.29-.01.82.52,1.23,1.72,1.71,1.47.59,2.22,1.32,2.2,2.6-.02,1.35-1.04,2.51-3.1,2.48-.84-.01-1.76-.27-2.23-.59l.3-.94Z"/><path class="cls-17" d="M532.17,75.35l1.13.02-.11,7.81,3.74.05v.95s-4.89-.07-4.89-.07l.12-8.76Z"/><path class="cls-17" d="M545.23,79.82c-.04,3.02-1.9,4.59-4.13,4.56-2.31-.03-3.91-1.85-3.88-4.5.04-2.78,1.79-4.58,4.13-4.54,2.39.03,3.91,1.89,3.88,4.49ZM538.42,79.87c-.03,1.87.96,3.56,2.75,3.59,1.79.02,2.83-1.61,2.86-3.6.02-1.74-.86-3.57-2.75-3.6-1.87-.03-2.83,1.69-2.86,3.61Z"/><path class="cls-17" d="M548.06,84.33l-2.1-8.79,1.2.02.98,4.45c.25,1.1.46,2.19.61,3.04h.03c.15-.87.44-1.91.76-3.03l1.23-4.4,1.18.02,1,4.46c.23,1.04.45,2.09.57,3.01h.03c.2-.96.46-1.93.74-3.02l1.22-4.4,1.16.02-2.61,8.73-1.18-.02-1.04-4.58c-.26-1.12-.43-1.98-.53-2.87h-.03c-.17.87-.38,1.72-.72,2.85l-1.31,4.54-1.18-.02Z"/><path class="cls-17" d="M561.84,81.77l-.95,2.74-1.17-.02,3.1-8.72,1.37.02,2.87,8.8-1.21-.02-.9-2.77-3.11-.04ZM564.72,80.92l-.82-2.53c-.19-.58-.31-1.1-.43-1.61h-.03c-.14.52-.29,1.05-.46,1.58l-.89,2.52,2.64.04Z"/><path class="cls-17" d="M568.34,84.61l.12-8.76,1.23.02,2.75,4.47c.64,1.04,1.13,1.97,1.53,2.87h.03c-.09-1.18-.1-2.25-.08-3.62l.05-3.67,1.07.02-.12,8.76-1.14-.02-2.72-4.48c-.6-.98-1.17-1.99-1.6-2.95h-.04c.05,1.12.06,2.17.04,3.63l-.05,3.74h-1.07Z"/><path class="cls-17" d="M577.01,76.09c.69-.09,1.51-.16,2.41-.15,1.62.02,2.77.42,3.53,1.14.77.73,1.21,1.75,1.19,3.16-.02,1.43-.48,2.59-1.31,3.39-.83.81-2.19,1.23-3.89,1.21-.81-.01-1.48-.06-2.05-.13l.12-8.62ZM578.04,83.85c.29.06.7.07,1.14.08,2.42.03,3.75-1.3,3.78-3.67.04-2.07-1.11-3.4-3.5-3.43-.58,0-1.03.04-1.33.1l-.1,6.92Z"/><path class="cls-17" d="M588.17,83.51c.5.32,1.24.59,2.02.6,1.16.02,1.84-.59,1.85-1.47.01-.82-.45-1.29-1.63-1.76-1.42-.53-2.3-1.28-2.28-2.52.02-1.36,1.16-2.36,2.87-2.34.9.01,1.54.23,1.93.46l-.32.92c-.28-.16-.87-.43-1.66-.44-1.2-.02-1.66.69-1.67,1.29-.01.82.52,1.23,1.72,1.71,1.47.59,2.22,1.32,2.2,2.61-.02,1.35-1.04,2.51-3.1,2.48-.84-.01-1.76-.27-2.23-.59l.3-.95Z"/><path class="cls-17" d="M596.48,77.2l-2.67-.04v-.96s6.5.09,6.5.09v.96s-2.69-.04-2.69-.04l-.11,7.8-1.14-.02.11-7.8Z"/><path class="cls-17" d="M605.77,81.02l-3.41-.05-.04,3.16,3.8.05v.95s-4.94-.07-4.94-.07l.12-8.76,4.73.07v.95s-3.62-.05-3.62-.05l-.04,2.77,3.41.05v.94Z"/><path class="cls-17" d="M609.02,82.42l-.95,2.74-1.17-.02,3.1-8.72,1.37.02,2.87,8.8-1.21-.02-.9-2.77-3.11-.04ZM611.91,81.58l-.82-2.53c-.19-.57-.31-1.1-.43-1.61h-.03c-.14.52-.29,1.05-.46,1.58l-.89,2.52,2.64.04Z"/><path class="cls-17" d="M615.64,76.62c.69-.09,1.51-.16,2.41-.15,1.62.02,2.77.42,3.53,1.14.77.73,1.21,1.75,1.19,3.16-.02,1.43-.48,2.59-1.31,3.39-.83.81-2.19,1.23-3.89,1.21-.81-.01-1.48-.06-2.05-.13l.12-8.62ZM616.67,84.39c.29.06.7.08,1.14.08,2.42.03,3.75-1.3,3.78-3.67.04-2.07-1.11-3.4-3.5-3.43-.58,0-1.03.04-1.33.1l-.1,6.92Z"/><path class="cls-17" d="M625.77,85.41l.05-3.72-2.7-5.08,1.29.02,1.2,2.43c.33.67.58,1.2.85,1.82h.03c.25-.57.56-1.14.91-1.79l1.29-2.4,1.29.02-3.01,4.99-.05,3.73-1.14-.02Z"/><path class="cls-17" d="M838.09,166.4l4.7.41-.08.95-3.57-.31-.25,2.9,3.3.29-.08.93-3.3-.29-.35,3.95-1.13-.1.76-8.73Z"/><path class="cls-17" d="M845.52,167.05l-.76,8.73-1.13-.1.76-8.73,1.13.1Z"/><path class="cls-17" d="M846.73,175.95l.76-8.73,1.23.11,2.41,4.66c.56,1.08.98,2.04,1.32,2.97h.03c0-1.19.07-2.25.18-3.61l.32-3.65,1.06.09-.76,8.73-1.14-.1-2.38-4.67c-.52-1.03-1.02-2.07-1.38-3.06h-.04c-.03,1.12-.1,2.17-.22,3.62l-.33,3.73-1.06-.09Z"/><path class="cls-17" d="M856.9,174.08l-1.15,2.67-1.17-.1,3.73-8.47,1.36.12,2.22,8.99-1.2-.11-.69-2.83-3.1-.27ZM859.84,173.45l-.63-2.59c-.14-.59-.23-1.12-.31-1.63h-.03c-.17.5-.36,1.02-.58,1.54l-1.08,2.45,2.63.23Z"/><path class="cls-17" d="M863.18,177.39l.76-8.73,1.23.11,2.41,4.66c.56,1.08.98,2.04,1.32,2.97h.03c0-1.19.07-2.25.18-3.61l.32-3.65,1.06.09-.76,8.73-1.14-.1-2.38-4.67c-.52-1.03-1.02-2.07-1.38-3.06h-.04c-.03,1.12-.1,2.17-.22,3.62l-.33,3.73-1.06-.09Z"/><path class="cls-17" d="M877.82,178.38c-.43.17-1.28.31-2.34.21-2.46-.21-4.18-1.93-3.93-4.79.24-2.73,2.25-4.42,4.96-4.19,1.09.09,1.75.39,2.04.57l-.35.9c-.41-.24-1-.45-1.73-.52-2.05-.18-3.52,1.01-3.72,3.3-.19,2.14.92,3.62,3.05,3.8.69.06,1.4-.02,1.87-.2l.16.91Z"/><path class="cls-17" d="M881.1,170.16l-.76,8.73-1.13-.1.76-8.73,1.13.1Z"/><path class="cls-17" d="M883.96,176.44l-1.15,2.67-1.17-.1,3.73-8.47,1.36.12,2.21,8.99-1.2-.1-.69-2.83-3.09-.27ZM886.9,175.81l-.64-2.59c-.14-.59-.23-1.12-.31-1.63h-.03c-.17.5-.36,1.02-.58,1.54l-1.08,2.45,2.63.23Z"/><path class="cls-17" d="M890.99,171.03l1.13.1-.68,7.78,3.73.33-.08.95-4.86-.42.76-8.73Z"/><path class="cls-17" d="M905.21,180.78c-.43.17-1.28.31-2.34.21-2.46-.21-4.18-1.93-3.93-4.79.24-2.73,2.25-4.42,4.96-4.19,1.09.1,1.75.39,2.04.57l-.35.9c-.41-.24-1-.45-1.73-.52-2.05-.18-3.52,1.01-3.72,3.3-.19,2.14.92,3.62,3.05,3.8.69.06,1.4-.02,1.87-.2l.15.91Z"/><path class="cls-17" d="M907.36,172.46l1.13.1-.68,7.78,3.73.33-.08.95-4.86-.42.76-8.73Z"/><path class="cls-17" d="M914.36,179.1l-1.15,2.67-1.17-.1,3.73-8.47,1.36.12,2.21,8.99-1.2-.11-.69-2.83-3.09-.27ZM917.3,178.47l-.64-2.59c-.14-.59-.23-1.12-.31-1.63h-.03c-.17.5-.36,1.02-.58,1.54l-1.08,2.45,2.63.23Z"/><path class="cls-17" d="M921.39,173.81c.58-.07,1.4-.06,2.18,0,1.21.11,1.96.39,2.46.93.41.43.6,1.04.54,1.72-.1,1.15-.89,1.85-1.84,2.08v.04c.65.29,1,.95,1.12,1.87.18,1.24.31,2.1.46,2.46l-1.17-.1c-.12-.26-.25-1.03-.4-2.14-.15-1.23-.58-1.72-1.6-1.85l-1.06-.09-.33,3.78-1.13-.1.75-8.61ZM922.17,177.88l1.15.1c1.2.11,2.03-.49,2.11-1.49.1-1.13-.67-1.69-1.87-1.81-.54-.05-.94-.03-1.12,0l-.28,3.19Z"/><path class="cls-17" d="M929.49,174.4l-.76,8.73-1.13-.1.76-8.73,1.13.1Z"/><path class="cls-17" d="M933.04,175.67l-2.66-.23.08-.96,6.46.57-.08.96-2.67-.23-.68,7.77-1.14-.1.68-7.77Z"/><path class="cls-17" d="M939.44,184.06l.32-3.7-2.32-5.27,1.28.11,1.02,2.52c.28.69.49,1.24.71,1.88h.03c.3-.55.64-1.09,1.04-1.72l1.47-2.3,1.28.11-3.37,4.76-.33,3.72-1.14-.1Z"/><path class="cls-17" d="M1000.72,189.15c-.43.18-1.27.33-2.34.26-2.46-.16-4.22-1.84-4.03-4.71.18-2.74,2.16-4.47,4.87-4.29,1.09.07,1.76.35,2.05.53l-.33.9c-.41-.24-1.01-.43-1.74-.48-2.05-.14-3.5,1.08-3.65,3.38-.14,2.14,1,3.6,3.13,3.74.69.05,1.4-.05,1.87-.24l.17.91Z"/><path class="cls-17" d="M1009.61,185.55c-.2,3.01-2.14,4.48-4.37,4.33-2.31-.15-3.81-2.05-3.63-4.7.19-2.78,2.03-4.48,4.37-4.32,2.39.16,3.81,2.09,3.64,4.69ZM1002.81,185.24c-.12,1.87.78,3.61,2.55,3.73,1.79.12,2.91-1.46,3.04-3.45.12-1.74-.67-3.62-2.55-3.74-1.87-.12-2.92,1.54-3.04,3.46Z"/><path class="cls-17" d="M1010.78,190.11l.58-8.74,1.23.08,2.51,4.61c.58,1.07,1.02,2.02,1.38,2.95h.03c-.03-1.19.02-2.25.11-3.61l.24-3.66,1.06.07-.58,8.74-1.14-.08-2.48-4.62c-.54-1.01-1.06-2.05-1.44-3.03h-.04c0,1.12-.05,2.17-.15,3.62l-.25,3.74-1.06-.07Z"/><path class="cls-17" d="M1019.25,189.29c.49.34,1.21.65,1.99.71,1.16.08,1.87-.49,1.93-1.37.05-.82-.38-1.31-1.53-1.85-1.39-.6-2.23-1.4-2.14-2.63.09-1.36,1.29-2.3,2.99-2.19.89.06,1.53.31,1.9.56l-.37.9c-.27-.18-.84-.47-1.63-.53-1.19-.08-1.69.6-1.73,1.2-.05.82.45,1.26,1.63,1.8,1.44.67,2.15,1.43,2.06,2.72-.09,1.35-1.17,2.45-3.23,2.31-.84-.06-1.75-.36-2.19-.71l.35-.93Z"/><path class="cls-17" d="M1027.42,182.43l-.58,8.74-1.13-.08.58-8.74,1.13.08Z"/><path class="cls-17" d="M1028.74,189.92c.49.34,1.21.65,1.99.71,1.15.08,1.87-.49,1.93-1.37.05-.82-.38-1.32-1.53-1.85-1.39-.6-2.23-1.4-2.14-2.63.09-1.36,1.29-2.3,2.99-2.19.9.06,1.53.31,1.9.56l-.37.9c-.27-.17-.84-.47-1.63-.53-1.19-.08-1.7.6-1.74,1.2-.05.82.45,1.25,1.63,1.8,1.44.67,2.15,1.43,2.06,2.72-.09,1.35-1.17,2.45-3.23,2.31-.84-.06-1.75-.36-2.19-.71l.35-.93Z"/><path class="cls-17" d="M1037.38,184.06l-2.66-.18.06-.96,6.47.43-.06.96-2.67-.18-.52,7.78-1.14-.08.52-7.78Z"/><path class="cls-17" d="M1046.45,188.36l-3.4-.23-.21,3.15,3.79.25-.06.95-4.92-.33.58-8.74,4.72.31-.06.95-3.59-.24-.18,2.76,3.4.23-.06.93Z"/><path class="cls-17" d="M1048.03,192.59l.58-8.74,1.23.08,2.51,4.61c.58,1.07,1.03,2.02,1.38,2.95h.03c-.03-1.19.02-2.25.11-3.61l.24-3.66,1.06.07-.58,8.74-1.14-.08-2.48-4.62c-.54-1.01-1.06-2.05-1.44-3.03h-.04c0,1.12-.05,2.17-.15,3.62l-.25,3.74-1.06-.07Z"/><path class="cls-17" d="M1058.74,185.48l-2.66-.18.06-.96,6.47.43-.06.96-2.67-.18-.52,7.78-1.14-.08.52-7.78Z"/></g><g id="Layer_2"><path class="cls-8" d="M1051.83,151.59c-2.33,6.25-17.39,6.41-33.64.36s-27.55-16.02-25.22-22.27c2.32-6.25,17.39-6.41,33.64-.36s27.55,16.02,25.22,22.26Z"/><polygon class="cls-16" points="1053.73 134.16 1030.2 120.13 1003.19 115.35 986.55 121.48 1025.43 132.93 1061.93 149.4 1053.73 134.16"/><polygon class="cls-6" points="1053.73 134.16 1026.73 129.42 1003.19 115.35 986.54 121.47 1021.84 142.57 1062.34 149.67 1053.73 134.16"/><polygon class="cls-6" points="1053.73 134.16 1026.73 129.42 1021.84 142.57 1062.34 149.67 1053.73 134.16"/><g class="cls-11"><path class="cls-9" d="M1026.7,129.33c-.07-.01-.12,0-.13.04l-4.88,13.12s.09.07.14.09c.07.03.17.04.17.03l4.85-13.07-.15-.21Z"/></g><g class="cls-11"><path class="cls-9" d="M1026.7,129.5s-.03-.01-.05-.02l-23.54-14.08s.02-.03.09-.04c.1,0,.19,0,.23.02l23.39,13.99c.07.04.1.11.05.14-.03.02-.1.02-.16,0Z"/></g><polygon class="cls-12" points="1034.72 108.06 1021.23 105.69 1016.34 118.84 1046.43 115.16 1034.72 108.06"/><polygon class="cls-3" points="1045.41 115.38 1032.92 112.79 1021.2 105.68 1004.51 111.88 1028.02 125.94 1054.15 130.52 1045.41 115.38"/><polygon class="cls-2" points="1046.4 115.15 1032.92 112.79 1028.02 125.94 1055.01 130.67 1046.4 115.15"/><path class="cls-10" d="M1032.98,112.66c-.08-.03-.17-.02-.18.03l-4.92,13.16s.12.08.15.09c.04.01.16.04.16.03l4.91-13.16s-.04-.11-.12-.14Z"/><g class="cls-11"><path class="cls-9" d="M1032.92,112.79s-.03-.01-.05-.02l-11.78-7.04s.05-.02.1-.04c.04-.01.2.02.23.04l11.6,6.93c.07.04.1.11.05.14-.03.03-.1.02-.17,0Z"/></g><g class="cls-11"><path class="cls-9" d="M1032.92,112.79s.04.01.05.02l13.44,2.36s-.1-.08-.16-.12c-.11-.07-.19-.13-.24-.13l-13.09-2.3c-.08-.01-.14.02-.13.07,0,.04.06.08.12.11Z"/></g><path class="cls-10" d="M1053.76,134.18c-.07-.08-.22-.15-.26-.16l-26.87-4.7s-.04.07-.03.09c0,.02.04.1.07.11l27.12,4.74s.03-.03-.02-.08Z"/><polygon class="cls-19" points="1039.15 96.04 1022.46 102.17 1034.24 109.22 1047.77 111.59 1039.15 96.04"/><polygon class="cls-19" points="1039.15 96.04 1034.24 109.22 1047.77 111.59 1039.15 96.04"/><path class="cls-10" d="M1034.9,107.06c.46-1.22,1.4-3.74,2.02-5.37.3-.82,1.85-4.83,2.05-5.3,0-.01.16-.36.18-.35.03.01-.07.38-.08.39,0,0-1.62,4.53-1.92,5.34-.6,1.63-1.53,4.16-1.98,5.38-.44,1.23-.75,2.09-.75,2.09-.05,0-.13-.02-.15-.03-.03-.01-.12-.06-.15-.09,0,0,.33-.86.79-2.07Z"/><path class="cls-6" d="M1036.9,107.87c-.04.19-.19.29-.37.25-.1-.02-.17-.08-.21-.17l-.07.34-.08-.02.17-.84.08.02-.02.12c.07-.07.16-.1.26-.08.17.03.28.19.24.37ZM1036.81,107.85c.03-.14-.05-.26-.18-.28-.13-.03-.25.05-.28.19-.03.14.05.26.18.28.13.03.25-.05.28-.19Z"/><path class="cls-6" d="M1037.17,107.34l.08.02-.17.87-.08-.02.17-.87Z"/><path class="cls-6" d="M1037.85,107.98l-.08.38-.08-.02.02-.1c-.05.06-.13.08-.23.06-.14-.03-.21-.12-.19-.22.02-.09.1-.16.27-.13l.19.04v-.04c.03-.1-.02-.17-.13-.2-.08-.02-.16,0-.22.03l-.03-.07c.07-.04.17-.05.27-.03.16.03.23.13.2.29ZM1037.73,108.16l.02-.1-.19-.04c-.12-.02-.17.02-.18.08-.01.07.03.13.13.15.09.02.17-.01.22-.09Z"/><path class="cls-6" d="M1038.64,108.17l-.07.36-.08-.02.07-.35c.03-.13-.03-.21-.15-.23-.13-.03-.23.04-.26.18l-.06.32-.08-.02.12-.61.08.02-.02.11c.06-.07.15-.09.26-.07.15.03.24.14.2.31Z"/><path class="cls-6" d="M1039.43,108.32l-.07.36-.08-.02.07-.35c.03-.13-.03-.21-.15-.23-.13-.03-.23.04-.26.18l-.06.32-.08-.02.12-.61.08.02-.02.11c.06-.07.15-.09.26-.07.15.03.23.14.2.31Z"/><path class="cls-6" d="M1039.7,108.11l.08.02-.12.61-.08-.02.12-.61ZM1039.72,107.91s.04-.05.07-.05.06.04.05.07c0,.03-.04.06-.07.05-.03,0-.06-.04-.05-.07Z"/><path class="cls-6" d="M1040.53,108.54l-.07.36-.08-.02.07-.35c.03-.13-.03-.21-.15-.23-.13-.03-.23.04-.26.18l-.06.32-.08-.02.12-.61.08.02-.02.11c.06-.07.15-.09.26-.07.15.03.24.14.2.31Z"/><path class="cls-6" d="M1041.38,108.44l-.11.54c-.04.21-.17.29-.37.25-.11-.02-.21-.08-.27-.15l.05-.06c.05.06.13.11.22.13.16.03.24-.03.27-.18l.02-.08c-.07.07-.16.09-.26.07-.18-.04-.29-.18-.25-.36.04-.18.19-.27.37-.24.1.02.18.08.22.17l.02-.12.08.02ZM1041.24,108.72c.03-.13-.05-.24-.19-.27-.14-.03-.25.04-.28.18-.03.13.05.25.19.27.14.03.25-.04.28-.18Z"/><path class="cls-6" d="M1042.02,108.49v.07s.17.04.17.04v.07s-.2-.04-.2-.04l-.11.54-.08-.02.11-.54-.11-.02v-.07s.12.02.12.02v-.08c.04-.11.12-.17.24-.15.05,0,.09.03.12.06l-.04.06s-.05-.04-.09-.05c-.07-.01-.12.02-.13.09Z"/><path class="cls-6" d="M1042.17,108.92c.04-.18.19-.29.37-.25.18.04.29.19.25.37-.04.18-.19.29-.37.25-.18-.04-.29-.19-.25-.38ZM1042.71,109.02c.03-.14-.05-.26-.18-.28-.13-.03-.25.05-.28.19-.03.14.05.26.18.28s.25-.05.28-.19Z"/><path class="cls-6" d="M1043.34,108.82l-.02.08s-.01,0-.02,0c-.13-.03-.22.04-.25.18l-.06.31-.08-.02.12-.61.08.02-.02.12c.05-.07.14-.1.25-.08Z"/><path class="cls-6" d="M1044.31,109.29l-.07.36-.08-.02.07-.35c.03-.13-.03-.21-.15-.23-.13-.03-.23.04-.26.18l-.06.32-.08-.02.12-.61.08.02-.02.11c.06-.07.15-.09.26-.07.15.03.24.14.2.31Z"/><path class="cls-6" d="M1045.06,109.52l-.51-.1c-.02.13.06.24.2.26.07.01.15,0,.2-.04l.04.06c-.07.05-.16.07-.26.05-.19-.04-.3-.2-.26-.38.04-.18.19-.29.36-.25.17.04.27.19.24.37,0,0,0,.02,0,.03ZM1044.56,109.35l.43.09c.01-.12-.06-.22-.18-.25-.12-.02-.22.04-.26.16Z"/><path class="cls-6" d="M1045.55,109.91l-.14-.3-.25.22-.09-.02.3-.27-.17-.34.09.02.14.28.23-.2.09.02-.29.25.18.36-.09-.02Z"/><path class="cls-6" d="M1046.11,109.98s-.09.03-.14.02c-.12-.02-.17-.1-.14-.21l.07-.37-.11-.02v-.07s.12.02.12.02l.03-.13.08.02-.03.13.19.04v.07s-.2-.04-.2-.04l-.07.37c-.01.07.02.12.08.13.03,0,.07,0,.1-.01l.02.07Z"/><path class="cls-6" d="M1026,102.27l.07-.04c.02.06.08.13.15.18.1.06.16.05.2,0,.09-.14-.32-.25-.19-.46.05-.09.17-.1.3-.02.07.04.13.11.16.17l-.07.04c-.03-.06-.07-.11-.13-.14-.1-.06-.16-.05-.19,0-.09.14.32.25.19.46-.06.09-.18.1-.31.01-.09-.06-.16-.14-.17-.2Z"/><path class="cls-6" d="M1027.13,102.61l-.21.33-.07-.04.05-.08c-.07.03-.15.03-.24-.03-.12-.08-.15-.18-.1-.28.05-.08.15-.12.3-.02l.17.11.02-.03c.06-.09.04-.17-.06-.23-.07-.04-.15-.06-.22-.05v-.07c.08-.01.18.01.26.06.14.09.17.2.08.34ZM1026.96,102.73l.05-.09-.17-.1c-.1-.06-.16-.05-.2,0-.04.06-.01.13.07.19.08.05.17.05.24,0Z"/><path class="cls-6" d="M1027.89,102.8l-.57.38-.07-.05.1-.68.08.05-.09.58.48-.32.07.04Z"/><path class="cls-6" d="M1027.99,102.86l.07.04-.33.53-.07-.04.33-.53ZM1028.08,102.69s.06-.04.08-.02c.03.02.04.05.02.08-.02.03-.06.04-.09.02-.03-.02-.04-.06-.02-.08Z"/><path class="cls-6" d="M1028.61,103.57l-.19.31-.07-.04.19-.3c.07-.11.05-.21-.05-.27-.11-.07-.23-.04-.3.07l-.18.28-.07-.04.33-.53.07.04-.06.1c.08-.04.17-.03.27.02.13.08.17.21.07.36Z"/><path class="cls-6" d="M1029.43,103.77l-.29.46c-.12.18-.26.21-.43.1-.1-.06-.17-.15-.2-.24l.07-.03c.02.08.08.15.16.2.13.08.23.06.32-.07l.04-.07c-.09.04-.18.03-.27-.03-.15-.1-.2-.27-.1-.43.1-.15.28-.18.43-.09.09.06.14.14.14.24l.06-.1.07.04ZM1029.2,103.98c.07-.11.04-.25-.08-.32-.12-.07-.25-.05-.32.07s-.04.25.08.32c.12.07.25.05.32-.07Z"/><path class="cls-6" d="M1029.26,104.32l.07-.04c.02.06.07.13.15.18.1.06.16.06.2,0,.09-.14-.32-.25-.19-.46.05-.09.17-.1.3-.02.07.04.13.11.16.17l-.07.04c-.03-.06-.07-.11-.13-.14-.09-.06-.16-.05-.19,0-.09.14.32.25.19.46-.06.09-.18.1-.31.01-.09-.06-.15-.14-.17-.2Z"/><path class="cls-6" d="M1030.51,104.37l-.04.06.16.1-.04.06-.16-.1-.3.47-.07-.04.3-.47-.09-.06.04-.06.09.06.04-.07c.06-.09.16-.12.26-.06.04.02.07.06.08.1l-.06.04s-.03-.06-.06-.08c-.06-.04-.12-.03-.16.04Z"/><path class="cls-6" d="M1030.5,104.82c.1-.16.29-.2.44-.1.15.1.2.28.1.44s-.28.2-.44.1c-.16-.1-.2-.28-.1-.44ZM1030.96,105.11c.08-.12.05-.26-.06-.33-.11-.07-.25-.04-.33.08-.08.12-.04.26.07.33.11.07.25.04.33-.08Z"/><path class="cls-6" d="M1031.62,105.15l-.04.07s-.01,0-.02-.01c-.11-.07-.22-.04-.3.08l-.17.27-.07-.04.33-.53.07.04-.07.1c.08-.05.17-.04.27.02Z"/><path class="cls-6" d="M1032.5,105.71l-.29.46c-.12.18-.26.21-.43.1-.1-.06-.17-.15-.2-.24l.07-.03c.02.08.08.15.16.2.13.08.23.06.32-.07l.04-.07c-.09.04-.18.03-.27-.03-.15-.1-.2-.27-.1-.43s.28-.18.43-.09c.09.06.14.14.14.24l.06-.1.07.04ZM1032.28,105.92c.07-.11.04-.25-.08-.32-.12-.07-.25-.05-.32.07-.07.12-.04.25.08.32.12.07.25.05.33-.07Z"/><path class="cls-6" d="M1032.48,106.07c.1-.16.29-.2.44-.1.15.1.2.28.1.44-.1.16-.28.2-.44.1-.16-.1-.2-.28-.1-.44ZM1032.95,106.36c.08-.12.05-.26-.06-.33-.11-.07-.25-.04-.33.08-.08.12-.05.26.07.33.11.07.25.04.33-.08Z"/><path class="cls-6" d="M1033.6,106.69l-.21.33-.07-.04.05-.08c-.07.03-.15.03-.24-.03-.12-.08-.15-.18-.1-.28.05-.08.15-.12.3-.02l.17.11.02-.03c.06-.09.04-.17-.06-.23-.07-.04-.15-.06-.22-.05v-.07c.08-.01.18.01.26.06.14.09.17.2.08.34ZM1033.42,106.81l.05-.09-.17-.1c-.1-.07-.16-.05-.2,0-.04.06-.01.13.07.18.08.05.16.05.24,0Z"/><path class="cls-6" d="M1034.06,106.39l.07.04-.47.75-.07-.04.47-.75Z"/><path class="cls-6" d="M1033.82,107.2l.07-.04c.02.06.08.13.15.18.1.06.16.05.2,0,.09-.14-.32-.25-.19-.46.05-.09.17-.1.3-.02.07.04.13.11.16.17l-.07.04c-.03-.06-.07-.11-.13-.14-.09-.06-.16-.05-.19,0-.09.14.32.25.19.46-.06.09-.18.1-.31.01-.09-.05-.16-.14-.17-.2Z"/><path class="cls-19" d="M1037.42,140.58c.05-.23.25-.37.49-.32.13.03.23.1.28.22l-.09.04c-.04-.09-.11-.14-.21-.16-.17-.04-.32.06-.36.25-.04.19.07.33.24.37.09.02.18,0,.25-.07l.07.07c-.08.09-.21.12-.34.09-.24-.05-.37-.25-.33-.48Z"/><path class="cls-19" d="M1038.96,140.78l-.1.49-.1-.02.02-.12c-.06.07-.17.1-.3.08-.18-.04-.27-.15-.24-.29.02-.12.12-.21.35-.16l.25.05v-.05c.04-.13-.03-.22-.17-.25-.1-.02-.21,0-.28.04l-.03-.09c.09-.05.22-.07.34-.04.2.04.3.17.26.37ZM1038.8,141.01l.03-.13-.25-.05c-.15-.03-.21.02-.23.1-.02.09.04.16.17.19.12.02.22-.02.28-.11Z"/><path class="cls-19" d="M1039.06,141.22l.06-.07c.05.06.15.12.26.14.15.03.22,0,.24-.09.04-.21-.5-.14-.44-.46.03-.13.16-.2.36-.16.1.02.21.07.26.13l-.06.08c-.06-.06-.14-.1-.22-.11-.14-.03-.22.01-.23.09-.04.21.5.15.44.46-.03.14-.16.2-.37.16-.13-.03-.25-.09-.3-.16Z"/><path class="cls-19" d="M1040.7,141.16l-.09.46-.11-.02.09-.45c.03-.17-.04-.27-.19-.3-.17-.03-.3.05-.33.23l-.08.41-.11-.02.22-1.11.11.02-.09.46c.08-.08.19-.11.32-.08.19.04.3.18.26.4Z"/><path class="cls-19" d="M1041.77,140.69c.06.01.12.04.15.08l-.05.07s-.06-.05-.11-.06c-.09-.02-.15.02-.17.12l-.02.09.24.05-.02.09-.24-.05-.14.7-.11-.02.14-.7-.14-.03.02-.09.14.03.02-.1c.03-.14.13-.22.28-.19ZM1042.12,140.76l-.22,1.11-.11-.02.22-1.11.11.02Z"/><path class="cls-19" d="M1042.2,141.52c.05-.23.25-.37.48-.32s.37.25.32.48c-.05.23-.25.37-.48.32s-.37-.25-.32-.48ZM1042.89,141.66c.04-.18-.06-.33-.23-.36s-.32.06-.35.25c-.04.18.07.33.23.37.17.03.32-.06.35-.25Z"/><path class="cls-19" d="M1044.43,141.56l-.45.73-.1-.02-.12-.69-.38.6-.1-.02-.14-.85.1.02.11.72.39-.62.09.02.12.72.38-.62.1.02Z"/><path class="cls-19" d="M1000.92,124.15l-.57-.36c-.08.15-.03.31.12.4.08.05.17.07.26.04v.09c-.09.03-.21.01-.32-.05-.21-.13-.26-.37-.14-.57.13-.2.36-.26.55-.14.19.12.24.35.11.55,0,0-.01.02-.02.03ZM1000.4,123.72l.48.3c.07-.14.03-.29-.1-.38-.13-.08-.29-.05-.38.08Z"/><path class="cls-19" d="M1002.28,124.89l-.25.39-.09-.06.24-.38c.09-.14.06-.26-.06-.34-.14-.09-.28-.05-.38.1l-.22.36-.09-.06.24-.38c.09-.14.06-.26-.06-.34-.14-.09-.28-.05-.38.1l-.22.36-.09-.06.43-.68.09.05-.08.12c.1-.05.22-.04.33.03.11.07.17.17.15.3.1-.06.24-.05.36.03.17.1.21.27.09.46Z"/><path class="cls-19" d="M1003.08,125.5l-.57-.36c-.08.15-.03.31.12.41.08.05.17.07.26.04v.09c-.09.03-.21.01-.32-.05-.21-.13-.26-.37-.14-.57.13-.2.36-.26.55-.13.19.12.24.35.11.55,0,0-.01.02-.02.03ZM1002.55,125.08l.48.3c.07-.14.03-.29-.1-.38-.13-.08-.29-.05-.38.07Z"/><path class="cls-19" d="M1003.84,125.47l-.06.09s-.02-.01-.02-.02c-.14-.09-.28-.05-.38.11l-.22.35-.09-.06.43-.68.09.06-.08.13c.1-.06.22-.06.34.02Z"/><path class="cls-19" d="M1004.63,125.97l-.38.6c-.15.23-.33.27-.55.12-.12-.08-.22-.19-.25-.3l.09-.04c.03.1.1.2.21.26.17.11.3.08.41-.09l.05-.09c-.11.05-.24.03-.35-.04-.19-.12-.25-.35-.13-.54.12-.2.35-.24.55-.11.11.07.18.18.18.31l.08-.13.09.05ZM1004.33,126.24c.09-.15.05-.32-.1-.41-.15-.09-.32-.06-.41.09s-.05.32.1.41c.15.09.32.06.42-.09Z"/><path class="cls-19" d="M1005.24,126.87l-.57-.36c-.08.15-.03.31.12.41.08.05.17.07.26.04v.09c-.09.03-.21.01-.32-.05-.21-.13-.26-.37-.14-.57.13-.2.36-.26.55-.14.19.12.24.35.11.55,0,0-.01.02-.02.03ZM1004.72,126.44l.48.3c.07-.14.03-.29-.1-.38-.13-.08-.29-.05-.38.07Z"/><path class="cls-19" d="M1006.11,127.3l-.25.39-.09-.06.24-.38c.09-.14.06-.26-.07-.35-.15-.09-.29-.06-.39.1l-.22.36-.09-.06.43-.68.09.06-.08.12c.1-.05.22-.04.34.03.17.11.22.27.1.47Z"/><path class="cls-19" d="M1006.26,127.47c.13-.2.36-.25.57-.12.12.07.18.18.18.3h-.1c0-.09-.05-.17-.13-.22-.15-.09-.32-.06-.42.1-.1.16-.06.33.09.43.08.05.17.06.26.02l.04.09c-.11.05-.24.04-.35-.03-.2-.13-.26-.36-.13-.57Z"/><path class="cls-19" d="M1007.83,127.99l-.82.55c-.14.1-.24.09-.34.03-.06-.04-.11-.1-.13-.17l.09-.04c.01.06.04.1.09.13.06.04.12.04.21-.02l.07-.05.12-.87.1.06-.11.74.62-.42.09.06Z"/><path class="cls-19" d="M1008.64,128.49l-.06.09s-.02-.01-.02-.02c-.14-.09-.28-.05-.38.11l-.22.35-.09-.06.43-.68.09.06-.08.13c.1-.06.22-.06.34.02Z"/><path class="cls-19" d="M1009.16,129.34l-.57-.36c-.08.15-.03.31.12.41.08.05.17.07.26.04v.09c-.09.03-.21.01-.32-.05-.21-.13-.27-.37-.14-.57.13-.2.36-.26.55-.13.19.12.24.35.11.55,0,0-.01.02-.02.03ZM1008.63,128.91l.48.3c.07-.14.03-.29-.1-.38-.13-.08-.29-.05-.38.07Z"/><path class="cls-19" d="M1009.1,129.63l.09-.04c.03.08.1.17.19.23.13.08.21.07.25,0,.11-.18-.42-.31-.25-.58.07-.11.22-.13.39-.02.09.06.17.14.2.21l-.09.05c-.03-.08-.09-.14-.16-.18-.12-.08-.21-.06-.25,0-.12.18.41.32.25.58-.07.12-.22.13-.4.02-.11-.07-.2-.17-.22-.26Z"/><path class="cls-19" d="M1010.57,130.23l-.57-.36c-.08.15-.03.31.12.41.08.05.17.07.26.04v.09c-.09.04-.21.01-.32-.05-.21-.13-.26-.37-.14-.57.13-.2.36-.26.55-.14s.24.35.11.55c0,0-.01.02-.02.03ZM1010.04,129.8l.48.3c.07-.14.03-.29-.1-.38-.13-.08-.29-.05-.38.08Z"/><path class="cls-19" d="M1011.33,130.19l-.06.09s-.02-.01-.02-.02c-.14-.09-.28-.05-.38.11l-.22.35-.09-.06.43-.68.09.06-.08.13c.1-.06.22-.06.34.02Z"/><path class="cls-19" d="M1012.1,130.68l-.73.49-.09-.06.13-.87.1.06-.11.74.62-.42.09.06Z"/><path class="cls-19" d="M1012.57,131.49l-.57-.36c-.08.15-.03.31.12.4.08.05.17.07.26.04v.09c-.09.03-.21.01-.32-.05-.21-.13-.26-.37-.14-.57.13-.2.36-.26.55-.14.19.12.24.35.11.55,0,0-.01.02-.02.03ZM1012.04,131.07l.48.3c.07-.14.03-.29-.1-.38-.13-.08-.29-.05-.38.08Z"/><path class="cls-19" d="M1037.01,137.98c-.05.24-.25.37-.47.32-.13-.03-.23-.11-.27-.22l-.03.16-.1-.02.22-1.11.11.02-.09.47c.09-.09.21-.12.33-.1.22.04.36.24.31.48ZM1036.91,137.96c.04-.18-.07-.33-.23-.36-.17-.03-.32.06-.35.25-.04.18.07.33.23.36.17.03.32-.06.35-.25Z"/><path class="cls-19" d="M1037.91,138.2l-.66-.13c-.02.17.08.3.25.33.1.02.19,0,.26-.05l.05.08c-.09.07-.21.09-.33.07-.25-.05-.38-.25-.33-.48.05-.23.24-.37.46-.32s.35.24.3.48c0,0,0,.02,0,.03ZM1037.27,137.99l.56.11c.02-.16-.07-.29-.23-.32-.15-.03-.29.06-.33.21Z"/><path class="cls-19" d="M1038.87,138.29l-.09.46-.11-.02.09-.45c.03-.17-.04-.27-.19-.3-.17-.03-.3.05-.33.23l-.08.41-.11-.02.16-.79.1.02-.03.15c.08-.08.19-.12.33-.09.19.04.3.17.26.4Z"/><path class="cls-19" d="M1039.83,138.58l-.66-.13c-.02.17.08.3.25.33.1.02.19,0,.26-.05l.05.08c-.09.07-.21.09-.33.07-.25-.05-.38-.25-.33-.48.05-.23.24-.37.46-.32s.35.24.3.48c0,0,0,.02,0,.03ZM1039.19,138.37l.56.11c.02-.16-.07-.29-.23-.32-.15-.03-.29.06-.33.21Z"/><path class="cls-19" d="M1040.46,137.91c.06.01.12.04.15.08l-.05.07s-.06-.05-.11-.06c-.09-.02-.15.02-.17.12l-.02.09.24.05-.02.09-.24-.05-.14.7-.11-.02.14-.7-.14-.03.02-.09.14.03.02-.1c.03-.14.13-.22.28-.19ZM1040.76,138.32l.11.02-.16.79-.11-.02.16-.79ZM1040.95,138.09s-.05.07-.09.06c-.04,0-.07-.05-.06-.09,0-.04.05-.07.09-.06.04,0,.07.05.06.09Z"/><path class="cls-19" d="M1041.01,138.78c.05-.24.25-.37.49-.32.13.03.23.1.28.22l-.09.04c-.04-.09-.12-.14-.21-.16-.17-.03-.32.06-.36.25-.04.19.06.33.24.37.09.02.18,0,.25-.07l.07.07c-.08.09-.21.12-.34.1-.24-.05-.37-.25-.33-.48Z"/><path class="cls-19" d="M1042.01,138.57l.11.02-.16.79-.11-.02.16-.79ZM1042.04,138.31s.05-.07.09-.06c.04,0,.07.05.06.09,0,.04-.05.07-.09.06-.04,0-.07-.05-.06-.09Z"/><path class="cls-19" d="M1042.95,139.06l-.1.49-.1-.02.02-.12c-.06.07-.17.1-.3.08-.18-.04-.27-.15-.24-.29.02-.12.12-.21.35-.16l.25.05v-.05c.04-.13-.03-.22-.17-.25-.1-.02-.21,0-.28.04l-.03-.09c.09-.05.22-.07.34-.04.2.04.3.17.26.37ZM1042.79,139.29l.03-.13-.25-.05c-.15-.03-.21.02-.23.1-.02.09.04.16.17.19.12.02.22-.02.28-.11Z"/><path class="cls-19" d="M1043.7,138.89l-.02.1s-.02,0-.03,0c-.16-.03-.29.05-.32.24l-.08.4-.11-.02.16-.79.1.02-.03.15c.07-.09.18-.13.33-.1Z"/><path class="cls-19" d="M1043.89,138.94l.11.02-.16.79-.11-.02.16-.79ZM1043.91,138.68s.05-.07.09-.06c.04,0,.07.05.06.09,0,.04-.05.07-.09.06-.04,0-.07-.05-.06-.09Z"/><path class="cls-19" d="M1044.89,139.58l-.66-.13c-.02.17.08.3.25.33.1.02.19,0,.26-.05l.05.08c-.09.07-.21.09-.33.07-.25-.05-.38-.25-.33-.48.05-.23.24-.37.46-.32.22.04.35.24.3.48,0,0,0,.02,0,.03ZM1044.25,139.37l.56.11c.02-.16-.07-.29-.23-.32-.15-.03-.29.06-.33.21Z"/><path class="cls-19" d="M1044.95,139.87l.06-.07c.05.06.15.12.26.14.15.03.22,0,.24-.09.04-.21-.5-.15-.44-.46.03-.13.16-.2.36-.16.1.02.21.07.26.13l-.06.08c-.06-.06-.14-.1-.22-.11-.14-.03-.22.01-.23.09-.04.21.5.15.44.46-.03.14-.16.2-.37.16-.13-.03-.25-.09-.3-.16Z"/><path class="cls-19" d="M1002.31,121.27l.09.06-.6.96-.09-.06.6-.96Z"/><path class="cls-19" d="M1002.2,122.07c.13-.2.36-.25.56-.13.2.12.25.36.13.56-.13.2-.36.25-.56.13-.2-.13-.26-.36-.13-.56ZM1002.79,122.45c.1-.16.06-.33-.08-.42-.14-.09-.32-.05-.42.11-.1.16-.06.33.09.42.14.09.32.05.42-.11Z"/><path class="cls-19" d="M1003.01,122.58c.13-.2.36-.25.56-.13.2.12.25.36.13.56-.13.2-.37.25-.56.13s-.25-.36-.13-.56ZM1003.6,122.96c.1-.16.06-.33-.09-.42s-.32-.05-.42.1c-.1.16-.06.33.09.42s.32.05.42-.11Z"/><path class="cls-19" d="M1004.14,123.29l-.25.05-.12.19-.09-.06.6-.96.09.06-.41.65.64-.12.11.07-.47.09.06.6-.11-.07-.06-.51Z"/><path class="cls-19" d="M1005.69,124.27c-.13.21-.36.26-.56.13-.11-.07-.18-.18-.17-.31l-.08.13-.09-.05.6-.96.09.06-.26.41c.11-.05.23-.04.34.03.19.12.25.35.12.56ZM1005.6,124.21c.1-.16.06-.33-.09-.42-.14-.09-.32-.05-.42.1-.1.16-.06.33.09.42.14.09.32.05.42-.1Z"/><path class="cls-19" d="M1006.44,124.63l-.27.42-.09-.06.07-.11c-.08.04-.19.04-.31-.04-.15-.1-.2-.24-.12-.35.07-.1.19-.15.38-.03l.22.14.03-.04c.07-.12.05-.22-.08-.3-.09-.06-.19-.08-.28-.06v-.09c.11-.01.23.01.33.08.18.11.22.26.11.44ZM1006.21,124.79l.07-.11-.21-.13c-.13-.08-.21-.06-.25.01-.05.08-.02.17.09.24.1.06.21.06.3,0Z"/><path class="cls-19" d="M1006.57,124.83c.13-.2.36-.25.57-.12.11.07.18.18.18.3h-.1c0-.09-.05-.17-.13-.22-.15-.09-.32-.06-.42.1-.1.16-.06.33.09.43.08.05.17.06.26.02l.04.09c-.11.05-.24.04-.35-.03-.2-.13-.26-.36-.13-.57Z"/><path class="cls-19" d="M1007.61,125.48l-.25.05-.12.19-.09-.06.6-.96.09.06-.41.65.64-.12.11.07-.47.1.06.6-.11-.07-.06-.51Z"/><path class="cls-19" d="M1008.05,126.14s-.03.04-.06.06l-.17.14-.06-.04.16-.16s-.03-.06,0-.1c.03-.04.07-.05.11-.03.04.03.05.07.02.11Z"/><path class="cls-19" d="M1009.15,125.59l.09.06-.6.96-.09-.06.6-.96Z"/><path class="cls-19" d="M1009.04,126.38c.13-.2.36-.25.56-.13.2.12.25.36.13.56-.13.2-.37.25-.56.13-.2-.13-.25-.36-.13-.56ZM1009.63,126.76c.1-.16.06-.33-.08-.42-.14-.09-.32-.05-.42.11-.1.16-.06.33.09.42.14.09.32.05.42-.11Z"/><path class="cls-19" d="M1009.84,126.89c.13-.2.36-.25.56-.13.2.12.25.36.13.56-.13.2-.37.25-.56.13-.2-.12-.25-.36-.13-.56ZM1010.44,127.27c.1-.16.06-.33-.08-.42-.14-.09-.32-.05-.42.1-.1.16-.06.33.09.43.14.09.32.05.42-.11Z"/><path class="cls-19" d="M1010.97,127.6l-.25.05-.12.19-.09-.06.6-.96.09.06-.41.65.64-.12.11.07-.47.09.06.6-.11-.07-.06-.51Z"/><path class="cls-19" d="M1012.21,127.8l-.05.08.21.13-.05.08-.21-.13-.38.6-.09-.06.38-.6-.12-.08.05-.08.12.08.05-.08c.08-.12.2-.16.33-.07.05.03.09.08.11.13l-.07.05s-.04-.07-.08-.1c-.08-.05-.15-.03-.2.05Z"/><path class="cls-19" d="M1012.2,128.38c.13-.2.36-.25.56-.13.2.12.25.36.13.56-.13.2-.37.25-.56.13-.2-.13-.25-.36-.13-.56ZM1012.79,128.75c.1-.16.06-.33-.08-.42-.14-.09-.32-.05-.42.11-.1.16-.06.33.09.42.14.09.32.05.42-.11Z"/><path class="cls-19" d="M1013.63,128.8l-.06.09s-.02-.01-.02-.02c-.14-.09-.28-.05-.38.11l-.22.35-.09-.06.43-.68.09.06-.08.13c.1-.06.22-.06.34.02Z"/><path class="cls-19" d="M1014.82,129.56l-.69.52-.09-.05.14-.69-.57.42-.09-.05.17-.84.09.06-.15.71.58-.44.08.05-.15.71.58-.44.08.05Z"/><path class="cls-19" d="M1015.29,130.21l-.27.42-.09-.05.07-.11c-.08.04-.19.04-.31-.04-.15-.1-.2-.24-.12-.35.07-.11.19-.15.38-.03l.22.14.03-.04c.07-.12.05-.22-.08-.3-.09-.05-.19-.08-.28-.06v-.09c.11-.01.23.01.33.08.18.11.22.26.11.44ZM1015.06,130.37l.07-.11-.21-.13c-.13-.08-.21-.06-.25,0-.05.08-.02.17.09.24.1.07.21.06.3,0Z"/><path class="cls-19" d="M1016.05,130.32l-.06.09s-.02-.01-.02-.02c-.14-.09-.28-.05-.38.11l-.22.35-.09-.06.43-.68.09.06-.08.13c.1-.06.22-.06.34.02Z"/><path class="cls-19" d="M1017,130.54l-.6.96-.09-.06.08-.13c-.11.06-.24.05-.35-.02-.19-.12-.25-.35-.12-.56.13-.21.36-.25.55-.13.11.07.17.17.17.3l.26-.41.09.06ZM1016.52,131.1c.1-.16.06-.33-.08-.42-.14-.09-.32-.05-.42.11-.1.16-.06.33.09.42.14.09.32.05.42-.11Z"/><path class="cls-19" d="M1038.92,143.67s-.12.03-.18.02c-.15-.03-.21-.13-.19-.28l.09-.48-.14-.03.02-.09.14.03.03-.17.11.02-.03.17.24.05-.02.09-.24-.05-.09.47c-.02.09.02.15.11.17.04,0,.09,0,.12-.02l.02.08Z"/><path class="cls-19" d="M1039.79,143.39l-.1.49-.1-.02.02-.12c-.06.07-.17.1-.3.08-.18-.04-.27-.15-.24-.29.02-.12.12-.21.35-.16l.25.05v-.05c.04-.13-.03-.22-.17-.25-.1-.02-.2,0-.28.04l-.03-.09c.09-.05.22-.07.34-.04.2.04.3.17.26.37ZM1039.64,143.62l.03-.13-.25-.05c-.15-.03-.21.02-.23.1-.02.09.04.16.17.19.12.02.22-.02.28-.11Z"/><path class="cls-19" d="M1040.49,144.03l-.18-.38-.32.28-.12-.02.39-.34-.22-.44.12.02.17.36.3-.26.12.02-.37.33.23.47-.12-.02Z"/><path class="cls-19" d="M1041.52,143.86l-.66-.13c-.02.17.08.3.25.33.1.02.19,0,.26-.05l.05.08c-.09.07-.21.09-.33.07-.25-.05-.38-.25-.33-.48.05-.23.24-.37.46-.32s.35.24.3.48c0,0,0,.02,0,.03ZM1040.87,143.65l.56.11c.02-.16-.07-.29-.23-.32-.15-.03-.29.06-.33.21Z"/><path class="cls-19" d="M1041.57,144.15l.06-.07c.05.06.15.12.26.14.15.03.22,0,.24-.09.04-.21-.5-.15-.44-.46.03-.13.16-.2.36-.16.1.02.21.07.26.13l-.06.08c-.06-.06-.14-.1-.22-.11-.14-.03-.22.01-.23.09-.04.21.5.15.44.46-.03.14-.17.2-.37.16-.13-.03-.25-.09-.3-.16Z"/><path class="cls-19" d="M1019.79,109.19l.08.05.56-.88-.08-.05.2-.32.5.32-.08.13c.06-.02.12-.03.19-.04.07,0,.14.02.2.06.13.08.19.19.19.33,0,.14-.06.3-.17.48-.12.18-.24.3-.36.36-.13.06-.25.05-.38-.03-.06-.04-.11-.09-.14-.15-.03-.06-.04-.12-.05-.19l-.16.25.13.08-.2.32-.63-.4.2-.32ZM1020.77,109.16s.06-.04.09-.08l.12-.2s.04-.08.03-.11c0-.03-.03-.06-.06-.08-.04-.02-.07-.03-.1-.02-.03,0-.06.04-.09.08l-.12.2s-.04.08-.03.11c0,.03.03.06.06.08.04.02.07.03.1.02Z"/><path class="cls-19" d="M1022.64,109.28s.03.04.04.05l-.24.38c-.04-.05-.08-.1-.14-.14-.08-.05-.15-.07-.22-.05-.07.02-.13.07-.18.15l-.11.17.17.11-.2.32-.67-.42.2-.32.08.05.28-.45-.08-.05.2-.32.5.32-.09.14c.07-.03.13-.05.2-.05.06,0,.13.02.19.06.03.02.05.03.07.05Z"/><path class="cls-19" d="M1022.27,110.43c-.04-.16,0-.33.12-.52s.26-.3.42-.33c.16-.04.33,0,.5.11.18.11.28.25.32.41.04.16,0,.33-.12.52-.12.19-.26.3-.42.33s-.33,0-.5-.11c-.17-.11-.28-.24-.32-.4ZM1022.9,110.5s.06-.04.09-.08l.12-.2s.04-.08.03-.11c0-.03-.02-.06-.06-.08-.04-.02-.07-.03-.1-.02-.03,0-.06.04-.09.08l-.12.2s-.04.08-.03.11c0,.03.03.06.06.08.04.02.07.03.1.02Z"/><path class="cls-19" d="M1023.42,111.22c-.02-.11.02-.24.12-.4l.22-.36-.08-.05.2-.32s.09.04.13.03c.04-.01.07-.04.1-.08l.06-.09.39.25-.15.23.25.16-.2.32-.25-.16-.2.32s-.04.08-.03.11c0,.03.03.06.06.08.05.03.1.06.16.08l-.19.31s-.1-.02-.16-.05c-.07-.02-.13-.06-.19-.09-.13-.08-.21-.18-.23-.29Z"/><path class="cls-19" d="M1024.26,111.69c-.04-.16,0-.33.12-.52s.26-.3.42-.33c.16-.04.33,0,.5.11.17.11.27.24.28.38.02.14-.02.29-.11.43l-.09.14-.6-.38h0c-.03.06-.04.1-.03.14.01.04.05.08.11.12.07.05.15.09.22.12.08.03.14.05.21.07l-.2.31c-.06,0-.14-.02-.23-.05-.09-.03-.19-.08-.29-.14-.17-.11-.28-.24-.32-.4ZM1025.14,111.44v-.02s.05-.08.05-.11c0-.03-.03-.06-.06-.08-.04-.02-.07-.03-.1-.02-.03,0-.06.04-.09.08v.02s.2.13.2.13Z"/><path class="cls-19" d="M1025.36,112.38c-.04-.16,0-.33.12-.52.12-.19.26-.3.42-.33.16-.04.33,0,.5.11.08.05.16.12.22.19.06.07.1.14.13.2l-.25.39-.32-.2.02-.04s.04-.08.04-.11-.02-.06-.06-.08c-.07-.04-.13-.03-.19.06l-.11.17c-.06.1-.04.19.07.25.1.07.23.13.38.19l-.19.31c-.05,0-.12-.03-.21-.06-.09-.03-.17-.07-.25-.12-.17-.11-.28-.25-.32-.4Z"/><path class="cls-19" d="M1026.38,113.09c-.02-.11.02-.24.12-.4l.22-.35-.08-.05.2-.32s.09.04.13.03c.04-.01.07-.04.1-.08l.06-.09.39.25-.15.23.25.16-.2.32-.25-.16-.2.32s-.04.08-.03.11c0,.03.03.06.06.08.05.03.1.06.16.08l-.19.31s-.1-.02-.16-.05c-.07-.02-.13-.06-.19-.09-.13-.08-.21-.18-.23-.29Z"/><path class="cls-19" d="M1035.94,117.29c-.09-.03-.16-.07-.21-.1l.07-.37c.15.06.28.1.4.12.08.02.14.01.18,0,.04-.02.07-.06.08-.14l.02-.1s-.1.08-.16.1c-.06.03-.13.03-.21.02-.15-.03-.24-.11-.29-.24-.05-.13-.05-.3-.01-.51.04-.21.11-.37.21-.47.1-.1.22-.14.36-.11.07.01.13.05.18.1.05.05.09.1.11.16l.03-.15.59.12-.07.37-.09-.02-.16.8c-.04.22-.13.37-.25.45-.12.08-.29.1-.49.06-.1-.02-.2-.05-.29-.08ZM1036.51,116.44s.04-.05.05-.1l.04-.23s0-.09,0-.12-.04-.04-.09-.05c-.04,0-.08,0-.1.02-.03.02-.04.05-.05.1l-.04.23s0,.09,0,.12.04.05.09.05c.04,0,.08,0,.1-.02Z"/><path class="cls-19" d="M1038.35,115.89s.04.02.06.04l-.09.43c-.05-.04-.11-.06-.18-.08-.09-.02-.16,0-.22.03-.06.04-.1.11-.12.21l-.04.2.19.04-.07.37-.78-.15.07-.37.09.02.1-.52-.09-.02.07-.37.59.12-.03.17c.05-.05.11-.09.17-.12.06-.02.12-.03.2-.01.03,0,.05.01.08.02Z"/><path class="cls-19" d="M1038.42,117.1c-.09-.14-.12-.31-.07-.53.04-.22.13-.37.27-.46.14-.09.31-.11.51-.07.21.04.35.13.44.26.09.14.11.31.07.53-.04.22-.13.37-.27.46-.14.09-.31.12-.51.08s-.35-.13-.44-.26ZM1039.04,116.94s.04-.05.05-.1l.04-.23s0-.09,0-.12c-.02-.03-.04-.05-.09-.05-.04,0-.07,0-.1.02s-.04.05-.05.1l-.04.23s0,.09,0,.12c.02.03.04.04.09.05.04,0,.08,0,.1-.02Z"/><path class="cls-19" d="M1039.94,117.54l-.11-.95-.09-.02.07-.37.66.13-.07.37-.09-.02v.37s.03,0,.03,0l.3-.7.39.08v.76s.03,0,.03,0l.15-.34-.09-.02.07-.37.62.12-.07.37-.09-.02-.45.84-.52-.1v-.66s-.01,0-.01,0l-.24.61-.49-.1Z"/><path class="cls-19" d="M1005.68,121.12l-.2.32-.54-.34.1-.15c-.17.06-.33.05-.47-.04-.11-.07-.17-.15-.18-.26-.01-.1.02-.21.1-.33l.26-.41-.09-.05.2-.32.54.34-.41.64s-.04.08-.03.11c0,.03.03.06.07.08s.07.03.1.02c.03,0,.06-.04.09-.08l.2-.32-.11-.07.2-.32.56.35-.49.77.09.05Z"/><path class="cls-19" d="M1007.04,121.97l-.2.32-.62-.39.2-.32.08.05.2-.32s.04-.08.03-.11c0-.03-.03-.06-.06-.08-.08-.05-.14-.03-.2.05l-.2.32.08.05-.2.32-.62-.39.2-.32.09.05.28-.45-.09-.05.2-.32.54.34-.1.15c.17-.06.33-.05.47.04.11.07.17.15.18.26.01.1-.02.21-.09.33l-.26.41.09.05Z"/><path class="cls-19" d="M1007.06,122.27c0-.14.05-.3.17-.49.12-.18.24-.3.37-.36.13-.06.26-.04.39.04.07.04.12.1.15.16.03.07.05.13.06.19l.16-.25-.12-.07.2-.32.57.36-.76,1.2.09.05-.2.32-.54-.34.08-.13c-.06.02-.12.03-.2.03s-.14-.02-.21-.06c-.13-.08-.2-.2-.21-.34ZM1007.79,122.4s.06-.04.09-.08l.12-.2s.04-.08.03-.11c0-.03-.03-.06-.07-.08s-.07-.03-.11-.02c-.03,0-.06.03-.09.08l-.12.2s-.04.08-.03.11c0,.03.03.06.07.08s.07.03.1.02Z"/><path class="cls-19" d="M1008.42,123.12c-.04-.16,0-.34.11-.53.12-.19.26-.29.43-.33.17-.03.34.01.53.13.18.12.29.25.31.4s-.01.29-.1.44l-.09.14-.64-.4h0c-.03.06-.04.11-.02.15.01.04.05.08.12.12.08.05.16.09.24.13s.15.06.22.07l-.2.31c-.06,0-.14-.02-.24-.06-.1-.04-.2-.09-.31-.15-.19-.12-.3-.26-.34-.42ZM1009.33,122.9v-.02s.05-.08.05-.11c0-.03-.03-.06-.07-.08-.04-.02-.07-.03-.1-.02-.03,0-.06.03-.09.08v.02s.21.14.21.14Z"/><path class="cls-19" d="M1010.97,123.35s.04.04.05.06l-.24.37c-.04-.06-.09-.1-.15-.14-.08-.05-.16-.07-.23-.05-.07.02-.13.07-.19.15l-.11.17.18.11-.2.32-.71-.45.2-.32.09.05.28-.45-.09-.05.2-.32.54.34-.09.14c.07-.03.14-.05.21-.05s.13.02.2.06c.03.02.05.04.07.06Z"/><path class="cls-19" d="M1010.42,124.48l.18-.29.32.2v.02c-.05.06-.03.12.05.17.07.04.12.04.15,0,.02-.03.02-.05,0-.08-.01-.03-.04-.06-.08-.1l-.09-.08c-.18-.17-.21-.35-.09-.54.07-.11.17-.17.3-.18.13,0,.26.03.41.12.16.1.29.22.36.34l-.17.27-.3-.19v-.02s.03-.05.02-.08c0-.02-.03-.05-.06-.07-.07-.04-.11-.04-.14,0-.01.02-.02.04,0,.07.01.02.04.05.08.1l.1.09c.1.1.16.19.17.28.01.09-.01.18-.07.28-.07.12-.17.18-.3.19-.12.01-.26-.03-.41-.13-.17-.11-.31-.23-.43-.38Z"/><path class="cls-19" d="M1011.62,125.21c-.03-.11,0-.25.11-.41l.22-.36-.09-.05.2-.32s.09.04.13.03c.04-.01.08-.04.1-.08l.06-.09.42.26-.15.23.26.17-.2.32-.26-.17-.2.32s-.04.08-.03.11c0,.03.03.06.07.08.05.03.11.06.17.08l-.19.31s-.1-.03-.17-.05c-.07-.03-.14-.06-.2-.1-.14-.09-.22-.19-.25-.3Z"/><path class="cls-19" d="M1013.64,126.13l-.2.32-.52-.33.08-.13c-.05.02-.12.04-.19.04-.07,0-.15-.02-.22-.07-.1-.06-.16-.14-.18-.22-.02-.09,0-.18.06-.27.16-.25.45-.24.87.02.02-.05.03-.09,0-.12-.02-.04-.07-.08-.14-.12-.06-.04-.13-.07-.2-.1-.08-.03-.15-.05-.22-.07l.23-.36c.08.03.16.06.25.1s.17.09.25.13c.2.12.31.25.35.37.04.12.01.26-.08.41l-.23.36.09.05ZM1013.21,125.67c-.06-.04-.11-.06-.15-.06-.04,0-.07.01-.1.05-.01.02-.02.04-.01.07,0,.02.02.04.04.06.03.02.07.02.11,0,.04-.02.07-.05.1-.11h0Z"/><path class="cls-19" d="M1015,126.99l-.2.32-.62-.39.2-.32.08.05.2-.32s.04-.08.03-.11c0-.03-.03-.06-.06-.08-.08-.05-.14-.03-.2.05l-.2.32.08.05-.2.32-.62-.39.2-.32.09.05.28-.45-.09-.05.2-.32.54.34-.1.15c.17-.06.33-.05.47.04.11.07.17.15.18.26.01.1-.02.21-.09.33l-.26.41.09.05Z"/><path class="cls-19" d="M1015.02,127.29c0-.14.05-.3.17-.49.12-.18.24-.3.37-.36.13-.06.26-.04.39.04.07.04.12.1.15.16.03.07.05.13.06.19l.16-.25-.12-.07.2-.32.57.36-.76,1.2.09.05-.2.32-.54-.34.08-.13c-.06.02-.13.03-.2.03-.07,0-.14-.02-.21-.06-.13-.08-.2-.2-.21-.34ZM1015.75,127.42s.06-.04.09-.08l.12-.2s.04-.08.03-.11c0-.03-.03-.06-.07-.08s-.07-.03-.11-.02c-.03,0-.06.03-.09.08l-.12.2s-.04.08-.03.11c0,.03.03.06.07.08s.07.03.1.02Z"/><path class="cls-19" d="M1038.6,135.29l-.07.37-.6-.12.03-.15s-.1.08-.17.1-.14.03-.23.01c-.11-.02-.2-.07-.25-.14-.05-.07-.07-.17-.05-.28.06-.29.33-.39.82-.3,0-.05,0-.09-.04-.12-.03-.03-.09-.05-.17-.06-.07-.01-.14-.02-.22-.02s-.16,0-.23.01l.08-.42c.08,0,.17,0,.27,0,.1,0,.19.02.28.04.23.04.38.12.46.22.08.1.1.24.07.41l-.08.42.1.02ZM1038.03,135.01c-.07-.01-.12-.01-.16,0-.04.01-.07.04-.07.08,0,.03,0,.05.01.07.01.02.03.03.06.04.04,0,.07,0,.1-.03s.05-.07.06-.13h0Z"/><path class="cls-19" d="M1038.79,135.57c-.1-.14-.13-.31-.08-.53.04-.22.14-.37.28-.46.14-.09.32-.11.54-.07.11.02.2.05.29.1.09.05.16.09.2.14l-.09.45-.39-.08v-.04s.01-.09,0-.12c-.02-.03-.05-.05-.09-.05-.09-.02-.14.02-.16.12l-.04.2c-.02.12.03.19.17.22.13.03.28.04.45.05l-.07.36c-.06.01-.13.02-.23.02-.1,0-.2-.01-.3-.03-.22-.04-.37-.13-.47-.27Z"/><path class="cls-19" d="M1040.09,135.88c-.07-.09-.08-.23-.04-.42l.08-.41-.1-.02.07-.37c.06.01.1,0,.14-.02s.06-.06.07-.11l.02-.1.48.1-.05.27.31.06-.07.37-.31-.06-.07.37s0,.09.01.12c.02.03.05.05.09.05.06.01.12.02.19.02l-.07.36s-.11.01-.18.01c-.07,0-.15,0-.22-.02-.16-.03-.27-.09-.34-.19Z"/><path class="cls-19" d="M1040.9,136.13l.07-.37.1.02.1-.52-.1-.02.07-.37.62.12-.18.89.1.02-.07.37-.72-.14ZM1041.28,134.76l.08-.38.46.09-.08.38-.46-.09Z"/><path class="cls-19" d="M1041.88,136.18c-.1-.14-.13-.31-.08-.53.04-.22.14-.37.28-.46.14-.09.32-.11.54-.07.22.04.38.13.47.27.1.14.12.32.08.53-.04.22-.14.37-.28.46-.14.09-.32.11-.54.07-.21-.04-.37-.13-.47-.27ZM1042.54,136.03s.04-.05.05-.1l.05-.23s0-.09-.01-.12c-.02-.03-.05-.05-.09-.05s-.08,0-.11.02c-.03.02-.04.05-.05.1l-.04.23s0,.09.01.12c.02.03.05.05.09.05.04,0,.08,0,.11-.02Z"/><path class="cls-19" d="M1044.71,136.5l-.07.37-.72-.14.07-.37.09.02.07-.37s0-.09,0-.12-.05-.05-.09-.05c-.09-.02-.15.02-.17.12l-.07.37.1.02-.07.37-.72-.14.07-.37.1.02.1-.52-.1-.02.07-.37.62.12-.04.18c.14-.12.29-.16.45-.13.13.03.21.08.26.17.05.09.06.21.03.34l-.09.48.1.02Z"/><path class="cls-6" d="M1032.35,100.11s-.09-.08-.11-.11l.13-.21c.08.07.16.13.23.18.05.03.09.05.12.04.03,0,.06-.02.09-.06l.04-.06s-.08.02-.13.02-.09-.01-.14-.04c-.09-.06-.13-.13-.14-.22,0-.09.03-.2.11-.32s.16-.2.24-.24c.09-.04.17-.03.26.03.04.03.08.06.1.11s.03.08.04.13l.06-.09.35.22-.13.21-.06-.04-.29.45c-.08.12-.17.2-.26.21-.1.02-.21-.01-.33-.09-.06-.04-.12-.08-.17-.12ZM1032.92,99.73s.04-.02.06-.05l.08-.13s.02-.05.02-.07c0-.02-.02-.04-.04-.05-.03-.02-.05-.02-.07-.02-.02,0-.04.02-.06.05l-.08.13s-.02.05-.02.07c0,.02.02.04.04.06.02.02.05.02.07.02Z"/><path class="cls-6" d="M1033.33,100.2c-.03-.11,0-.22.07-.35.08-.12.17-.19.28-.22.11-.02.22,0,.35.08.12.08.2.17.23.28.03.11,0,.22-.07.34-.08.12-.17.19-.28.21-.11.02-.23,0-.35-.08-.12-.08-.2-.17-.23-.28ZM1033.77,100.27s.04-.02.06-.05l.08-.13s.02-.05.02-.08c0-.02-.02-.04-.04-.06s-.05-.02-.07-.02c-.02,0-.04.02-.06.05l-.08.13s-.03.05-.02.07c0,.02.02.04.04.05s.05.02.07.02Z"/><path class="cls-6" d="M1034.88,101l-.13.21-.34-.21.06-.09s-.08.02-.13.02-.1-.02-.14-.05c-.06-.04-.11-.09-.12-.15-.01-.06,0-.12.04-.18.1-.16.29-.16.57,0,.02-.03.02-.06,0-.08-.01-.02-.04-.05-.09-.08-.04-.02-.08-.05-.13-.07s-.1-.03-.14-.04l.15-.24c.05.02.11.04.17.07.06.03.11.06.16.09.13.08.21.16.23.24.03.08,0,.17-.05.27l-.15.24.06.04ZM1034.6,100.69s-.07-.04-.1-.04c-.03,0-.05,0-.06.03,0,.02-.01.03,0,.04,0,.01.01.03.03.04.02.01.04.01.07,0,.03-.01.05-.03.07-.07h0Z"/><path class="cls-6" d="M1034.79,101.24l.13-.21.06.04.37-.58-.06-.04.13-.21.35.22-.5.79.06.04-.13.21-.41-.26Z"/><path class="cls-6" d="M1035.26,101.49l.12-.19.21.13h0c-.03.05-.01.09.04.12.05.03.08.03.1,0,.01-.02.01-.03,0-.05,0-.02-.03-.04-.06-.07l-.06-.05c-.12-.11-.14-.23-.06-.36.05-.07.11-.11.19-.12.08,0,.17.02.27.08.11.07.19.14.24.23l-.11.18-.2-.12h0s.01-.05,0-.06-.02-.03-.04-.05c-.04-.03-.07-.03-.09,0,0,.01,0,.03,0,.04s.02.04.05.06l.06.06c.07.06.11.12.11.18,0,.06,0,.12-.05.18-.05.08-.11.12-.2.13s-.17-.02-.27-.08c-.11-.07-.2-.15-.28-.25Z"/><path class="cls-6" d="M1037.29,102.52l.05-.25h.07s.13-.66.13-.66h-.07s.05-.26.05-.26l.41.08-.18.92h.07s-.05.26-.05.26l-.48-.09Z"/><path class="cls-6" d="M1037.95,102.55c-.07-.09-.08-.21-.06-.35.03-.14.09-.24.18-.3.09-.06.21-.07.35-.04.14.03.24.08.28.17.05.09.06.18.04.29l-.02.11-.49-.1h0s0,.08.02.1c.02.02.05.04.1.05.06.01.12.02.18.02.06,0,.11,0,.15,0l-.05.24s-.09.02-.16.02c-.07,0-.15,0-.22-.02-.14-.03-.25-.09-.31-.18ZM1038.46,102.2v-.02s0-.06,0-.08c-.01-.02-.03-.03-.06-.04s-.05,0-.07.01c-.02.01-.03.03-.04.07v.02s.17.04.17.04Z"/><path class="cls-6" d="M1038.87,103.18c-.06-.02-.11-.04-.15-.06l.05-.25c.1.04.19.07.28.08.06.01.1.01.13,0,.03-.01.05-.04.06-.09v-.06s-.06.05-.1.07c-.04.02-.09.02-.14.01-.1-.02-.17-.07-.21-.16-.04-.08-.04-.2-.01-.34.03-.14.08-.24.14-.31.07-.07.15-.09.25-.07.05,0,.09.03.13.06.03.03.06.07.08.11l.02-.1.41.08-.05.25h-.07s-.1.51-.1.51c-.03.15-.08.24-.17.29-.09.05-.2.06-.34.03-.07-.01-.14-.03-.2-.06ZM1039.27,102.63s.03-.04.04-.07l.03-.15s0-.06,0-.08c-.01-.02-.03-.03-.06-.04-.03,0-.05,0-.07,0-.02.01-.03.04-.04.07l-.03.15s0,.06,0,.08c.01.02.03.03.06.04.03,0,.05,0,.07,0Z"/><path class="cls-6" d="M1040.61,102.92l-.05.25-.4-.08.02-.1s-.07.05-.11.07c-.04.02-.09.02-.15,0-.08-.01-.13-.05-.17-.1-.04-.05-.05-.11-.03-.18.04-.19.22-.25.54-.2,0-.03,0-.06-.02-.08-.02-.02-.06-.03-.11-.04-.04,0-.09-.01-.15-.01-.05,0-.1,0-.15,0l.05-.28c.05,0,.11,0,.18,0,.06,0,.12.01.18.02.15.03.25.08.3.14.05.07.07.16.05.27l-.06.28h.07ZM1040.23,102.73s-.08,0-.11,0c-.03,0-.04.02-.05.05,0,.02,0,.03,0,.04,0,.01.02.02.04.03.03,0,.05,0,.07-.02.02-.02.03-.05.04-.09h0Z"/><path class="cls-6" d="M1040.74,103.1c-.07-.09-.08-.21-.06-.35.03-.14.09-.24.18-.3.09-.06.21-.07.35-.04.07.01.13.04.19.07.06.03.1.06.13.09l-.06.3-.26-.05v-.03s0-.06,0-.08c-.01-.02-.03-.03-.06-.04-.06-.01-.09.01-.11.08l-.03.13c-.02.08.02.13.11.14.08.02.18.03.29.03l-.05.24s-.09.01-.15.01-.13,0-.19-.02c-.14-.03-.25-.09-.31-.18Z"/><path class="cls-6" d="M1042.52,102.69l-.05.25h-.06s-.3.47-.3.47c-.08.12-.15.21-.23.26-.08.05-.17.07-.27.05-.04,0-.08-.02-.12-.04-.04-.02-.08-.04-.11-.06l.05-.27.21.04v.02s0,.04.03.04c.02,0,.04,0,.06-.02l-.11-.66h-.06s.05-.26.05-.26l.45.09-.05.25h-.05s.03.24.03.24l.12-.22h-.05s.05-.26.05-.26l.42.08Z"/><path class="cls-19" d="M1017.59,110.6l-.6.96-.09-.05.08-.13c-.11.06-.24.05-.35-.02-.19-.12-.25-.35-.12-.56.13-.21.36-.25.55-.13.11.07.17.17.17.3l.26-.41.09.06ZM1017.11,111.16c.1-.16.06-.33-.08-.42-.14-.09-.32-.05-.42.1-.1.16-.06.33.09.42.14.09.32.05.42-.11Z"/><path class="cls-19" d="M1018.03,111.78l-.57-.36c-.08.15-.03.31.12.4.08.05.17.07.26.04v.09c-.09.03-.21.01-.32-.05-.21-.13-.26-.37-.14-.57s.36-.26.55-.13c.19.12.24.35.11.55,0,0-.01.02-.02.03ZM1017.5,111.36l.48.3c.07-.14.03-.29-.1-.38-.13-.08-.29-.05-.38.07Z"/><path class="cls-19" d="M1018.92,112.31c-.13.21-.36.26-.56.13-.11-.07-.17-.18-.17-.3l-.08.13-.09-.05.6-.96.09.06-.26.41c.11-.05.23-.04.34.03.19.12.25.35.12.56ZM1018.83,112.25c.1-.16.06-.33-.09-.42-.14-.09-.32-.05-.42.1-.1.16-.06.33.09.42.14.09.32.05.42-.1Z"/><path class="cls-19" d="M1019.28,112.95c-.06,0-.12,0-.17-.04-.13-.08-.15-.2-.07-.32l.26-.41-.12-.08.05-.08.12.08.09-.15.09.06-.09.15.21.13-.05.08-.21-.13-.26.41c-.05.08-.04.15.04.2.04.02.08.04.12.03v.09Z"/><path class="cls-19" d="M1021.13,113.62l-.25.39-.09-.06.24-.38c.09-.14.06-.26-.06-.34-.14-.09-.28-.05-.38.1l-.22.36-.09-.06.24-.38c.09-.14.06-.26-.06-.34-.14-.09-.28-.05-.38.1l-.22.36-.09-.06.43-.68.09.05-.08.12c.1-.05.22-.04.33.03.11.07.17.17.15.3.1-.06.24-.05.36.03.17.1.21.27.09.46Z"/><path class="cls-19" d="M1021.91,114.08l-.27.42-.09-.06.07-.11c-.09.04-.19.04-.31-.04-.15-.1-.2-.24-.12-.35.07-.11.19-.15.38-.03l.21.14.03-.04c.07-.12.05-.22-.08-.3-.09-.06-.19-.08-.28-.06v-.09c.11-.01.23.01.34.08.18.11.22.26.11.44ZM1021.68,114.24l.07-.11-.21-.13c-.13-.08-.21-.06-.25.01-.05.08-.02.17.09.24.1.06.21.06.3,0Z"/><path class="cls-19" d="M1022.76,114.66l-.25.39-.09-.06.24-.38c.09-.14.06-.26-.07-.34-.15-.09-.29-.06-.39.09l-.22.36-.09-.06.43-.68.09.05-.08.12c.1-.05.22-.04.34.03.17.1.22.27.1.47Z"/><path class="cls-19" d="M1023.54,115.11l-.27.42-.09-.05.07-.11c-.08.04-.19.04-.3-.04-.15-.1-.2-.24-.12-.35.07-.11.19-.15.38-.03l.22.14.03-.04c.07-.12.05-.22-.08-.3-.09-.05-.19-.08-.28-.06v-.09c.11-.02.23.02.33.08.18.11.22.26.11.44ZM1023.31,115.27l.07-.11-.21-.13c-.13-.08-.21-.06-.25.01-.05.08-.02.17.09.24.1.07.21.06.3,0Z"/><path class="cls-19" d="M1024.59,115.41l-.38.6c-.15.23-.33.27-.55.13-.12-.08-.22-.19-.25-.3l.09-.04c.03.1.1.2.21.26.17.11.3.08.41-.09l.05-.09c-.11.05-.24.04-.35-.04-.19-.12-.25-.35-.13-.55.12-.19.35-.23.55-.11.11.07.18.18.18.3l.08-.13.09.05ZM1024.29,115.67c.09-.15.05-.32-.1-.41-.15-.09-.32-.06-.41.08-.09.15-.05.32.1.41.15.09.32.06.42-.09Z"/><path class="cls-19" d="M1025.2,116.31l-.57-.36c-.08.15-.03.31.12.4.08.05.17.07.26.04v.09c-.09.03-.21.01-.32-.05-.21-.13-.26-.37-.14-.57s.36-.26.55-.13c.19.12.24.35.11.55,0,0-.01.02-.02.03ZM1024.68,115.88l.48.3c.07-.14.03-.29-.1-.38-.13-.08-.29-.05-.38.07Z"/><path class="cls-19" d="M1026.56,117.05l-.25.39-.09-.06.24-.38c.09-.14.06-.26-.06-.34-.14-.09-.28-.05-.38.1l-.22.36-.09-.06.24-.38c.09-.14.07-.26-.06-.34-.14-.09-.28-.05-.38.1l-.22.36-.09-.06.43-.68.09.06-.08.12c.1-.05.22-.04.33.03.11.07.17.17.15.3.1-.06.24-.05.36.03.17.1.21.27.09.46Z"/><path class="cls-19" d="M1027.36,117.67l-.57-.36c-.08.15-.03.31.12.4.08.05.17.07.26.04v.09c-.09.04-.21.01-.32-.05-.21-.13-.26-.37-.14-.57.13-.2.36-.26.55-.14.19.12.24.35.11.55,0,0-.01.02-.02.03ZM1026.83,117.24l.48.3c.07-.14.03-.29-.1-.38-.13-.08-.29-.05-.38.07Z"/><path class="cls-19" d="M1028.22,118.1l-.25.39-.09-.06.24-.38c.09-.14.06-.26-.07-.35-.15-.09-.29-.06-.39.1l-.22.36-.09-.06.43-.68.09.05-.08.12c.1-.05.22-.04.34.03.17.1.22.27.1.46Z"/><path class="cls-19" d="M1028.61,118.83c-.06,0-.12,0-.17-.04-.13-.08-.15-.2-.07-.32l.26-.41-.12-.08.05-.08.12.08.09-.15.09.06-.09.15.21.13-.05.08-.21-.13-.26.41c-.05.08-.04.15.04.2.04.02.08.04.12.03v.09Z"/><path class="cls-19" d="M1015.64,112.54l.09.06-.43.68-.09-.06.43-.68ZM1015.75,112.32s.07-.05.11-.02.05.07.03.11c-.02.04-.07.05-.11.03-.04-.02-.05-.07-.03-.11Z"/><path class="cls-19" d="M1016.43,113.44l-.25.39-.09-.06.24-.38c.09-.14.06-.26-.07-.35-.15-.09-.29-.06-.39.1l-.22.36-.09-.06.43-.68.09.06-.08.12c.1-.05.22-.04.34.03.17.1.22.27.1.47Z"/><path class="cls-19" d="M1016.39,113.85l.09-.05c.03.08.1.17.19.23.13.08.21.07.25,0,.11-.18-.42-.32-.25-.58.07-.11.22-.13.39-.02.09.06.17.14.2.21l-.09.05c-.03-.08-.09-.14-.16-.19-.12-.08-.21-.06-.25,0-.12.18.41.32.25.58-.07.12-.23.13-.4.02-.11-.07-.2-.17-.22-.26Z"/><path class="cls-19" d="M1018.1,114.1l-.43.68-.09-.06.08-.12c-.1.05-.22.04-.33-.02-.17-.11-.23-.28-.1-.47l.25-.39.09.06-.24.38c-.09.14-.06.27.07.35.14.09.29.05.39-.1l.22-.36.09.06Z"/><path class="cls-19" d="M1018.71,114.47l-.06.09s-.01-.01-.02-.02c-.14-.09-.28-.05-.39.11l-.22.35-.09-.06.43-.68.09.06-.08.13c.1-.06.22-.06.34.02Z"/><path class="cls-19" d="M1019.22,115.16l-.27.42-.09-.06.07-.11c-.08.04-.19.04-.3-.04-.15-.1-.2-.24-.12-.35.07-.1.19-.15.38-.03l.22.14.03-.04c.07-.12.05-.22-.08-.3-.09-.05-.19-.08-.28-.06v-.09c.11-.02.23.01.34.08.18.11.22.26.11.44ZM1018.99,115.32l.07-.11-.21-.13c-.13-.08-.21-.06-.25.01-.05.08-.02.17.09.24.1.07.21.06.3,0Z"/><path class="cls-19" d="M1020.08,115.74l-.25.39-.09-.06.24-.38c.09-.14.06-.26-.07-.35-.15-.09-.29-.06-.39.1l-.22.36-.09-.06.43-.68.09.06-.08.12c.1-.05.22-.04.34.03.17.1.22.27.1.47Z"/><path class="cls-19" d="M1020.23,115.91c.13-.2.37-.25.57-.12.12.07.18.18.18.3h-.1c0-.09-.05-.17-.13-.22-.15-.09-.32-.06-.42.1-.1.16-.06.33.09.43.08.05.17.06.26.03l.04.09c-.11.05-.23.04-.35-.03-.2-.13-.26-.36-.13-.57Z"/><path class="cls-19" d="M1021.58,116.81l-.57-.36c-.08.15-.03.31.12.4.08.05.17.07.26.04v.09c-.09.03-.21.01-.32-.05-.21-.13-.26-.37-.14-.57s.36-.26.55-.13.24.35.11.55c0,0-.01.02-.02.03ZM1021.06,116.38l.48.3c.07-.14.03-.29-.1-.38-.13-.08-.29-.05-.38.07Z"/><path class="cls-19" d="M1021.64,117.19s.08-.06.13-.03c.04.03.05.08.02.13-.03.04-.08.06-.13.03-.04-.03-.05-.08-.03-.13ZM1021.79,117.02l.02-.04c.04-.07.11-.13.22-.17.1-.03.17-.06.2-.12.04-.06.03-.13-.05-.19-.05-.03-.11-.05-.16-.04l.02-.1c.06,0,.15.02.22.06.15.09.16.23.1.33-.05.09-.14.12-.25.15-.1.03-.16.07-.19.14l-.02.03-.1-.06Z"/><path class="cls-19" d="M1033.66,119.18l.11.02-.16.79-.11-.02.16-.79ZM1033.68,118.93s.05-.07.09-.06.07.05.06.09c0,.04-.05.07-.09.06-.04,0-.07-.05-.06-.09Z"/><path class="cls-19" d="M1034.72,119.73l-.09.46-.11-.02.09-.45c.03-.17-.04-.27-.19-.3-.17-.03-.3.05-.33.23l-.08.41-.11-.02.16-.79.1.02-.03.15c.08-.08.19-.12.33-.09.19.04.3.17.26.4Z"/><path class="cls-19" d="M1035.08,119.46l.11.02-.16.79-.11-.02.16-.79ZM1035.1,119.21s.05-.07.09-.06c.04,0,.07.05.06.09,0,.04-.05.07-.09.06-.04,0-.07-.05-.06-.09Z"/><path class="cls-19" d="M1035.75,120.36s-.12.04-.18.02c-.15-.03-.21-.13-.18-.28l.09-.48-.14-.03.02-.09.14.03.03-.17.11.02-.03.17.24.05-.02.09-.24-.05-.09.47c-.02.09.02.15.11.17.04,0,.09,0,.12-.02l.02.08Z"/><path class="cls-19" d="M1036.09,119.66l.11.02-.16.79-.11-.02.16-.79ZM1036.11,119.41s.05-.07.09-.06c.04,0,.07.05.06.09,0,.04-.05.07-.09.06-.04,0-.07-.05-.06-.09Z"/><path class="cls-19" d="M1037.03,120.16l-.1.49-.1-.02.02-.12c-.06.07-.17.1-.3.08-.18-.04-.27-.15-.24-.29.02-.12.12-.21.35-.16l.25.05v-.05c.04-.14-.03-.22-.17-.25-.1-.02-.2,0-.28.04l-.03-.09c.09-.05.22-.07.34-.04.2.04.3.17.26.37ZM1036.87,120.39l.03-.13-.25-.05c-.15-.03-.21.02-.23.1-.02.09.04.16.17.19.12.02.22-.01.28-.11Z"/><path class="cls-19" d="M1037.44,119.59l.11.02-.22,1.11-.11-.02.22-1.11Z"/><path class="cls-19" d="M1037.92,120.75l.06-.07c.05.06.15.12.26.14.15.03.22,0,.24-.09.04-.21-.5-.15-.44-.46.03-.13.15-.2.36-.16.1.02.21.07.26.13l-.06.08c-.06-.06-.14-.1-.22-.11-.14-.03-.22.02-.23.09-.04.21.5.15.44.46-.03.14-.16.2-.37.16-.13-.03-.25-.09-.3-.16Z"/><path class="cls-19" d="M1039.44,120.64l-.1.49-.1-.02.02-.12c-.06.07-.17.1-.3.08-.18-.04-.27-.15-.24-.29.02-.12.12-.21.35-.16l.25.05v-.05c.04-.14-.03-.22-.17-.25-.1-.02-.2,0-.28.04l-.03-.09c.09-.05.22-.07.34-.04.2.04.3.17.26.37ZM1039.28,120.87l.03-.13-.25-.05c-.15-.03-.21.02-.23.1-.02.09.04.16.17.19.12.02.22-.01.28-.11Z"/><path class="cls-19" d="M1040.43,120.52l-.51.72-.11-.02-.19-.86.11.02.16.73.43-.61.1.02Z"/><path class="cls-19" d="M1040.58,120.55l.11.02-.16.79-.11-.02.16-.79ZM1040.61,120.3s.05-.07.09-.06c.04,0,.07.05.06.09,0,.04-.05.07-.09.06-.04,0-.07-.05-.06-.09Z"/><path class="cls-19" d="M1041.64,121.11l-.09.46-.11-.02.09-.45c.03-.17-.04-.27-.19-.3-.17-.03-.3.05-.33.23l-.08.41-.11-.02.16-.79.1.02-.03.15c.08-.08.19-.12.33-.09.19.04.3.17.26.4Z"/><path class="cls-19" d="M1042.73,120.98l-.14.69c-.05.27-.21.37-.47.32-.14-.03-.28-.1-.34-.19l.07-.07c.06.08.17.15.29.17.2.04.31-.03.35-.23l.02-.1c-.09.09-.21.12-.34.09-.22-.04-.36-.23-.32-.46.04-.23.25-.35.47-.3.13.03.23.1.28.22l.03-.15.1.02ZM1042.55,121.33c.03-.17-.07-.31-.24-.35s-.32.06-.35.23c-.03.17.07.31.24.35.17.04.32-.06.36-.23Z"/><path class="cls-19" d="M1042.78,121.71l.06-.07c.05.06.15.12.26.14.15.03.22,0,.24-.09.04-.21-.5-.15-.44-.46.03-.13.15-.2.36-.16.1.02.21.07.26.13l-.06.08c-.06-.06-.14-.1-.22-.11-.14-.03-.22.01-.23.09-.04.21.5.15.44.46-.03.14-.16.2-.37.16-.13-.03-.25-.09-.3-.16Z"/><path class="cls-3" d="M958.72,121.88l-5.25,6.2-.8-.32.32-6.94-4.53,5.27-.79-.31.42-8.12.78.31-.38,6.98,4.58-5.31.71.28-.35,7.02,4.55-5.36.73.29Z"/><path class="cls-3" d="M962.36,128.75l-4.5-1.79c-.36,1.16.2,2.25,1.38,2.71.65.26,1.33.26,1.93-.05l.22.63c-.71.38-1.58.39-2.42.06-1.68-.67-2.37-2.26-1.74-3.86s2.2-2.29,3.71-1.69c1.51.6,2.17,2.15,1.53,3.76-.02.06-.07.14-.1.22ZM958.07,126.43l3.81,1.51c.33-1.09-.15-2.13-1.2-2.55-1.04-.41-2.1.02-2.61,1.04Z"/><path class="cls-3" d="M968.1,130.02l-1.32,3.33-.7-.28.33-.84c-.55.42-1.31.51-2.2.16-1.22-.48-1.71-1.41-1.34-2.34.33-.83,1.14-1.31,2.68-.7l1.71.68.13-.33c.37-.92.04-1.63-.96-2.03-.7-.28-1.45-.29-2.04-.08l-.11-.67c.72-.25,1.63-.2,2.48.14,1.39.55,1.9,1.56,1.35,2.95ZM966.69,131.45l.35-.88-1.69-.67c-1.04-.41-1.54-.14-1.76.41-.25.62.1,1.21.96,1.55.82.32,1.58.17,2.14-.42Z"/><path class="cls-3" d="M971.76,126.55l.73.29-3.01,7.59-.73-.29,3.01-7.59Z"/><path class="cls-3" d="M974.49,136.03c-.39.14-.87.1-1.29-.07-1.01-.4-1.35-1.2-.96-2.19l1.29-3.25-.96-.38.24-.61.96.38.47-1.18.73.29-.47,1.18,1.64.65-.24.61-1.64-.65-1.27,3.21c-.25.63-.06,1.11.54,1.35.3.12.63.14.91.04l.05.62Z"/><path class="cls-3" d="M981.86,135.73l-1.24,3.12-.73-.29,1.21-3.05c.45-1.14.09-1.95-.94-2.36-1.16-.46-2.17-.03-2.65,1.2l-1.12,2.82-.73-.29,3.01-7.59.73.29-1.25,3.15c.65-.46,1.49-.54,2.4-.18,1.31.52,1.91,1.63,1.3,3.18Z"/><path class="cls-3" d="M992.17,141.21c-.48,1.22-1.66,1.56-3.45.85l-3.29-1.31,2.84-7.16,3.09,1.22c1.6.63,2.25,1.67,1.79,2.84-.32.82-.98,1.19-1.74,1.19.84.57,1.15,1.39.77,2.36ZM991.44,140.85c.37-.93-.16-1.61-1.41-2.11l-2.53-1-1.07,2.69,2.53,1c1.26.5,2.11.36,2.48-.58ZM988.78,134.52l-1.03,2.6,2.28.9c1.15.46,1.98.28,2.33-.58.34-.86-.15-1.56-1.29-2.02l-2.28-.9Z"/><path class="cls-3" d="M999.97,140.29l-2.13,5.38-.7-.28.39-.98c-.64.5-1.48.61-2.34.27-1.37-.54-1.97-1.67-1.35-3.21l1.24-3.12.73.29-1.21,3.05c-.45,1.15-.09,1.96.93,2.37,1.12.45,2.12,0,2.6-1.23l1.12-2.82.73.29Z"/><path class="cls-3" d="M1002,141.1l.73.29-2.13,5.38-.73-.29,2.13-5.38ZM1002.51,139.33c.11-.28.44-.42.73-.3.3.12.44.44.33.71-.12.3-.44.44-.74.32-.3-.12-.44-.45-.33-.73Z"/><path class="cls-3" d="M1005.63,139.98l.73.29-3.01,7.59-.73-.29,3.01-7.59Z"/><path class="cls-3" d="M1013.29,143.02l-3.01,7.59-.7-.28.42-1.06c-.73.55-1.63.65-2.52.29-1.53-.61-2.24-2.18-1.59-3.8.64-1.63,2.23-2.28,3.76-1.67.86.34,1.45,1,1.62,1.88l1.28-3.23.73.29ZM1010.63,147.63c.5-1.26-.03-2.44-1.16-2.89-1.15-.45-2.34.04-2.84,1.3s.03,2.44,1.17,2.89c1.14.45,2.33-.05,2.83-1.31Z"/><path class="cls-3" d="M1014.44,146.03l.73.29-2.13,5.38-.73-.29,2.13-5.38ZM1014.94,144.26c.11-.28.44-.42.73-.3.3.12.44.44.33.71-.12.3-.44.44-.74.32-.3-.12-.44-.45-.33-.73Z"/><path class="cls-3" d="M1021.24,151.34l-1.24,3.12-.73-.29,1.21-3.05c.45-1.14.09-1.95-.93-2.36-1.16-.46-2.17-.03-2.65,1.2l-1.12,2.82-.73-.29,2.13-5.38.7.28-.39.99c.65-.5,1.52-.59,2.46-.22,1.31.52,1.91,1.63,1.3,3.18Z"/><path class="cls-3" d="M1029.11,151.85l-1.87,4.72c-.73,1.85-1.98,2.33-3.76,1.62-.98-.39-1.83-1.07-2.18-1.82l.59-.41c.33.66,1,1.25,1.83,1.58,1.36.54,2.23.16,2.76-1.17l.27-.69c-.72.51-1.63.56-2.51.21-1.53-.61-2.27-2.14-1.66-3.69.61-1.54,2.2-2.14,3.73-1.53.9.36,1.53,1.03,1.7,1.92l.41-1.03.7.28ZM1027.39,154.12c.46-1.17-.08-2.3-1.27-2.77-1.19-.47-2.35,0-2.81,1.16s.07,2.31,1.25,2.78c1.19.47,2.37,0,2.83-1.16Z"/><path class="cls-3" d="M1038.58,159.61c-.48,1.22-1.66,1.56-3.45.85l-3.29-1.31,2.84-7.16,3.09,1.22c1.59.63,2.25,1.67,1.79,2.84-.32.82-.98,1.19-1.74,1.19.84.57,1.15,1.39.77,2.36ZM1037.85,159.25c.37-.93-.15-1.61-1.41-2.11l-2.53-1-1.07,2.69,2.53,1c1.26.5,2.11.36,2.48-.58ZM1035.19,152.92l-1.03,2.6,2.28.9c1.15.45,1.98.28,2.33-.58s-.15-1.56-1.29-2.02l-2.28-.9Z"/><path class="cls-3" d="M1042.41,154.56l.73.29-3.01,7.59-.73-.29,3.01-7.59Z"/><path class="cls-3" d="M1042.67,160.34c.63-1.6,2.25-2.27,3.82-1.64,1.58.62,2.28,2.22,1.65,3.81-.63,1.59-2.24,2.28-3.82,1.66-1.58-.62-2.29-2.23-1.65-3.83ZM1047.41,162.21c.5-1.26-.02-2.43-1.16-2.89s-2.34.04-2.84,1.3c-.5,1.26.03,2.44,1.17,2.89,1.15.45,2.33-.05,2.83-1.31Z"/><path class="cls-3" d="M1049.09,162.88c.64-1.61,2.25-2.27,3.85-1.63.91.36,1.54,1.02,1.68,1.9l-.69.15c-.15-.69-.62-1.17-1.25-1.42-1.18-.47-2.37.03-2.87,1.29-.5,1.27.03,2.44,1.2,2.9.62.25,1.29.23,1.88-.17l.4.58c-.71.53-1.62.59-2.53.23-1.61-.64-2.32-2.23-1.69-3.84Z"/><path class="cls-3" d="M1057.3,166.12l-1.73.66-.61,1.53-.73-.29,3.01-7.59.73.29-2.04,5.14,4.38-1.66.9.36-3.17,1.29,1.26,4.18-.89-.35-1.1-3.56Z"/><path class="cls-3" d="M1059.71,169.5l.55-.44c.3.51.92,1.06,1.67,1.36,1.02.41,1.58.22,1.79-.31.56-1.4-3.37-1.68-2.53-3.81.35-.88,1.37-1.23,2.74-.69.7.28,1.38.77,1.7,1.26l-.55.46c-.34-.51-.85-.87-1.4-1.09-.97-.38-1.55-.18-1.75.33-.58,1.45,3.35,1.74,2.53,3.81-.37.93-1.43,1.21-2.83.65-.89-.35-1.64-.98-1.93-1.53Z"/><path class="cls-3" d="M849.52,124.57l.68,2.95,3.88-.9.16.69-3.88.9.74,3.18-.79.18-1.74-7.5,5.14-1.19.16.69-4.35,1.01Z"/><path class="cls-3" d="M855.52,127.4c-.39-1.67.56-3.14,2.21-3.53s3.14.53,3.52,2.2c.39,1.67-.55,3.15-2.2,3.54-1.65.38-3.15-.54-3.54-2.21ZM860.48,126.25c-.31-1.32-1.4-1.99-2.6-1.71-1.2.28-1.9,1.37-1.59,2.68.3,1.32,1.41,1.99,2.61,1.71,1.2-.28,1.89-1.36,1.58-2.68Z"/><path class="cls-3" d="M864.98,122.19l.17.74c-.06.01-.13.02-.18.03-1.18.27-1.72,1.19-1.42,2.52l.67,2.87-.76.18-1.31-5.64.73-.17.26,1.1c.18-.83.81-1.4,1.84-1.64Z"/><path class="cls-3" d="M874.88,119.94l-.83,6.13-.72.17-2.85-4.21-.71,5.03-.72.17-3.43-5.15.73-.17,2.88,4.38.7-5.21.65-.15,2.91,4.37.68-5.21.7-.16Z"/><path class="cls-3" d="M880.61,120.87l.81,3.49-.73.17-.2-.88c-.21.66-.79,1.17-1.72,1.38-1.28.3-2.21-.19-2.44-1.16-.2-.87.19-1.73,1.81-2.1l1.79-.41-.08-.34c-.22-.96-.89-1.36-1.94-1.12-.73.17-1.35.58-1.72,1.1l-.48-.49c.46-.61,1.23-1.09,2.12-1.29,1.46-.34,2.45.2,2.79,1.66ZM880.26,122.85l-.21-.92-1.77.41c-1.09.25-1.35.76-1.21,1.34.15.65.77.94,1.67.73.86-.2,1.4-.75,1.52-1.56Z"/><path class="cls-3" d="M885.01,117.55l.17.74c-.06.01-.13.02-.18.03-1.18.27-1.72,1.19-1.42,2.52l.67,2.87-.76.18-1.31-5.64.73-.17.25,1.1c.18-.83.81-1.39,1.85-1.64Z"/><path class="cls-3" d="M890.95,113.78l1.84,7.95-.73.17-.26-1.11c-.29.87-.97,1.46-1.91,1.67-1.61.37-3.08-.52-3.47-2.22-.4-1.7.54-3.14,2.15-3.51.9-.21,1.76,0,2.4.62l-.79-3.39.76-.18ZM891.38,119.09c-.31-1.32-1.41-1.99-2.6-1.71-1.2.28-1.9,1.37-1.59,2.68.31,1.32,1.41,1.99,2.61,1.71,1.19-.28,1.89-1.36,1.58-2.68Z"/><path class="cls-3" d="M896.14,113.05l.79-.18,1.58,6.82,4.2-.97.16.69-4.99,1.16-1.74-7.5Z"/><path class="cls-3" d="M902.72,116.46c-.39-1.67.56-3.14,2.21-3.53,1.65-.38,3.14.53,3.52,2.2.39,1.67-.55,3.15-2.2,3.54-1.65.38-3.15-.54-3.54-2.21ZM907.68,115.31c-.31-1.32-1.4-1.99-2.6-1.71s-1.9,1.37-1.59,2.68,1.41,1.99,2.61,1.71c1.2-.28,1.89-1.36,1.58-2.68Z"/><path class="cls-3" d="M909.44,114.9c-.39-1.67.56-3.14,2.21-3.53s3.14.53,3.52,2.2c.39,1.67-.54,3.15-2.2,3.54-1.65.38-3.15-.54-3.54-2.21ZM914.4,113.75c-.31-1.32-1.4-1.99-2.6-1.71-1.2.28-1.9,1.37-1.59,2.68.31,1.32,1.41,1.99,2.61,1.71s1.89-1.36,1.58-2.68Z"/><path class="cls-3" d="M918.81,112.72l-1.05,1.53.37,1.61-.76.18-1.84-7.95.76-.18,1.25,5.39,2.65-3.86.94-.22-1.88,2.86,3.41,2.72-.93.22-2.93-2.3Z"/><path class="cls-3" d="M921.84,107.18c-.07-.29.12-.59.43-.67.31-.07.61.11.68.4.07.31-.11.61-.43.69-.31.07-.62-.12-.68-.42ZM922.43,108.92l.76-.18,1.31,5.64-.76.18-1.31-5.64Z"/><path class="cls-3" d="M931.05,109.42l.76,3.27-.76.18-.74-3.19c-.28-1.19-1.04-1.66-2.11-1.41-1.21.28-1.8,1.21-1.5,2.49l.69,2.96-.76.18-1.31-5.64.73-.17.24,1.04c.25-.78.92-1.35,1.89-1.58,1.37-.32,2.5.26,2.87,1.88Z"/><path class="cls-3" d="M937.81,105.36l1.15,4.95c.45,1.94-.3,3.04-2.17,3.47-1.03.24-2.11.16-2.83-.26l.25-.67c.65.36,1.53.46,2.4.26,1.42-.33,1.93-1.13,1.61-2.53l-.17-.72c-.3.83-1.02,1.39-1.94,1.6-1.61.37-3.09-.47-3.47-2.09s.59-3,2.2-3.38c.94-.22,1.85-.02,2.49.61l-.25-1.08.73-.17ZM937.69,108.21c-.28-1.22-1.38-1.85-2.62-1.56s-1.94,1.33-1.66,2.55,1.37,1.86,2.61,1.57c1.24-.29,1.95-1.34,1.67-2.57Z"/><path class="cls-3" d="M942.68,106.22c-.51-2.2.79-4.2,3.05-4.73,1.09-.25,2.16-.12,3,.46l-.39.62c-.75-.48-1.57-.57-2.42-.38-1.81.42-2.86,2.06-2.45,3.84.41,1.78,2.08,2.79,3.89,2.37.86-.2,1.54-.64,2.01-1.41l.62.39c-.5.88-1.4,1.49-2.5,1.74-2.25.52-4.3-.71-4.81-2.91Z"/><path class="cls-3" d="M955.12,103.61l.81,3.49-.73.17-.2-.88c-.21.66-.79,1.17-1.72,1.38-1.28.29-2.21-.19-2.44-1.16-.2-.87.19-1.73,1.81-2.1l1.79-.41-.08-.34c-.22-.96-.89-1.36-1.94-1.12-.73.17-1.36.58-1.72,1.1l-.47-.49c.46-.61,1.23-1.09,2.12-1.29,1.46-.34,2.45.2,2.79,1.66ZM954.77,105.58l-.21-.92-1.77.41c-1.09.25-1.35.76-1.21,1.34.15.65.77.94,1.67.73.86-.2,1.4-.75,1.52-1.56Z"/><path class="cls-3" d="M957.06,106.16l.2-.68c.53.25,1.36.35,2.15.17,1.07-.25,1.43-.71,1.3-1.27-.34-1.47-3.73.54-4.24-1.69-.21-.92.42-1.79,1.86-2.12.73-.17,1.57-.15,2.12.06l-.19.69c-.57-.23-1.2-.23-1.77-.1-1.02.24-1.38.74-1.25,1.27.35,1.52,3.74-.47,4.24,1.69.23.97-.49,1.81-1.95,2.15-.93.22-1.9.12-2.46-.17Z"/><path class="cls-3" d="M967.66,100.94l.76,3.27-.76.18-.74-3.19c-.28-1.19-1.04-1.66-2.11-1.41-1.21.28-1.8,1.21-1.5,2.49l.68,2.96-.76.18-1.84-7.95.76-.18.76,3.3c.27-.75.92-1.3,1.87-1.52,1.37-.32,2.5.26,2.87,1.88Z"/><path class="cls-3" d="M972.67,96.04l.68,2.95,3.88-.9.16.69-3.88.9.74,3.18-.79.18-1.74-7.5,5.14-1.19.16.69-4.35,1.01Z"/><path class="cls-3" d="M978.24,93.55l.76-.18,1.84,7.95-.76.18-1.84-7.95Z"/><path class="cls-3" d="M981.74,98.15c-.39-1.67.56-3.14,2.21-3.53,1.65-.38,3.14.53,3.52,2.2.39,1.67-.54,3.15-2.2,3.54-1.65.38-3.15-.53-3.54-2.21ZM986.7,97c-.31-1.32-1.4-1.99-2.6-1.71-1.2.28-1.9,1.37-1.59,2.68.31,1.32,1.41,1.99,2.61,1.71,1.2-.28,1.88-1.36,1.58-2.68Z"/><path class="cls-3" d="M996.49,91.76l-.83,6.13-.72.17-2.85-4.21-.71,5.03-.72.17-3.43-5.15.73-.17,2.88,4.38.7-5.21.65-.15,2.91,4.37.68-5.21.7-.16Z"/></g><g id="Layer_4"><polygon class="cls-1" points="928.79 137.73 908.84 152.53 889.3 148.45 911.12 135.38 928.79 137.73"/><path class="cls-27" d="M911.11,135.87l-.28.17-19.51,11.77-.39.23-.29.18,17.96,3.71.28-.2.36-.27,18.41-13.52-16.33-2.19-.21.13ZM920.15,137.09l.56.29,5.49.75-5.24,3.8.16.41-5.25,3.83-1.09.24-6.65,4.82-6.05-1.23-1.28.07-2.5-.51-.5-.42-5.52-1.12,7.1-4.33v-.41s5.67-3.44,5.67-3.44l.98-.2,5.68-3.46,5.08.69,1.07-.07,2.28.31Z"/><path class="cls-27" d="M912.45,142.08c-.89-.14-1.76,0-2.85.41-.83.3-1.3.43-1.79.34-.44-.07-.55-.29-.11-.58.38-.25.87-.4,1.17-.48l-.58-.24c-.38.1-.85.28-1.25.51l-.64-.11-.62.39.73.12c-.36.42-.07.75.69.88.71.12,1.66-.01,2.78-.44.84-.31,1.34-.41,1.86-.32.5.08.65.31.12.68-.37.25-.99.48-1.42.59l.66.27c.5-.14,1.02-.37,1.45-.64l.68.11.6-.41-.75-.12c.43-.48.13-.83-.73-.96Z"/><path class="cls-27" d="M916.21,143.8c-1.82,1.29-6.19,1.87-9.59,1.26-3.3-.59-4.31-2.05-2.38-3.25,1.86-1.15,5.88-1.67,9.08-1.18,3.29.51,4.65,1.91,2.89,3.16ZM904.9,141.93c-1.7,1.06-.79,2.35,2.13,2.87,3,.53,6.85.02,8.46-1.11,1.56-1.1.38-2.35-2.53-2.8-2.84-.44-6.41.02-8.06,1.05Z"/><path class="cls-27" d="M913.45,138.53c-.62.4-.18.86.99,1.04,1.18.18,2.65-.01,3.25-.42.6-.4.12-.86-1.05-1.03-1.16-.16-2.58.02-3.19.41ZM917.27,139.08c-.49.33-1.67.48-2.62.34-.94-.14-1.3-.51-.8-.83.49-.32,1.64-.46,2.58-.33.94.13,1.32.5.84.83Z"/><path class="cls-27" d="M914.47,138.68c-.31.2-.09.44.51.53.6.09,1.35,0,1.66-.21.31-.21.07-.44-.53-.53-.6-.09-1.33,0-1.64.21Z"/><polygon class="cls-27" points="913.41 136.94 909.21 139.57 908.64 139.48 912.85 136.86 913.41 136.94"/><polygon class="cls-28" points="921.43 138.41 918.33 140.56 918.82 140.63 921.92 138.48 921.43 138.41"/><polygon class="cls-28" points="922.52 138.56 919.45 140.72 919.94 140.8 923.01 138.63 922.52 138.56"/><path class="cls-27" d="M900.8,146.64c-.77.5-.41,1.1.83,1.34,1.25.24,2.91.02,3.67-.49.75-.51.33-1.1-.91-1.33-1.23-.23-2.83-.02-3.59.47ZM904.86,147.41c-.61.41-1.94.59-2.95.39-1-.19-1.3-.68-.67-1.08.62-.4,1.91-.57,2.9-.38,1,.19,1.33.67.73,1.07Z"/><path class="cls-27" d="M901.88,146.85c-.39.26-.2.56.43.69.64.12,1.48.01,1.87-.25.39-.26.18-.56-.45-.68-.63-.12-1.46,0-1.85.24Z"/><polygon class="cls-27" points="901.15 144.61 895.9 147.9 895.3 147.78 900.56 144.51 901.15 144.61"/><polygon class="cls-28" points="909.58 146.61 905.67 149.32 906.2 149.43 910.1 146.71 909.58 146.61"/><polygon class="cls-28" points="910.75 146.83 906.86 149.56 907.39 149.66 911.27 146.92 910.75 146.83"/><polygon class="cls-21" points="908.81 157.96 889.3 153.93 889.3 148.45 908.81 152.45 908.81 157.96"/><polygon class="cls-24" points="928.79 137.73 928.79 142.81 908.81 157.96 908.81 152.45 928.79 137.73"/><path class="cls-13" d="M891.35,152.54c.48.1.97.21,1.45.31l1.45.32c.96.21,1.93.43,2.89.64.96.22,1.92.44,2.89.66l1.44.34c.48.11.96.23,1.44.34-.48-.1-.97-.2-1.45-.31l-1.45-.32c-.96-.21-1.93-.43-2.89-.64-.96-.22-1.92-.44-2.89-.66l-1.44-.34c-.48-.11-.96-.23-1.44-.34Z"/><polygon class="cls-13" points="908.81 154.16 897.65 151.76 908.81 154.08 908.81 154.16"/><path class="cls-13" d="M891.61,149.89s.07,0,.11,0h.11s.21.05.21.05c.14.02.28.05.43.08l.85.16c.57.11,1.13.22,1.7.34,1.13.23,2.26.47,3.39.7,1.13.24,2.25.48,3.38.73l1.69.37c.56.13,1.12.25,1.69.38l-1.69-.35-1.69-.35-3.38-.71-3.38-.72-1.69-.36-.85-.18-.42-.08-.21-.04-.11-.02s-.07-.01-.11-.01Z"/><polygon class="cls-23" points="908.81 154.07 920.77 145.36 908.81 154.13 908.81 154.07"/><polygon class="cls-23" points="928.79 139.16 923.37 142.97 928.79 139.1 928.79 139.16"/><polygon class="cls-23" points="928.79 141.04 925.88 143.3 928.79 140.98 928.79 141.04"/><path class="cls-23" d="M910.18,154.99c.24-.18.47-.36.71-.55l.72-.54c.48-.36.96-.71,1.44-1.07.48-.35.97-.71,1.45-1.06l.73-.52c.25-.17.49-.35.73-.52-.24.18-.47.36-.71.55l-.72.54c-.48.36-.96.71-1.44,1.07-.48.35-.97.71-1.45,1.06l-.73.52c-.25.17-.49.35-.73.52Z"/><polygon class="cls-22" points="898.6 142.88 917.19 146.28 922.57 142.35 904.35 139.44 898.6 142.88"/><polygon class="cls-25" points="899.65 142.25 918.21 145.53 921.74 142.97 903.55 139.92 899.65 142.25"/><polygon class="cls-15" points="917.19 146.28 917.19 151.61 922.57 147.53 922.57 142.35 917.19 146.28"/><polygon class="cls-22" points="918.21 145.53 918.33 150.75 921.74 148.16 921.74 142.97 918.21 145.53"/><polygon class="cls-1" points="933.21 128.73 913.25 143.53 893.71 139.45 915.54 126.38 933.21 128.73"/><path class="cls-27" d="M915.53,126.86l-.28.17-19.51,11.77-.39.23-.29.18,17.96,3.71.28-.2.36-.27,18.41-13.52-16.33-2.19-.21.13ZM924.57,128.08l.56.29,5.49.75-5.24,3.8.16.41-5.25,3.83-1.09.24-6.65,4.82-6.05-1.23-1.28.07-2.5-.51-.5-.42-5.52-1.12,7.1-4.33v-.41s5.67-3.44,5.67-3.44l.98-.2,5.68-3.46,5.08.69,1.07-.07,2.28.31Z"/><path class="cls-27" d="M916.87,133.08c-.89-.14-1.76,0-2.85.41-.83.3-1.3.43-1.79.34-.44-.07-.55-.29-.11-.58.38-.25.87-.4,1.17-.48l-.58-.24c-.38.1-.85.28-1.25.51l-.64-.11-.62.39.73.12c-.36.42-.07.75.69.88.71.12,1.66-.01,2.78-.44.84-.31,1.34-.41,1.86-.32.5.08.65.31.12.68-.37.25-.99.48-1.42.59l.66.27c.5-.14,1.02-.37,1.45-.64l.68.11.6-.41-.75-.12c.43-.48.13-.83-.73-.96Z"/><path class="cls-27" d="M920.63,134.8c-1.82,1.29-6.19,1.87-9.59,1.26-3.3-.59-4.31-2.05-2.38-3.25,1.86-1.15,5.88-1.67,9.08-1.18,3.29.51,4.65,1.91,2.89,3.16ZM909.31,132.93c-1.7,1.06-.79,2.35,2.13,2.87,3,.53,6.85.02,8.46-1.11,1.56-1.1.38-2.35-2.53-2.8-2.84-.44-6.41.02-8.06,1.05Z"/><path class="cls-27" d="M917.86,129.53c-.62.4-.18.86.99,1.04,1.18.18,2.65-.01,3.25-.42.6-.4.12-.86-1.05-1.03-1.16-.16-2.58.02-3.19.41ZM921.69,130.08c-.49.33-1.67.48-2.62.34-.94-.14-1.3-.51-.8-.83.49-.32,1.64-.46,2.58-.33.94.13,1.32.5.84.83Z"/><path class="cls-27" d="M918.88,129.67c-.31.2-.09.44.51.53.6.09,1.35,0,1.66-.21.31-.21.07-.44-.53-.53-.6-.09-1.33,0-1.64.21Z"/><polygon class="cls-27" points="917.82 127.93 913.62 130.56 913.06 130.48 917.26 127.86 917.82 127.93"/><polygon class="cls-28" points="925.85 129.41 922.75 131.55 923.24 131.63 926.33 129.47 925.85 129.41"/><polygon class="cls-28" points="926.94 129.56 923.86 131.72 924.36 131.8 927.43 129.63 926.94 129.56"/><path class="cls-27" d="M905.22,137.64c-.77.5-.41,1.1.83,1.34,1.25.24,2.91.02,3.67-.49.75-.51.33-1.1-.91-1.33-1.23-.23-2.83-.02-3.59.47ZM909.27,138.41c-.61.41-1.94.59-2.95.39-1-.19-1.3-.68-.67-1.08.62-.4,1.91-.57,2.9-.38,1,.19,1.33.67.73,1.07Z"/><path class="cls-27" d="M906.3,137.84c-.39.26-.2.56.43.69.64.12,1.48.01,1.87-.25.39-.26.18-.56-.45-.68-.63-.12-1.46,0-1.85.24Z"/><polygon class="cls-27" points="905.56 135.61 900.31 138.9 899.72 138.78 904.98 135.5 905.56 135.61"/><polygon class="cls-28" points="914 137.61 910.09 140.32 910.61 140.42 914.51 137.7 914 137.61"/><polygon class="cls-28" points="915.16 137.82 911.28 140.55 911.81 140.66 915.69 137.92 915.16 137.82"/><polygon class="cls-21" points="913.22 148.96 893.71 144.93 893.71 139.45 913.22 143.44 913.22 148.96"/><polygon class="cls-24" points="933.21 128.73 933.21 133.81 913.22 148.96 913.22 143.44 933.21 128.73"/><path class="cls-13" d="M895.77,143.54c.48.1.97.21,1.45.31l1.45.32c.96.21,1.93.43,2.89.64.96.22,1.92.44,2.89.66l1.44.34c.48.11.96.23,1.44.34-.48-.1-.97-.2-1.45-.31l-1.45-.32c-.96-.21-1.93-.43-2.89-.64-.96-.22-1.92-.44-2.89-.66l-1.44-.34c-.48-.11-.96-.23-1.44-.34Z"/><polygon class="cls-13" points="913.22 145.16 902.06 142.75 913.22 145.08 913.22 145.16"/><path class="cls-13" d="M896.02,140.89s.07,0,.11,0h.11s.21.05.21.05c.14.02.28.05.43.08l.85.16c.57.11,1.13.22,1.7.34,1.13.23,2.26.47,3.39.7,1.13.24,2.25.48,3.38.73l1.69.37c.56.13,1.12.25,1.69.38l-1.69-.35-1.69-.35-3.38-.71-3.38-.72-1.69-.36-.85-.18-.42-.08-.21-.04-.11-.02s-.07-.01-.11-.01Z"/><polygon class="cls-23" points="913.22 145.06 925.18 136.36 913.22 145.13 913.22 145.06"/><polygon class="cls-23" points="933.21 130.16 927.79 133.96 933.21 130.09 933.21 130.16"/><polygon class="cls-23" points="933.21 132.04 930.3 134.3 933.21 131.98 933.21 132.04"/><path class="cls-23" d="M914.6,145.98c.24-.18.47-.36.71-.55l.72-.54c.48-.36.96-.71,1.44-1.07.48-.35.97-.71,1.45-1.06l.73-.52c.25-.17.49-.35.73-.52-.24.18-.47.36-.71.55l-.72.54c-.48.36-.96.71-1.44,1.07-.48.35-.97.71-1.45,1.06l-.73.52c-.25.17-.49.35-.73.52Z"/><polygon class="cls-22" points="903.02 133.88 921.6 137.28 926.99 133.35 908.76 130.44 903.02 133.88"/><polygon class="cls-25" points="904.06 133.25 922.62 136.52 926.15 133.96 907.96 130.92 904.06 133.25"/><polygon class="cls-15" points="921.6 137.28 921.6 142.61 926.99 138.52 926.99 133.35 921.6 137.28"/><polygon class="cls-22" points="922.62 136.52 922.74 141.74 926.15 139.16 926.15 133.96 922.62 136.52"/><polygon class="cls-1" points="950.24 140.54 930.28 155.34 910.75 151.26 932.57 138.19 950.24 140.54"/><path class="cls-27" d="M932.56,138.67l-.28.17-19.51,11.77-.39.23-.29.18,17.96,3.71.28-.2.36-.27,18.41-13.52-16.33-2.19-.21.13ZM941.6,139.89l.56.29,5.49.75-5.24,3.8.16.41-5.25,3.83-1.09.24-6.65,4.82-6.05-1.23-1.28.07-2.5-.51-.5-.42-5.52-1.12,7.1-4.33v-.41s5.67-3.44,5.67-3.44l.98-.2,5.68-3.46,5.08.69,1.07-.07,2.28.31Z"/><path class="cls-27" d="M933.9,144.89c-.89-.14-1.76,0-2.85.41-.83.3-1.3.43-1.79.34-.44-.07-.55-.29-.11-.58.38-.25.87-.4,1.17-.48l-.58-.24c-.38.1-.85.28-1.25.51l-.64-.11-.62.39.73.12c-.36.42-.07.75.69.88.71.12,1.66-.01,2.78-.44.84-.31,1.34-.41,1.86-.32.5.08.65.31.12.68-.37.25-.99.48-1.42.59l.66.27c.5-.14,1.02-.37,1.45-.64l.68.11.6-.41-.75-.12c.43-.48.13-.83-.73-.96Z"/><path class="cls-27" d="M937.66,146.61c-1.82,1.29-6.19,1.87-9.59,1.26-3.3-.59-4.31-2.05-2.38-3.25,1.86-1.15,5.88-1.67,9.08-1.18,3.29.51,4.65,1.91,2.89,3.16ZM926.35,144.74c-1.7,1.06-.79,2.35,2.13,2.87,3,.53,6.85.02,8.46-1.11,1.56-1.1.38-2.35-2.53-2.8-2.84-.44-6.41.02-8.06,1.05Z"/><path class="cls-27" d="M934.89,141.34c-.62.4-.18.86.99,1.04,1.18.18,2.65-.01,3.25-.42.6-.4.12-.86-1.05-1.03-1.16-.16-2.58.02-3.19.41ZM938.72,141.89c-.49.33-1.67.48-2.62.34-.94-.14-1.3-.51-.8-.83.49-.32,1.64-.46,2.58-.33.94.13,1.32.5.84.83Z"/><path class="cls-27" d="M935.92,141.49c-.31.2-.09.44.51.53.6.09,1.35,0,1.66-.21.31-.21.07-.44-.53-.53-.6-.09-1.33,0-1.64.21Z"/><polygon class="cls-27" points="934.85 139.75 930.66 142.37 930.09 142.29 934.3 139.67 934.85 139.75"/><polygon class="cls-28" points="942.88 141.22 939.78 143.36 940.27 143.44 943.36 141.29 942.88 141.22"/><polygon class="cls-28" points="943.97 141.37 940.89 143.53 941.39 143.61 944.46 141.44 943.97 141.37"/><path class="cls-27" d="M922.25,149.45c-.77.5-.41,1.1.83,1.34,1.25.24,2.91.02,3.67-.49.75-.51.33-1.1-.91-1.33-1.23-.23-2.83-.02-3.59.47ZM926.31,150.22c-.61.41-1.94.59-2.95.39-1-.19-1.3-.68-.67-1.08.62-.4,1.91-.57,2.9-.38,1,.19,1.33.67.73,1.07Z"/><path class="cls-27" d="M923.33,149.66c-.39.26-.2.56.43.69.64.12,1.48.01,1.87-.25.39-.26.18-.56-.45-.68-.63-.12-1.46,0-1.85.24Z"/><polygon class="cls-27" points="922.59 147.42 917.35 150.71 916.75 150.59 922.01 147.32 922.59 147.42"/><polygon class="cls-28" points="931.03 149.42 927.12 152.13 927.65 152.23 931.55 149.52 931.03 149.42"/><polygon class="cls-28" points="932.2 149.64 928.31 152.37 928.84 152.47 932.72 149.73 932.2 149.64"/><polygon class="cls-21" points="930.26 160.77 910.75 156.74 910.75 151.26 930.26 155.25 930.26 160.77"/><polygon class="cls-24" points="950.24 140.54 950.24 145.62 930.26 160.77 930.26 155.25 950.24 140.54"/><path class="cls-13" d="M912.8,155.35c.48.1.97.21,1.45.31l1.45.32c.96.21,1.93.43,2.89.64.96.22,1.92.44,2.89.66l1.44.34c.48.11.96.23,1.44.34-.48-.1-.97-.2-1.45-.31l-1.45-.32c-.96-.21-1.93-.43-2.89-.64-.96-.22-1.92-.44-2.89-.66l-1.44-.34c-.48-.11-.96-.23-1.44-.34Z"/><polygon class="cls-13" points="930.26 156.97 919.1 154.56 930.26 156.89 930.26 156.97"/><path class="cls-13" d="M913.05,152.7s.07,0,.11,0h.11s.21.05.21.05c.14.02.28.05.43.08l.85.16c.57.11,1.13.22,1.7.34,1.13.23,2.26.47,3.39.7,1.13.24,2.25.48,3.38.73l1.69.37c.56.13,1.12.25,1.69.38l-1.69-.35-1.69-.35-3.38-.71-3.38-.72-1.69-.36-.85-.18-.42-.08-.21-.04-.11-.02s-.07-.01-.11-.01Z"/><polygon class="cls-23" points="930.26 156.88 942.21 148.17 930.26 156.94 930.26 156.88"/><polygon class="cls-23" points="950.24 141.97 944.82 145.78 950.24 141.9 950.24 141.97"/><polygon class="cls-23" points="950.24 143.85 947.33 146.11 950.24 143.79 950.24 143.85"/><path class="cls-23" d="M931.63,157.8c.24-.18.47-.36.71-.55l.72-.54c.48-.36.96-.71,1.44-1.07.48-.35.97-.71,1.45-1.06l.73-.52c.25-.17.49-.35.73-.52-.24.18-.47.36-.71.55l-.72.54c-.48.36-.96.71-1.44,1.07-.48.35-.97.71-1.45,1.06l-.73.52c-.25.17-.49.35-.73.52Z"/><polygon class="cls-22" points="920.05 145.69 938.63 149.09 944.02 145.16 925.8 142.25 920.05 145.69"/><polygon class="cls-25" points="921.1 145.06 939.65 148.33 943.19 145.78 925 142.73 921.1 145.06"/><polygon class="cls-15" points="938.63 149.09 938.63 154.42 944.02 150.34 944.02 145.16 938.63 149.09"/><polygon class="cls-22" points="939.65 148.33 939.77 153.55 943.19 150.97 943.19 145.78 939.65 148.33"/><polygon class="cls-1" points="954.28 132.27 934.32 147.06 914.79 142.98 936.61 129.92 954.28 132.27"/><path class="cls-27" d="M936.6,130.4l-.28.17-19.51,11.77-.39.23-.29.18,17.96,3.71.28-.2.36-.27,18.41-13.52-16.33-2.19-.21.13ZM945.64,131.62l.56.29,5.49.75-5.24,3.8.16.41-5.25,3.83-1.09.24-6.65,4.82-6.05-1.23-1.28.07-2.5-.51-.5-.42-5.52-1.12,7.1-4.33v-.41s5.67-3.44,5.67-3.44l.98-.2,5.68-3.46,5.08.69,1.07-.07,2.28.31Z"/><path class="cls-27" d="M937.94,136.62c-.89-.14-1.76,0-2.85.41-.83.3-1.3.43-1.79.34-.44-.07-.55-.29-.11-.58.38-.25.87-.4,1.17-.48l-.58-.24c-.38.1-.85.28-1.25.51l-.64-.11-.62.39.73.12c-.36.42-.07.75.69.88.71.12,1.66-.01,2.78-.44.84-.31,1.34-.41,1.86-.32.5.08.65.31.12.68-.37.25-.99.48-1.42.59l.66.27c.5-.14,1.02-.37,1.45-.64l.68.11.6-.41-.75-.12c.43-.48.13-.83-.73-.96Z"/><path class="cls-27" d="M941.7,138.34c-1.82,1.29-6.19,1.87-9.59,1.26-3.3-.59-4.31-2.05-2.38-3.25,1.86-1.15,5.88-1.67,9.08-1.18,3.29.51,4.65,1.91,2.89,3.16ZM930.38,136.46c-1.7,1.06-.79,2.35,2.13,2.87,3,.53,6.85.02,8.46-1.11,1.56-1.1.38-2.35-2.53-2.8-2.84-.44-6.41.02-8.06,1.05Z"/><path class="cls-27" d="M938.93,133.06c-.62.4-.18.86.99,1.04,1.18.18,2.65-.01,3.25-.42.6-.4.12-.86-1.05-1.03-1.16-.16-2.58.02-3.19.41ZM942.76,133.62c-.49.33-1.67.48-2.62.34-.94-.14-1.3-.51-.8-.83.49-.32,1.64-.46,2.58-.33.94.13,1.32.5.84.83Z"/><path class="cls-27" d="M939.95,133.21c-.31.2-.09.44.51.53.6.09,1.35,0,1.66-.21.31-.21.07-.44-.53-.53-.6-.09-1.33,0-1.64.21Z"/><polygon class="cls-27" points="938.89 131.47 934.69 134.1 934.13 134.01 938.34 131.39 938.89 131.47"/><polygon class="cls-28" points="946.92 132.94 943.82 135.09 944.31 135.16 947.4 133.01 946.92 132.94"/><polygon class="cls-28" points="948.01 133.1 944.93 135.26 945.43 135.33 948.5 133.16 948.01 133.1"/><path class="cls-27" d="M926.29,141.18c-.77.5-.41,1.1.83,1.34,1.25.24,2.91.02,3.67-.49.75-.51.33-1.1-.91-1.33-1.23-.23-2.83-.02-3.59.47ZM930.34,141.95c-.61.41-1.94.59-2.95.39-1-.19-1.3-.68-.67-1.08.62-.4,1.91-.57,2.9-.38,1,.19,1.33.67.73,1.07Z"/><path class="cls-27" d="M927.37,141.38c-.39.26-.2.56.43.69.64.12,1.48.01,1.87-.25.39-.26.18-.56-.45-.68-.63-.12-1.46,0-1.85.24Z"/><polygon class="cls-27" points="926.63 139.15 921.38 142.43 920.79 142.31 926.05 139.04 926.63 139.15"/><polygon class="cls-28" points="935.07 141.15 931.16 143.86 931.69 143.96 935.59 141.24 935.07 141.15"/><polygon class="cls-28" points="936.24 141.36 932.35 144.09 932.88 144.2 936.76 141.46 936.24 141.36"/><polygon class="cls-21" points="934.3 152.5 914.79 148.46 914.79 142.98 934.3 146.98 934.3 152.5"/><polygon class="cls-24" points="954.28 132.27 954.28 137.34 934.3 152.5 934.3 146.98 954.28 132.27"/><path class="cls-13" d="M916.84,147.07c.48.1.97.21,1.45.31l1.45.32c.96.21,1.93.43,2.89.64.96.22,1.92.44,2.89.66l1.44.34c.48.11.96.23,1.44.34-.48-.1-.97-.2-1.45-.31l-1.45-.32c-.96-.21-1.93-.43-2.89-.64-.96-.22-1.92-.44-2.89-.66l-1.44-.34c-.48-.11-.96-.23-1.44-.34Z"/><polygon class="cls-13" points="934.3 148.69 923.13 146.29 934.3 148.62 934.3 148.69"/><path class="cls-13" d="M917.09,144.42s.07,0,.11,0h.11s.21.05.21.05c.14.02.28.05.43.08l.85.16c.57.11,1.13.22,1.7.34,1.13.23,2.26.47,3.39.7,1.13.24,2.25.48,3.38.73l1.69.37c.56.13,1.12.25,1.69.38l-1.69-.35-1.69-.35-3.38-.71-3.38-.72-1.69-.36-.85-.18-.42-.08-.21-.04-.11-.02s-.07-.01-.11-.01Z"/><polygon class="cls-23" points="934.3 148.6 946.25 139.9 934.3 148.66 934.3 148.6"/><polygon class="cls-23" points="954.28 133.69 948.86 137.5 954.28 133.63 954.28 133.69"/><polygon class="cls-23" points="954.28 135.58 951.37 137.83 954.28 135.51 954.28 135.58"/><path class="cls-23" d="M935.67,149.52c.24-.18.47-.36.71-.55l.72-.54c.48-.36.96-.71,1.44-1.07.48-.35.97-.71,1.45-1.06l.73-.52c.25-.17.49-.35.73-.52-.24.18-.47.36-.71.55l-.72.54c-.48.36-.96.71-1.44,1.07-.48.35-.97.71-1.45,1.06l-.73.52c-.25.17-.49.35-.73.52Z"/><polygon class="cls-22" points="924.09 137.42 942.67 140.81 948.06 136.89 929.83 133.97 924.09 137.42"/><polygon class="cls-25" points="925.14 136.79 943.69 140.06 947.22 137.5 929.03 134.45 925.14 136.79"/><polygon class="cls-15" points="942.67 140.81 942.67 146.14 948.06 142.06 948.06 136.89 942.67 140.81"/><polygon class="cls-22" points="943.69 140.06 943.81 145.28 947.22 142.69 947.22 137.5 943.69 140.06"/></g></g></svg>