<?xml version="1.0" encoding="UTF-8"?>
<svg id="Layer_2" data-name="Layer 2" xmlns="http://www.w3.org/2000/svg" xmlns:xlink="http://www.w3.org/1999/xlink" viewBox="0 0 993.46 993.46">
  <defs>
    <style>
      .cls-1 {
        fill: #36658f;
      }

      .cls-2 {
        font-size: 93.33px;
      }

      .cls-2, .cls-3 {
        fill: #fff;
        font-family: MyriadPro-Regular, 'Myriad Pro';
      }

      .cls-4 {
        fill: #f7f9fc;
      }

      .cls-5 {
        fill: #5f4020;
      }

      .cls-6 {
        letter-spacing: -.05em;
      }

      .cls-7 {
        fill: #023259;
      }

      .cls-8 {
        fill: #eef4fa;
      }

      .cls-9 {
        fill: url(#radial-gradient);
      }

      .cls-10 {
        fill: #775026;
      }

      .cls-11 {
        fill: #3e2a18;
      }

      .cls-12 {
        letter-spacing: 0em;
      }

      .cls-13 {
        fill: #ae8d69;
      }

      .cls-14 {
        fill: #f8ccaf;
      }

      .cls-15 {
        letter-spacing: -.08em;
      }

      .cls-16 {
        letter-spacing: 0em;
      }

      .cls-17 {
        letter-spacing: 0em;
      }

      .cls-18 {
        letter-spacing: 0em;
      }

      .cls-19 {
        fill: #376fa0;
      }

      .cls-20 {
        letter-spacing: 0em;
      }

      .cls-21 {
        fill: #e8ba9e;
      }

      .cls-22 {
        fill: #95b2cb;
      }

      .cls-3 {
        font-size: 62.22px;
      }

      .cls-23 {
        letter-spacing: 0em;
      }

      .cls-24 {
        fill: #e8f0f8;
      }

      .cls-25 {
        fill: #d0d6db;
      }

      .cls-26 {
        letter-spacing: -.03em;
      }

      .cls-27 {
        fill: #fbd7bf;
      }

      .cls-28 {
        fill: #497ca9;
      }
    </style>
    <radialGradient id="radial-gradient" cx="496.73" cy="496.73" fx="496.73" fy="496.73" r="496.73" gradientUnits="userSpaceOnUse">
      <stop offset="0" stop-color="#39b54a"/>
      <stop offset=".05" stop-color="#39b54a"/>
      <stop offset=".34" stop-color="#39b54a"/>
      <stop offset=".5" stop-color="#2ba046"/>
      <stop offset=".62" stop-color="#1f8d42"/>
      <stop offset=".87" stop-color="#086b3a"/>
      <stop offset="1" stop-color="#005f38"/>
    </radialGradient>
  </defs>
  <g id="Layer_2-2" data-name="Layer 2">
    <g>
      <circle class="cls-9" cx="496.73" cy="496.73" r="496.73"/>
      <g>
        <text class="cls-2" transform="translate(231.14 307.88) rotate(-56.04) scale(.93 1)"><tspan x="0" y="0">J</tspan></text>
        <text class="cls-2" transform="translate(247.15 283.1) rotate(-50.1) scale(.93 1)"><tspan x="0" y="0">u</tspan></text>
        <text class="cls-2" transform="translate(276.23 248.65) rotate(-43.83) scale(.93 1)"><tspan x="0" y="0">s</tspan></text>
        <text class="cls-2" transform="translate(299.48 226.36) rotate(-38.9) scale(.93 1)"><tspan x="0" y="0">t</tspan></text>
        <text class="cls-2" transform="translate(320.6 209.45) rotate(-35.15) scale(.93 1)"><tspan x="0" y="0"> </tspan></text>
        <text class="cls-2" transform="translate(333.53 199.61) rotate(-30.25) scale(.93 1)"><tspan x="0" y="0">a</tspan></text>
        <text class="cls-2" transform="translate(367.97 180) rotate(-25.25) scale(.93 1)"><tspan x="0" y="0"> </tspan></text>
        <text class="cls-2" transform="translate(382.06 172.45) rotate(-19.7) scale(.93 1)"><tspan x="0" y="0">B</tspan></text>
        <text class="cls-2" transform="translate(423.23 157.42) rotate(-11.48) scale(.93 1)"><tspan x="0" y="0">o</tspan></text>
        <text class="cls-2" transform="translate(467.16 148.89) rotate(-4.91) scale(.93 1)"><tspan x="0" y="0">r</tspan></text>
        <text class="cls-2" transform="translate(494.99 146.73) rotate(-1) scale(.93 1)"><tspan x="0" y="0">i</tspan></text>
        <text class="cls-2" transform="translate(511.67 145.62) rotate(5.18) scale(.93 1)"><tspan x="0" y="0">n</tspan></text>
        <text class="cls-2" transform="translate(556.05 149.35) rotate(13.54) scale(.93 1)"><tspan x="0" y="0">g</tspan></text>
        <text class="cls-2" transform="translate(600.62 160.73) rotate(19.3) scale(.93 1)"><tspan x="0" y="0"> </tspan></text>
        <text class="cls-2" transform="translate(615.94 165.23) rotate(24.85) scale(.93 1)"><tspan x="0" y="0">B</tspan></text>
        <text class="cls-2" transform="translate(655.73 183.63) rotate(32.21) scale(.93 1)"><tspan x="0" y="0">a</tspan></text>
        <text class="cls-2" transform="translate(688.66 203.92) rotate(39.42) scale(.93 1)"><tspan x="0" y="0">n</tspan></text>
        <text class="cls-2" transform="translate(723.52 232.64) rotate(46.32) scale(.93 1)"><tspan x="0" y="0">k</tspan></text>
        <text class="cls-2" transform="translate(749.88 259.91) rotate(52.67) scale(.93 1)"><tspan x="0" y="0">e</tspan></text>
        <text class="cls-2" transform="translate(774.64 292.79) rotate(57.98) scale(.93 1)"><tspan x="0" y="0">r</tspan></text>
        <text class="cls-3" transform="translate(165.88 775.44) scale(.76 1)"><tspan class="cls-20" x="0" y="0">T</tspan><tspan x="30.49" y="0">he JBB </tspan><tspan class="cls-18" x="213.04" y="0">A</tspan><tspan class="cls-17" x="250.93" y="0">pp</tspan><tspan class="cls-16" x="321.74" y="0">r</tspan><tspan x="341.46" y="0">oach </tspan><tspan class="cls-12" x="481.2" y="0">t</tspan><tspan x="501.42" y="0">o</tspan><tspan class="cls-6" x="535.58" y="0"> </tspan><tspan class="cls-15" x="545.91" y="0">Y</tspan><tspan x="574.84" y="0">our </tspan><tspan class="cls-26" x="676.82" y="0">F</tspan><tspan class="cls-23" x="705.5" y="0">inan</tspan><tspan class="cls-12" x="819.12" y="0">c</tspan><tspan x="846.62" y="0">es</tspan></text>
        <g>
          <path class="cls-19" d="M460.78,701.93c-1.07-.67-1.92-1.63-2.08-2.61-.67-4.19,1.79-3.12,1.39-7.21,1.7,2.82.73,6.56.69,9.82Z"/>
          <path class="cls-21" d="M415.6,290.15c-1.43-1.56-.37-3.71,0-5.6,1.13,1.37,1.13,4.24,0,5.6Z"/>
          <g>
            <g>
              <path class="cls-11" d="M416.91,703.21c0,2.87-.24,5.64-.65,8.51-.67-.99-2.17-.91-3.13.14-3.2,3.48-6.92,5.8-11.34,7.41-10.85.67-21.49-.04-31.77-2.68-.44-5.83,7.38-8.61,7.79-8.97-.09.63-.39,1.07-.27,1.66s.64.92,1.53.97c6.94.39,11.14,3.96,17.97-1.44-7.75-2.33-11.59-4.09-19.24-1.19,4.15-3.62,9.05-6.59,10.99-12.09.62-1.76,2.87-2.68,2.76-4.72,6.94-.72,13.92.24,20.29,3.81,3.5,1.96,5.08,4.66,5.07,8.58Z"/>
              <path class="cls-10" d="M416.25,711.72c-.18,1.3-.18,3.99-1.24,4.98-3.82,1.9-8.44,5.66-13.15,6.05l-7.23.59c-1.45.12-3.55-.29-5.15-.54l-18.56-2.98c-.73-.12-1.18-1.25-1.4-1.64-.29-.51.22-1.13.49-1.58,10.28,2.64,20.93,3.35,31.77,2.68,4.42-1.61,8.14-3.93,11.34-7.41.97-1.05,2.46-1.13,3.13-.14Z"/>
              <path class="cls-7" d="M391.55,690.82c.12,2.03-2.14,2.96-2.76,4.72-.82-.45-1.53-1.29-2.46-1.47-.65-3.2,4.24-3.14,5.22-3.24Z"/>
              <path class="cls-5" d="M377.8,707.62c7.65-2.91,11.49-1.14,19.24,1.19-6.83,5.4-11.03,1.83-17.97,1.44-.89-.05-1.41-.41-1.53-.97s.18-1.03.27-1.66Z"/>
              <g>
                <path class="cls-11" d="M492.03,693.51l9.58,6.56c1.3.89,2.89,1.27,3.49,2.7.49,1.27-1.64,2.69-1.44,3.82.87,2.29,6.73-1.11,6.86,1.26.07,1.22-2.58,1.81-1.97,2.71.32.47,1.13.55,1.72.44l11.23-2.09c-.73,1.23-2.15,1.24-2.44,2.61,2.96,1.35,6.78-1.76,11.28-1.46l.87.95c-1.1.76-.66,2.57-.55,4.68-16.44,4.35-32.03,7.32-48.4.18-9.15-3.99-18.87-4.34-21.6-9.06v-4.2c10.43-3.12,16.53-3.88,27.4-8.52,1.36-.58,2.78-1.39,3.96-.59Z"/>
                <path class="cls-10" d="M531.22,711.02c-.34,2.03.36,4.02.49,6.3.15,2.59-14.56,4.03-16.11,4.01-2.71-.03-4.97.75-7.24.89.05-.54-.6-.72-1.27-.72h-9.21c-.68,0-1.32.17-1.27.72-.61,0-9.34-.99-11.94-2.67-8.13-5.27-7.13.37-16.85-1.48-2.36-.45-5.81-.3-6.83-3.16-.93-2.6-.31-5.59-.31-8.1,2.73,4.73,12.45,5.08,21.6,9.06,16.37,7.14,31.96,4.17,48.4-.18-.11-2.11-.55-3.92.55-4.68Z"/>
                <path class="cls-5" d="M530.35,710.07c-4.5-.3-8.32,2.81-11.28,1.46.28-1.38,1.71-1.38,2.44-2.61l-11.23,2.09c-.59.11-1.4.03-1.72-.44-.61-.9,2.03-1.48,1.97-2.71-.13-2.37-6,1.03-6.86-1.26-.2-1.14,1.93-2.55,1.44-3.82,3.57.5,7.13,2.49,10.83,3.55,5.42,1.55,15.42.37,14.43,3.75Z"/>
                <path class="cls-13" d="M508.36,722.22c-3.89.24-7.86,0-11.76,0-.05-.54.6-.72,1.27-.72h9.21c.68,0,1.32.18,1.27.72Z"/>
              </g>
            </g>
            <path class="cls-19" d="M388.23,687.91c-.67,1.68-2.56,2.02-3.98,2.81.42-1.72,1.23-3.37,2.03-4.9.06.48-.05,1.09.19,1.67.26.62,1.17.46,1.76.43Z"/>
            <g>
              <path class="cls-1" d="M470.54,487.28c.17,1.17-.64,3.74.49,4.43,2.89,1.57,6.56-.2,9.31.64,4.67,1.83,9.86,1.3,14.75.11,1.5-.36,3.69,1.03,5.22-.22.97-.8.31-2.91.32-3.92,1.09-.41,2.77.15,3.86-.06-.03,1.31-.09,2.53.32,4.28,2.05.17,14.77,1.72,13.28-2.1,1.46,1.98,1.38,4.57,1.38,7v15.41c0,3.37-.48,28.23-3.52,30.06.99,2.51-.46,4.41-.79,6.66-.69,4.64-.13,9.91-2.47,14.13-1.25,2.25-.76,4.19-1.18,6.61l-2.33,13.36c-.48,2.77-1.83,5.53-1.99,8.32-.56,9.81-2.41,4.37-3.58,20.08-.49,6.63-4.05,15.17-4.16,22.64-.06,4.37-1.18,7.67-2.27,11.8-1.77,6.71-1.69,17.35-3.36,20.97-1.2,2.6-.61,6.02-1.47,8.96-.42,1.43-.21,2.87.84,4.07,2.2,2.52,4.04,6.87,1.97,10.08-.82,1.26-3.36,1.1-3.13,2.93-1.17-.8-2.59,0-3.96.59-10.87,4.63-16.97,5.4-27.4,8.52,0-.22.1-.46.1-.68.04-3.26,1.01-7-.69-9.82l.03-1.3c1.84,1.15,1.46-5.36.63-5.7l-.07-1.4c2.46.94-.14-3.78,1.86-6.09l2.21,3.28c-.4,3.32-.15,6.88-.12,10.55.01,1.51,1.75,2.22,1.92,3.39.13.9-.06,1.56.99,1.51.91-.04,2.23,0,1.79-1.3,3.42,1.12,6.95-.75,10.25-2.2-.17.33.27.54.71.6,1.62,0,15.04-7,9.02-7.62-1.11-.11-3.19.24-4.34.71l-8.86,3.59c-2.82-6.95,10.14-7.02,8.63-12.9-.33-1.29-3.78-.75-4.51.24-1.07-.1-2.14-.11-3.21-.05,0-.97-.2-2.6.87-3.28l7.77-4.94c.84-.54,1.46-1.2,1.56-1.96.1-.88-.16-1.99-1.05-2.52-5.16-3.06-1.22-14.39.1-20.17l3.58-15.7c.28-1.21,1.6-1.77,1.5-2.93-.3-3.16-3.02-4.83-5.89-7.5.87-2.49,10.3-4.22,9.87-8.84-.38-4.17,3.39-5.3,1.54-9.48-3.55-8.04-.19-6.38-1.48-12.44-.12-.57-.03-1.07.12-1.49.13-.38.73-.53,1.19-.57,1.79,6.19,2.75-8.63,5.49-15.81,2.11-5.54,1.88-11.67,3.15-17.61.37-1.74,1.18-3.11,1.37-5.05l1.7-17.3c-1.51-.69-3.03.02-4.13-1.08,2.36-1.41,4.87.13,7.15-1.99-2.5-1-4.76.21-6.55-2.22,3.46-1.09,6.85-2.15,9.28-4.99,1.03-1.21-1.31-2.88-1.32-3.98-.01-1.31,1.33-2.59.75-4.03-.65-1.61-1.29-3.14-1.22-5,.27-6.7-8.08-.94-11.73-7.07-.61-1.02-.56-2.42-1.26-2.67-1.01-.36-2.47-.38-3.65.07-1.45,8.08,2.01,13.08-2.53,20.22-1.54,3.28-4.85,3.71-8.36,4.51-1.58.91-1.21,5.09-1.09,6.74,3.72.76,12.76-2.25,13.52-.03-1.76.17-3.47.62-5.33,1.24,2.39,2.47,0,1.85-.53,6.5-.07.6-.76,1.2-.61,1.91-1.13.08-1.55,1.13-1.87,2.36l-2.97,11.51-3.27,16.9c-.54,2.78-1.92,5.24-2.12,8.23-.18,2.7-1.44,4.82-2.05,7.3l-3.02,12.38c1.21-4.97-4,12.7-3.06,7.9.57-4.78,2.03-9.56,2.79-14.63l3.6-24.08c.25-1.65.7-2.75.9-4.78l1.24-12.53c.32-3.22.57-6.39.95-9.57.25-2.03,2.5-4.19-.06-6.45-.55,4.81-2.63,8.16-3.69,12.25l-2.46,9.42c1.35-5.16-5.11,14.62-4.5,12.65l-3.38,10.93c-.27.88-6.26,19.33-6.13,18.1-.29,2.75-2.2,4.79-2.95,7.22-1.13,3.68-2.57,6.9-4.04,10.36l-3.05,7.17c-1.56,3.68-2.55,7.24-4.53,10.66-1.53,2.63-1.27,6.05-3.34,8.49-1.75,2.07-1.35,5.69-2.89,7.96-1.9,2.82-2.36,5.93-3.53,9.07-.81,2.19-2.41,4.03-2.79,6.66-.37,2.57-1.99,4.48-2.78,6.75l-3.21,9.26-3.44,9.55-2.7,8.35c-.42,1.31-1.73,2.03-1.82,3.73-.06,1.11-.58,2.46-1.55,2.75-.64.19-1.48-.58-2.19-.68,0-3.92-1.57-6.62-5.07-8.58-6.37-3.56-13.34-4.53-20.29-3.81-.98.1-5.87.04-5.22,3.24-1.11-.21-2.41-2.01-2.08-3.35,1.42-.79,3.31-1.13,3.98-2.81.16,0,.33.1.48.08,6.56-.75,13.09-1.39,19.76.6.38-.17.82-.38.66-.7.73.48,2.05-.16,2.67,1.41.51,1.27,2.13,1.32,3.12,1.44,4.52,5.58,0-6.38-.35-7.31,1.69.29,2.61,1.4,4.66,2.03,2.29-3.4-4.5-8.21-6.35-8.84-.39-.59-.87-1.49-1.79-1.35-.21-1.26-1.97-1.11-2.11-3.19,2.78-1.05,13,5.24,14.41,2.92,2.44-4.01-8.48-6.71-8.72-9.85-.36-4.61,10.29.16,14.59-4.39,3.66-3.87-.97-14.71,3.61-23.71,1.61-3.16,1.81-6.72,3.19-9.93.92-2.14,2.33-3.92,2.33-6.55,0-5.41,6.6-1.08,13.34-12.32,3.04-5.06,6.29-12.98,6.99-18.45.02-.18.03-.38.02-.56.58.48.93-.14,1.17-.56.29-.5-.06-1.19.12-1.64,1.18-2.89,2.18-5.86,2.65-8.98.34.27.61.08.84-.13.48-.42.27-1.03.41-1.46,1.27-4.11,1.62-8.83,3.56-12.86,1.9-3.95,1.61-8.46,3.67-12.2,2.27-4.11,2.31-8.77,3.48-13.41.58-2.28,2.31-5,.57-7.41-1.01-1.4-3.33-.57-4.75-1.79,3.83-1.05,7.43-.18,11.03-.56.33-.04.76.09,1.07-.08.7-.36.3-1.16.31-2.02l.11-23.11c.01-2.87,1.05-5.76-.15-8.36-.67-.48-2.09,0-2.7.02-1.21.05-4.01-.54-6.35-.86-1.81,7.9-13.6,5.86-19.01,6.46.26-.32-.09-1.26.46-1.39,2.26-.54,14.89,1.4,16.68-4.37-2.84.74-5.03-.7-7.41-.95-3.49-.36-6.61-.72-9.71-1.78.32-.52.77-.89,1.42-.77,3.28.63,6.59.93,10.17.64.33-1.27.35-2.29.25-3.26.43.04.85-.12,1.23-.48.23-.22.44-.45.16-.81.81.15,1.69.19,2.51.13ZM484.68,519.92c4,.22,7.31-2.51,7.21-6.64-.12-5.39.44-10.95-.87-16.22-.6-2.4-4.92-1.09-5.54.99-.79,2.61-1.56,5.61-.78,8.26,2.7,9.23-1.38,6.39-.02,13.61Z"/>
              <path class="cls-28" d="M480.14,494.71c1.17,3.67,1.48,7.61,1.46,11.83l-.1,21.71c-3.59.39-7.2-.49-11.03.56,1.42,1.22,3.75.39,4.75,1.79,1.74,2.41,0,5.13-.57,7.41-1.17,4.64-1.22,9.3-3.48,13.41-2.06,3.74-1.77,8.25-3.67,12.2-1.94,4.03-2.29,8.75-3.56,12.86-.49-.36-.99.1-1.18.53-.17.36-.02.75-.06,1.06-.48,3.12-1.47,6.09-2.65,8.98-.53-.22-1.12-.04-1.25.46-.18.64-.08,1.21-.04,1.74.01.18,0,.38-.02.56-1.12-1.14-4.87,7.77-5.51,8.82-1.8,2.94-7.01,10.01-9.15,13.17-1.93.52-3.5.04-5.25,1.01,1.08,1.58,2.8.68,3.81,1.77-2.91,3.02-7.36-.18-10.4.95-3.72,1.88-4.48,8-6.04,11.58l-4.01,9.23c-1.13,2.59-5.84,9.78-7.71,12.49-1.84,2.67-3.29,5.09-1.79,8.63,1.95,4.6-9.03,5.6-8.38,11.91.22,2.1,5.12,6.16,6.77,5.91.92-.14,1.4.77,1.79,1.35-.26,1.07,1.18,1.04,1.54,2.78-4.15.25-7.98-2.53-12.45-.63,4.31,1.65,15,7.6,12.94,11.97-.99-.12-2.61-.17-3.12-1.44-.63-1.57-1.94-.93-2.67-1.41-5.68-3.72-12.79-3.99-19.33-1.6-.87.32-1.26.97-1.09,1.7-.15.02-.32-.09-.48-.08-.59.03-1.5.19-1.76-.43-.24-.57-.13-1.18-.19-1.67l3.51-6.72c1.42-2.72,2.89-5.16,4.39-7.85.08-.14,8.92-18.31,8.5-17.2.8-2.1,6.83-15.17,8.18-18.05l3.93-8.38c1.22-2.61,2.27-5.47,3.55-8.08,1.46-2.98,1.67-6.29,3.33-9.18,1.95-3.39,2.22-7.52,3.87-11.17,1.26-2.8,2.66-5.75,3.57-8.63,1.35-4.24,7.74-21.42,8.11-22.88l3.13-12.1c1.15-4.42,1.47-9.22,3.33-13.31l1.28-2.81c1.83-4.03,1.5-8.74,3.1-12.8,2.15-5.46,2.31-11.23,3.09-17.03.11-.78,1.42-1.68.77-2.59-1.66-2.31.67-3.6.9-5.41.63-.38,1.45-.71,1.95-1.32,5.41-.6,17.2,1.44,19.01-6.46,2.33.32,5.14.9,6.35.86Z"/>
              <path class="cls-19" d="M490.79,537.98c.33-.01.51.3.5.79l-.27,11.99c0-.23-4.47,21.41-4.99,23.58l-3.43,14.56c-.67,2.84-6.06,21,1.59,21.23l6.51.19c1.85.05,3.33.56,4.62-.73.42,4.62-9,6.35-9.87,8.84,2.87,2.67,5.59,4.34,5.89,7.5.11,1.15-1.22,1.71-1.5,2.93l-3.58,15.7c-1.32,5.78-5.26,17.11-.1,20.17.88.52,1.15,1.64,1.05,2.52-.09.77-.71,1.43-1.56,1.96l-7.77,4.94c-1.06.68-.86,2.31-.87,3.28-.96,1.43-3.06,1.39-4.38.13-.9-.86-1.03-3.56.2-4.93,2.85-3.17,8.43-3.76,8.72-7.5.19-2.47-5.71-1.19-7.52-4.09-.54-.79.71-2.45.16-3.17l-3.71-4.83c-3.4-4.43,3.75-23.59,2.46-29.68-4.43,11.35-3.58,20.49-5.38,30.89-.34,1.98-1.06,3.46-1.11,5.67-.17,7.23-.88,14.21-1.68,20.98l-2.21-3.28c-2,2.3.6,7.02-1.86,6.09-.34-6.77,1.96-15.01,1.76-19.53-.11-2.42.95-3.72,1.24-5.58,1.33-8.45,2.21-16.47,3.54-24.61l3.88-23.72c.32-1.99,1.12-3.92,1.33-5.7-.94,4.79,4.27-12.88,3.06-7.9l3.02-12.38c.61-2.48,1.87-4.6,2.05-7.3.2-2.99,1.58-5.44,2.12-8.23l3.27-16.9,2.97-11.51c.32-1.24.74-2.29,1.87-2.36Z"/>
              <path class="cls-19" d="M454.78,500.32c-.5.61-1.32.93-1.95,1.32.42-3.29.22-6.94,1.96-9.8,3.11,1.06,6.23,1.42,9.71,1.78,2.39.24,4.58,1.68,7.41.95-1.79,5.77-14.42,3.83-16.68,4.37-.55.13-.2,1.07-.46,1.39Z"/>
              <path class="cls-11" d="M517.4,488.28c.75.39.31,1.65.68,2.15,1.49,3.82-11.23,2.28-13.28,2.1-.41-1.75-.34-2.97-.32-4.28,2.7-.53,5.41.4,8.39-.02,1.68-.23,3.15-.59,4.52.04Z"/>
              <path class="cls-22" d="M519.46,512.84v-15.41c.5-.05.67.64.67,1.37v12.67c0,.73-.17,1.42-.67,1.37Z"/>
              <path class="cls-19" d="M460.12,690.81c.04-1.88-.95-4.44.63-5.7.83.34,1.21,6.85-.63,5.7Z"/>
              <path class="cls-28" d="M496.69,585.61c-.46.04-1.06.2-1.19.57-.15.41-.24.91-.12,1.49,1.29,6.06-2.08,4.41,1.48,12.44,1.85,4.18-1.92,5.31-1.54,9.48-1.3,1.29-2.78.78-4.62.73l-6.51-.19c-7.65-.23-2.26-18.39-1.59-21.23l3.43-14.56c.51-2.18,4.99-23.81,4.99-23.58l.27-11.99c.01-.5-.17-.81-.5-.79-.15-.71.54-1.3.61-1.91,1.27.21,6.41-5.96,6.42-6.06.07-.55-.38-1.14-.56-1.67-.77-2.22-9.8.79-13.52.03-.13-1.66-.49-5.84,1.09-6.74,3.51-.8,6.82-1.23,8.36-4.51,1.84-.21,3.08-1.7,3.78-3.93.63-1.98,4.08-4.8,5.47-2.62.98,1.55,1.95,17.14-2.8,19.21,1.94.96,3.94,1.57,3.77,4.03-.26,3.72.34,7.47-.4,11.04-.97,4.66-.17,9.47-1.36,13.89-1.31,4.86-1.61,9.66-3.15,14.34-2.89,8.75-1.21,1.88-1.8,12.55Z"/>
              <path class="cls-19" d="M458.73,589.81c-.7,5.47-3.96,13.39-6.99,18.45-6.75,11.24-13.35,6.91-13.34,12.32,0,2.64-1.41,4.41-2.33,6.55-1.38,3.21-1.59,6.77-3.19,9.93-4.58,9,.05,19.84-3.61,23.71-4.3,4.54-14.95-.23-14.59,4.39.25,3.15,11.17,5.84,8.72,9.85-1.41,2.31-11.63-3.98-14.41-2.92.14,2.08,1.9,1.92,2.11,3.19-1.66.25-6.55-3.8-6.77-5.91-.66-6.31,10.32-7.32,8.38-11.91-1.5-3.55-.06-5.97,1.79-8.63,1.87-2.71,6.58-9.9,7.71-12.49l4.01-9.23c1.56-3.58,2.32-9.7,6.04-11.58,3.04-1.13,7.49,2.07,10.4-.95-1.02-1.09-2.73-.19-3.81-1.77,1.75-.97,3.32-.49,5.25-1.01,2.13-3.16,7.34-10.22,9.15-13.17.65-1.05,4.4-9.96,5.51-8.82Z"/>
              <path class="cls-19" d="M496.69,585.61c.59-10.67-1.1-3.8,1.8-12.55,1.54-4.67,1.84-9.47,3.15-14.34,1.19-4.43.39-9.23,1.36-13.89.74-3.57.14-7.32.4-11.04.17-2.46-1.83-3.07-3.77-4.03,4.75-2.07,3.78-17.66,2.8-19.21-1.39-2.18-4.84.64-5.47,2.62-.71,2.23-1.95,3.72-3.78,3.93,4.55-7.14,1.09-12.14,2.53-20.22,1.18-.45,2.64-.43,3.65-.07.7.25.65,1.65,1.26,2.67,3.65,6.13,12,.37,11.73,7.07-.08,1.87.56,3.4,1.22,5,.59,1.44-.76,2.71-.75,4.03.01,1.09,2.35,2.77,1.32,3.98-2.43,2.84-5.82,3.91-9.28,4.99,1.79,2.44,4.05,1.22,6.55,2.22-2.28,2.12-4.79.57-7.15,1.99,1.11,1.1,2.62.38,4.13,1.08l-1.7,17.3c-.19,1.94-1,3.31-1.37,5.05-1.27,5.93-1.04,12.06-3.15,17.61-2.74,7.18-3.69,22-5.49,15.81Z"/>
              <path class="cls-28" d="M477.01,677.44c1.07-.06,2.14-.05,3.21.05,1.09,3.78-6.21,3.32-9.83,11.13-3.47,7.48,15.47,1.38,14.57-2.06,1.15-.47,3.23-.82,4.34-.71,1.3.76-11.11,7.61-9.74,7.01-3.3,1.45-6.83,3.32-10.25,2.2-.88-.29-1.88-.12-2.78-.21-.17-1.17-1.91-1.88-1.92-3.39-.03-3.68-.27-7.24.12-10.55.81-6.77,1.51-13.75,1.68-20.98.05-2.21.77-3.7,1.11-5.67,1.81-10.4.96-19.54,5.38-30.89,1.29,6.09-5.86,25.25-2.46,29.68l3.71,4.83c.55.71-.7,2.37-.16,3.17,1.82,2.9,7.71,1.62,7.52,4.09-.29,3.73-5.87,4.33-8.72,7.5-1.23,1.37-1.1,4.07-.2,4.93,1.32,1.27,3.42,1.31,4.38-.13Z"/>
              <path class="cls-19" d="M484.68,519.92c-1.36-7.21,2.72-4.38.02-13.61-.77-2.65,0-5.65.78-8.26.63-2.09,4.95-3.39,5.54-.99,1.32,5.27.75,10.83.87,16.22.09,4.13-3.21,6.86-7.21,6.64Z"/>
              <path class="cls-19" d="M484.96,686.56c.9,3.43-18.04,9.54-14.57,2.06,3.62-7.8,10.91-7.34,9.83-11.13.74-.99,4.19-1.53,4.51-.24,1.51,5.89-11.45,5.95-8.63,12.9l8.86-3.59Z"/>
              <path class="cls-19" d="M414.92,690.74c2.06-4.37-8.63-10.31-12.94-11.97,4.47-1.9,8.29.88,12.45.63-.37-1.75-1.8-1.71-1.54-2.78,1.85.63,8.64,5.44,6.35,8.84-2.05-.62-2.96-1.73-4.66-2.03.35.93,4.87,12.88.35,7.31Z"/>
              <path class="cls-19" d="M481.5,528.25l.1-21.71c.02-4.22-.3-8.16-1.46-11.83.62-.02,2.03-.5,2.7-.02,1.2,2.6.16,5.49.15,8.36l-.11,23.11c0,.85.39,1.66-.31,2.02-.32.16-.74.04-1.07.08Z"/>
              <path class="cls-13" d="M481.71,487.43c-.04,1.37,1.15,1.54,2.51,2.18-.87,1.23-2.2.02-2.75,1.47,3.85,1.24,7.73,1.2,11.35.25.7-.69.22-2.77-.03-3.47.79.08,1.66.05,2.45-.07-.2,1.54-.3,3.11-.15,4.66-4.88,1.19-10.08,1.72-14.75-.11-.46-1.73-.33-3.52-.05-5.27.19-.01.41-.14.59-.22l.83.57Z"/>
              <path class="cls-19" d="M409.13,687.89c.17.32-.27.53-.66.7-6.67-1.99-13.2-1.35-19.76-.6-.17-.73.21-1.38,1.09-1.7,6.54-2.4,13.65-2.12,19.33,1.6Z"/>
              <path class="cls-19" d="M497.25,528.34c.18.54.63,1.12.56,1.67-.01.1-5.15,6.27-6.42,6.06.53-4.65,2.92-4.03.53-6.5,1.85-.62,3.56-1.06,5.33-1.24Z"/>
              <path class="cls-19" d="M479.56,692.86c-1.37.6,11.04-6.26,9.74-7.01,6.02.62-7.4,7.62-9.02,7.62-.44-.07-.88-.28-.71-.6Z"/>
              <path class="cls-19" d="M469.31,695.06c.44,1.3-.87,1.26-1.79,1.3-1.05.04-.86-.62-.99-1.51.9.09,1.9-.08,2.78.21Z"/>
              <path class="cls-19" d="M460.04,587.05c-.18.45.16,1.14-.12,1.64-.24.42-.59,1.04-1.17.56-.04-.53-.14-1.09.04-1.74.14-.5.72-.68,1.25-.46Z"/>
              <path class="cls-19" d="M463.94,576.48c-.13.43.07,1.04-.41,1.46-.23.21-.5.4-.84.13.05-.31-.1-.7.06-1.06.2-.43.7-.89,1.18-.53Z"/>
            </g>
            <g>
              <path class="cls-24" d="M445.45,392.42c.17,3.45.45,6.98.38,10.72-.08,4.09-.59,8.27,1.44,11.95,3.99,7.22.64,12.35,8.21,12.99,6.79.58,16.09,1.73,21.84-.74-.11,1.12.15,2.29.15,3.41-.49-.38-.93.2-1.11.61-.31.73.43,1.32.71,1.77,0,3.69-.46,7.88-.26,11.62-.49-.39-.93.21-1.09.62-.28.71.37,1.33.7,1.76l-.51,15.1c-.55-.11-.99-.09-1.19.26-.55.94-.43,4-.09,4.88.18.45.71.61,1.4.55.25.55.53,1.09.92,1.55.13,2.15,4.27,5.87,6.59,9.18-2.88,3.63-16.63,3.2-21.3,2.36-4.78-.86-9.22-4.07-11.18-8.79-1.35-3.25-1.8-11.96-3.24-11.06l-.9-8.59c-.57-5.38-.68-10.97-1.9-16.24-1.29-5.62-3.31-10.8-3.77-16.75-.08-1.03-1.54-1.44-1.77-2.67-1.27,2.68-1.21,5.88-2.71,8.6-3.32,6.01-2.7,12.59-4.92,11.7-.49-1.69.2-3.35,1.65-4.6.77-8.19,5.17-12.76,4.84-18.51.04-2.54,1.06-4.18,2.95-6.23,1.3-1.41,2.3-15.16,1.85-18.11,1.57-.44,2.27,1.39,2.33,2.67Z"/>
              <path class="cls-8" d="M434.54,374.98c.33,1.02,1.34,1.37,1.96,1.78,1.29.84,2.29-.77,3.42-.89,6.93-.75,19.53-.87,22.07,7.34-5.53-1.02-4.33-7.44-19.58-5.37,1.67,5.93,5.41,8.87,3.05,14.59-.06-1.28-.77-3.11-2.33-2.67.45,2.95-.55,16.7-1.85,18.11-1.89,2.05-2.91,3.7-2.95,6.23-4.28,7.11-2.83,7.04-6.89,14.74-1.3,2.46-2.63,6.14-6.01,5.94l-15.25-.89c.23,2.37,1.83.6,2.83.9,5.42,1.63,11.34,2.3,16,5.46,1.41.96-1.72,8.55-2.71,8.88-1.2.41-1.93-.52-3.12-1.09-6.38-3.03-13.12-5.04-19.81-5.81-1.38-3.85,1.76-6.37,2.36-9.75l4-22.55,3.18-17.09,3.68-8.66c3.12-7.34,11.28-9.06,17.94-9.18ZM417.07,426.76c-1.05-11.32,9.67-11.83,13.08-15.35,4.98-5.13,2.31-13.06,7.62-21.29.33-3.14.14-6.29-1.18-8.88-2.69-5.24-14.23-3.71-17.2,3.21-.68,1.57-.72,3.56-2.22,4.73l-3.01,12.11c-.41,1.67-1.41,2.92-1.62,4.77l-1.98,17.21c-1.24,2.41-2.89,5.83-1.59,8.4.71,1.39,8.57.22,8.1-4.93Z"/>
              <path class="cls-24" d="M590.74,390.46c-.18,1.56-1.66,4.46-3.36,4.94-3.49.99-5.9,7.89-7.87,10.22s-6.54.82-9.09.32l-15.83-3.1c.6,1.74,9.62,2.88,8.77,4.06-2.5.66-15.66-4.54-19.16-6.08-2.41-1.06-4.44-2.82-6.92-2.96.17-.19.27-1.19-.07-1.16-4.32.38-6.43,3.53-8.48,7-3.05,5.16-2.28,12.17-4.75,11.21-1.61-3.11.79-6.58,1.21-9.93.71-5.61,2.18-11.07,2.24-16.57.04-3.27-2.55-6.39-.41-9.98,2.58-4.33-10.74-7.31-19.81.12-1.24,1.02-1.92,2.69-3.4,2.83-.07-2.42,1.4-4.25,2.41-6.63l2.03-4.8c.66-1.57,1.46-2.51,1.42-3.98l24.24,5.21c6.2-4.08,22.85,3.7,29.56,6.83l12.76,5.94,4.83,2.59c3.05,1.63,6.41,3.65,9.69,3.92ZM579.93,396.3c2.78.2,4.86-2.41,6.57-3.97-.99-.92-1.81-1.94-3.09-2.51l-13.48-5.99c-3.39-1.5-6.37-3.55-9.93-4.74-6.45-2.15-12.48-5.04-19.12-6.75-3.84-.99-11.91,2.59-11.52,9.09s15.37,10.35,19.38,12.31c12.91,6.3,14.55-3.38,22.7-1.76,3.11.61,5.11,4.08,8.48,4.32Z"/>
              <path class="cls-25" d="M537.28,397.86c-1.74,2.1-4.38,3.42-5.45,6.31-1.93,5.23-1.83,10.72-2.87,16.27-.31,1.64-.92,2.94-1.15,4.87l-2.79,23.25c-1.58.03-2.35,19.18-2.31,19.58.98,11.01,2.58,13.72-5.33,20.13-1.37-.63-2.84-.27-4.52-.04-2.98.42-5.69-.51-8.39.02-1.09.21-2.77-.35-3.86.06-1.67-.84-3.55-.8-5.39-.52-.79.12-1.66.15-2.45.07-3.68-.38-7.49-1.42-11.07-.43l-.83-.57c4.53-1.93,9.83-.83,15.04-.64l21.08.78c1.5-1.58,3.14-3.89,4.43-5.77.13-6.31.92-12.23-.53-18.79-1.83,5-1.45,9.6-2.54,14.26-1.65,11.64-22.46,5.25-31.55,6.26-5.52.61-10.56,2.22-16.37,1.39-4.22-.6-17.34,1.18-19.89-6.6-2.28,4.18,5.35,8.96,10.13,8.83l14.98-.42c.63-.02,1.6.05,1.39.62l-6.51.49c-.82.06-1.7.02-2.51-.13-.56-.11-1.05.36-1.48.48l-10.33.12c-9.83-9.34-5.18-2.01-7.13-14.07-.45-2.77.05-4.67-1.38-7.16-.81-1.4.24-3.94.09-5.36,1.45-.9,1.89,7.8,3.24,11.06,1.96,4.72,6.39,7.93,11.18,8.79,4.67.84,18.42,1.27,21.3-2.36,2.67,3.81,4.78,2.19,4.57,2.16.97.18,1.51.89,2.37-.19.77-.97-.05-1.95.2-2.69,2.12-6.44,6.6-6.99,6.01-14.19l-2-24.43c-.19-2.37-.07-4.78.13-7.13.67-.33.91.3,1.07.67.24.56-.06,1.56-.06,2.23-.04,6.57.54,12.79,1.95,19.06,3.74,16.67.09,13.19-5.75,25.66,7.51.95,15.65,1.35,22.38-1.65,2.92-2.56,3.11-7.89,3.44-11.47l2.74-29.38c-.96,10.27,3.34-22.44,2.2-14.91l.71-4.71c.67-.01.42-1.11.43-1.59,0-.32.2-.91.06-1.18,2.47.97,1.7-6.05,4.75-11.21,2.05-3.47,4.16-6.62,8.48-7,.34-.03.24.97.07,1.16Z"/>
              <path class="cls-25" d="M466.55,355.27l-3.2,9.33c-1.05,3.07-1.07,4.96,0,7.95,1.77,4.89,2.96,9.98,5.56,13.92,1.49-3.73,3.29-6.89,5.36-9.06,8.48,5.96,6.11,6.3,6.03,9.24-1.51-5.37-10.28,2.67-11.42,2.87-2.35.41-4.78-5.92-6.91-6.31-2.54-8.22-15.14-8.09-22.07-7.34-1.13.12-2.13,1.73-3.42.89-.62-.41-1.63-.76-1.96-1.78.17-.99.94-1.21,1.93-1.5l20.64-6.07c1.93-.57,9.58-14.2,9.44-12.14Z"/>
              <path class="cls-8" d="M480.34,369.26c-2.21-.46-3.19,1.23-4.11,3.24-.78,1.71-2.27,3.13-1.94,4.91-2.07,2.17-3.87,5.33-5.36,9.06-2.6-3.94-3.79-9.03-5.56-13.92-1.08-2.98-1.06-4.88,0-7.95l3.2-9.33c.46-.31,1.44.1,1.86-.48-.06,3.39,11.02,10.58,11.93,14.47Z"/>
              <path class="cls-25" d="M599.64,396.66c-.66-.24-2.09-.98-2.98-.52-1.37,4.71-2.1,9.51-2.63,14.46-.33,3.1,1.4,5.27,3.87,6.15-2.15,2.55-5.25,1.34-8.16.53-3.67-1.02-7.6-1.3-9.64-5.17-5.15-.27-10.47-3.87-12.95-3.62.28-1.02-.37-1.4-1.01-1.43l-2.21-.1c-.18,0-.39-.11-.56-.06.85-1.17-8.17-2.32-8.77-4.06l15.83,3.1c2.55.5,7.12,2.01,9.09-.32s4.38-9.23,7.87-10.22c-2.38,4.54-5.58,9.84-3.92,15.33.93,2.42,5.72,3.01,7.74,2.74l1.69-9.87c.66-3.82,3.49-7.15,3.85-11.03,1.03,1.12,4.01,1.3,2.89,4.08Z"/>
              <path class="cls-25" d="M431.83,437.21c.06.21.1.48.1.7-.78.02-.69,1.03-.7,1.75,0,.5.24.79.7,1.05.71.41,1.28,1.13,1.38,1.78.15.96-.7,1.38-.96,2.18l-3.03,9.35c-.46,1.41-2.29,1.36-3.3,1.39.19-2.95-2.74-5.58-5.32-6.69-2.42-1.03-14.3-6.06-15.12-4.51-.33.62-1.08,1.75-1.08,2.62-1.9-.91-.65-3.27-1.13-4.61,6.69.77,13.43,2.78,19.81,5.81,1.19.56,1.91,1.49,3.12,1.09.99-.33,4.12-7.92,2.71-8.88-4.66-3.16-10.58-3.83-16-5.46-1-.3-2.6,1.47-2.83-.9l15.25.89c3.38.2,4.72-3.48,6.01-5.94,4.06-7.69,2.6-7.63,6.89-14.74.33,5.75-4.06,10.32-4.84,18.51-1.45,1.25-2.15,2.91-1.65,4.6Z"/>
              <path class="cls-25" d="M509.66,365.97c.04,1.47-.75,2.41-1.42,3.98l-2.03,4.8c-1,2.38-2.48,4.21-2.41,6.63.04,1.4-1.16,3.04-2.08,3.98l-2.49,2.54c-1.08-3.71-4.65-5.61-7.64-3.56-1.21.83-.95,4.22.15,4.8-.16,1.18.02,2.5-.83,3.32-.11-.39-.27-1-.7-1.34-.27-.21-.77,0-1.16.16-.37-2.57.48-5.37-.15-7.95.46.25.46-.45.54-.76,1.78-.35,2.61-2.21,3.88-3.47.19-.18.66-.08.93-.22.39-.21.62-.65.47-1.16.16.02.33,0,.49-.01l.72-.04,3.56,5.95c4.83-6.63,5.81-14.95,1.75-21.46-1.32-2.12-2.2-4.19.16-6.1.46-.37.74-1.08.82-1.63l.17-1.26c.91-1.09,7.27,13.27,7.26,12.79Z"/>
              <path class="cls-8" d="M596.75,392.58c-.36,3.88-3.19,7.2-3.85,11.03l-1.69,9.87c-2.02.28-6.8-.32-7.74-2.74-1.66-5.49,1.54-10.79,3.92-15.33,1.7-.48,3.18-3.39,3.36-4.94,2.51.21,4.05,0,6,2.12Z"/>
              <path class="cls-11" d="M466.55,487.63l.08.81c.1.97.08,1.99-.25,3.26-3.58.29-6.89,0-10.17-.64v-3.31s10.34-.12,10.34-.12Z"/>
              <path class="cls-24" d="M567.15,408.5c-1.1.11-2.69-.58-3.22-1.53l2.21.1c.64.03,1.29.41,1.01,1.43Z"/>
              <path class="cls-24" d="M431.93,440.71c-.47-.27-.71-.56-.7-1.05.01-.72-.07-1.72.7-1.75v2.8Z"/>
              <path class="cls-11" d="M477.05,486.79c1.06-.08,2.18.36,3.24.29-.28,1.75-.41,3.54.05,5.27-2.74-.84-6.41.93-9.31-.64-1.13-.7-.33-3.27-.49-4.43l6.51-.49Z"/>
              <path class="cls-11" d="M500.63,488.32c-.02,1.01.65,3.12-.32,3.92-1.53,1.25-3.72-.14-5.22.22-.15-1.55-.05-3.12.15-4.66,1.84-.28,3.72-.32,5.39.52Z"/>
              <path class="cls-22" d="M468.03,487.15c.28.36.07.59-.16.81-.38.36-.8.52-1.23.48l-.08-.81c.43-.13.92-.59,1.48-.48Z"/>
              <path class="cls-4" d="M461.98,383.21c2.13.39,4.55,6.72,6.91,6.31,1.15-.2,9.91-8.24,11.42-2.87l-.26,9.3c-2.73-2.37-1.55,13.8-1.62,15.34-.22,2.51-.46,5.03-.31,7.55-.51-.38-.91.2-1.12.6-.4.76.57,1.3.7,1.78.07,1.72-.22,4.32-.39,6.11-5.76,2.47-15.05,1.32-21.84.74-7.57-.64-4.22-5.77-8.21-12.99-2.03-3.67-1.52-7.86-1.44-11.95.07-3.74-.21-7.27-.38-10.72,2.36-5.72-1.38-8.65-3.05-14.59,15.25-2.07,14.05,4.35,19.58,5.37Z"/>
              <path class="cls-7" d="M480.34,369.26c1.07.22,2.1.9,3.28.62l-3.54,1.87c-1.38.73-2.03,1.97-1.95,3.49.15,3,6.29,4.1,6.02,2.36l-.61-4.07c-.31-2.08,3.53-2.13,5.83-1.37.44-1.48-.98-1.52-1.3-2.36.49.22.96-.36,1.38-.43.8-.15,1.75-.14,2.52.45-.21-.16,3.01,4.99,3.51,6.46l-.24,1.44c-.16,0-.34.04-.49.01-.44-.06-1.06-.13-1.38.35-.18.27-.09.73-.02,1.02-1.27,1.25-2.11,3.12-3.88,3.47-.33.07-.64.37-.54.76.63,2.58-.21,5.38.15,7.95.88,6.17-.44,10.09,1.92,9.52l.44,1.46.11,2.64c.31,7.36.57,10.9,1.23,18.18-.18.3-.85.67-.69,1.08.19.5.67.99,1.08.6-.47,2.03.44,4.12.3,6.12-.06.89-.75,10.43,1.25,8.41l2,24.43c.59,7.2-3.89,7.75-6.01,14.19-1.42.14-2.01,1.63-2.57,2.89.21.04-1.91,1.65-4.57-2.16-2.32-3.31-6.46-7.03-6.59-9.18,2.55-.63,5.52,4.74,8.27,3.95,2.41-.69,3.02-3.84,4.15-5.89-7.17.66-6.04-9.06-6.88-14.16-.36-2.19-1.93-5.18-.55-7.27,1.71-2.59-.09-4.37-.16-6.8l-1.01-34.79c-.01-.4-1.18-.22-1.2-.2l.5-8.34.26-9.3c.08-2.94,2.45-3.28-6.03-9.24-.33-1.78,1.16-3.2,1.94-4.91.92-2.01,1.9-3.71,4.11-3.24Z"/>
              <path class="cls-1" d="M476.94,469.47c-.39-.45-.67-.99-.92-1.55l-.12-5.69.51-15.1c.86-.37.44-1.63.4-2.39-.2-3.74.26-7.93.26-11.62.88-.37.39-1.62.4-2.38,0-1.12-.25-2.29-.15-3.41.17-1.8.46-4.4.39-6.11.85-.36.46-1.62.41-2.38-.15-2.52.09-5.04.31-7.55,1.9.14,1.02-5.45,1.11-7,.01-.02,1.18-.19,1.2.2l1.01,34.79c.07,2.43,1.88,4.21.16,6.8-1.38,2.09.19,5.08.55,7.27.85,5.1-.29,14.81,6.88,14.16-1.13,2.05-1.74,5.2-4.15,5.89-2.75.79-5.72-4.58-8.27-3.95Z"/>
              <path class="cls-25" d="M475.9,462.23l.12,5.69c-.68.05-1.22-.1-1.4-.55-.34-.88-.47-3.94.09-4.88.2-.34.64-.37,1.19-.26Z"/>
              <path class="cls-25" d="M477.47,430.74c0,.76.48,2.01-.4,2.38-.28-.44-1.02-1.04-.71-1.77.17-.41.61-.99,1.11-.61Z"/>
              <path class="cls-25" d="M476.81,444.74c.04.76.46,2.02-.4,2.39-.33-.43-.98-1.05-.7-1.76.16-.41.6-1.02,1.09-.62Z"/>
              <path class="cls-4" d="M417.07,426.76c.48,5.15-7.39,6.32-8.1,4.93-1.31-2.58.34-5.99,1.59-8.4l1.98-17.21c.21-1.85,1.21-3.1,1.62-4.77l3.01-12.11c1.5-1.18,1.55-3.16,2.22-4.73,2.98-6.92,14.51-8.44,17.2-3.21,1.33,2.59,1.51,5.73,1.18,8.88-5.3,8.23-2.64,16.16-7.62,21.29-3.41,3.52-14.13,4.02-13.08,15.35Z"/>
              <path class="cls-4" d="M523.98,414.91c.14.27-.05.86-.06,1.18-.29-.3-.54-.17-.87.09-.29.22-.42.48-.18.85.13.2.44.44.63.65l-.71,4.71c-3.23,1.42-2.11,3.61-7.52,4.14-6.85.67-13.43-.29-20.01-.56-1.18-2.45.03-5.55-.95-8.36-3-8.56.24-12.27-2.77-12.69l-.11-2.64c1.6,1.18,1.3-6.75-.39-5.86.15-1.26-.13-2.72-.1-3.95.85-.82.67-2.14.83-3.32.14-1.01.13-2.22.7-3.22,3.47-.2,5.55,4.34,7.54,3.54.42-.17,2.19-2.21,2.51-3.06.23-.62-.06-1.14-.77-1.05.93-.95,2.13-2.59,2.08-3.98,1.48-.14,2.16-1.81,3.4-2.83,9.06-7.43,22.38-4.45,19.81-.12-2.13,3.59.45,6.71.41,9.98-.06,5.5-1.54,10.96-2.24,16.57-.42,3.35-2.81,6.82-1.21,9.93Z"/>
              <path class="cls-4" d="M579.93,396.3c-3.36-.25-5.37-3.71-8.48-4.32-8.16-1.61-9.8,8.06-22.7,1.76-4.01-1.96-18.98-5.85-19.38-12.31s7.68-10.08,11.52-9.09c6.64,1.71,12.67,4.6,19.12,6.75,3.55,1.19,6.54,3.23,9.93,4.74l13.48,5.99c1.27.56,2.1,1.59,3.09,2.51-1.71,1.55-3.79,4.17-6.57,3.97Z"/>
              <path class="cls-24" d="M522.79,422.38c1.14-7.53-3.16,25.18-2.2,14.91l-2.74,29.38c-.33,3.58-.52,8.91-3.44,11.47-6.73,3-14.87,2.6-22.38,1.65,5.84-12.47,9.49-8.99,5.75-25.66-1.41-6.27-1.99-12.49-1.95-19.06,0-.66.31-1.66.06-2.23-.16-.37-.4-1-1.07-.67.04-.43-.26-.95-.17-1.36.32-1.44.48-3.46.61-4.85,6.58.28,13.16,1.23,20.01.56,5.41-.53,4.29-2.72,7.52-4.14Z"/>
              <path class="cls-22" d="M480.88,486.86c-.18.08-.4.21-.59.22-1.06.06-2.18-.37-3.24-.29.21-.58-.76-.64-1.39-.62l-14.98.42c-4.78.13-12.41-4.65-10.13-8.83,2.55,7.77,15.67,6,19.89,6.6,5.82.83,10.85-.78,16.37-1.39,9.09-1,29.9,5.38,31.55-6.26,1.09-4.66.71-9.26,2.54-14.26,1.45,6.56.65,12.48.53,18.79-1.29,1.88-2.93,4.2-4.43,5.77l-21.08-.78c-5.21-.19-10.51-1.29-15.04.64Z"/>
              <path class="cls-11" d="M492.79,487.87c.26.7.74,2.78.03,3.47-3.61.95-7.49.99-11.35-.25.55-1.45,1.88-.24,2.75-1.47-1.36-.64-2.55-.82-2.51-2.18,3.58-.99,7.4.06,11.07.43Z"/>
              <path class="cls-1" d="M494.64,430.82c-.09.41.21.93.17,1.36-.2,2.35-.33,4.77-.13,7.13-2,2.01-1.31-7.52-1.25-8.41l1.21-.08Z"/>
              <path class="cls-22" d="M490.67,477.92c-.25.75.57,1.72-.2,2.69-.86,1.08-1.4.38-2.37.19.56-1.25,1.14-2.75,2.57-2.89Z"/>
              <path class="cls-24" d="M523.93,416.09c0,.48.24,1.58-.43,1.59-.19-.21-.5-.46-.63-.65-.24-.37-.11-.63.18-.85.34-.25.58-.39.87-.09Z"/>
              <path class="cls-24" d="M502.23,354.45c-.07.55-.36,1.26-.82,1.63-2.36,1.91-1.48,3.98-.16,6.1,4.05,6.51,3.07,14.83-1.75,21.46l-3.56-5.95-.47-1.4c-.5-1.47-3.72-6.62-3.51-6.46-.77-.59-1.72-.6-2.52-.45-1.14-1.55,11.42-14.24,12.8-14.93Z"/>
              <path class="cls-1" d="M488.06,369.81c.33.84,1.74.88,1.3,2.36-2.3-.76-6.14-.71-5.83,1.37l.61,4.07c.26,1.74-5.87.64-6.02-2.36-.08-1.51.57-2.76,1.95-3.49l3.54-1.87c1.36-.72,3.12-.67,4.45-.08Z"/>
              <path class="cls-24" d="M501.73,385.36c.71-.09,1,.43.77,1.05-.32.86-2.09,2.89-2.51,3.06-1.99.8-4.07-3.74-7.54-3.54-.57,1-.56,2.21-.7,3.22-1.1-.58-1.36-3.97-.15-4.8,2.99-2.05,6.56-.16,7.64,3.56l2.49-2.54Z"/>
              <path class="cls-1" d="M490.92,392.47c-.02,1.23.25,2.68.1,3.95-.17,1.46-.44,3.07-.05,4.4-2.36.57-1.04-3.35-1.92-9.52.39-.16.89-.37,1.16-.16.43.34.59.94.7,1.34Z"/>
              <path class="cls-1" d="M494.74,377.73c.14.51-.08.95-.47,1.16-.26.14-.74.04-.93.22-.07-.29-.16-.76.02-1.02.32-.48.94-.41,1.38-.35Z"/>
              <polygon class="cls-1" points="495.95 377.68 495.23 377.72 495.47 376.28 495.95 377.68"/>
              <path class="cls-1" d="M488.91,383.34c-.1-.4.21-.7.54-.76-.09.31-.09,1.01-.54.76Z"/>
              <path class="cls-25" d="M480.05,395.96l-.5,8.34c-.09,1.55.78,7.14-1.11,7,.06-1.54-1.12-17.71,1.62-15.34Z"/>
              <path class="cls-25" d="M478.13,418.84c.04.76.43,2.02-.41,2.38-.13-.48-1.1-1.02-.7-1.78.21-.39.61-.98,1.12-.6Z"/>
              <path class="cls-25" d="M495.25,425.96c-.13,1.4-.28,3.42-.61,4.85l-1.21.08c.14-2-.77-4.09-.3-6.12.11-.47.21-1.6-.38-1.68-.66-7.28-.92-10.82-1.23-18.18,3.01.43-.22,4.13,2.77,12.69.98,2.81-.22,5.91.95,8.36Z"/>
              <path class="cls-25" d="M491.41,402.27l-.44-1.46c-.39-1.32-.12-2.94.05-4.4,1.69-.89,1.99,7.03.39,5.86Z"/>
              <path class="cls-1" d="M493.14,424.78c-.4.39-.88-.1-1.08-.6-.16-.41.52-.78.69-1.08.6.09.49,1.21.38,1.68Z"/>
            </g>
            <g>
              <path class="cls-10" d="M544.94,218.02c1.04,1.89-17.78.42-18.68.3-8.38-1.12-16.5.04-24.85,1.6-2.23.42-4.66.17-6.21,1.69l-1.92.03c-3.58-1.97,12.82-4.85,13.57-5.9-1.28-.83-21.03,2.3-20.06,4.31-3.05.26-6.17,1.15-8.87,3.16-1.01.75-1.67-.24-2.22-.26v-4.31c.4-.93.76-1.89,1.39-2.68,1.34-.35,2.41-1.36,3.57-2.44,3.18-2.97,7.05-3.99,11.08-6.12-3.89-1.05-6.34,2.22-10.73,2.31,8.08-5.96,18.41-7.46,28.16-4.36,2.9.92,5.68,2,9.07,1.07-13.86-5.49-28.21-7.7-41.24.89-1.75,1.15-3.8,1.42-5.67,3.2-4.75,4.51-9.36,8.95-14.67,13.37-.83-1.68.92-2.3,1.55-4.05-2.52-1.5-4,1.7-6.27,2.3-1.63.43-1.29-3.02-.37-4.11,1.07-1.28,2.23-2.16,2.72-3.55.48-.03,8.94-6.31,7.01-7.13-3.8,1.14-6.18,4.24-10.22,6.25-.24-3.52,3.42-3.89,4.49-7.43-3.68.11-5.96,3.58-9.22,5.69-.89-3.08,1.6-4.63,3.1-6.66-1.46-.42-2.67.29-3.79.46,8.94-7.61,20.29-5.43,23.98-6.77,6.54-2.36,18.85-5.42,25.08-3.34,1.79.6,3.88-.33,5.83.05,12.68,2.48,23.92,8.9,33.32,18.14,3.18,3.13,7.33,3.1,11.06,4.29ZM490.66,199.52l-9.39.54c-.11-1.65,1.59-1.54,3.46-2.6-2.89-.37-6.34-.07-8.92,1.82,3.1,2.19-2.56,2.05-1.26,4.17.34.55,1.65,1.57,2.4,1.27,4.75-1.9,9.13-3.81,13.71-5.2ZM465.13,206.4c.25-.36.11-.99-.23-.98-.42.02-2.46.52-3.12,1.11-.51.46.06,1.53.6,1.4,1.99-.47,1.93-.35,2.74-1.54ZM496.59,206.52c-1.97-.52-3.31-1.06-4.27.5,1.71,1.13,2.89-.25,4.27-.5ZM515.27,214.66c3.62,1.92,7.48,3.13,11.74,1.43-2.37-2.21-4.73-2.27-6.92-3.42,2.6-.72,4.39,1.49,6.64-.2-4.82-2.29-9.13-4.54-14.42-5.03.06,1.56,1.65.08,1.99,1.29-2.5.6-4.03-1.11-5.92-.26.78,1.13,1.84-.08,2.05.9l-6.72.54,6.25,1.64c-5.04,3.92,4.16,2.48,5.32,3.1Z"/>
              <path class="cls-10" d="M445.06,206.17c-.23.75-.69,1.78-1.37,2.21-2.65-.24-1.88,2.73-3.69,6.02,2.54,3.7,8,5.61,9.02,9.84-1.29.87-2.12,2.33-3.06,3.85-2.83,4.56-7.12,7.26-10.85,10.81-1.35,1.28-1.31,4.14-3.78,4.17,0-2.29.64-4.4.31-6.89-1.77,5.75-5.33,6.67-5.2,13.38.05,2.51-1.64,4.16-1.67,6.29l-.11,7.82-2.36-3.12c-.73,3.93.56,7.14.62,10.49-.3,1.01-1.09,1.87-1.01,2.95-1.88.05-2.19-3.37-5.51-8.6-1.35-2.13-.88-4.9-2.96-7.06-1.08,4.08-.13,7.8-.44,11.51-1.54-3.6-1.41-7.93-1.87-12.04l-.99-8.81c-.41-3.61-1.75-6.07-.12-9.68,1.17-2.59.86-6.35,2.86-8.74,4.24-5.06,8.7-9,14.56-11.81,3.42-1.64,8.05-1.92,11.41-3.83-.36-3.16,4.25-8.96,6.21-8.76ZM424.31,234.88c.91,2.2.94,3.08,2.4,3.45,1.2-2.76,4.36-9.91,6.91-11.15-2.79-3.16-4.2,1.12-5.85.4-.43-.19-.31-1.64-.78-2.05-1.36-1.2-2.31,1.01-3.92,1.9-.8-2.73,2.27-3.17,3.02-5.86-4.11,1.51-8.43,4.42-10.26,8.57l-3.21,7.29c-.45,1.02-.64,3.24.15,3.48,5.16,1.59.89-1.67,6.07-6.87.42,3.23-.89,5.5.32,8.78l1.53-3.86c.35,2.62-1.23,4.47-.41,7.11,2.54-3.4,2.82-7.33,4.02-11.19Z"/>
              <path class="cls-5" d="M558.65,242.53c-2.63,2.1-4.79,4.69-8.66,4.56-.45,1.28-.56,2.08-.93,2.86-5.11,2.68-12.86-7.4-22.22-6.65,4.34,4.92,9.86,8.13,16.09,8.97,2.43.33,4.78-.27,7.08.81-1.48,8.03.69,6.94-2.48,16.7l-2.1,6.48h-3.77c-.22-1.85.71-4.83-.69-6.52-1.83-1.33-4.49-1.04-6.55-1.39l-.53-16.05-11.74-6.38-1.96-2.76c.3.32.77.31,1.07,0s.29-.83,0-1.15-.77-.31-1.07,0-.29.83,0,1.15c-1.79-.69-3.37-1.99-4.62-3.44.66.05,2.61-.52,1.87-1.02l-1.53-1.03c-.15-.1-.08-.56.22-.63.41-.09.84-.04,1.55-.63l-5.92-4.87,3.17-4.38c-.43-1.07-1.11-1.75-1.32-2.62l21.36,9.38c-3.72,2.5-6.19-2-10.03-.56,7.11,4.28,15.09,6.31,23.29,7.04,2.11.19,4.18-1.42,6.2-.44-6.51,8.15-23.92-2.18-32.2-3.51,15.42,11.96,37.29,5.67,36.07,5.54.19.02.48.09.38.54ZM517.72,231.47c-1.29-1.23-2-2.07-3.06-1.05.8,1.2,2.3,2.15,3.06,1.05Z"/>
              <path class="cls-10" d="M544.94,233.52c4.34,3.01,9.52,2.96,15.28,2.62-.57,2.28-2.43,2.78-3.38,4.19,2.04-.09,3.32-1.15,4.33-.4-.22,2.26-1.75,2-2.51,2.6.1-.45-.18-.52-.38-.54,1.23.13-20.64,6.42-36.07-5.54,8.28,1.34,25.69,11.67,32.2,3.51-2.02-.98-4.08.62-6.2.44-8.2-.73-16.18-2.76-23.29-7.04,3.84-1.44,6.31,3.06,10.03.56l-21.36-9.38-3.97-1.64c-.18-.33-.07-.61.11-.74.24-.17.71-.48,1.19-.5l11.12-.36c9.61-.31,16.05,11.91,22.89,12.23Z"/>
              <path class="cls-5" d="M544.94,218.02c.46.15,1.17-.28,1.32.37.6,2.7-9.24,4.07-11.66,4.27,4.02,2.36,6.61,4.68,8.72,8.28.53.9,2.08,1.28,1.62,2.58-6.84-.33-13.28-12.54-22.89-12.23l-11.12.36c-.48.02-.95.33-1.19.5-.18.13-.29.42-.11.74l-6.58-.72,1.4-1.27c-3.42-.45-6.32.67-9.24.71,1.54-1.52,3.97-1.27,6.21-1.69,8.34-1.56,16.47-2.72,24.85-1.6.9.12,19.72,1.59,18.68-.3Z"/>
              <path class="cls-5" d="M421.9,273.99c.09,1.36.69,2.59,1.66,3.48l.68.62c.24,3.1,3.7,9.26,3,12.11-1.8-4.69-5.36-8.5-10.27-8.43-1.6-5.44-4.38-7.3-3.98-11.93.32-3.7-.64-7.43.44-11.51,2.07,2.16,1.6,4.93,2.96,7.06,3.32,5.23,3.63,8.65,5.51,8.6Z"/>
              <path class="cls-5" d="M454.3,214.47c-2.37.16-4.1,2.22-6.06,4.53-1.25-.96-1.08-2.27-1.17-4.09l-3.43.09c1.77-2.28,1.72-4.77.04-6.62.68-.44,1.14-1.46,1.37-2.21l.62-.52c1.12-.17,2.33-.88,3.79-.46-1.49,2.02-3.99,3.57-3.1,6.66,3.26-2.1,5.54-5.57,9.22-5.69-1.07,3.54-4.73,3.91-4.49,7.43,4.04-2.01,6.42-5.11,10.22-6.25,1.92.82-6.53,7.09-7.01,7.13Z"/>
              <path class="cls-10" d="M549.06,249.94c1.43.36,2.81-.03,4.01.74-.77,1.78-2.22,1.54-3.06,2.4-2.3-1.08-4.64-.48-7.08-.81-6.23-.84-11.75-4.05-16.09-8.97,9.36-.75,17.11,9.33,22.22,6.65Z"/>
              <path class="cls-11" d="M477,207.31c2.07,3.7-3.44,4.03-4.51,7.19-.2.58.65,1.33,1.02,1.36.74.06,2.59-1.5,3.06-1.28.5.23.45,1,.52,1.38-.62.79-.99,1.75-1.39,2.68-1.43-.06-1.4,1.26-1.4,2.52,0,1.26.21,1.75,1.41,1.8.55.02,1.21,1.01,2.22.26,2.7-2.01,5.81-2.9,8.87-3.16.25.14.52.31.57.53.39,1.7-3.36,1.88-3.24,3.18,3.28-.37,6.82-.16,9.16-2.12l1.92-.03c2.92-.04,5.82-1.16,9.24-.71l-1.4,1.27,6.58.72,3.97,1.64c.21.87.89,1.56,1.32,2.62l-3.17,4.38,5.92,4.87c-.71.58-1.14.53-1.55.63-.3.07-.37.53-.22.63l1.53,1.03c.74.5-1.21,1.08-1.87,1.02-4.86-1.69-8.84-5.3-13.9-7.44-14.79-6.26-30.88-8.4-46.51-5.36-2.12.41-3.7,1.41-5.55,1.54-1.59-1.72,1.9-3.58-.59-4.21-1.02-4.23-6.48-6.14-9.02-9.84,1.81-3.29,1.04-6.26,3.69-6.02,1.68,1.84,1.73,4.34-.04,6.62l3.43-.09c.08,1.82-.08,3.13,1.17,4.09,1.96-2.31,3.68-4.37,6.06-4.53-.49,1.39-1.65,2.27-2.72,3.55-.91,1.1-1.25,4.54.37,4.11,2.27-.6,3.75-3.79,6.27-2.3-.63,1.75-2.38,2.37-1.55,4.05,5.31-4.42,9.91-8.86,14.67-13.37,1.87-1.78,3.92-2.05,5.67-3.2Z"/>
              <path class="cls-5" d="M477.09,215.96c-.08-.38-.03-1.15-.52-1.38s-2.32,1.34-3.06,1.28c-.37-.03-1.22-.78-1.02-1.36,1.07-3.16,6.58-3.49,4.51-7.19,13.03-8.59,27.38-6.38,41.24-.89-3.39.92-6.17-.16-9.07-1.07-9.76-3.1-20.09-1.6-28.16,4.36,4.39-.09,6.84-3.36,10.73-2.31-4.03,2.13-7.9,3.15-11.08,6.12-1.16,1.08-2.23,2.09-3.57,2.44Z"/>
              <path class="cls-13" d="M515.27,214.66c-1.16-.62-10.36.82-5.32-3.1l-6.25-1.64,6.72-.54c-.21-.97-1.27.24-2.05-.9,1.89-.85,3.42.86,5.92.26-.34-1.21-1.92.27-1.99-1.29,5.29.48,9.6,2.73,14.42,5.03-2.25,1.68-4.04-.52-6.64.2,2.19,1.15,4.56,1.21,6.92,3.42-4.26,1.7-8.12.49-11.74-1.43Z"/>
              <path class="cls-5" d="M493.29,221.64c-2.34,1.96-5.88,1.75-9.16,2.12-.12-1.3,3.63-1.47,3.24-3.18-.05-.22-.32-.39-.57-.53-.97-2.01,18.78-5.14,20.06-4.31-.76,1.05-17.15,3.92-13.57,5.9Z"/>
              <path class="cls-13" d="M490.66,199.52c-4.58,1.39-8.96,3.3-13.71,5.2-.76.3-2.07-.72-2.4-1.27-1.3-2.11,4.36-1.97,1.26-4.17,2.58-1.89,6.03-2.2,8.92-1.82-1.87,1.06-3.57.95-3.46,2.6l9.39-.54Z"/>
              <path class="cls-5" d="M465.13,206.4c-.81,1.19-.75,1.07-2.74,1.54-.54.13-1.11-.95-.6-1.4.66-.59,2.7-1.09,3.12-1.11.34-.01.47.62.23.98Z"/>
              <path class="cls-5" d="M475.7,218.64v4.31c-1.2-.05-1.41-.54-1.4-1.8,0-1.25-.02-2.58,1.4-2.52Z"/>
              <path class="cls-5" d="M496.59,206.52c-1.38.25-2.56,1.64-4.27.5.96-1.57,2.29-1.02,4.27-.5Z"/>
              <path class="cls-13" d="M424.31,234.88c-1.21,3.86-1.49,7.79-4.02,11.19-.82-2.65.76-4.49.41-7.11l-1.53,3.86c-1.21-3.28.1-5.55-.32-8.78-5.19,5.2-.91,8.46-6.07,6.87-.79-.24-.6-2.46-.15-3.48l3.21-7.29c1.83-4.15,6.15-7.06,10.26-8.57-.76,2.69-3.82,3.13-3.02,5.86,1.61-.89,2.56-3.1,3.92-1.9.47.41.35,1.87.78,2.05,1.65.72,3.06-3.56,5.85-.4-2.56,1.23-5.72,8.39-6.91,11.15-1.46-.37-1.49-1.25-2.4-3.45ZM422.79,228.17c0-.19-.15-.35-.33-.35s-.33.16-.33.35.15.35.33.35.33-.16.33-.35Z"/>
              <path class="cls-5" d="M449.61,228.45c-.92.07-2.14,1.45-2.53,2.22-.08.15-.13.48-.13.66-2.91,1.69-5.25,6.07-9.29,10.29-2.13,2.22-10.6,8.58-10.17,11.45-2.03,1.07.86,13.69.54,16.72l-4.48,1.31c-.12-.41-.5-.44-.63-.05-.05-3.35-1.34-6.56-.62-10.49l2.36,3.12.11-7.82c.03-2.13,1.72-3.78,1.67-6.29-.13-6.71,3.43-7.62,5.2-13.38.33,2.49-.32,4.6-.31,6.89,2.47-.03,2.43-2.89,3.78-4.17,3.73-3.55,8.02-6.25,10.85-10.81.94-1.52,1.77-2.98,3.06-3.85,2.48.63-1.01,2.49.59,4.21Z"/>
              <path class="cls-7" d="M423.56,277.48c-.98-.9-1.57-2.13-1.66-3.48-.07-1.09.71-1.95,1.01-2.95.13-.38.51-.36.63.05-.21,2.12-.15,4.27.02,6.39Z"/>
              <path class="cls-13" d="M515.56,239.71c1.26,1.46,2.84,2.76,4.62,3.44l1.96,2.76c-8.83-4.8-18.73-8.12-27.83-13.58-4.25-2.55-8.97-3.57-13.78-4.2-13.68-1.79-21.02,1.99-33.46,2.53.39-.78,1.61-2.16,2.53-2.22,1.86-.13,3.43-1.13,5.55-1.54,15.63-3.04,31.71-.9,46.51,5.36,5.06,2.14,9.04,5.75,13.9,7.44Z"/>
              <path class="cls-11" d="M517.72,231.47c-.76,1.11-2.26.16-3.06-1.05,1.06-1.02,1.78-.18,3.06,1.05Z"/>
              <path class="cls-11" d="M520.19,243.16c-.3-.32-.3-.83,0-1.15s.77-.32,1.07,0,.3.83,0,1.15-.77.32-1.07,0Z"/>
              <ellipse class="cls-10" cx="422.46" cy="228.17" rx=".33" ry=".35"/>
              <path class="cls-13" d="M446.94,231.33c-.08,7.16-11.76,15.6-16.26,19.65-1.08.97-1.81,2.29-3.2,2.08-.44-2.86,8.04-9.23,10.17-11.45,4.05-4.21,6.38-8.6,9.29-10.29Z"/>
            </g>
            <g>
              <path class="cls-14" d="M545.43,276.26c1.9,5.91,2.22,12.12-.52,18.28-1.5,3.39-2.3,7.65-4.59,10.29l-2.5,2.87c-2.04,2.34-4.16,3.85-6.83,4.69-1.13,3.32-4.97,9.97-7.24,12.48l-3.21,3.55c-3.85,4.25-10.82,11.83-15.63,14.08-.9.42-1.57,2.47-2.54,2.38-1.16-.11-1.18.83-1.87,1.28l-5.68,3.69c-12.56,8.17-23.19-1.39-25.65-.98l-.65.11c.15-1.27-.76-1.68-1.82-2.27-2.85-1.6-5.39-3.52-8.06-5.53l-4.53-3.42c-15.18-11.45-18.83-20.8-19.62-21.42-1.51-1.19-3.06-1.82-4.46-3.11-2.92-2.68-8.74-9.34-9.84-11.87.13-.81-.38-2.35.22-2.8.85-.65,2.3-.08,2.75.93.86,1.94,5.62,11.54,7.8,8.09.73-1.15-.82-2.96-1.59-3.47-.34-.22-.66-.93-1.23-.82-.05-.28-.42-.56-.65-.65-2.69-8.14,1.24-8.86-3.23-12.09-.87-.63-1.5-1.83-2.94-1.48-1,.24-1.17,1.19-1.46,2.34-.5,1.93.11,3.92-.66,5.8-.98-2.56-1.28-5.13-3.49-5.13l-.1-1.92c1.13-1.37,1.13-4.24,0-5.6.21-1.07.33-2.24,1.36-2.77,4.91-.07,8.47,3.74,10.27,8.43-.59,2.4,1.91,3.15,2.69,4.98.94,2.2,2.63,4.99,5.28,5.34-.43,3.43,1.17,6.27,2.32,9.46,6.72,18.7,23.22,33.91,41.33,38.9,3.13.86,6.65,1.27,9.22-.57,1.53-1.1.84-3.21.31-4.18-2.31-4.25-10.17-1.93-13.88-3.13-12.57-4.07-30.1-22.73-26.53-26.61,3.71-4.04,9.39,1.56,17.42-8.01,1.83-2.18,3.81-4.11,3.13-7.12,3.1-1.2,4.4-3.52,6.46-6.27,2.33.9-1.11,5.15,2.32,5.87.45-4.13,5.7-8.87,8.76-6.41,1.43,1.15,1.39,3.89,1.95,5.43-12.63-3.27-10.74,4.61-16.81,6.48-.9.28-1.62,1-1.81,1.7-.28,1.01-.4,2.39.98,2.79,1.14,2.13,4.06.81,5.87,1.95,13.1,8.24,11.02-1.01,17.83-1.11.71-.01,1.37-.64,1.8-1.38,9.97,4.72,10.15-.75,15.69,4.31l4.66,4.26c1.39,1.27,3.28,3.8,1.37,5.56-2.21,2.05-5.04,3.67-6.17,6.68-.26.71-.5,1.61-.09,1.63.38.02,1.27.26,1.63-.04,8.57-7.1,12.23-9.9,15.3-20.73,2.22-7.82,1.41-3.63-.44-11.14,2.95-1.09,5.54-2.39,6.15-5.04.36-1.58,1.94-2.44,2.94-3.51,3.17,7.26-4.28,12.2-1.93,13.23.57.25,2.1.44,2.49-.46l4.2-9.54c.55-1.25,2.61-.93,2.58-2.34-.05-2.4-1.75-6.63-2.61-7.03-1.1-.52-2.32-.01-3.35.41-.08-3.32.61-6.38,3.34-8.26h3.77ZM460.61,323.81c.15,2.61,8.92,8,10.12,9.07,5.17,4.62,13.8,8.26,19.94,3.33,4.32-3.47,7.06-8.79,12.36-11.17.87-.39,1.31-2,1.54-2.61,2.48-.42,4.49-1.58,6.98-1.64-1.15-2.78-4.06-3.64-6.5-3.08,1.31.77,2.49.81,2.69,2.52-8.08,2.01-12.04-1.91-22.88-1.17l-9.85.68c-5.89.41-11.76,1.93-17.51.58-1.01-.24-1.37-2.8-2.7-1.57-.61.57-1.83.78-1.94,2.2,5.45.09,3.52,2.06,7.76,2.86ZM452.18,321.31c0-.19-.15-.35-.33-.35s-.33.16-.33.35.15.35.33.35.33-.16.33-.35ZM513.58,322.01c0-.19-.15-.35-.33-.35s-.33.16-.33.35.15.35.33.35.33-.16.33-.35Z"/>
              <path class="cls-21" d="M502.37,344.88c.13,2.77.41,5.57.04,8.3l-.17,1.26c-1.38.69-13.94,13.38-12.8,14.93-.41.08-.89.65-1.38.43-1.33-.59-3.09-.64-4.45.08-1.17.28-2.21-.4-3.28-.62-.91-3.89-11.99-11.08-11.93-14.47.04-1.94.19-3.88.1-5.82l.65-.11c.15,1.2-.43,3.36.39,4.65,11.68,6.72,19.18,7.06,30.94.05,1.47-1.22,1.15-6.02,0-7.42.69-.45.71-1.39,1.87-1.28Z"/>
              <path class="cls-21" d="M427.5,302.63c.23.09.59.37.65.65.08.41-.18.82-.14,1.21.04.36.64.46.94.37.24-.07.46-.38.42-.76.77.51,2.32,2.31,1.59,3.47-2.19,3.44-6.94-6.15-7.8-8.09-.45-1.02-1.9-1.58-2.75-.93-.59.45-.09,1.99-.22,2.8-1.38-3.2-4.25-4.73-4.49-9.28,2.22,0,2.51,2.57,3.49,5.13.78-1.89.16-3.88.66-5.8,7.19-1.07,2.55,9.17,7.63,11.24Z"/>
              <g>
                <path class="cls-14" d="M633.17,325.97c-1.07,2.62-7.69,13.47-10.62,8.88-.64-1-.81-2.87.21-4.02l3.79-4.33c-.18-.64-1.58-.83-1.9-.3l-1.44,2.36c-1.03,1.69-2.6,2.69-2.43,4.68.17,1.96,1.25,3.62,3.71,4.26-.47,1.25-1.31.92-1.78,1.8,3.25,1.78,10.86,9.11,10.69,12.78-.13,2.75-8.68,9.03-12.57,9.15,1.68,1.08,1.74,2.28,1.61,4.1l-1.45,19.34c-.13,1.76-.96,2.95-1.19,4.5l-1.83,12.04c-.82,5.38-8.42,13.99-11.39,12.01-2.56-1.71-2.39-4.91-2.99-7.37,1.48.14,2.28,1.33,3.58,2.95,2.59-8.2-.6-5.8,2.14-16.62,1.34-5.27,1.31-10.8,2.98-15.96.62-1.92,1.62-3.56,1.91-5.72.87-6.44,2.5-6.03,3.22-11.24.11-.8-1.65-1.21-1.75-2.03-1.06-8.96,1.34-12.58-7.83-19.09-1.61-1.79-1.17-5.92-1.44-8.22,2.8.79,3.4,4.61,4.36,7.15,8.01,1.52,9.97,8.9,10,17.01,1.49-1.04,4.2-2.96,3.98-5.09-.68-6.53-5.44-10.52-9.85-14.03,2.31-2.98,10.28-11.18,13.93-12.24,1.84-.53,3.78,1.85,4.35,3.24Z"/>
                <path class="cls-21" d="M633.17,325.97c.38.51,1.52.96,1.2,2.02-3.05,8.58-9.28,7.56-8.32,11.47,1.17,4.74,10.44-4.22,11.03-5.73l1.16-2.95c.27.65,1.08,1.19.63,2.1-1.42,4.06-4.78,7.22-8.74,8.78-.47.63.29,2,.73,2.51,2.97,3.46,9.63-5.51,11.3-7.83.3.14,1.22.36,1.4.75-3.67,2.83-.04,3.82-8.63,9.22-.64.75,1.25,2.33,1.96,2.62.82.33,2.05-.2,2.91-1.17l5.72-6.46c.22.47.93,1.15.55,1.66l-.98,1.31c-1.03,1.37-2.36,2.33-3.13,3.63l-3.31,5.54c-2.97,4.98-5.29,10.09-12.52,10.53-.35,4.44-1.59,8.64-1.37,12.97.13,2.65-.77,4.2-1.18,6.42-1.81,9.87,1.19,21.05-8.08,30.06-2.87,2.79-5.71,4.79-9.89,4.32-2.62-.29-5.37-.1-7.74-.96-2.46-.89-4.2-3.05-3.87-6.15.53-4.95,1.26-9.75,2.63-14.46.89-.47,2.32.28,2.98.52.25.43.61.81.81,1.27.32.73,1.5,1.26,1.76,2.3l1.38,5.62c.6,2.46.43,5.67,2.99,7.37,2.97,1.98,10.57-6.62,11.39-12.01l1.83-12.04c.23-1.54,1.06-2.74,1.19-4.5l1.45-19.34c.14-1.83.08-3.02-1.61-4.1,3.89-.12,12.44-6.4,12.57-9.15.17-3.67-7.44-11-10.69-12.78.47-.89,1.31-.55,1.78-1.8-2.46-.64-3.54-2.31-3.71-4.26-.17-1.99,1.39-2.98,2.43-4.68l1.44-2.36c.32-.53,1.72-.34,1.9.3l-3.79,4.33c-1.01,1.16-.84,3.02-.21,4.02,2.93,4.59,9.55-6.26,10.62-8.88Z"/>
                <path class="cls-27" d="M602.42,323.06c.1,3.86,3.65,3.43,3.98,6.86.26,2.3-.17,6.43,1.44,8.22,9.17,6.51,6.77,10.13,7.83,19.09.1.83,1.86,1.23,1.75,2.03-.72,5.21-2.35,4.79-3.22,11.24-.29,2.16-1.29,3.8-1.91,5.72-1.66,5.16-1.64,10.7-2.98,15.96-2.74,10.82.45,8.42-2.14,16.62-1.3-1.62-2.1-2.81-3.58-2.95l-1.38-5.62c-.26-1.04-1.44-1.57-1.76-2.3.7.09,1.71.3,1.94-.34-.37,1.03.32-7.9,1.86-11.01,2-4.06,3.1-7.98,4.22-12.41.74-2.93,2.68-5.41,2.76-8.83.05-2.43,1.1-4.43,2.8-6.86-9.74-6.46-6.48-7.42-8.44-11.55-.93-1.97-1.22-3.37-1.42-5.61l-.63-6.95c-.5-5.52-7.88-6.66-7.71-8.87.26-3.3,6.8-2.35,6.59-2.45Z"/>
                <path class="cls-21" d="M614.89,334.97c4.41,3.51,9.16,7.5,9.85,14.03.22,2.13-2.49,4.05-3.98,5.09-.03-8.12-1.99-15.49-10-17.01-.96-2.54-1.57-6.36-4.36-7.15-.34-3.43-3.89-3-3.98-6.86,9.12,4.08,8.09,7.07,10.08,10.88.56,1.06,1.85.61,2.39,1.03Z"/>
                <path class="cls-14" d="M638.24,330.77l-1.16,2.95c-.59,1.51-9.86,10.47-11.03,5.73-.96-3.9,5.27-2.89,8.32-11.47,1.82-.28,3.17,1.09,3.87,2.78Z"/>
                <path class="cls-14" d="M642.17,336.32c-1.67,2.33-8.32,11.3-11.3,7.83-.44-.51-1.2-1.88-.73-2.51,3.96-1.56,7.32-4.72,8.74-8.78,1.74.12,3.13,1.6,3.29,3.45Z"/>
                <path class="cls-14" d="M643.57,337.07l1.96,4.2-5.72,6.46c-.86.97-2.09,1.5-2.91,1.17-.71-.29-2.6-1.87-1.96-2.62,8.59-5.39,4.96-6.39,8.63-9.22Z"/>
              </g>
              <path class="cls-1" d="M519.52,266.19c1.06-.03,2.17.01,3.22.19l11.67,1.97c2.06.35,4.72.06,6.55,1.39,1.4,1.69.48,4.67.69,6.52-2.73,1.88-3.42,4.95-3.34,8.26-.29,1.84-1.57,3.76-1.39,5.75-1,1.07-2.58,1.93-2.94,3.51-3.36,2.24-7.03,3.51-11.26,4.12-10.73,1.54-21.45,1.89-30.26-5.41-1.81-1.5-2.38-4.07-4.18-5.2-.33-3.11-.98-7.02-1.89-10.17-1.37-1.67-7.46-1.65-8.37.54-.94,2.71-1.12,6.48-1.65,9.13-.49,1.38-1.55,2.36-2.56,3.34-3.71,1.84-7.47,6.2-12.55,6.39-.18-.43-.34-.88-.47-1.33,3.21-.82,6.76-2.13,8.45-5.02.59-1.01,2.2-1.45,2.54-2.86.82-3.46,2.85-8.59.62-11.98-2.02-3.08-6.8-3.31-9.85-3.95-2.56-.53-5.19-1.01-7.79-.63-.45.07-1.18-.42-1.55-.13-.78.58.03,2.73-.78,3.24-.22.14-.57.12-.84.09.07-.97.15-1.99-.25-3.23-1.83-.51-3.48-.22-5.09-.06-.29.03-.61.1-.9.08-2.5-.18-4.97.42-7.36,1.18-2.07-.22-6.66.42-7.5,3.1-1.48,4.7.37,14.02,3.28,17.93-2.01.26-2.83-1.59-3.74-3.41-4.2-8.41-1.36-10.37-5.77-11.42l-.68-.62c-.17-2.12-.23-4.27-.02-6.39l4.48-1.31c.43-.12.95-.19,1.29-.58,3.54.51,6.87-1.32,10.4-1.45.29-.01,1.02-.04.77-.53.41-.05.81-.12,1.22-.15.3-.02.62,0,.92.04,1.19.18,2.51-.52,3.68-.26.74.16,16.1.87,18.37.91.83.19,2.44.46,3.25.69l5.17,1.44c1.88,1.24,3.8,2.55,6.54,2.15,5.4-.79,5.84,1.97,13.79-3.54,1.21-.18,2.77-.02,3.89-.94.44-.29,1.5-.11,2.03-.1,2.71.1,5.45-.8,8.43-.9l11.75-.37ZM505.09,270.34c-1.45-.02-3.02.04-4.71.87-.17.06-.51.13-1.05.14-1.65.05-3.66.32-4.04,2.66-.43-.55-1.03-1.23-1.59-1.09-4.3,1.02-2.34,11.1-.29,14.99,3.11,5.9,9.96,6.64,15.56,7.32,3.38.41,7.2,1.34,9.91-.34,1.17.48,2.81-.56,3.89-.52,6.04.21,11.02-4.29,11.27-11.17.1-2.87.96-5.88-.05-8.8-.9-2.61-4.83-4.32-6.73-2.57-2.89-1.78-5.94-2.15-9.74-2.04-4.05.12-8.16-.41-12.45.56Z"/>
              <path class="cls-27" d="M488.28,287.29c.32,3.04.85,5.75,3.58,8.24,8.99,8.16,25.87,7.03,35.97,3.3,1.85,7.52,2.66,3.33.44,11.14-3.07,10.83-6.73,13.63-15.3,20.73-.36.3-1.25.06-1.63.04-.41-.02-.18-.93.09-1.63,1.13-3.01,3.96-4.63,6.17-6.68,1.9-1.76.01-4.29-1.37-5.56l-4.66-4.26c-5.54-5.06-5.72.41-15.69-4.31,0-.08-.06-.26-.05-.55.33-6.3-2.42-1.32-5.14-7.13-.47-1.01-2.26-1.2-2.67-2.74-.56-1.53-.52-4.28-1.95-5.43-3.06-2.45-8.31,2.28-8.76,6.41-3.43-.72,0-4.97-2.32-5.87,1.45-1.95.95-4.05,1.38-6.21.53-2.65.71-6.42,1.65-9.13.9-2.19,7-2.21,8.37-.54.92,3.16,1.57,7.06,1.89,10.17Z"/>
              <path class="cls-27" d="M435.2,300.53l9.12,1.21c8.47,1.12,16.56.47,24.2-2.47.68,3.01-1.3,4.94-3.13,7.12-8.03,9.57-13.71,3.97-17.42,8.01-3.57,3.88,13.96,22.54,26.53,26.61,3.71,1.2,11.56-1.12,13.88,3.13.53.97,1.22,3.08-.31,4.18-2.56,1.84-6.09,1.43-9.22.57-18.11-4.98-34.6-20.2-41.33-38.9-1.15-3.19-2.75-6.03-2.32-9.46Z"/>
              <path class="cls-21" d="M504.57,322.44c-.23.61-.67,2.22-1.54,2.61-5.31,2.37-8.05,7.7-12.36,11.17-6.14,4.94-14.78,1.29-19.94-3.33-1.2-1.07-9.97-6.46-10.12-9.07l1.41-.02c1.87,1.21,4.1,1.25,6.5,1.46l9.88.87c-3.67,1.83-9.25-.97-12.59.14,5.12,3.17,10.51,4.19,15.77,3.91.41,2.04-4.65.92-3.19,2.81.47.61,3.23.36,3.1,1.82-1.15.33-2.37-.3-3.9.55,3.57.99,7.4,1.82,11.42.3-1.12-1.23-2.46-.66-3.55-.83-.53-1.52,3.76-1.3,3.16-2.99-.43-1.23-4.64-.52-3.83-1.83,5.06-.26,10.24-.67,14.01-4.69l-5.98.02c1.47-2.28,10.63-1.97,9.66-3.07.28-.24.65-.57.98-.51.48.08.81.46,1.11.68ZM499.87,324.81c0-.19-.15-.35-.33-.35s-.33.16-.33.35.15.35.33.35.33-.16.33-.35Z"/>
              <path class="cls-13" d="M469.17,348.86c2.46-.41,13.09,9.15,25.65.98l5.68-3.69c1.14,1.39,1.47,6.2,0,7.42-11.76,7-19.26,6.66-30.94-.05-.81-1.29-.23-3.45-.39-4.65Z"/>
              <path class="cls-13" d="M504.57,322.44c-.31-.22-.63-.59-1.11-.68-.33-.06-.69.27-.98.51-3.96-.03-8.14.42-12.4.59l-12.7.53c-5.66.24-13.42-.71-15.37.39l-1.41.02c-4.24-.8-2.31-2.76-7.76-2.86.11-1.42,1.33-1.63,1.94-2.2,1.32-1.23,1.69,1.34,2.7,1.57,5.74,1.35,11.61-.18,17.51-.58l9.85-.68c10.84-.75,14.8,3.18,22.88,1.17-.19-1.71-1.38-1.75-2.69-2.52,2.44-.56,5.35.3,6.5,3.08-2.48.06-4.5,1.21-6.98,1.64Z"/>
              <path class="cls-21" d="M474.98,292.99c-2.05,2.75-3.35,5.07-6.46,6.27-7.64,2.94-15.73,3.59-24.2,2.47l-9.12-1.21c-2.65-.35-4.34-3.15-5.28-5.34,1.54-.32,2.72.97,4.27,1.61,5.91,2.46,12.26,2.97,18.64,2.41,5.9,1.23,19.5-3.23,20.98-9.07,1.01-.97,2.07-1.95,2.56-3.34-.43,2.15.07,4.26-1.38,6.21Z"/>
              <path class="cls-21" d="M488.01,297.87c.41,1.54,2.2,1.73,2.67,2.74,2.72,5.82,5.47.84,5.14,7.13-1.46.77-3.57-.89-5.13-.48-5.24,1.83-10.55,1.9-15.59-1.15-1.7,1.28-3.87,1.1-4.74,2.72-1.38-.4-1.27-1.78-.98-2.79.19-.7.91-1.42,1.81-1.7,6.08-1.87,4.19-9.75,16.81-6.48ZM488.69,302.46c-.35-4.14-11.17-2.6-10.97.63.04.63.39,1.28,1.22,1.68,1.76.86,10.14,2.47,9.74-2.31Z"/>
              <path class="cls-21" d="M533.98,293.78c-.61,2.66-3.2,3.95-6.15,5.04-10.09,3.73-26.98,4.87-35.97-3.3-2.74-2.49-3.26-5.2-3.58-8.24,1.8,1.13,2.38,3.7,4.18,5.2,8.81,7.3,19.53,6.94,30.26,5.41,4.23-.61,7.9-1.88,11.26-4.12Z"/>
              <path class="cls-7" d="M433.76,292.93c.24.21.73.36.77.68l.14,1.03c.08.58.9.25,1.34.26,1.2,0,2.55.51,3.7.73.19.16.34.58.57.69.45.23,1.09-.03.91-.63l1.85.11c-1.7,2.78,16.92,2.24,18.22.72,5.08-.19,8.84-4.54,12.55-6.39-1.47,5.84-15.08,10.3-20.98,9.07-6.39.56-12.73.05-18.64-2.41-1.54-.64-2.72-1.92-4.27-1.61-.78-1.83-3.28-2.57-2.69-4.98.7-2.85-2.75-9-3-12.11,4.42,1.05,1.57,3.01,5.77,11.42.91,1.83,1.73,3.68,3.74,3.41Z"/>
              <path class="cls-13" d="M495.82,307.75c-.01.29.04.47.05.55-.44.75-1.09,1.37-1.8,1.38-6.8.11-4.73,9.36-17.83,1.11-1.82-1.14-4.73.18-5.87-1.95.86-1.62,3.03-1.44,4.74-2.72,5.04,3.05,10.35,2.98,15.59,1.15,1.57-.41,3.67,1.25,5.13.48Z"/>
              <path class="cls-21" d="M536.92,290.27c-.18-1.99,1.1-3.9,1.39-5.75,1.04-.42,2.25-.92,3.35-.41.86.41,2.56,4.64,2.61,7.03.03,1.41-2.03,1.09-2.58,2.34l-4.2,9.54c-.4.9-1.93.7-2.49.46-2.35-1.02,5.1-5.97,1.93-13.23Z"/>
              <path class="cls-13" d="M427.5,302.63c-5.08-2.07-.44-12.31-7.63-11.24.3-1.14.46-2.1,1.46-2.34,1.44-.34,2.06.85,2.94,1.48,4.48,3.23.55,3.95,3.23,12.09Z"/>
              <path class="cls-13" d="M429.37,304.11c.04.38-.18.69-.42.76-.3.09-.9-.01-.94-.37-.05-.38.21-.8.14-1.21.57-.11.89.6,1.23.82Z"/>
              <ellipse class="cls-13" cx="513.26" cy="322.01" rx=".33" ry=".35"/>
              <ellipse class="cls-13" cx="451.85" cy="321.31" rx=".33" ry=".35"/>
              <path class="cls-21" d="M522.14,245.92l11.74,6.38.53,16.05-11.67-1.97c-5.71-5.12-20.45-6.76-25.43,1.18-1.12.92-2.68.76-3.89.94.93-4.2,2.34-8.41,2.43-13.21,6.01-.45,11.48-2.02,18.4-2.11,4.58-.06,8.78,1.17,12.98,1.39.48.02.81.19.89-.44.37-2.88-12.47-7.57-15.78-7.26-.22-.26-.52-.7-.9-.6-.28.07-.47.46-.66.48-2.18.28-4.28-.36-6.34-.67.06-.76-.13-1.92-1.04-2.51-9.15-5.96-19.25-9.63-29.7-10.08-11.68-2.61-24.2.19-32.48,10.63-4.09,3.22-11.93,13.08-11.93,18.74v6.37c-.33.39-.85.45-1.28.58.32-3.03-2.57-15.64-.54-16.72,1.39.21,2.13-1.11,3.2-2.08,4.5-4.05,16.17-12.49,16.26-19.65,0-.18.06-.51.13-.66,12.44-.54,19.78-4.32,33.46-2.53,4.8.63,9.53,1.65,13.78,4.2,9.11,5.46,19,8.78,27.83,13.58ZM529.26,254.78c0-.19-.15-.35-.33-.35s-.33.16-.33.35.15.35.33.35.33-.16.33-.35Z"/>
              <g>
                <path class="cls-14" d="M403.8,544.85c-2.94-1.27-6.56-5.88-5.84-8.9-1.07-2.13,4.22-10.57-.09-12.57-.14-1.37-.17-2.94-1.03-4.12-4.93,2.29-8.75,6.07-11.67,10.56-1.16,1.79-1.66,4.01-3.57,4.75-.6-.73-.3-2.27.51-3.07,1.58-1.56,2.22-3.49,3.44-5.31,1.91-2.83,4.44-5.04,6.62-7.65.94-1.13,2.17-1.61,3.47-1.66s2.17,1.12,3.89,2.55c1.43-2.82-.04-5.08-1.88-6.91-1.92-1.91-3.71-2.54-6.09-2.5-.42-1.36,1.03-2.43,1.2-3.48.51.93,1.38,1.58,2.3,1.46,1.13-.14,1.64-1.44,1.76-2.7.3-3.05,4.01-15.58,5.21-19.01l3.17-9.12,3.48-7.43c1.45-3.1,3.7-5.99,2.46-9.79-.58-1.79-2.74-2.34-4.16-2.11-3.67.6-3.23,8.32-6.27,8.18.25-1.05-.18-2.25.62-3.51,1.37-2.15,2.7-4.24,3.39-6.49,1.48.8,2.52-1.73,4.07-1.79,3.55-.13,6.96,3.24,9.07,6.74s1.16,9.42-.3,13.25l-3.26,8.54-3.36,7.57c-1.37,3.09-2.94,5.68-4.26,9.03-1.06,2.7-4.3,5.66-3.63,8.91.64,3.13,1.98,6.01,1.49,9.47l-1.61,11.38c-.26,1.81-1.47,3.88-1.41,5.5.13,3.56,2.74,6.75,2.28,10.22Z"/>
                <path class="cls-21" d="M426.02,455.42c-5.8,9.04.35,3.32-2.06,12.39-2.17,8.18-3.94,10.03-6.67,16.1l-3.15,7.02c-2.6,5.79-4.93,8.59-7.46,15.88-.36,1.04-1.97,1.48-1.66,2.87.1.48,3.69,2.96,3.14,7.44-.61,4.95-.92,10.13-2.27,14.75-2.23,7.57.68,1.6,1.11,11.7.08,1.83-2.31,1.67-3.2,1.28.45-3.47-2.15-6.66-2.28-10.22-.06-1.63,1.15-3.69,1.41-5.5l1.61-11.38c.49-3.46-.85-6.34-1.49-9.47-.67-3.26,2.56-6.22,3.63-8.91,1.32-3.35,2.89-5.94,4.26-9.03l3.36-7.57,3.26-8.54c1.46-3.83,2.41-9.74.3-13.25s-5.52-6.87-9.07-6.74c-1.56.06-2.59,2.58-4.07,1.79-.34-3.04-.21-6.12-.21-9.19,0-.87.75-2,1.08-2.62.81-1.55,12.7,3.48,15.12,4.51,2.58,1.11,5.51,3.74,5.32,6.69Z"/>
                <path class="cls-21" d="M397.88,523.37c-2.52-1.01-4.11.8-5.74,2.83-1.87,2.31-7.53,7.9-7.37,10.89,2.58-.12,2.88-2.36,4.12-3.81s3.42-1.94,3.92-4.4c.23-1.12,1.46-1.89,2.26-2.02,1.01-.16,1.84.48,2.72,1.2.45-1.5.12-2.57.1-4.7,4.31,2.01-.98,10.45.09,12.57-.27-.31-1.15-.71-1.43-.16,1.09,6.08,2.85,13.21-.46,17.91-.9,1.28-2.43-.12-3.16-1.09-.57,2.42-1.06,4.23-2.76,4.8-1.66.56-3.21.27-4.33-1.84-1.46,2.21-4.82,3.78-7.08,1.71s3.5-6.68,2.69-11.63c-2.82,4.88-3.39,8.05-7.59,8.42-.15-.15-.6-.18-.52-.36.08-.2.14-.98.31-1.13,2.63-2.34,3.05-5.59,4.28-8.82.98-2.58,2.89-4.58,3.13-7.24.06-.65.6-1.27.56-1.97,1.91-.74,2.41-2.96,3.57-4.75,2.91-4.5,6.74-8.27,11.67-10.56.86,1.19.89,2.75,1.03,4.12Z"/>
                <path class="cls-27" d="M392.75,506.55c.49-3.01.88-6.03,1.9-9.18,2.24-6.87,2.25-14.24,3.59-21.43-.9,4.82,3.1-12.68,2.45-9.91,3.04.14,2.6-7.58,6.27-8.18,1.43-.23,3.58.32,4.16,2.11,1.24,3.81-1,6.69-2.46,9.79l-3.48,7.43-3.17,9.12c-1.19,3.43-4.91,15.96-5.21,19.01-.12,1.26-.63,2.56-1.76,2.7-.92.11-1.8-.53-2.3-1.46Z"/>
                <path class="cls-27" d="M391.56,510.03c2.38-.05,4.17.58,6.09,2.5,1.83,1.82,3.3,4.09,1.88,6.91-1.72-1.43-2.64-2.6-3.89-2.55s-2.53.53-3.47,1.66c-2.17,2.61-4.71,4.82-6.62,7.65-1.22,1.81-1.86,3.75-3.44,5.31-.81.8-1.1,2.34-.51,3.07.03.7-.5,1.31-.56,1.97-3.61.55-3.24,8.64-8.5,12.05.02-3.63,2.1-6.83,3.3-10.25,2.06-5.89,5.41-9.22,8.69-18.05.94-2.55,1.84-4.19,3.59-6.1,1.34-1.46,1.33-4.1,3.44-4.14Z"/>
                <path class="cls-14" d="M381.04,536.53c-.25,2.66-2.16,4.66-3.13,7.24-1.22,3.23-1.64,6.48-4.28,8.82-.17.15-.23.93-.31,1.13-.07.17.37.21.52.36-1,.09-1.77,1.07-2.81-.32-.83-1.12-.37-2.12-.23-3.35.19-1.73,1.05-1.37,1.74-1.82,5.26-3.41,4.88-11.5,8.5-12.05Z"/>
                <path class="cls-13" d="M397.88,523.37c.02,2.13.35,3.2-.1,4.7-.88-.72-1.7-1.36-2.72-1.2-.8.13-2.04.89-2.26,2.02-.5,2.45-2.62,2.87-3.92,4.4s-1.54,3.7-4.12,3.81c-.16-3,5.5-8.58,7.37-10.89,1.64-2.03,3.22-3.84,5.74-2.83Z"/>
              </g>
              <path class="cls-27" d="M504.45,246.07c-.25-.04-10.45-.14-8.52,4.09-1.16,1.32-.05,3.55-.08,5.12-.08,4.8-1.49,9.01-2.43,13.21-7.95,5.51-8.39,2.75-13.79,3.54-2.74.4-4.66-.91-6.54-2.15-.19-8.79-2.46-7.98-3.32-16.81l.16-1.57c1.82-.81,2.3-3.11,1.64-5.3l-8.33-.15c.58-2.18,1.26-4.84,3.06-6.54,3.55-3.35,7.7-4.67,7.4-6.04,10.45.46,20.55,4.12,29.7,10.08.92.6,1.1,1.75,1.04,2.51Z"/>
              <path class="cls-14" d="M473.7,233.47c.29,1.38-3.86,2.69-7.4,6.04-1.79,1.7-2.47,4.36-3.06,6.54-12.63-.23-18.76,2.7-28.79,10.27-.58.44-.59,1.24-.52,1.69.09.59,1.03.26,1.26.56,1.75,2.27,25.89-1.96,21.54,4.25-1.13-.38-2.71.61-3.88.06.9-1.52-8.06-.17-9.8,2.91-.12.21-.25.49-.43.64-.28.24-.65.37-.91.65-.41.03-.82.1-1.22.15-.28.04-1.01.04-.77.53-3.53.13-6.86,1.96-10.4,1.45v-6.37c-.02-5.65,7.82-15.52,11.92-18.74,8.28-10.45,20.8-13.24,32.48-10.63Z"/>
              <path class="cls-21" d="M469.77,253.08c.86,8.84,3.13,8.03,3.32,16.81l-5.17-1.44c-3.05-3.31-7.13-4.26-11.19-5.63,4.35-6.21-19.79-1.98-21.54-4.25,1-.58,2.09-.94,3.14-1.42,8.05-3.65,16.62-4.31,25.57-2.68,2.23.41,4.45.02,5.87-1.39Z"/>
              <path class="cls-24" d="M527.28,271.83c3.74,2.3,4.48,6.37,2.34,10.63-.44-.8-1.02-1.51-1.82-1.42.13-.01-6.76,5.73-27.95,7.42-2.35.19-5.48-.73-6.46-2.58-1.81-3.44,1.29-8,1.9-11.85.37-2.34,2.38-2.61,4.04-2.66-.06,1.61-2.08,2.92-1.9,4.97.15,1.7,1.29,4.66,2.57,6.15,4.83,5.58,14,4.92,18.22-1.13,2.61-3.74.74-7.99-.69-11.56,3.8-.11,6.85.27,9.74,2.04Z"/>
              <path class="cls-21" d="M522.78,294.37c-.3-2.25-1.68-4.37-4.19-4.65-5.56-.61-11.08-.82-16.32.25-1.01.21-2.22-.44-2.42-1.52,21.19-1.69,28.08-7.43,27.95-7.42.79-.09,1.38.62,1.82,1.42,2.14-4.25,1.4-8.33-2.34-10.63,1.9-1.75,5.82-.04,6.73,2.57,1.01,2.92.15,5.93.05,8.8-.25,6.87-5.23,11.38-11.27,11.17Z"/>
              <path class="cls-25" d="M437.98,271.91c.28,1.76-1.07,2.88-2.12,4.12-2.17,2.55-.4,5.19,1.49,7.01-.36.17-.88-.15-1.51.39,1.11,1.37,2.99,2.33,3.87,3.83,3.28,8.75,10.24,3.96,10.51,8.46-2.32-.02-4.76.21-7.18.06l-1.85-.11c-.3-.02-.52-.6-1.03-.51-.28.05-.68-.05-.44.45-1.15-.22-2.5-.72-3.7-.73.4-.4.17-.62-.16-.89-.42-.33-.87-.48-1.33-.4-.04-.32-.54-.47-.77-.68-2.91-3.9-4.76-13.23-3.28-17.93.85-2.68,5.43-3.32,7.5-3.1Z"/>
              <path class="cls-22" d="M517.54,269.78c1.43,3.57,3.3,7.82.69,11.56-4.22,6.05-13.4,6.71-18.22,1.13-1.29-1.49-2.43-4.45-2.57-6.15-.18-2.05,1.85-3.36,1.9-4.97.53-.02.88-.08,1.05-.14-.38,1.83.67,3.23,2.06,4.21-.05,1.75-.08,4.03,1.54,5.39,2.82,2.37,6.88,2.19,9.76-.36,2.13-1.88,2.07-6.02.05-7.94-2.07-1.96-4.56-2.17-6.82-1.76-.6.11-1.29-.39-1.89-.41,4.29-.97,8.4-.44,12.45-.56Z"/>
              <path class="cls-4" d="M471.78,287.29c-6.73.53-13.73,1.16-20.25-.64h1.31c3.92,0,7.7-1.5,10.38-5.08,2.3-3.07,1.6-7.38-.66-10.2,3.04.64,7.82.87,9.85,3.95,2.22,3.39.19,8.52-.62,11.98Z"/>
              <path class="cls-27" d="M469.24,290.15c-1.69,2.89-5.24,4.19-8.45,5.02-3.46.89-7.13.59-10.57.56-.27-4.5-7.23.29-10.51-8.46,8.56.62,17.05,2.11,25.95,2.17,1.32,0,2.51.85,3.58.72Z"/>
              <path class="cls-22" d="M446.98,275.54c.18.81-.32,2.2.26,3.24,2.29,4.08,7.44,5.02,10.94,2.42,1.75-1.3,2.47-2.72,2.43-4.7-.06-3.72-4.16-4.81-5.85-5.76,2.59-.38,5.23.09,7.79.63,2.27,2.82,2.96,7.13.66,10.2-2.69,3.58-6.46,5.08-10.38,5.08-4.2-2.3-3.34.73-8.08-4.73-2.88-3.32-2.25-8.12.58-11.19.29.02.61-.05.9-.08-.71,1.71-.56,3.59.74,4.89Z"/>
              <path class="cls-24" d="M451.59,273.94c-.78,1.91-2.87,1.89-4.6,1.6-1.31-1.3-1.46-3.18-.74-4.89,1.61-.16,3.26-.44,5.09.06.4,1.23.32,2.26.25,3.23Z"/>
              <path class="cls-24" d="M445.34,270.72c-2.83,3.07-3.46,7.87-.58,11.19,4.74,5.46,3.88,2.43,8.08,4.73h-1.31c-4.51.21-10.73-.26-14.18-3.6-1.89-1.83-3.65-4.46-1.49-7.01,1.05-1.24,2.4-2.36,2.12-4.12,2.39-.76,4.86-1.36,7.36-1.18Z"/>
              <path class="cls-11" d="M454.76,270.74c1.68.94,5.78,2.03,5.85,5.76.03,1.99-.69,3.4-2.43,4.7-3.5,2.6-8.65,1.66-10.94-2.42-.58-1.03-.07-2.43-.26-3.24,1.73.28,3.82.31,4.6-1.6.28.02.62.05.84-.09.8-.51,0-2.65.78-3.24.38-.28,1.11.2,1.55.13Z"/>
              <path class="cls-25" d="M495.3,274.02c-.61,3.85-3.71,8.41-1.9,11.85.98,1.85,4.1,2.77,6.46,2.58.2,1.08,1.42,1.73,2.42,1.52-.12,1.54,1.15,3.03,2.85,2.98l7.83-.23c2.26-.07,4.71.39,5.93,2.16-2.71,1.68-6.53.75-9.91.34-5.6-.68-12.45-1.42-15.56-7.32-2.05-3.88-4.01-13.97.29-14.99.56-.13,1.16.54,1.59,1.09Z"/>
              <path class="cls-27" d="M522.78,294.37c-1.08-.04-2.72,1-3.89.52-1.22-1.77-3.67-2.23-5.93-2.16l-7.83.23c-1.7.05-2.97-1.44-2.85-2.98,5.23-1.07,10.75-.86,16.32-.25,2.51.27,3.88,2.4,4.19,4.65Z"/>
              <path class="cls-21" d="M437.35,283.04c3.45,3.34,9.67,3.81,14.18,3.6,6.52,1.8,13.52,1.17,20.25.64-.33,1.42-1.95,1.85-2.54,2.86-1.08.13-2.27-.71-3.58-.72-8.9-.06-17.39-1.55-25.95-2.17-.88-1.5-2.76-2.46-3.87-3.83.63-.54,1.15-.22,1.51-.39Z"/>
              <path class="cls-11" d="M522.74,266.39c-1.05-.18-2.16-.22-3.22-.19-4.82-3-15.67-4.18-20.19,1.27-.53-.02-1.58-.19-2.03.1,4.98-7.94,19.72-6.3,25.43-1.18Z"/>
              <path class="cls-25" d="M519.52,266.19l-11.75.37c-2.98.09-5.72,1-8.43.9,4.52-5.45,15.36-4.27,20.19-1.27Z"/>
              <path class="cls-11" d="M456.73,262.82c4.06,1.37,8.13,2.32,11.19,5.63-.81-.22-2.42-.5-3.25-.69-5.48-3.36-12.47-3.49-18.37-.91-1.17-.26-2.49.44-3.68.26.49-.2.38-.43,0-.69.18-.15.31-.43.43-.64-.06.56,9.88-2.57,9.8-2.91,1.18.55,2.75-.45,3.88-.06Z"/>
              <path class="cls-28" d="M460.78,295.17c.13.46.29.9.47,1.33-1.3,1.52-19.92,2.06-18.22-.72,2.42.15,4.86-.08,7.18-.06,3.44.03,7.11.33,10.57-.56Z"/>
              <path class="cls-25" d="M464.67,267.76c-2.26-.03-17.63-.74-18.37-.91,5.9-2.58,12.88-2.45,18.37.91Z"/>
              <path class="cls-24" d="M505.09,270.34c.6.02,1.29.52,1.89.41.16,1.43.15,3.09-1.02,3.79s-2.35.82-3.51.88c-1.39-.98-2.44-2.38-2.06-4.21,1.68-.83,3.26-.9,4.71-.87Z"/>
              <path class="cls-21" d="M439.71,267.75c-.24-.49.49-.5.77-.53.24.49-.48.52-.77.53Z"/>
              <path class="cls-21" d="M442.62,267.12c-.3-.04-.62-.07-.92-.04.27-.27.63-.4.91-.65.38.26.49.49,0,.69Z"/>
              <path class="cls-8" d="M502.48,322.28c.97,1.1-8.2.79-9.66,3.07l5.98-.02c-3.77,4.02-8.95,4.42-14.01,4.69l-3.21.17c-5.27.27-10.65-.74-15.77-3.91,3.34-1.12,8.92,1.68,12.59-.14l-9.88-.87c-2.41-.21-4.64-.25-6.5-1.46,1.95-1.1,9.71-.16,15.37-.39l12.7-.53c4.26-.18,8.43-.63,12.4-.59Z"/>
              <path class="cls-14" d="M484.79,330.01c-.81,1.3,3.39.6,3.83,1.83.6,1.69-3.69,1.47-3.16,2.99-1.1-.17-2.27.34-3.96-.01.13-1.46-2.63-1.21-3.1-1.82-1.46-1.89,3.6-.77,3.19-2.81l3.21-.17Z"/>
              <path class="cls-13" d="M481.5,334.81c1.69.35,2.86-.16,3.96.01,1.09.17,2.43-.39,3.55.83-4.02,1.52-7.85.69-11.42-.3,1.53-.85,2.75-.22,3.9-.55Z"/>
              <ellipse class="cls-8" cx="499.54" cy="324.81" rx=".33" ry=".35"/>
              <path class="cls-27" d="M488.69,302.46c.4,4.79-7.98,3.17-9.74,2.31-.83-.41-1.19-1.05-1.22-1.68-.2-3.23,10.62-4.77,10.97-.63Z"/>
              <path class="cls-1" d="M436.01,294.89c-.43,0-1.26.33-1.34-.26l-.14-1.03c.46-.08.91.07,1.33.4.33.26.55.48.16.89Z"/>
              <path class="cls-28" d="M441.18,295.67c.18.6-.45.86-.91.63-.22-.11-.38-.53-.57-.69-.24-.5.16-.41.44-.45.51-.09.74.49,1.03.51Z"/>
              <path class="cls-5" d="M527.23,254.56c-4.2-.22-8.41-1.45-12.98-1.39-6.92.09-12.39,1.66-18.4,2.11.03-1.57-1.08-3.8.08-5.12.57-.04,1.19-.55,1.78-.51.77.05.55,1.1,1.14,1.96.62-2.28,3.13-2.26,5.3-2.36l6.11-.28,15.11,3.92c.69.18,1.52-.13,1.79.46.17.39.08.88.06,1.22Z"/>
              <path class="cls-10" d="M504.45,246.07c2.05.31,4.15.95,6.34.67-.14.57.57.58,1.12.65.23.03.7-.04.44-.53,3.31-.32,16.15,4.38,15.78,7.26-.08.63-.41.47-.89.44.02-.34.11-.83-.06-1.22-.27-.59-1.09-.28-1.79-.46l-15.11-3.92-6.11.28c-2.17.1-4.68.08-5.3,2.36-.6-.86-.38-1.91-1.14-1.96-.59-.03-1.21.47-1.78.51-1.93-4.23,8.28-4.13,8.52-4.09Z"/>
              <path class="cls-13" d="M512.34,246.86c.26.49-.2.56-.44.53-.55-.07-1.25-.08-1.12-.65.19-.02.38-.41.66-.48.38-.1.68.34.9.6Z"/>
              <ellipse class="cls-10" cx="528.93" cy="254.78" rx=".33" ry=".35"/>
              <path class="cls-10" d="M463.24,246.06l8.33.15c.66,2.19.18,4.49-1.64,5.3-.05-.39-.02-2.08-.79-1.95l-8.06,1.32c-.16-.55.02-1.28-.02-1.6-.09-.88-1.33.37-1.66.15-2.42-1.62-4.69.16-6.63.32-2.51.2-4.24-.02-6.89,1.48l-5.48,3.1c-1.22.69-2.31,1.29-2.07,2.82-1.05.48-2.14.83-3.14,1.42-.23-.29-1.17.03-1.26-.56-.07-.45-.06-1.25.52-1.69,10.03-7.57,16.16-10.5,28.79-10.27Z"/>
              <path class="cls-5" d="M469.93,251.51l-.16,1.57c-1.42,1.41-3.64,1.8-5.87,1.39-8.95-1.63-17.52-.97-25.57,2.68-.24-1.53.85-2.13,2.07-2.82l5.48-3.1c2.65-1.5,4.39-1.28,6.89-1.48,1.93-.16,4.21-1.94,6.63-.32.33.22,1.57-1.03,1.66-.15.03.32-.14,1.04.02,1.6l8.06-1.32c.77-.13.73,1.56.79,1.95Z"/>
              <path class="cls-21" d="M452.84,262.88c.07.34-9.87,3.47-9.8,2.91,1.75-3.08,10.7-4.43,9.8-2.91Z"/>
              <path class="cls-11" d="M502.45,275.43c1.16-.06,2.38-.2,3.51-.88s1.18-2.36,1.02-3.79c2.26-.42,4.75-.21,6.82,1.76,2.03,1.92,2.09,6.06-.05,7.94-2.88,2.55-6.94,2.73-9.76.36-1.62-1.36-1.59-3.64-1.54-5.39Z"/>
            </g>
          </g>
        </g>
      </g>
    </g>
  </g>
</svg>